<?xml version="1.0" encoding="utf-8"?>
<!-- Generator: Adobe Illustrator 25.1.0, SVG Export Plug-In . SVG Version: 6.00 Build 0)  -->
<svg version="1.1" xmlns="http://www.w3.org/2000/svg" xmlns:xlink="http://www.w3.org/1999/xlink" x="0px" y="0px"
	 viewBox="0 0 500 500" style="enable-background:new 0 0 500 500;" xml:space="preserve">
<style type="text/css">
	.st0{fill:#EBEBEB;}
	.st1{fill:#E0E0E0;}
	.st2{display:none;}
	.st3{display:inline;fill:#EBEBEB;}
	.st4{fill:#FAFAFA;}
	.st5{fill:#263238;}
	.st6{fill:#E8505B;}
	.st7{fill:#FFFFFF;}
	.st8{fill:none;stroke:#E8505B;stroke-miterlimit:10;}
	.st9{opacity:0.3;}
	.st10{fill:#FFBE9D;}
	.st11{fill:#EB996E;}
	.st12{fill:#455A64;}
	.st13{opacity:0.2;}
</style>
<g id="Background_Complete">
	<g>
		<g>
			<g>
				<path class="st0" d="M462.4,249.29c0,0,10.13,0.58,6.29,22.97c-3.84,22.39-7.69,34.08-7.69,34.08s-0.35,5.03,3.64,4.55
					c3.99-0.48,11.89-4.4,15.01-0.3c3.24,4.25,1.17,9.85-4.66,16.02c-5.82,6.16-18.08,20.14-19.18,21.4
					c-1.08,1.24-1.78,3.75,0.99,3.86c2.77,0.11,22.08-3.76,23.37,5.51c1.29,9.27-17.75,23.78-19.8,25.4
					c-2.05,1.63-2.3,2.79-1.71,4.01c0.59,1.22,6.96-0.69,12.49-1.57c5.54-0.88,12.11-0.92,12.41,4.49
					c0.3,5.41-9.14,19.91-39.09,32.56l-14.26,4.95l-11.63-9.73c-23.62-22.33-27.38-39.22-25.21-44.19
					c2.17-4.97,8.31-2.62,13.19,0.14s10.17,6.78,11.15,5.85c0.98-0.94,1.15-2.11-0.2-4.35c-1.35-2.24-14.11-22.5-9.65-30.73
					c4.45-8.23,21.18,2.16,23.82,3.02c2.64,0.87,2.86-1.72,2.28-3.27c-0.59-1.57-7.18-18.95-10.48-26.77
					c-3.29-7.81-3.27-13.79,1.25-16.63c4.36-2.74,10.39,3.69,13.96,5.54c3.57,1.85,5-2.99,5-2.99s0.49-12.3,4.73-34.62
					c4.24-22.32,14.16-19.19,14.16-19.19"/>
			</g>
		</g>
		<g>
			<g>
				<g>
					<path class="st1" d="M430.53,430.86c3.05-16.4,7.99-45.65,12.36-70.73c4.37-25.08,8.34-47.78,11.31-64.2
						c1.49-8.19,2.7-14.83,3.54-19.44c0.41-2.28,0.74-4.06,0.96-5.29c0.1-0.59,0.18-1.05,0.24-1.38c0.05-0.31,0.07-0.47,0.07-0.47
						s-0.05,0.16-0.11,0.46c-0.07,0.33-0.16,0.78-0.28,1.37c-0.24,1.22-0.59,3-1.04,5.27c-0.9,4.58-2.16,11.21-3.68,19.41
						c-3.05,16.4-7.08,39.1-11.45,64.17c-4.37,25.09-9.25,54.34-12.22,70.75"/>
				</g>
			</g>
		</g>
		<g>
			<g>
				<g>
					<path class="st1" d="M468.83,316.52c-0.02-0.03-0.35,0.19-0.92,0.59c-0.57,0.4-1.39,1.01-2.38,1.77
						c-1.99,1.53-4.69,3.7-7.62,6.16c-2.88,2.43-5.49,4.63-7.48,6.31c-0.9,0.75-1.67,1.39-2.28,1.9c-0.54,0.45-0.83,0.71-0.81,0.73
						c0.02,0.03,0.35-0.18,0.92-0.59c0.57-0.41,1.39-1.01,2.38-1.79c1.98-1.55,4.64-3.76,7.58-6.21c2.9-2.41,5.52-4.59,7.53-6.26
						c0.91-0.75,1.67-1.38,2.29-1.89C468.56,316.81,468.85,316.55,468.83,316.52z"/>
				</g>
			</g>
		</g>
		<g>
			<g>
				<g>
					<path class="st1" d="M446.06,333.37c0.1-0.08-4.14-5.84-9.47-12.86c-5.34-7.02-9.75-12.65-9.85-12.58
						c-0.1,0.08,4.14,5.83,9.48,12.86C441.55,327.82,445.96,333.45,446.06,333.37z"/>
				</g>
			</g>
		</g>
		<g>
			<g>
				<g>
					<path class="st1" d="M441.09,372.19c0.02-0.03-0.29-0.28-0.86-0.71c-0.65-0.48-1.47-1.09-2.43-1.8
						c-2.05-1.53-4.88-3.64-7.91-6.1c-3.04-2.45-5.71-4.75-7.63-6.44c-0.91-0.79-1.67-1.46-2.28-2c-0.54-0.47-0.85-0.72-0.87-0.69
						c-0.02,0.02,0.24,0.32,0.75,0.83c0.5,0.51,1.24,1.23,2.18,2.11c1.87,1.75,4.51,4.11,7.56,6.56c3.04,2.46,5.91,4.54,8.01,6
						c1.06,0.73,1.92,1.3,2.52,1.68C440.73,372.02,441.07,372.22,441.09,372.19z"/>
				</g>
			</g>
		</g>
		<g>
			<g>
				<g>
					<path class="st1" d="M465.04,361.48c-0.01-0.03-0.36,0.09-0.98,0.32c-0.71,0.28-1.58,0.63-2.6,1.04
						c-2.19,0.9-5.2,2.17-8.51,3.6c-3.31,1.43-6.3,2.75-8.45,3.73c-1,0.46-1.85,0.86-2.54,1.18c-0.6,0.29-0.92,0.46-0.91,0.49
						c0.01,0.03,0.36-0.09,0.98-0.32c0.71-0.28,1.58-0.63,2.6-1.04c2.19-0.9,5.2-2.17,8.51-3.6c3.31-1.43,6.3-2.75,8.45-3.73
						c1-0.46,1.85-0.86,2.54-1.18C464.73,361.69,465.05,361.51,465.04,361.48z"/>
				</g>
			</g>
		</g>
		<g>
			<g>
				<g>
					<path class="st1" d="M465.01,396.31c-0.01-0.03-0.46,0.12-1.25,0.43c-0.87,0.34-1.99,0.79-3.34,1.32
						c-2.81,1.14-6.68,2.74-10.94,4.53c-4.26,1.79-8.11,3.44-10.89,4.65c-1.32,0.59-2.42,1.08-3.28,1.46
						c-0.77,0.35-1.19,0.56-1.18,0.59c0.01,0.03,0.46-0.12,1.25-0.43c0.87-0.34,1.99-0.79,3.34-1.32c2.81-1.14,6.68-2.74,10.94-4.53
						c4.26-1.79,8.11-3.44,10.89-4.65c1.32-0.59,2.42-1.08,3.28-1.46C464.6,396.55,465.02,396.34,465.01,396.31z"/>
				</g>
			</g>
		</g>
		<g>
			<g>
				<g>
					<path class="st1" d="M434.79,408.78c0.02-0.03-0.36-0.35-1.07-0.92c-0.77-0.62-1.79-1.43-3-2.4c-2.53-2.03-6.02-4.84-9.79-8.05
						c-3.77-3.21-7.1-6.2-9.5-8.39c-1.15-1.05-2.11-1.92-2.84-2.59c-0.67-0.61-1.06-0.93-1.08-0.91c-0.02,0.02,0.32,0.39,0.95,1.04
						c0.64,0.65,1.57,1.57,2.74,2.7c2.34,2.25,5.65,5.29,9.42,8.5c3.77,3.22,7.3,6,9.89,7.96c1.3,0.98,2.35,1.76,3.1,2.28
						C434.35,408.53,434.77,408.8,434.79,408.78z"/>
				</g>
			</g>
		</g>
	</g>
	<g>
		<g>
			<path class="st0" d="M108.15,109.65c-1.09-5.38,2.31-10.49,8.18-11.67c5.75-1.16,10.74,2.26,11.83,7.64
				c1.09,5.38-2.16,10.59-7.91,11.75C114.37,118.55,109.23,115.03,108.15,109.65z M93.13,30.81l18.51-3.74l8.7,59.16l-12.38,2.5
				L93.13,30.81z"/>
		</g>
		<g>
			<path class="st0" d="M124.58,117.54c-1.2,0.73-2.54,1.25-3.99,1.54c-3.26,0.66-6.51,0.08-9.15-1.64
				c-2.61-1.7-4.39-4.34-5.02-7.44c-1.31-6.47,2.8-12.38,9.56-13.75c6.61-1.33,12.59,2.54,13.9,9.01c0.62,3.09,0.04,6.21-1.65,8.77
				C127.29,115.47,126.05,116.65,124.58,117.54z M113.63,100.87c-2.91,1.76-4.45,4.98-3.76,8.43c0.44,2.17,1.68,4.01,3.49,5.19
				c1.86,1.21,4.18,1.62,6.54,1.14c2.29-0.46,4.2-1.72,5.4-3.54c1.17-1.78,1.58-3.96,1.14-6.14c-0.91-4.51-5.11-7.2-9.76-6.26
				C115.55,99.93,114.52,100.33,113.63,100.87z M121.25,87.73c-0.17,0.1-0.36,0.18-0.56,0.22l-12.38,2.5
				c-0.92,0.18-1.82-0.38-2.05-1.29L91.43,31.25c-0.12-0.47-0.04-0.96,0.21-1.37c0.25-0.41,0.67-0.69,1.14-0.79l18.51-3.74
				c0.47-0.1,0.96,0.01,1.36,0.28c0.39,0.28,0.66,0.71,0.73,1.18l8.7,59.16C122.18,86.69,121.84,87.38,121.25,87.73z M109.24,86.68
				l9.11-1.84l-8.18-55.68l-14.88,3.01L109.24,86.68z"/>
		</g>
	</g>
	<g>
		<g>
			<path class="st0" d="M144.58,102.9c1.13-2.75,4.2-4.02,7.21-2.78c2.94,1.21,4.15,4.26,3.02,7c-1.13,2.75-4.17,4.11-7.11,2.9
				C144.69,108.78,143.45,105.65,144.58,102.9z M161.61,62.89l9.46,3.9l-13.94,29.25l-6.33-2.61L161.61,62.89z"/>
		</g>
		<g>
			<path class="st0" d="M149.59,111.41c-0.76-0.03-1.52-0.2-2.26-0.51c-1.67-0.69-2.95-1.93-3.62-3.5
				c-0.66-1.55-0.67-3.28-0.01-4.86c1.36-3.31,5-4.73,8.45-3.3c3.38,1.4,4.9,4.94,3.54,8.25c-0.65,1.58-1.85,2.81-3.39,3.45
				C151.44,111.29,150.52,111.45,149.59,111.41z M149.69,100.6c-1.84-0.08-3.51,0.9-4.23,2.66c-0.46,1.11-0.46,2.31,0,3.39
				c0.47,1.11,1.39,1.99,2.6,2.49c1.17,0.48,2.41,0.5,3.5,0.04c1.07-0.45,1.91-1.31,2.36-2.42c0.95-2.3-0.13-4.78-2.5-5.76
				C150.84,100.76,150.26,100.63,149.69,100.6z M157.09,96.99c-0.11,0-0.22-0.03-0.32-0.07l-6.33-2.61c-0.47-0.19-0.7-0.72-0.53-1.2
				l10.81-30.54c0.09-0.25,0.27-0.45,0.51-0.55c0.24-0.11,0.51-0.11,0.75-0.01l9.46,3.9c0.24,0.1,0.43,0.29,0.53,0.54
				c0.09,0.24,0.08,0.52-0.03,0.75l-13.94,29.25C157.82,96.81,157.46,97.01,157.09,96.99z M152,92.89l4.66,1.92l13.12-27.53
				l-7.6-3.14L152,92.89z"/>
		</g>
	</g>
</g>
<g id="Background_Simple" class="st2">
	<path class="st3" d="M469.75,105.82c-16.83-31.42-54.64-49.13-90.06-45.09l-10.55,2.72c-30.45,8.36-52.03,39.81-51.43,71.37
		c0.6,31.57,21.75,61.13,50.4,74.4c26.37,12.21,59.57,10.7,82.65-6.95C479.08,180.62,486.58,137.25,469.75,105.82z"/>
</g>
<g id="Screen">
	<g>
		<g>
			<path class="st4" d="M432.46,433.52H47.54v-283.2c0-9.89,8.02-17.92,17.92-17.92h349.08c9.89,0,17.92,8.02,17.92,17.92V433.52z"
				/>
		</g>
		<g>
			<g>
				<path class="st5" d="M377.35,361.7c0,0.14-62.1,0.26-138.69,0.26c-76.62,0-138.7-0.12-138.7-0.26c0-0.14,62.09-0.26,138.7-0.26
					C315.25,361.44,377.35,361.56,377.35,361.7z"/>
			</g>
		</g>
		<g>
			<g>
				<path class="st5" d="M351.87,378.97c0,0.14-47.46,0.26-105.98,0.26c-58.55,0-105.99-0.12-105.99-0.26s47.45-0.26,105.99-0.26
					C304.41,378.7,351.87,378.82,351.87,378.97z"/>
			</g>
		</g>
		<g>
			<rect x="47.54" y="132.4" class="st6" width="384.91" height="116.77"/>
		</g>
		<g>
			<path class="st5" d="M432.96,434.02H47.04V131.9h385.91V434.02z M48.04,433.02h383.91V132.9H48.04V433.02z"/>
		</g>
		<g>
			<path class="st5" d="M206.75,286.5l-8.64,26.41h-6.57l-5.81-17.89l-6,17.89h-6.53l-8.68-26.41h6.34l5.96,18.57l6.23-18.57h5.66
				l6.04,18.72l6.15-18.72H206.75z"/>
			<path class="st5" d="M226.19,301.33v11.58h-5.51v-2.53c-1.09,1.85-3.21,2.83-6.19,2.83c-4.75,0-7.58-2.64-7.58-6.15
				c0-3.58,2.53-6.08,8.72-6.08h4.68c0-2.53-1.51-4-4.68-4c-2.15,0-4.38,0.72-5.85,1.89l-2.11-4.11c2.23-1.59,5.51-2.45,8.75-2.45
				C222.6,292.31,226.19,295.18,226.19,301.33z M220.3,306.5v-2.08h-4.04c-2.75,0-3.62,1.02-3.62,2.38c0,1.47,1.25,2.45,3.32,2.45
				C217.92,309.25,219.62,308.35,220.3,306.5z"/>
			<path class="st5" d="M244.11,292.31v5.43c-0.49-0.04-0.87-0.08-1.32-0.08c-3.25,0-5.4,1.77-5.4,5.66v9.58h-5.89v-20.3h5.62v2.68
				C238.57,293.33,240.98,292.31,244.11,292.31z"/>
			<path class="st5" d="M268.38,301.29v11.62h-5.89V302.2c0-3.28-1.51-4.79-4.11-4.79c-2.83,0-4.87,1.74-4.87,5.47v10.04h-5.89
				v-20.3h5.62v2.38c1.59-1.74,3.96-2.68,6.72-2.68C264.76,292.31,268.38,295.1,268.38,301.29z"/>
			<path class="st5" d="M272.98,286.5c0-1.85,1.47-3.28,3.66-3.28c2.19,0,3.66,1.36,3.66,3.17c0,1.96-1.47,3.4-3.66,3.4
				C274.46,289.78,272.98,288.35,272.98,286.5z M273.7,292.61h5.89v20.3h-5.89V292.61z"/>
			<path class="st5" d="M305.82,301.29v11.62h-5.89V302.2c0-3.28-1.51-4.79-4.11-4.79c-2.83,0-4.87,1.74-4.87,5.47v10.04h-5.89
				v-20.3h5.62v2.38c1.58-1.74,3.96-2.68,6.72-2.68C302.19,292.31,305.82,295.1,305.82,301.29z"/>
			<path class="st5" d="M332.31,292.61v16.91c0,7.55-4.08,11.02-11.4,11.02c-3.85,0-7.58-0.94-9.96-2.79l2.34-4.23
				c1.74,1.4,4.57,2.3,7.17,2.3c4.15,0,5.96-1.89,5.96-5.55v-0.87c-1.55,1.7-3.77,2.53-6.42,2.53c-5.62,0-10.15-3.89-10.15-9.81
				c0-5.92,4.53-9.81,10.15-9.81c2.83,0,5.17,0.94,6.72,2.91v-2.6H332.31z M326.5,302.12c0-2.98-2.23-4.98-5.32-4.98
				c-3.09,0-5.36,2-5.36,4.98c0,2.98,2.26,4.98,5.36,4.98C324.27,307.1,326.5,305.1,326.5,302.12z"/>
			<path class="st5" d="M336.92,309.78c0-1.92,1.51-3.36,3.62-3.36s3.62,1.43,3.62,3.36c0,1.89-1.51,3.43-3.62,3.43
				S336.92,311.67,336.92,309.78z M337.03,286.5h7.02l-1.17,17.24h-4.68L337.03,286.5z"/>
		</g>
		<g>
			<path class="st5" d="M199.91,336.96h-5.71l-1.23,2.74h-1.13l4.69-10.25h1.07l4.69,10.25h-1.14L199.91,336.96z M199.51,336.08
				l-2.46-5.51l-2.46,5.51H199.51z"/>
			<path class="st5" d="M207.75,339.23c-0.41,0.37-1.03,0.54-1.63,0.54c-1.45,0-2.26-0.82-2.26-2.24v-4.66h-1.38v-0.88h1.38v-1.68
				h1.04v1.68h2.34v0.88h-2.34v4.6c0,0.91,0.47,1.41,1.33,1.41c0.42,0,0.85-0.13,1.14-0.4L207.75,339.23z"/>
			<path class="st5" d="M213.49,339.23c-0.41,0.37-1.03,0.54-1.63,0.54c-1.45,0-2.26-0.82-2.26-2.24v-4.66h-1.38v-0.88h1.38v-1.68
				h1.04v1.68H213v0.88h-2.34v4.6c0,0.91,0.47,1.41,1.33,1.41c0.42,0,0.85-0.13,1.14-0.4L213.49,339.23z"/>
			<path class="st5" d="M221.82,336.17h-6.45c0.12,1.61,1.35,2.68,3.03,2.68c0.94,0,1.77-0.34,2.36-1.01l0.59,0.67
				c-0.69,0.82-1.76,1.26-2.97,1.26c-2.4,0-4.04-1.64-4.04-3.93c0-2.29,1.6-3.91,3.76-3.91c2.17,0,3.74,1.6,3.74,3.91
				C221.83,335.93,221.82,336.05,221.82,336.17z M215.37,335.39h5.46c-0.13-1.51-1.23-2.56-2.74-2.56
				C216.6,332.83,215.5,333.88,215.37,335.39z"/>
			<path class="st5" d="M231.05,335.23v4.47h-1.04v-4.37c0-1.63-0.85-2.46-2.31-2.46c-1.66,0-2.7,1.03-2.7,2.78v4.04h-1.04v-7.71h1
				v1.42c0.56-0.94,1.6-1.48,2.93-1.48C229.76,331.93,231.05,333.02,231.05,335.23z"/>
			<path class="st5" d="M237.94,339.23c-0.41,0.37-1.03,0.54-1.63,0.54c-1.45,0-2.26-0.82-2.26-2.24v-4.66h-1.38v-0.88h1.38v-1.68
				h1.04v1.68h2.34v0.88h-2.34v4.6c0,0.91,0.47,1.41,1.33,1.41c0.42,0,0.85-0.13,1.14-0.4L237.94,339.23z"/>
			<path class="st5" d="M239.59,329.56c0-0.4,0.34-0.73,0.76-0.73c0.42,0,0.76,0.32,0.76,0.72c0,0.42-0.32,0.76-0.76,0.76
				C239.93,330.31,239.59,329.97,239.59,329.56z M239.83,331.99h1.04v7.71h-1.04V331.99z"/>
			<path class="st5" d="M242.99,335.84c0-2.29,1.67-3.91,3.93-3.91s3.91,1.63,3.91,3.91c0,2.29-1.66,3.93-3.91,3.93
				S242.99,338.13,242.99,335.84z M249.77,335.84c0-1.8-1.22-3-2.86-3s-2.87,1.2-2.87,3c0,1.8,1.23,3,2.87,3
				S249.77,337.64,249.77,335.84z"/>
			<path class="st5" d="M260.05,335.23v4.47h-1.04v-4.37c0-1.63-0.85-2.46-2.31-2.46c-1.66,0-2.7,1.03-2.7,2.78v4.04h-1.04v-7.71h1
				v1.42c0.56-0.94,1.6-1.48,2.93-1.48C258.76,331.93,260.05,333.02,260.05,335.23z"/>
			<path class="st5" d="M274.52,335.84c0,2.34-1.64,3.93-3.84,3.93c-1.23,0-2.29-0.53-2.93-1.52v4.29h-1.04v-10.55h1v1.52
				c0.63-1.03,1.7-1.58,2.97-1.58C272.88,331.93,274.52,333.51,274.52,335.84z M273.48,335.84c0-1.79-1.25-3-2.87-3
				c-1.64,0-2.87,1.22-2.87,3c0,1.8,1.23,3,2.87,3C272.24,338.85,273.48,337.64,273.48,335.84z"/>
			<path class="st5" d="M276.65,328.83h1.04v10.87h-1.04V328.83z"/>
			<path class="st5" d="M287.3,336.17h-6.45c0.12,1.61,1.35,2.68,3.03,2.68c0.94,0,1.77-0.34,2.36-1.01l0.59,0.67
				c-0.69,0.82-1.76,1.26-2.97,1.26c-2.4,0-4.04-1.64-4.04-3.93c0-2.29,1.6-3.91,3.76-3.91c2.17,0,3.74,1.6,3.74,3.91
				C287.32,335.93,287.3,336.05,287.3,336.17z M280.86,335.39h5.46c-0.13-1.51-1.23-2.56-2.74-2.56
				C282.09,332.83,280.99,333.88,280.86,335.39z"/>
			<path class="st5" d="M295.04,334.92v4.78h-1v-1.2c-0.47,0.79-1.38,1.27-2.65,1.27c-1.74,0-2.81-0.91-2.81-2.24
				c0-1.19,0.76-2.18,2.97-2.18H294v-0.47c0-1.32-0.75-2.04-2.18-2.04c-1,0-1.93,0.35-2.56,0.91l-0.47-0.78
				c0.78-0.66,1.92-1.04,3.13-1.04C293.91,331.93,295.04,332.93,295.04,334.92z M294,337.38v-1.26h-2.42
				c-1.49,0-1.98,0.59-1.98,1.38c0,0.89,0.72,1.45,1.95,1.45C292.72,338.95,293.59,338.39,294,337.38z"/>
			<path class="st5" d="M296.8,338.82l0.47-0.82c0.62,0.48,1.66,0.86,2.74,0.86c1.46,0,2.07-0.5,2.07-1.26c0-2.01-5-0.42-5-3.47
				c0-1.26,1.08-2.2,3.05-2.2c1,0,2.08,0.28,2.72,0.72l-0.45,0.84c-0.67-0.47-1.48-0.66-2.27-0.66c-1.39,0-2.01,0.54-2.01,1.27
				c0,2.08,5,0.51,5,3.47c0,1.33-1.17,2.2-3.18,2.2C298.66,339.77,297.43,339.36,296.8,338.82z"/>
			<path class="st5" d="M311.74,336.17h-6.45c0.12,1.61,1.35,2.68,3.03,2.68c0.94,0,1.77-0.34,2.36-1.01l0.59,0.67
				c-0.69,0.82-1.76,1.26-2.97,1.26c-2.4,0-4.04-1.64-4.04-3.93c0-2.29,1.6-3.91,3.76-3.91s3.74,1.6,3.74,3.91
				C311.76,335.93,311.74,336.05,311.74,336.17z M305.3,335.39h5.46c-0.13-1.51-1.23-2.56-2.74-2.56
				C306.53,332.83,305.43,333.88,305.3,335.39z"/>
		</g>
		<g>
			<g>
				<path class="st7" d="M215.49,225.68c-3.62,0-6.86-1.87-8.68-5c-1.83-3.14-1.84-6.9-0.03-10.05l28.79-50.23
					c1.81-3.15,5.05-5.04,8.68-5.05c0.01,0,0.02,0,0.03,0c3.62,0,6.86,1.87,8.68,5l29.1,50.05c1.83,3.14,1.84,6.9,0.03,10.05
					c-1.81,3.15-5.05,5.04-8.68,5.05l-57.9,0.18C215.51,225.68,215.5,225.68,215.49,225.68z M244.29,158.36c-0.01,0-0.02,0-0.02,0
					c-2.55,0.01-4.82,1.33-6.09,3.54l-28.79,50.23c-1.27,2.21-1.26,4.84,0.02,7.05c1.28,2.2,3.55,3.5,6.09,3.5c0.01,0,0.01,0,0.02,0
					l57.89-0.18c2.55-0.01,4.83-1.33,6.09-3.54c1.27-2.21,1.26-4.84-0.02-7.05l-29.1-50.05
					C249.1,159.66,246.82,158.36,244.29,158.36z"/>
			</g>
			<g>
				<path class="st7" d="M240.28,209.42c-0.01-2.06,1.6-3.7,3.86-3.72c2.21-0.02,3.8,1.6,3.81,3.66c0.01,2.06-1.56,3.75-3.76,3.77
					C241.93,213.15,240.29,211.48,240.28,209.42z M240.4,179.26l7.09-0.05l-1.04,22.45l-4.75,0.03L240.4,179.26z"/>
			</g>
			<g>
				<g>
					<path class="st7" d="M208.11,237.02c-0.01,0.03-0.48-0.11-1.3-0.46c-0.82-0.34-1.97-0.92-3.3-1.81
						c-2.64-1.74-5.93-4.94-7.89-9.44c-1.96-4.5-2.07-9.09-1.55-12.21c0.25-1.57,0.61-2.81,0.91-3.65c0.3-0.83,0.52-1.27,0.55-1.26
						c0.11,0.03-0.7,1.85-1.1,4.96c-0.42,3.08-0.25,7.56,1.67,11.95c1.92,4.39,5.08,7.55,7.63,9.34
						C206.28,236.27,208.16,236.92,208.11,237.02z"/>
				</g>
			</g>
			<g>
				<g>
					<path class="st7" d="M195.76,235.78c-0.02,0.03-0.26-0.15-0.67-0.51c-0.41-0.35-0.97-0.9-1.6-1.63
						c-1.27-1.45-2.78-3.71-3.83-6.49c-1.04-2.78-1.39-5.48-1.39-7.41c0-0.97,0.05-1.75,0.13-2.28c0.07-0.54,0.13-0.83,0.17-0.82
						c0.09,0.01-0.03,1.19,0.07,3.1c0.09,1.9,0.5,4.52,1.51,7.24c1.03,2.71,2.45,4.95,3.63,6.44
						C194.95,234.9,195.82,235.71,195.76,235.78z"/>
				</g>
			</g>
			<g>
				<g>
					<path class="st7" d="M296.77,200.95c0.03-0.01,0.17,0.38,0.38,1.09c0.11,0.36,0.23,0.8,0.33,1.32c0.1,0.52,0.24,1.11,0.3,1.77
						c0.19,1.32,0.26,2.92,0.19,4.68c-0.11,1.76-0.38,3.7-0.9,5.67c-0.55,1.97-1.28,3.78-2.08,5.36c-0.83,1.56-1.69,2.91-2.52,3.95
						c-0.39,0.54-0.81,0.98-1.16,1.38c-0.34,0.4-0.67,0.72-0.95,0.97c-0.54,0.51-0.85,0.78-0.88,0.75c-0.07-0.07,1.14-1.2,2.69-3.33
						c0.78-1.06,1.6-2.4,2.39-3.95c0.76-1.56,1.47-3.34,2-5.27c0.51-1.94,0.79-3.83,0.93-5.56c0.1-1.73,0.07-3.3-0.07-4.61
						C297.15,202.56,296.67,200.98,296.77,200.95z"/>
				</g>
			</g>
			<g>
				<g>
					<path class="st7" d="M303.32,211.96c0.06,0,0.19,1,0.14,2.63c-0.04,1.63-0.31,3.88-0.97,6.29c-0.67,2.4-1.61,4.47-2.42,5.88
						c-0.8,1.42-1.43,2.21-1.48,2.18c-0.07-0.04,0.44-0.91,1.15-2.35c0.71-1.44,1.58-3.49,2.24-5.85c0.65-2.36,0.97-4.57,1.11-6.17
						C303.23,212.96,303.24,211.96,303.32,211.96z"/>
				</g>
			</g>
		</g>
	</g>
</g>
<g id="Character">
	<g>
		<g>
			<g>
				<path class="st6" d="M47.77,285.18c0,0,21.72-5.77,23.04-4.73c6.66,5.31,41.88,1.15,41.88,1.15l33.61,9.49
					c0,0,5.45,40.26,9.15,56.04c2.46,10.47-6.78,26.21-6.78,26.21l-11.86,42.97l10.25,16.94l-99.29-0.04v-33.73V285.18z"/>
			</g>
			<g>
				<g>
					<path class="st4" d="M134.22,331.48c0,0-0.3,0.04-0.87,0.09c-0.57,0.05-1.41,0.1-2.49,0.23c-2.16,0.23-5.28,0.67-9.09,1.46
						c-3.81,0.77-8.31,1.91-13.31,3.12c-2.5,0.61-5.13,1.23-7.89,1.77c-1.38,0.26-2.77,0.56-4.23,0.7
						c-0.36,0.04-0.72,0.09-1.09,0.12l-1.1,0.03c-0.74,0.01-1.48,0.06-2.22,0.01c-5.97-0.2-11.55-1.3-16.6-2.32
						c-5.04-1.04-9.56-2.11-13.36-2.94c-3.8-0.83-6.89-1.47-9.04-1.79c-1.07-0.2-1.91-0.27-2.48-0.36
						c-0.57-0.08-0.86-0.13-0.86-0.13s1.2,0.06,3.36,0.37c2.16,0.29,5.26,0.89,9.07,1.69c3.81,0.8,8.33,1.85,13.37,2.87
						c5.04,1,10.62,2.09,16.55,2.29c0.74,0.05,1.47,0.01,2.2-0.01l1.09-0.03c0.36-0.03,0.72-0.08,1.07-0.12
						c1.43-0.13,2.83-0.43,4.2-0.69c2.74-0.54,5.38-1.15,7.88-1.75c5-1.2,9.51-2.31,13.33-3.06
						C129.36,331.5,134.22,331.48,134.22,331.48z"/>
				</g>
			</g>
			<g>
				<g>
					<path class="st4" d="M138.49,408.47c0,0-0.27-0.17-0.78-0.53c-0.49-0.37-1.25-0.87-2.23-1.49c-1.97-1.24-4.97-2.83-8.9-4.21
						c-3.94-1.34-8.83-2.43-14.34-2.57c-5.5-0.1-11.54,0.65-17.85,1.46c-6.31,0.82-12.35,1.6-17.88,1.71
						c-5.53,0.13-10.52-0.39-14.59-1.35c-4.07-0.97-7.21-2.31-9.26-3.44c-1.02-0.57-1.8-1.03-2.3-1.39
						c-0.51-0.34-0.77-0.53-0.77-0.53s0.28,0.16,0.81,0.48c0.51,0.34,1.3,0.78,2.33,1.34c2.06,1.09,5.19,2.39,9.25,3.33
						c4.06,0.93,9.03,1.42,14.54,1.28c5.51-0.12,11.53-0.91,17.85-1.73c6.31-0.81,12.36-1.55,17.9-1.44
						c5.54,0.15,10.46,1.27,14.4,2.65c3.94,1.41,6.93,3.04,8.89,4.32c0.98,0.64,1.72,1.16,2.2,1.54
						C138.24,408.26,138.49,408.47,138.49,408.47z"/>
				</g>
			</g>
			<g>
				<g>
					<path class="st4" d="M139.89,422.66c0,0-0.31,0.1-0.91,0.26c-0.6,0.16-1.48,0.39-2.6,0.75c-2.24,0.69-5.42,1.89-9.26,3.58
						c-3.85,1.65-8.41,3.81-13.86,5.04c-2.72,0.61-5.64,0.97-8.67,0.95c-3.03-0.02-6.16-0.42-9.31-1.03
						c-6.3-1.28-12.1-3.26-17.43-4.79c-5.32-1.55-10.23-2.6-14.4-2.95c-4.18-0.38-7.58-0.07-9.89,0.35
						c-1.15,0.24-2.04,0.43-2.63,0.61c-0.6,0.16-0.91,0.23-0.91,0.23s0.31-0.11,0.9-0.29c0.59-0.2,1.47-0.41,2.62-0.67
						c2.3-0.46,5.73-0.8,9.93-0.45c4.2,0.32,9.13,1.35,14.46,2.89c5.34,1.52,11.13,3.49,17.41,4.76c3.14,0.61,6.24,1.01,9.25,1.03
						c3.01,0.02,5.91-0.33,8.61-0.92c5.41-1.21,9.97-3.34,13.84-4.96c3.85-1.67,7.06-2.84,9.31-3.49c1.12-0.34,2.01-0.56,2.62-0.69
						C139.57,422.72,139.89,422.66,139.89,422.66z"/>
				</g>
			</g>
			<g>
				<path class="st8" d="M134.03,328.32"/>
			</g>
			<g class="st9">
				<g>
					<path d="M139.71,405.8c0.49-15.14,3.03-32.89,0.8-47.02c3.07,6.53,6.35,21.12,6.35,21.12c-0.26,1.94-1.46,5.41-2.01,7.28
						C143.16,392.89,141.4,400.08,139.71,405.8"/>
				</g>
			</g>
			<g>
				<g>
					<path class="st4" d="M146.01,374.25c0,0-0.3-0.21-0.86-0.63c-0.54-0.45-1.41-1.01-2.54-1.71c-2.28-1.34-5.87-2.91-10.57-3.68
						c-4.68-0.81-10.42-0.8-16.62,0.21c-6.21,1-12.87,2.95-19.94,4.68c-7.05,1.67-14,2.99-20.32,2.25c-6.29-0.69-11.76-2.58-16-4.75
						c-2.15-1.05-3.93-2.3-5.46-3.41c-0.73-0.61-1.42-1.17-2.01-1.72c-0.57-0.58-1.11-1.1-1.55-1.6c-0.41-0.52-0.78-0.98-1.11-1.39
						c-0.32-0.4-0.52-0.8-0.71-1.09c-0.37-0.6-0.55-0.92-0.55-0.92s0.22,0.3,0.6,0.88c0.2,0.29,0.41,0.67,0.73,1.07
						c0.33,0.4,0.71,0.85,1.13,1.36c0.45,0.49,0.99,0.99,1.56,1.57c0.6,0.54,1.29,1.09,2.02,1.69c1.53,1.1,3.31,2.32,5.45,3.35
						c4.23,2.14,9.68,3.99,15.93,4.66c6.27,0.72,13.18-0.6,20.22-2.27c7.05-1.73,13.72-3.67,19.96-4.66c6.23-1,12-0.98,16.7-0.15
						c4.72,0.8,8.32,2.41,10.59,3.8c1.12,0.73,1.98,1.31,2.51,1.77C145.73,374.01,146.01,374.25,146.01,374.25z"/>
				</g>
			</g>
		</g>
		<g>
			<g>
				<path class="st5" d="M124.91,408.37c0,0.02-0.19,0.08-0.55,0.17c-0.42,0.1-0.95,0.23-1.6,0.39c-1.39,0.33-3.42,0.78-5.92,1.32
					c-5.01,1.08-11.95,2.48-19.64,3.89c-7.69,1.41-14.68,2.56-19.74,3.32c-2.53,0.38-4.58,0.68-6.01,0.87
					c-0.66,0.08-1.21,0.15-1.64,0.2c-0.38,0.04-0.57,0.05-0.58,0.04c0-0.02,0.19-0.07,0.56-0.14c0.43-0.08,0.96-0.18,1.62-0.3
					c1.48-0.26,3.51-0.6,5.98-1.03c5.05-0.86,12.02-2.07,19.71-3.47c7.69-1.41,14.63-2.75,19.66-3.74c2.46-0.48,4.48-0.87,5.96-1.15
					c0.66-0.12,1.2-0.22,1.62-0.29C124.71,408.38,124.91,408.35,124.91,408.37z"/>
			</g>
		</g>
		<g>
			<g>
				<path class="st5" d="M126.79,372.89c0.02,0,0,0.21-0.05,0.61c-0.06,0.39-0.1,0.98-0.28,1.72c-0.28,1.49-0.89,3.61-2,6.09
					c-1.1,2.48-2.8,5.26-5.09,8.03c-2.29,2.76-5.19,5.48-8.56,7.89c-6.78,4.79-13.8,7.59-18.83,9.52c-2.53,0.95-4.59,1.68-6.02,2.16
					c-0.67,0.22-1.22,0.4-1.65,0.55c-0.38,0.12-0.58,0.17-0.59,0.16c-0.01-0.02,0.18-0.1,0.55-0.26c0.42-0.17,0.96-0.38,1.62-0.64
					c1.47-0.57,3.49-1.36,5.96-2.31c4.98-2.01,11.94-4.86,18.66-9.6c3.33-2.39,6.21-5.06,8.49-7.78c2.28-2.72,3.99-5.44,5.12-7.88
					c1.14-2.43,1.8-4.52,2.13-5.98C126.61,373.71,126.74,372.89,126.79,372.89z"/>
			</g>
		</g>
		<g>
			<g>
				<g>
					<g>
						<path class="st5" d="M80.54,170.02c9.68-9.24,24.66-14.39,36.74-8.63c8.12,3.87,13.46,11.79,20.52,17.37
							c5.14,4.06,11.55,7.29,14.12,13.31c2.26,5.32,0.89,11.37,0.12,17.1c-0.77,5.73-0.58,12.36,3.75,16.19
							c2.27,2.01,5.32,2.87,7.9,4.47c5.2,3.21,8.15,9.21,9.09,15.25c0.94,6.03,0.13,12.19-0.69,18.24l-25.4,3.99l-3.92-7.11
							l-1.8,10.92l-32.31,1.86L80.54,170.02z"/>
					</g>
					<g>
						<g>
							<g>
								<g>
									<g>
										<g>
											<g>
												<g>
													<g>
														<g>
															<g>
																<g>
																	<path class="st10" d="M76.04,180.3l-0.28,7.02l-5.41,105.22c-0.57,12.2,10.77,22.97,23.84,23.48l0,0
																		c13.2,0.51,18.9-9.23,19.68-21.54c0.82-12.92,1.91-26.51,1.91-26.51s16.82-1.76,21.57-23.28
																		c2.37-10.7,2.89-28.45,2.85-42.99c-0.04-13.08-10.95-23.5-24.02-22.91L76.04,180.3z"/>
																</g>
															</g>
														</g>
													</g>
												</g>
											</g>
											<g>
												<g>
													<g>
														<g>
															<g>
																<g>
																	<g>
																		<path class="st5" d="M132.6,214.52c-0.04,1.47-1.32,2.66-2.86,2.65c-1.54-0.01-2.76-1.21-2.72-2.68
																			c0.04-1.47,1.31-2.66,2.85-2.65C131.42,211.85,132.64,213.05,132.6,214.52z"/>
																	</g>
																</g>
															</g>
														</g>
													</g>
												</g>
												<g>
													<g>
														<g>
															<g>
																<g>
																	<g>
																		<g>
																			<path class="st5" d="M135.8,210.69c-0.37,0.34-2.38-1.35-5.38-1.52c-2.99-0.21-5.29,1.19-5.59,0.81
																				c-0.15-0.17,0.24-0.81,1.24-1.45c0.99-0.64,2.63-1.22,4.5-1.1c1.87,0.12,3.4,0.9,4.26,1.66
																				C135.71,209.86,135.98,210.53,135.8,210.69z"/>
																		</g>
																	</g>
																</g>
															</g>
														</g>
													</g>
												</g>
											</g>
											<g>
												<g>
													<g>
														<g>
															<g>
																<g>
																	<g>
																		<path class="st5" d="M103.46,213.58c-0.04,1.47-1.32,2.66-2.86,2.65c-1.54-0.01-2.76-1.21-2.72-2.68
																			c0.04-1.47,1.31-2.66,2.85-2.65C102.27,210.9,103.49,212.1,103.46,213.58z"/>
																	</g>
																</g>
															</g>
														</g>
													</g>
												</g>
												<g>
													<g>
														<g>
															<g>
																<g>
																	<g>
																		<g>
																			<path class="st5" d="M106.29,209.47c-0.37,0.34-2.39-1.35-5.38-1.52c-2.99-0.22-5.29,1.19-5.59,0.81
																				c-0.15-0.17,0.24-0.81,1.24-1.45c0.98-0.64,2.63-1.22,4.5-1.1c1.87,0.12,3.4,0.9,4.26,1.66
																				C106.2,208.64,106.47,209.32,106.29,209.47z"/>
																		</g>
																	</g>
																</g>
															</g>
														</g>
													</g>
												</g>
											</g>
											<g>
												<g>
													<g>
														<g>
															<g>
																<g>
																	<g>
																		<path class="st5" d="M115.84,232.36c0-0.17,1.88-0.38,4.92-0.59c0.77-0.03,1.5-0.14,1.66-0.66
																			c0.21-0.54-0.06-1.39-0.37-2.3c-0.61-1.9-1.25-3.88-1.91-5.97c-2.65-8.49-4.51-15.45-4.17-15.56
																			c0.34-0.1,2.77,6.69,5.41,15.18c0.63,2.09,1.24,4.09,1.82,6c0.24,0.89,0.68,1.9,0.22,3.03
																			c-0.24,0.56-0.83,0.94-1.33,1.04c-0.5,0.12-0.93,0.1-1.31,0.1C117.73,232.63,115.84,232.53,115.84,232.36z"/>
																	</g>
																</g>
															</g>
														</g>
													</g>
												</g>
											</g>
											<g>
												<g>
													<g>
														<g>
															<g>
																<g>
																	<path class="st11" d="M115.78,267.97c0,0-14.67,0.06-28.63-9.51c0,0,6.16,15.35,28.03,14.62L115.78,267.97z"/>
																</g>
															</g>
														</g>
													</g>
												</g>
											</g>
											<g>
												<g>
													<g>
														<g>
															<g>
																<g>
																	<path class="st11" d="M113.32,237.52c-1.56-0.89-3.6-0.86-5.25,0.06c-1.14,0.64-2.11,1.74-2.42,3.03
																		c-0.31,1.29,0.13,2.74,1.19,3.38c1.19,0.73,2.85,0.3,4.01-0.64c1.16-0.94,1.92-2.29,2.63-3.62
																		c0.2-0.37,0.39-0.75,0.44-1.15c0.05-0.41-0.1-0.85-0.44-1.03"/>
																</g>
															</g>
														</g>
													</g>
												</g>
											</g>
										</g>
									</g>
								</g>
								<g>
									<g>
										<g>
											<g>
												<g>
													<g>
														<path class="st5" d="M105.23,200.99c-0.12,0.86-3.13,1.12-6.48,2.28c-3.38,1.1-5.93,2.71-6.55,2.09
															c-0.28-0.3,0.04-1.15,1-2.17c0.94-1.01,2.56-2.13,4.58-2.81c2.02-0.68,3.98-0.76,5.35-0.52
															C104.5,200.09,105.27,200.58,105.23,200.99z"/>
													</g>
												</g>
											</g>
										</g>
									</g>
								</g>
								<g>
									<g>
										<g>
											<g>
												<g>
													<g>
														<path class="st5" d="M137.02,206.13c-0.82,0.45-3-0.99-5.88-1.95c-2.84-1.04-5.47-1.27-5.81-2.13
															c-0.14-0.41,0.45-0.94,1.72-1.21c1.25-0.28,3.17-0.21,5.13,0.47c1.96,0.69,3.49,1.83,4.28,2.81
															C137.27,205.12,137.39,205.9,137.02,206.13z"/>
													</g>
												</g>
											</g>
										</g>
									</g>
								</g>
							</g>
						</g>
					</g>
					<g>
						<path class="st5" d="M91.99,167.96c3.77,5.42,5.51,9.54,7.56,19.02c1.01,4.64-2.84,7.77-6.65,10.46
							c-1.79,1.26-4.28,0.26-4.68-1.89l0,0c0,0,0.82,14.45-4.6,20.74c-2.54,2.95-2.77,6.83-2.3,10.12c0.48,3.36,2.11,6.43,4.37,8.96
							c5.83,6.55,7.18,16.96,2.76,24.62c-1.13,1.96-2.58,3.74-3.5,5.81c-0.53,1.18-0.85,2.52-0.82,3.8
							c0.04,1.59-1.09,2.96-2.67,3.13c-17.96,2.01-36.16,1.97-54.11-0.13c-1.26-0.15-2.32-1.08-2.57-2.33
							c-1.22-6.02,1.35-12.45,4.54-17.85c3.57-6.03,8.05-11.78,9.44-18.65c1.3-6.47-0.24-13.53,2.56-19.5
							c3.45-7.32,12.27-10.55,16.86-17.22c4.32-6.29,4.27-14.74,8.17-21.3C71.35,167.33,83.13,163.75,91.99,167.96"/>
					</g>
					<g>
						<path class="st5" d="M92.73,175.97c6.73,3.74,9.61,12.21,16.13,16.29c5.94,3.72,13.52,3.04,20.48,2.22
							c-0.21-1.54-0.41-3.09-0.62-4.63c0.66,1.37,1.34,2.77,2.45,3.81c1.11,1.04,2.75,1.66,4.18,1.13c2.35-0.86,2.77-4.05,2.25-6.5
							c-0.83-3.93-2.99-7.49-5.71-10.44c-4.95-5.36-11.86-8.87-19.11-9.68c-7.25-0.82-14.77,1.06-20.79,5.18"/>
					</g>
					<g>
						<path class="st5" d="M67.7,191.72c2.81-6.49,1.41-14.82-3.05-19.96c-4.46-5.14-11.58-6.96-17.75-4.93
							c-2.76,0.91-5.39,2.58-7.16,5.13c-3.25,4.7-2.88,11.79,0.17,16.6c3.05,4.82,8.3,7.48,13.57,7.98
							c5.26,0.5,10.55-0.96,15.5-3.07"/>
					</g>
					<g>
						<g>
							<path class="st12" d="M58.16,192.81c0.07-0.09,1.27,1.02,3.51,2.34c1.11,0.67,2.51,1.34,4.11,1.95
								c1.61,0.58,3.43,1.08,5.39,1.39c1.96,0.28,3.85,0.32,5.56,0.23c1.71-0.12,3.24-0.36,4.5-0.68c2.52-0.62,3.99-1.33,4.04-1.22
								c0.02,0.04-0.34,0.23-1.01,0.54c-0.33,0.16-0.74,0.35-1.24,0.52c-0.49,0.17-1.05,0.4-1.69,0.55
								c-1.27,0.38-2.82,0.66-4.56,0.81c-1.74,0.12-3.68,0.09-5.68-0.2c-2-0.31-3.85-0.84-5.49-1.46c-1.62-0.65-3.03-1.37-4.13-2.1
								c-0.57-0.33-1.04-0.71-1.46-1.02c-0.43-0.3-0.77-0.6-1.04-0.85C58.43,193.13,58.14,192.84,58.16,192.81z"/>
						</g>
					</g>
					<g>
						<g>
							<path class="st12" d="M85.86,206.24c0.01,0.04-0.42,0.16-1.2,0.33c-0.78,0.17-1.91,0.39-3.33,0.59
								c-2.81,0.39-6.84,0.73-11.14-0.3c-4.31-1.04-7.7-3.52-9.45-5.8c-0.89-1.14-1.44-2.18-1.73-2.93
								c-0.29-0.75-0.39-1.18-0.36-1.19c0.12-0.06,0.58,1.71,2.4,3.87c1.78,2.15,5.09,4.49,9.27,5.5c4.19,1,8.16,0.73,10.96,0.45
								c1.41-0.15,2.55-0.3,3.34-0.41C85.41,206.24,85.85,206.2,85.86,206.24z"/>
						</g>
					</g>
					<g>
						<g>
							<path class="st12" d="M44.96,271.54c-0.01,0.01-0.05-0.05-0.14-0.15c-0.08-0.11-0.22-0.27-0.35-0.5
								c-0.27-0.46-0.63-1.19-0.8-2.21c-0.36-2,0.19-5.22,2.65-8c1.23-1.37,2.85-2.58,4.67-3.69c1.82-1.12,3.86-2.14,5.87-3.4
								c1.99-1.27,4-2.82,5.41-4.95c0.7-1.06,1.2-2.26,1.42-3.55c0.22-1.29,0.17-2.63-0.08-3.96c-0.51-2.67-1.62-5.14-2.51-7.59
								c-0.92-2.43-1.62-4.94-1.6-7.38c-0.04-4.9,1.92-9.07,4.12-11.93c2.23-2.92,4.77-4.58,6.6-5.45c0.46-0.2,0.87-0.38,1.24-0.54
								c0.36-0.11,0.67-0.21,0.94-0.3c0.51-0.15,0.78-0.23,0.79-0.21c0.01,0.02-0.25,0.13-0.75,0.32c-0.26,0.1-0.57,0.21-0.92,0.35
								c-0.36,0.17-0.76,0.37-1.2,0.58c-1.77,0.92-4.24,2.6-6.38,5.49c-2.12,2.84-3.99,6.93-3.92,11.69c0,2.37,0.68,4.78,1.6,7.19
								c0.89,2.43,2.02,4.91,2.55,7.68c0.26,1.38,0.32,2.8,0.08,4.16c-0.23,1.37-0.78,2.65-1.51,3.76
								c-1.48,2.23-3.57,3.81-5.59,5.08c-2.05,1.27-4.09,2.27-5.91,3.36c-1.82,1.08-3.41,2.24-4.62,3.56
								c-2.42,2.65-3.02,5.76-2.73,7.7C44.18,270.65,45.05,271.51,44.96,271.54z"/>
						</g>
					</g>
					<g>
						<g>
							<path class="st12" d="M73.92,272.88c-0.01,0.02-0.22-0.11-0.62-0.38c-0.36-0.3-0.92-0.77-1.35-1.57
								c-0.45-0.79-0.8-1.88-0.88-3.17c-0.08-1.29,0.12-2.77,0.61-4.31c0.99-3.16,3.75-5.98,5.87-9.56
								c1.05-1.79,1.83-3.88,1.84-6.14c0.03-2.25-0.57-4.56-1.53-6.77c-1.92-4.44-4.99-8.02-7.06-11.73
								c-1.05-1.85-1.9-3.71-2.39-5.55c-0.52-1.84-0.57-3.66-0.36-5.26c0.41-3.24,1.99-5.57,3.39-6.7c0.71-0.56,1.34-0.89,1.78-1.06
								c0.45-0.16,0.68-0.24,0.69-0.22c0.04,0.07-0.97,0.3-2.32,1.45c-1.31,1.15-2.78,3.43-3.13,6.58c-0.17,1.56-0.1,3.31,0.42,5.09
								c0.49,1.79,1.34,3.6,2.39,5.41c1.05,1.81,2.31,3.63,3.59,5.55c1.28,1.91,2.56,3.96,3.54,6.22c0.98,2.26,1.61,4.65,1.56,7
								c-0.01,2.37-0.85,4.57-1.94,6.4c-2.2,3.65-4.96,6.41-5.94,9.43c-0.51,1.49-0.72,2.92-0.68,4.16c0.05,1.25,0.35,2.3,0.75,3.08
								C72.97,272.4,74,272.8,73.92,272.88z"/>
						</g>
					</g>
					<g>
						<g>
							<path class="st12" d="M119.49,192.63c-0.01,0.02-0.15-0.05-0.41-0.19c-0.25-0.14-0.62-0.38-1.05-0.72
								c-0.87-0.69-2-1.88-3.01-3.59c-1.04-1.7-1.9-3.91-2.81-6.34c-0.46-1.21-0.96-2.48-1.57-3.74c-0.65-1.24-1.36-2.5-2.28-3.66
								c-3.61-4.76-8.6-7.42-12.31-8.51c-3.76-1.11-6.24-0.97-6.23-1.1c0-0.04,0.61-0.06,1.72-0.04c1.1,0.08,2.71,0.22,4.62,0.76
								c1.91,0.53,4.14,1.4,6.35,2.82c2.21,1.41,4.47,3.29,6.29,5.73c0.94,1.19,1.68,2.49,2.33,3.76c0.62,1.29,1.11,2.57,1.56,3.8
								c0.89,2.45,1.69,4.63,2.67,6.33c0.95,1.7,2,2.9,2.81,3.62C118.99,192.28,119.52,192.58,119.49,192.63z"/>
						</g>
					</g>
					<g>
						<g>
							<path class="st12" d="M134.67,193.03c0,0.02-0.2-0.01-0.58-0.08c-0.38-0.06-0.93-0.22-1.62-0.48
								c-1.37-0.52-3.26-1.62-5.08-3.54c-1.84-1.89-3.58-4.53-5.14-7.61c-1.61-3.04-3.15-6.54-5.61-9.61
								c-2.43-3.11-5.81-5.03-9.04-6.06c-3.25-1.04-6.36-1.33-8.94-1.49c-2.59-0.14-4.7-0.1-6.16-0.09c-0.68,0-1.23,0.01-1.68,0.01
								c-0.38,0-0.59-0.01-0.59-0.03c0-0.02,0.2-0.05,0.58-0.08c0.38-0.03,0.95-0.08,1.68-0.12c1.46-0.08,3.57-0.18,6.18-0.09
								c2.6,0.11,5.75,0.36,9.08,1.39c3.3,1.02,6.82,3,9.32,6.2c2.53,3.16,4.06,6.69,5.63,9.73c1.52,3.08,3.2,5.68,4.97,7.57
								c1.74,1.91,3.55,3.04,4.87,3.61C133.87,192.84,134.68,192.97,134.67,193.03z"/>
						</g>
					</g>
					<g>
						<g>
							<path class="st12" d="M158.05,264.46c-0.06-0.03,0.3-0.76,0.71-2.17c0.41-1.4,0.88-3.5,0.85-6.12
								c-0.01-2.61-0.53-5.75-2.03-8.86c-0.74-1.56-1.75-3.07-2.97-4.5c-1.21-1.44-2.61-2.82-4.02-4.26
								c-1.41-1.44-2.78-2.89-3.89-4.46c-1.12-1.56-2.03-3.18-2.75-4.79c-0.72-1.61-1.25-3.21-1.6-4.73
								c-0.37-1.52-0.59-2.97-0.68-4.29c-0.21-2.65,0.01-4.81,0.27-6.27c0.11-0.73,0.26-1.29,0.35-1.67
								c0.1-0.38,0.16-0.57,0.18-0.57c0.06,0.01-0.14,0.81-0.31,2.27c-0.18,1.46-0.34,3.59-0.08,6.2c0.12,1.3,0.35,2.72,0.74,4.22
								c0.37,1.49,0.9,3.06,1.62,4.63c0.72,1.57,1.61,3.16,2.72,4.68c1.1,1.53,2.44,2.95,3.85,4.39c1.41,1.44,2.81,2.82,4.04,4.29
								c1.23,1.46,2.27,3.03,3.01,4.63c1.51,3.21,2,6.43,1.96,9.09c-0.02,2.67-0.57,4.79-1.04,6.19c-0.24,0.7-0.46,1.23-0.64,1.58
								C158.17,264.28,158.07,264.46,158.05,264.46z"/>
						</g>
					</g>
					<g>
						<g>
							<path class="st12" d="M39.38,186.92c-0.04-0.01,0-0.51,0.21-1.39c0.2-0.88,0.61-2.12,1.36-3.53c1.43-2.78,4.56-6.23,9.01-7.3
								c4.45-1.02,8.52,0.75,10.8,2.67c1.17,0.96,1.98,1.92,2.46,2.63c0.49,0.72,0.7,1.16,0.67,1.18c-0.11,0.11-1.06-1.63-3.4-3.38
								c-2.27-1.75-6.18-3.34-10.4-2.37c-4.21,1.01-7.26,4.23-8.74,6.85C39.79,184.95,39.51,186.97,39.38,186.92z"/>
						</g>
					</g>
					<g>
						<g>
							<path class="st12" d="M51.43,193.29c-0.08-0.02,0.04-1.25,0.46-3.21c0.43-1.91,1.17-4.76,3.22-7.01
								c2.14-2.26,5.06-2.45,6.76-1.69c0.86,0.39,1.46,0.96,1.75,1.43c0.3,0.46,0.39,0.77,0.36,0.79c-0.11,0.11-0.62-1.14-2.26-1.73
								c-1.57-0.58-4.25-0.3-6.15,1.72c-1.89,2.07-2.69,4.76-3.22,6.62C51.81,192.12,51.52,193.32,51.43,193.29z"/>
						</g>
					</g>
					<g>
						<g>
							<path class="st6" d="M68.15,173.04c0.17,0.14-2.04,3.18-3.57,7.62c-1.57,4.42-1.78,8.33-1.99,8.3
								c-0.16,0.02-0.24-4.01,1.37-8.57C65.54,175.82,68.05,172.91,68.15,173.04z"/>
						</g>
					</g>
				</g>
			</g>
			<g>
				<g>
					<path class="st5" d="M21.16,243.71c0.04-0.06,0.53,0.93,2.18,1.63c0.81,0.35,1.91,0.54,3.16,0.43
						c1.24-0.14,2.66-0.58,3.86-1.63c2.47-2.04,3.81-5.93,3.7-10.1c-0.02-2.1-0.29-4.3-0.5-6.59c-0.21-2.29-0.32-4.7,0.12-7.13
						c0.22-1.21,0.59-2.39,1.12-3.46c0.55-1.07,1.25-2.04,2.06-2.88c1.62-1.68,3.58-2.83,5.45-3.8c1.89-0.95,3.75-1.72,5.47-2.48
						c1.71-0.77,3.25-1.58,4.57-2.48c2.67-1.75,4.33-3.82,5.07-5.43c0.72-1.63,0.74-2.65,0.8-2.64c0,0-0.02,0.25-0.09,0.71
						c-0.07,0.47-0.25,1.14-0.6,1.97c-0.71,1.65-2.38,3.77-5.05,5.56c-1.32,0.91-2.88,1.74-4.59,2.53c-1.71,0.77-3.56,1.55-5.44,2.5
						c-1.86,0.97-3.78,2.11-5.37,3.75c-0.79,0.82-1.46,1.77-2,2.81c-0.52,1.05-0.88,2.19-1.09,3.38c-0.84,4.8,0.39,9.43,0.36,13.67
						c0.09,4.22-1.29,8.2-3.85,10.27c-1.24,1.07-2.72,1.51-3.98,1.63c-1.28,0.1-2.4-0.12-3.22-0.49c-0.83-0.36-1.37-0.83-1.69-1.17
						C21.29,243.92,21.16,243.71,21.16,243.71z"/>
				</g>
			</g>
			<g>
				<g>
					<path class="st5" d="M147.99,173.19c0,0,0.1,0.2,0.2,0.61c0.1,0.41,0.12,1.06-0.13,1.84c-0.26,0.76-0.8,1.64-1.72,2.35
						c-0.89,0.71-2.23,1.22-3.68,1.05c-1.45-0.13-2.97-0.8-4.28-1.87c-1.34-1.05-2.45-2.52-3.44-4.13c-1-1.61-1.9-3.38-3.08-5.05
						c-1.17-1.68-2.61-3.24-4.25-4.65c-3.31-2.81-7.15-4.61-10.81-5.44c-3.67-0.82-7.12-0.7-9.92-0.21c-2.81,0.48-4.97,1.35-6.42,2
						c-0.72,0.35-1.27,0.62-1.64,0.83c-0.37,0.2-0.57,0.29-0.57,0.29s0.72-0.51,2.16-1.23c1.44-0.69,3.6-1.59,6.43-2.11
						c2.81-0.52,6.3-0.66,10.02,0.15c3.71,0.82,7.6,2.63,10.95,5.48c1.66,1.43,3.12,3.02,4.3,4.72c1.2,1.69,2.09,3.47,3.08,5.07
						c0.98,1.6,2.06,3.05,3.36,4.08c1.28,1.05,2.75,1.71,4.14,1.85c1.41,0.17,2.67-0.29,3.56-0.97c0.9-0.67,1.44-1.52,1.71-2.25
						c0.26-0.75,0.26-1.38,0.18-1.79C148.06,173.4,147.98,173.19,147.99,173.19z"/>
				</g>
			</g>
			<g>
				<g>
					<path class="st5" d="M84.65,265.19c0-0.01,0.06-0.04,0.19-0.1c0.16-0.07,0.35-0.16,0.58-0.26c0.5-0.23,1.24-0.59,2.16-1.11
						c1.79-1.05,4.44-2.82,6.38-6.06c0.94-1.61,1.66-3.6,1.77-5.8c0.05-1.09-0.04-2.24-0.36-3.36c-0.33-1.12-0.87-2.2-1.53-3.25
						c-1.4-2.05-3.34-3.83-5.37-5.62c-1.01-0.9-2.07-1.8-3.07-2.8c-1-0.99-1.98-2.05-2.75-3.3c-0.43-0.6-0.69-1.28-1-1.93
						c-0.19-0.7-0.45-1.38-0.48-2.1c-0.22-1.42,0.02-2.85,0.45-4.15c0.93-2.61,2.55-4.73,3.93-6.8c1.43-2.05,2.55-4.14,3.24-6.24
						c0.7-2.1,1.04-4.14,1.14-6.02c0.22-3.77-0.51-6.79-1.19-8.77c-0.35-0.99-0.66-1.75-0.91-2.25c-0.24-0.5-0.35-0.77-0.35-0.77
						s0.15,0.25,0.4,0.75c0.26,0.49,0.6,1.24,0.97,2.24c0.72,1.98,1.49,5.02,1.3,8.82c-0.09,1.89-0.42,3.96-1.12,6.09
						c-0.69,2.12-1.83,4.26-3.25,6.31c-1.38,2.07-2.98,4.19-3.87,6.74c-0.42,1.27-0.65,2.65-0.44,4.01
						c0.03,0.69,0.28,1.35,0.47,2.02c0.3,0.63,0.55,1.29,0.97,1.88c0.74,1.21,1.71,2.26,2.7,3.24c0.99,0.99,2.04,1.89,3.05,2.79
						c2.03,1.8,3.99,3.59,5.41,5.69c0.67,1.07,1.22,2.18,1.56,3.33c0.32,1.16,0.41,2.33,0.35,3.45c-0.13,2.25-0.87,4.26-1.84,5.9
						c-2,3.28-4.69,5.03-6.51,6.06C85.77,264.85,84.65,265.19,84.65,265.19z"/>
				</g>
			</g>
			<g>
				<g>
					<path class="st5" d="M164.76,225.51c0-0.01,0.05,0.01,0.15,0.05c0.1,0.03,0.25,0.1,0.43,0.21c0.35,0.22,0.81,0.69,1.07,1.46
						c0.25,0.74,0.31,1.83-0.31,2.82c-0.62,0.98-1.9,1.66-3.34,1.69c-1.45,0.07-3.01-0.62-4.19-1.82c-1.2-1.19-2.1-2.78-2.73-4.55
						c-1.3-3.55-1.35-7.78-0.94-12.04c0.42-4.28,1.04-8.34,0.8-12.05c-0.12-1.85-0.4-3.6-0.94-5.15c-0.53-1.56-1.27-2.92-2.11-4.03
						c-1.67-2.26-3.66-3.52-5.14-4.01c-1.48-0.51-2.38-0.49-2.37-0.54c0,0,0.22,0,0.63,0.04c0.21,0.01,0.46,0.05,0.76,0.12
						c0.3,0.05,0.64,0.14,1.02,0.27c1.51,0.46,3.56,1.72,5.28,4c0.86,1.13,1.62,2.5,2.17,4.08c0.56,1.58,0.86,3.35,0.99,5.22
						c0.25,3.75-0.36,7.84-0.78,12.1c-0.41,4.25-0.36,8.42,0.9,11.92c0.61,1.74,1.49,3.3,2.64,4.46c1.14,1.17,2.62,1.83,4.01,1.78
						c1.38-0.02,2.61-0.65,3.2-1.57c0.6-0.92,0.57-1.97,0.35-2.69c-0.23-0.74-0.66-1.21-0.99-1.44
						C164.97,225.59,164.75,225.54,164.76,225.51z"/>
				</g>
			</g>
		</g>
		<g>
			<g>
				<path class="st6" d="M70.33,283.16c0,0,8.17,16.57,25.46,15.8c17.29-0.77,19.08-15.93,19.08-15.93l9.68,10.66l-9.68,23.82
					l-14.22,6.15l-23.18-6.15l-6.2-9.81l-15.34-18.18L70.33,283.16z"/>
			</g>
			<g>
				<g>
					<path class="st4" d="M127.88,300.97c0,0-0.3,0.03-0.86,0.06c-0.56,0.04-1.39,0.17-2.41,0.47c-1.02,0.33-2.22,0.87-3.52,1.67
						c-1.3,0.79-2.7,1.82-4.25,2.96c-1.55,1.13-3.25,2.4-5.3,3.41c-1.02,0.51-2.13,0.91-3.29,1.25c-1.17,0.3-2.4,0.55-3.67,0.67
						c-5.11,0.52-10.74-0.6-16.27-2.52c-5.55-1.9-10.71-4.11-15.65-5.27c-2.45-0.63-4.88-0.72-7.12-0.65
						c-2.25,0.07-4.34,0.33-6.23,0.66c-3.77,0.69-6.73,1.73-8.65,2.66c-0.49,0.21-0.9,0.46-1.26,0.66
						c-0.37,0.19-0.66,0.38-0.89,0.54c-0.47,0.31-0.73,0.46-0.73,0.46s0.9-0.8,2.83-1.77c1.92-0.97,4.88-2.05,8.67-2.77
						c1.89-0.35,3.99-0.62,6.26-0.7c2.26-0.07,4.72,0,7.2,0.63c4.98,1.16,10.15,3.36,15.68,5.26c5.51,1.92,11.09,3.04,16.15,2.53
						c1.26-0.12,2.47-0.35,3.63-0.65c1.15-0.33,2.25-0.72,3.25-1.21c2.02-0.98,3.72-2.23,5.28-3.35c1.55-1.13,2.97-2.15,4.29-2.93
						c1.32-0.79,2.54-1.31,3.57-1.63c1.04-0.28,1.88-0.4,2.45-0.41C127.59,300.96,127.88,300.97,127.88,300.97z"/>
				</g>
			</g>
		</g>
		<g>
			<g>
				<g>
					<g>
						<path class="st10" d="M129.94,243.7l6.58,13.25l0.6,7.2c0,0,0.6-2.17,1.34-4.21c0.74-2.04,1.2-8.41,1.2-8.41l-4.79-9.95
							c0,0-2.83-5.49,0.59-8.05l5.08,6.71c0,0-4.03-7.71-0.23-9.82l4.29,4.82c0,0-1.15-1.85,0.93-2.91l10.83,13.89l-1.34,20.48
							l-3.72,21.27l1.77,3.18l-19.24,13.33c0,0-6.02-13.15-6.42-17.5c-0.4-4.35,3.87-27.4,3.87-27.4s-4.09-8.19-3.56-11.47
							S129.94,243.7,129.94,243.7z"/>
					</g>
					<g>
						<g>
							<path class="st11" d="M135.38,307.69c-0.01,0-0.05-0.06-0.12-0.2c-0.07-0.15-0.17-0.35-0.3-0.6
								c-0.26-0.55-0.64-1.35-1.13-2.39c-0.97-2.11-2.38-5.22-4.01-9.27c-0.8-2.03-1.71-4.28-2.38-6.86
								c-0.38-1.31-0.29-2.75-0.19-4.17c0.12-1.43,0.28-2.9,0.48-4.42c0.79-6.08,1.92-12.92,3.26-20.42l0.03,0.21
								c-1.17-2.41-2.29-4.97-3.11-7.76c-0.2-0.7-0.37-1.42-0.47-2.17c-0.06-0.37-0.08-0.76-0.08-1.15l0.04-0.6l0.11-0.56
								c0.16-0.75,0.4-1.49,0.76-2.19c0.37-0.71,0.79-1.36,1.49-1.92l0.34-0.27l0.2,0.41c2.1,4.21,4.31,8.66,6.6,13.25l0.03,0.07
								l0.01,0.08c0.19,2.26,0.4,4.71,0.61,7.2l-0.78-0.07c0.31-0.99,0.63-1.99,0.96-3.01c0.16-0.5,0.32-1,0.48-1.51
								c0.14-0.48,0.25-1,0.34-1.53c0.36-2.1,0.57-4.3,0.75-6.51l0.04,0.21c-0.94-1.94-1.9-3.94-2.88-5.97
								c-0.49-1.02-0.98-2.04-1.48-3.07c-0.24-0.51-0.51-1.03-0.74-1.59c-0.22-0.55-0.42-1.12-0.55-1.7
								c-0.27-1.06-0.38-2.19-0.18-3.31c0.19-1.11,0.81-2.2,1.74-2.88l0.33-0.24l0.24,0.32c1.71,2.26,3.4,4.5,5.08,6.71l-0.69,0.43
								c-0.82-1.67-1.46-3.39-1.78-5.22c-0.15-0.91-0.2-1.86,0.01-2.8c0.2-0.94,0.82-1.86,1.7-2.33l0.29-0.16l0.21,0.25
								c1.47,1.77,2.92,3.51,4.35,5.23l-0.66,0.43c-0.29-0.65-0.42-1.31-0.28-2.03c0.13-0.72,0.69-1.32,1.28-1.63l0.29-0.15
								l0.2,0.25c3.77,4.78,7.39,9.37,10.84,13.74l0.09,0.11l-0.01,0.14c-0.5,7.37-0.97,14.22-1.39,20.48l0,0.02l0,0.02
								c-1.46,8.19-2.74,15.31-3.8,21.26l-0.03-0.15c3.04,5.63,5.45,10.08,7.1,13.14c0.81,1.52,1.43,2.7,1.86,3.5
								c0.2,0.39,0.35,0.69,0.46,0.91c0.1,0.21,0.15,0.31,0.14,0.32c-0.01,0.01-0.07-0.09-0.19-0.29c-0.12-0.21-0.29-0.5-0.52-0.88
								c-0.45-0.79-1.11-1.95-1.96-3.45c-1.7-3.04-4.17-7.45-7.29-13.04l-0.04-0.07l0.01-0.08c1.02-5.96,2.23-13.09,3.63-21.29
								l0,0.03c0.4-6.27,0.83-13.11,1.3-20.49l0.08,0.25c-3.46-4.36-7.09-8.93-10.88-13.7l0.49,0.1c-0.45,0.25-0.79,0.62-0.88,1.1
								c-0.1,0.47,0.01,1.05,0.22,1.51l1.19,2.64l-1.85-2.21c-1.43-1.72-2.89-3.45-4.36-5.22l0.5,0.09
								c-0.68,0.37-1.13,1.03-1.3,1.82c-0.18,0.79-0.14,1.65,0,2.49c0.29,1.69,0.92,3.39,1.7,4.97l-0.69,0.43
								c-1.67-2.21-3.37-4.45-5.08-6.71l0.57,0.08c-0.77,0.56-1.26,1.42-1.43,2.37c-0.17,0.95-0.08,1.97,0.17,2.96
								c0.13,0.54,0.31,1.07,0.52,1.59c0.2,0.51,0.47,1.01,0.71,1.53c0.5,1.03,0.99,2.06,1.48,3.07c0.98,2.03,1.94,4.03,2.88,5.97
								l0.05,0.1l-0.01,0.11c-0.18,2.23-0.39,4.43-0.76,6.59c-0.09,0.54-0.21,1.08-0.37,1.62c-0.16,0.51-0.33,1.02-0.49,1.53
								c-0.32,1-0.64,1.99-0.95,2.96l-0.62,1.93l-0.17-2.01c-0.21-2.49-0.41-4.95-0.6-7.2l0.04,0.14
								c-2.27-4.59-4.48-9.05-6.56-13.26l0.54,0.14c-0.49,0.39-0.94,1.01-1.26,1.64c-0.33,0.63-0.55,1.32-0.71,2.01
								c-0.34,1.36,0.02,2.77,0.37,4.13c0.78,2.72,1.89,5.28,3.03,7.65l0.05,0.1l-0.02,0.11c-1.37,7.47-2.54,14.31-3.38,20.36
								c-0.21,1.51-0.38,2.98-0.51,4.39c-0.11,1.42-0.21,2.76,0.14,4.02c0.63,2.53,1.51,4.8,2.28,6.83
								c1.58,4.06,2.93,7.19,3.84,9.32c0.45,1.06,0.8,1.87,1.04,2.43c0.11,0.27,0.2,0.48,0.26,0.63
								C135.37,307.62,135.39,307.69,135.38,307.69z"/>
						</g>
					</g>
				</g>
				<g>
					<g>
						<path class="st11" d="M145.65,262.18c-0.11-0.01-0.1-1.36,0.02-3.54c0.12-2.18,0.34-5.18,0.63-8.49
							c0.03-0.31,0.06-0.62,0.08-0.91l0.07,0.27c-1.74-2.59-3.25-4.92-4.31-6.62c-1.06-1.7-1.66-2.77-1.57-2.83
							c0.09-0.06,0.86,0.9,2.04,2.52c1.18,1.62,2.78,3.89,4.53,6.47l0.08,0.12l-0.01,0.15c-0.03,0.29-0.05,0.6-0.08,0.91
							c-0.29,3.31-0.6,6.3-0.87,8.46C145.98,260.86,145.76,262.19,145.65,262.18z"/>
					</g>
				</g>
				<g>
					<g>
						<path class="st11" d="M151.32,256.5c-0.11-0.01-0.1-1.24,0.01-3.23c0.11-2,0.31-4.77,0.58-7.88l0.08,0.29
							c-0.19-0.25-0.4-0.51-0.6-0.78c-2.04-2.65-3.84-5.08-5.12-6.87c-1.27-1.78-2.02-2.92-1.93-2.99c0.09-0.07,1,0.94,2.39,2.64
							c1.39,1.69,3.27,4.07,5.31,6.72c0.21,0.27,0.41,0.53,0.6,0.78l0.1,0.13l-0.01,0.16c-0.29,3.1-0.59,5.87-0.84,7.85
							C151.64,255.3,151.43,256.51,151.32,256.5z"/>
					</g>
				</g>
			</g>
			<g>
				<path class="st6" d="M128.64,300.05l26.82-11.32c0,0,38.95,87.41,41.24,93.06c5.38,13.31,0.06,33.06-14.58,32.7
					c-6.9-0.17-26.65-2.85-32.05-23.83c-1.69-6.58-6.48-22.36-6.48-22.36L128.64,300.05z"/>
			</g>
			<g>
				<g>
					<path class="st5" d="M155.45,288.73c0,0.01-0.16,0.1-0.47,0.26c-0.35,0.17-0.81,0.4-1.41,0.68c-1.27,0.6-3.08,1.46-5.37,2.54
						c-4.68,2.18-11.31,5.27-19.27,8.98l0.13-0.24c1.59,8.95,3.57,19.57,5.98,30.87c3.48,16.41,7.28,31.12,10.2,41.72
						c1.49,5.26,2.7,9.53,3.54,12.53c0.41,1.45,0.74,2.59,0.97,3.4c0.1,0.37,0.18,0.66,0.24,0.89c0.05,0.2,0.07,0.31,0.06,0.31
						c-0.01,0-0.05-0.1-0.12-0.29c-0.07-0.22-0.17-0.51-0.29-0.87c-0.25-0.81-0.61-1.94-1.07-3.38c-0.91-2.94-2.19-7.2-3.7-12.49
						c-3.01-10.58-6.87-25.28-10.35-41.71c-2.42-11.31-4.37-21.95-5.91-30.9l-0.03-0.17l0.16-0.07c7.99-3.64,14.65-6.67,19.34-8.81
						c2.31-1.04,4.14-1.86,5.42-2.43c0.6-0.26,1.08-0.47,1.44-0.62C155.28,288.79,155.45,288.72,155.45,288.73z"/>
				</g>
			</g>
			<g>
				<g>
					<path class="st4" d="M192.35,376.2c0.01,0.01-0.07,0.14-0.24,0.4c-0.2,0.31-0.45,0.68-0.74,1.13
						c-0.32,0.49-0.72,1.08-1.25,1.73c-0.52,0.65-1.07,1.42-1.8,2.18c-0.35,0.39-0.72,0.8-1.1,1.22c-0.39,0.42-0.83,0.82-1.27,1.25
						c-0.86,0.88-1.89,1.71-2.95,2.6c-2.18,1.71-4.73,3.41-7.57,4.88c-2.86,1.44-5.74,2.49-8.4,3.25c-1.35,0.33-2.62,0.68-3.84,0.86
						c-0.61,0.1-1.19,0.23-1.76,0.29c-0.57,0.06-1.11,0.12-1.64,0.18c-1.04,0.14-1.99,0.13-2.82,0.17
						c-0.83,0.05-1.55,0.03-2.13-0.01c-0.53-0.03-0.98-0.05-1.35-0.06c-0.31-0.02-0.47-0.03-0.47-0.04c0-0.01,0.16-0.02,0.47-0.02
						c0.37,0,0.81,0,1.34,0.01c0.58,0.02,1.3,0.02,2.12-0.05c0.83-0.05,1.77-0.06,2.8-0.22c0.52-0.06,1.06-0.13,1.62-0.19
						c0.56-0.07,1.14-0.21,1.75-0.31c1.21-0.19,2.47-0.54,3.81-0.88c2.64-0.77,5.49-1.83,8.34-3.25c2.83-1.46,5.35-3.14,7.53-4.82
						c1.06-0.88,2.09-1.69,2.95-2.56c0.44-0.43,0.89-0.81,1.28-1.23c0.39-0.42,0.76-0.81,1.11-1.2c0.73-0.74,1.29-1.5,1.83-2.14
						c0.54-0.63,0.96-1.21,1.29-1.69c0.31-0.43,0.57-0.79,0.79-1.09C192.25,376.32,192.35,376.19,192.35,376.2z"/>
				</g>
			</g>
			<g>
				<g>
					<path class="st4" d="M184.99,352.51c0.01,0.01-0.06,0.15-0.21,0.41c-0.16,0.26-0.35,0.67-0.68,1.15
						c-0.62,0.98-1.64,2.33-3.12,3.79c-1.48,1.46-3.47,2.99-5.93,4.22c-2.45,1.24-5.4,2.16-8.58,2.39c-3.18,0.23-6.19-0.21-8.91-0.4
						c-2.72-0.23-5.19-0.18-7.21,0.24c-2.02,0.4-3.56,1.11-4.52,1.74c-0.97,0.63-1.42,1.09-1.44,1.06c0,0,0.41-0.5,1.37-1.17
						c0.95-0.67,2.5-1.42,4.54-1.85c2.04-0.45,4.54-0.52,7.27-0.31c2.73,0.18,5.73,0.61,8.87,0.38c3.13-0.23,6.04-1.12,8.47-2.33
						c2.45-1.2,4.42-2.7,5.91-4.12c1.49-1.42,2.52-2.75,3.17-3.7c0.34-0.47,0.55-0.86,0.73-1.11
						C184.89,352.64,184.99,352.5,184.99,352.51z"/>
				</g>
			</g>
			<g>
				<g>
					<path class="st4" d="M137.66,342.11c0-0.04,0.53,0.05,1.5,0.03c0.96-0.01,2.35-0.16,4-0.66c1.64-0.5,3.51-1.37,5.41-2.61
						c1.9-1.24,3.82-2.86,5.8-4.59c1.98-1.73,3.89-3.38,5.79-4.67c1.89-1.3,3.76-2.23,5.4-2.79c1.65-0.56,3.05-0.76,4.02-0.79
						c0.97-0.03,1.5,0.06,1.5,0.06c0,0.04-0.54-0.01-1.49,0.06c-0.96,0.07-2.34,0.3-3.96,0.87c-1.61,0.58-3.45,1.52-5.31,2.82
						c-1.87,1.29-3.76,2.94-5.75,4.67c-1.99,1.73-3.92,3.35-5.85,4.59c-1.93,1.25-3.83,2.1-5.5,2.58c-1.67,0.48-3.09,0.59-4.06,0.57
						C138.19,342.24,137.66,342.11,137.66,342.11z"/>
				</g>
			</g>
			<g>
				<g>
					<path class="st4" d="M157.61,301.67c0.01,0-0.02,0.1-0.09,0.28c-0.06,0.18-0.18,0.44-0.35,0.77c-0.34,0.65-0.97,1.53-1.95,2.4
						c-0.99,0.87-2.35,1.7-3.98,2.29c-1.63,0.6-3.52,0.93-5.5,1.14c-1.98,0.2-3.87,0.29-5.57,0.47c-1.7,0.18-3.22,0.46-4.46,0.83
						c-1.24,0.36-2.2,0.79-2.84,1.14c-0.64,0.34-0.97,0.57-0.99,0.55c-0.01-0.01,0.07-0.07,0.23-0.19c0.15-0.12,0.39-0.27,0.7-0.46
						c0.63-0.38,1.58-0.84,2.83-1.24c1.25-0.39,2.78-0.7,4.5-0.9c1.71-0.2,3.61-0.3,5.57-0.5c1.97-0.2,3.83-0.52,5.44-1.1
						c1.61-0.57,2.95-1.36,3.93-2.19C157.08,303.28,157.54,301.62,157.61,301.67z"/>
				</g>
			</g>
		</g>
	</g>
</g>
<g id="Plant">
	<g>
		<g>
			<g>
				<g>
					<g>
						<path class="st6" d="M396.03,389.56c2.32,2.75,6.22,1.42,7.91-0.53c1.69-1.96,2.24-4.62,2.73-7.16
							c1.12-5.8,2.23-11.88,0.51-17.53c-0.52-1.69-1.31-3.35-2.64-4.52c-1.32-1.17-3.25-1.76-4.91-1.16
							c-1.97,0.71-3.04,2.8-3.78,4.75c-2.17,5.75-3.03,11.99-2.5,18.11C393.6,384.38,394.2,387.35,396.03,389.56"/>
					</g>
				</g>
			</g>
		</g>
		<g class="st13">
			<g>
				<g>
					<g>
						<path d="M396.03,389.56c2.32,2.75,6.22,1.42,7.91-0.53c1.69-1.96,2.24-4.62,2.73-7.16c1.12-5.8,2.23-11.88,0.51-17.53
							c-0.52-1.69-1.31-3.35-2.64-4.52c-1.32-1.17-3.25-1.76-4.91-1.16c-1.97,0.71-3.04,2.8-3.78,4.75
							c-2.17,5.75-3.03,11.99-2.5,18.11C393.6,384.38,394.2,387.35,396.03,389.56"/>
					</g>
				</g>
			</g>
		</g>
		<g>
			<g>
				<g>
					<g>
						<path class="st6" d="M405.05,403.74c3.2-2.03,7.14-2.61,10.93-2.33c2.03,0.15,4.18,0.57,5.67,1.95
							c1.5,1.38,1.99,4.01,0.54,5.44c-0.86,0.85-2.15,1.09-3.36,1.18c-2.92,0.23-6.21,0-8.38,1.97c-1.24,1.12-1.98,2.87-3.53,3.5
							c-1.51,0.62-3.35-0.14-4.3-1.47c-0.95-1.33-1.14-3.09-0.89-4.7C401.73,409.27,401.82,405.78,405.05,403.74z"/>
					</g>
				</g>
			</g>
		</g>
		<g>
			<g>
				<g>
					<g>
						<path class="st6" d="M390.76,394.28c1.99-2.85,2.07-6.75,0.78-9.97c-1.29-3.23-3.78-5.85-6.57-7.92
							c-3.27-2.43-7.02-4.21-10.97-5.22c-1.55-0.4-3.18-0.67-4.76-0.38c-1.58,0.29-3.1,1.25-3.72,2.73
							c-0.91,2.19,0.37,4.63,1.69,6.6c2.33,3.47,4.93,6.75,7.78,9.81c2.29,2.46,4.87,4.86,8.1,5.78c3.23,0.92,6.47,0.49,7.93-1.83"
							/>
					</g>
				</g>
			</g>
		</g>
		<g>
			<g>
				<g>
					<g>
						<g>
							<path class="st5" d="M399.84,433.84c0.04,0,0.06-0.48,0.07-1.35c0.01-0.98,0.02-2.21,0.03-3.67
								c0.03-1.55,0.09-3.39,0.34-5.41c0.25-2.02,0.72-4.22,1.38-6.47c0.69-2.24,1.59-4.3,2.71-5.99c1.11-1.69,2.46-2.96,3.76-3.74
								c1.3-0.79,2.5-1.18,3.33-1.37c0.84-0.16,1.31-0.27,1.31-0.31c0-0.04-0.48,0-1.35,0.1c-0.86,0.14-2.11,0.47-3.49,1.25
								c-1.38,0.77-2.82,2.06-3.98,3.79c-1.18,1.72-2.11,3.83-2.81,6.11c-0.67,2.29-1.13,4.52-1.35,6.57
								c-0.22,2.05-0.24,3.91-0.23,5.47c0.02,1.56,0.09,2.81,0.15,3.68C399.75,433.36,399.81,433.84,399.84,433.84z"/>
						</g>
					</g>
				</g>
			</g>
		</g>
		<g>
			<g>
				<g>
					<g>
						<g>
							<path class="st5" d="M399.84,431.02c0.02,0,0.01-0.22-0.02-0.62c-0.04-0.46-0.1-1.05-0.16-1.77
								c-0.14-1.53-0.34-3.76-0.5-6.51c-0.35-5.5-0.56-13.12-0.39-21.52c0.18-8.41,0.72-16.01,1.35-21.48
								c0.14-1.37,0.3-2.61,0.45-3.69c0.14-1.09,0.26-2.02,0.39-2.78c0.11-0.71,0.19-1.3,0.26-1.76c0.05-0.4,0.07-0.62,0.05-0.62
								c-0.02,0-0.07,0.2-0.16,0.6c-0.1,0.46-0.21,1.03-0.36,1.74c-0.16,0.76-0.31,1.69-0.49,2.77c-0.18,1.08-0.37,2.32-0.53,3.69
								c-0.73,5.48-1.34,13.09-1.52,21.52c-0.17,8.42,0.1,16.06,0.55,21.56c0.21,2.75,0.47,4.97,0.68,6.5
								c0.11,0.71,0.2,1.3,0.27,1.76C399.78,430.81,399.82,431.02,399.84,431.02z"/>
						</g>
					</g>
				</g>
			</g>
		</g>
		<g>
			<g>
				<g>
					<g>
						<g>
							<path class="st5" d="M398.57,416.36c0.04,0-0.03-0.66-0.18-1.85c-0.17-1.18-0.49-2.88-1.01-4.96
								c-0.54-2.07-1.26-4.51-2.28-7.15c-0.98-2.65-2.26-5.49-3.82-8.36c-3.07-5.78-6.94-10.38-10.2-13.15
								c-0.77-0.74-1.61-1.26-2.28-1.77c-0.35-0.24-0.66-0.49-0.97-0.68c-0.31-0.18-0.6-0.34-0.87-0.49
								c-1.04-0.59-1.63-0.89-1.64-0.86c-0.08,0.13,2.34,1.27,5.51,4.09c3.16,2.82,6.93,7.39,9.98,13.12
								c1.55,2.84,2.83,5.66,3.83,8.28c1.04,2.61,1.79,5.03,2.38,7.07c0.57,2.05,0.94,3.73,1.18,4.89
								C398.4,415.72,398.53,416.37,398.57,416.36z"/>
						</g>
					</g>
				</g>
			</g>
		</g>
	</g>
</g>
</svg>
