<?xml version="1.0" encoding="utf-8"?>
<!-- Generator: Adobe Illustrator 25.1.0, SVG Export Plug-In . SVG Version: 6.00 Build 0)  -->
<svg version="1.1" xmlns="http://www.w3.org/2000/svg" xmlns:xlink="http://www.w3.org/1999/xlink" x="0px" y="0px"
	 viewBox="0 0 500 500" style="enable-background:new 0 0 500 500;" xml:space="preserve">
<style type="text/css">
	.st0{fill:#FAFAFA;}
	.st1{fill:#E0E0E0;}
	.st2{fill:#EBEBEB;}
	.st3{fill:#F5F5F5;}
	.st4{display:none;}
	.st5{display:inline;fill:#EBEBEB;}
	.st6{fill:#E8505B;}
	.st7{fill:#263238;}
	.st8{opacity:0.3;}
	.st9{fill:none;stroke:#263238;stroke-width:0.05;stroke-miterlimit:10;}
	.st10{fill:#EF9D78;}
	.st11{fill:#D37A57;}
	.st12{fill:#455A64;}
</style>
<g id="Background_Complete">
	<g>
		<g>
			<g>
				<g>
					<g>
						<rect x="40" y="43.78" class="st0" width="207.47" height="185.62"/>
					</g>
				</g>
			</g>
			<g>
				<g>
					<g>
						<g>
							<path class="st1" d="M247.47,229.39c0,0-0.03-1.19-0.05-3.45c-0.01-2.28-0.03-5.61-0.05-9.95
								c-0.03-8.71-0.07-21.45-0.12-37.68c-0.06-32.43-0.14-78.77-0.24-134.55l0.47,0.47c-59.75,0.02-131.06,0.05-207.46,0.08H40
								l0.55-0.55c-0.02,67.53-0.05,131.08-0.07,185.62L40,228.91c61.89,0.1,113.7,0.19,150.06,0.25
								c18.19,0.06,32.52,0.1,42.32,0.13c4.89,0.03,8.64,0.04,11.2,0.06c1.26,0.01,2.21,0.02,2.89,0.03
								C247.13,229.38,247.47,229.39,247.47,229.39s-0.31,0.02-0.94,0.03c-0.66,0.01-1.6,0.02-2.84,0.03
								c-2.54,0.01-6.27,0.03-11.11,0.06c-9.78,0.03-24.07,0.07-42.21,0.13c-36.44,0.06-88.35,0.14-150.37,0.25l-0.49,0v-0.49
								c-0.02-54.54-0.04-118.09-0.07-185.62v-0.55H40h0.02c76.4,0.03,147.7,0.06,207.46,0.08h0.47l0,0.47
								c-0.1,55.9-0.18,102.34-0.24,134.85c-0.05,16.18-0.09,28.88-0.12,37.57c-0.02,4.3-0.04,7.6-0.05,9.86
								C247.51,228.27,247.47,229.39,247.47,229.39z"/>
						</g>
					</g>
				</g>
			</g>
		</g>
		<g>
			<g>
				<g>
					<g>
						<path class="st1" d="M119.55,76.76c0,0.31-10.92,0.55-24.39,0.55c-13.47,0-24.39-0.25-24.39-0.55
							c0-0.31,10.92-0.55,24.39-0.55C108.63,76.2,119.55,76.45,119.55,76.76z"/>
					</g>
				</g>
			</g>
		</g>
		<g>
			<g>
				<g>
					<g>
						<path class="st1" d="M207.46,90.69c0,0.31-30,0.55-67,0.55c-37.01,0-67.01-0.25-67.01-0.55c0-0.31,30-0.55,67.01-0.55
							C177.46,90.14,207.46,90.39,207.46,90.69z"/>
					</g>
				</g>
			</g>
		</g>
		<g>
			<g>
				<g>
					<rect x="71.13" y="114.3" class="st1" width="8.74" height="8.74"/>
				</g>
			</g>
		</g>
		<g>
			<g>
				<g>
					<rect x="92.64" y="114.3" class="st1" width="8.74" height="8.74"/>
				</g>
			</g>
		</g>
		<g>
			<g>
				<g>
					<rect x="114.56" y="113.9" class="st1" width="8.74" height="8.74"/>
				</g>
			</g>
		</g>
		<g>
			<g>
				<g>
					<rect x="135.68" y="114.3" class="st1" width="8.74" height="8.74"/>
				</g>
			</g>
		</g>
		<g>
			<g>
				<g>
					<rect x="157.19" y="114.3" class="st1" width="8.74" height="8.74"/>
				</g>
			</g>
		</g>
		<g>
			<g>
				<g>
					<rect x="178.71" y="114.3" class="st1" width="8.74" height="8.74"/>
				</g>
			</g>
		</g>
		<g>
			<g>
				<g>
					<rect x="200.22" y="114.3" class="st2" width="8.74" height="8.74"/>
				</g>
			</g>
		</g>
		<g>
			<g>
				<g>
					<rect x="71.13" y="132.88" class="st2" width="8.74" height="8.74"/>
				</g>
			</g>
		</g>
		<g>
			<g>
				<g>
					<rect x="92.64" y="132.88" class="st1" width="8.74" height="8.74"/>
				</g>
			</g>
		</g>
		<g>
			<g>
				<g>
					<rect x="114.16" y="132.88" class="st2" width="8.74" height="8.74"/>
				</g>
			</g>
		</g>
		<g>
			<g>
				<g>
					<rect x="135.68" y="132.88" class="st1" width="8.74" height="8.74"/>
				</g>
			</g>
		</g>
		<g>
			<g>
				<g>
					<rect x="157.19" y="132.88" class="st1" width="8.74" height="8.74"/>
				</g>
			</g>
		</g>
		<g>
			<g>
				<g>
					<rect x="179.11" y="132.49" class="st1" width="8.74" height="8.74"/>
				</g>
			</g>
		</g>
		<g>
			<g>
				<g>
					<rect x="200.22" y="132.88" class="st1" width="8.74" height="8.74"/>
				</g>
			</g>
		</g>
		<g>
			<g>
				<g>
					<rect x="71.13" y="151.47" class="st1" width="8.74" height="8.74"/>
				</g>
			</g>
		</g>
		<g>
			<g>
				<g>
					<rect x="93.04" y="151.07" class="st1" width="8.74" height="8.74"/>
				</g>
			</g>
		</g>
		<g>
			<g>
				<g>
					<rect x="114.16" y="151.47" class="st1" width="8.74" height="8.74"/>
				</g>
			</g>
		</g>
		<g>
			<g>
				<g>
					<rect x="135.68" y="151.47" class="st2" width="8.74" height="8.74"/>
				</g>
			</g>
		</g>
		<g>
			<g>
				<g>
					<rect x="157.19" y="151.47" class="st1" width="8.74" height="8.74"/>
				</g>
			</g>
		</g>
		<g>
			<g>
				<g>
					<rect x="178.71" y="151.47" class="st1" width="8.74" height="8.74"/>
				</g>
			</g>
		</g>
		<g>
			<g>
				<g>
					<rect x="200.22" y="151.47" class="st1" width="8.74" height="8.74"/>
				</g>
			</g>
		</g>
		<g>
			<g>
				<g>
					<rect x="71.13" y="170.05" class="st1" width="8.74" height="8.74"/>
				</g>
			</g>
		</g>
		<g>
			<g>
				<g>
					<rect x="92.64" y="170.05" class="st1" width="8.74" height="8.74"/>
				</g>
			</g>
		</g>
		<g>
			<g>
				<g>
					<rect x="114.16" y="170.05" class="st1" width="8.74" height="8.74"/>
				</g>
			</g>
		</g>
		<g>
			<g>
				<g>
					<rect x="136.07" y="169.65" class="st1" width="8.74" height="8.74"/>
				</g>
			</g>
		</g>
		<g>
			<g>
				<g>
					<rect x="157.19" y="170.05" class="st1" width="8.74" height="8.74"/>
				</g>
			</g>
		</g>
		<g>
			<g>
				<g>
					<rect x="178.71" y="170.05" class="st2" width="8.74" height="8.74"/>
				</g>
			</g>
		</g>
		<g>
			<g>
				<g>
					<rect x="200.22" y="170.05" class="st1" width="8.74" height="8.74"/>
				</g>
			</g>
		</g>
		<g>
			<g>
				<g>
					<rect x="71.13" y="188.63" class="st1" width="8.74" height="8.74"/>
				</g>
			</g>
		</g>
		<g>
			<g>
				<g>
					<rect x="92.64" y="188.63" class="st2" width="8.74" height="8.74"/>
				</g>
			</g>
		</g>
		<g>
			<g>
				<g>
					<rect x="114.16" y="188.63" class="st1" width="8.74" height="8.74"/>
				</g>
			</g>
		</g>
		<g>
			<g>
				<g>
					<rect x="135.68" y="188.63" class="st1" width="8.74" height="8.74"/>
				</g>
			</g>
		</g>
		<g>
			<g>
				<g>
					<rect x="157.19" y="188.63" class="st1" width="8.74" height="8.74"/>
				</g>
			</g>
		</g>
		<g>
			<g>
				<g>
					<rect x="179.11" y="188.23" class="st1" width="8.74" height="8.74"/>
				</g>
			</g>
		</g>
		<g>
			<g>
				<g>
					<rect x="200.22" y="188.63" class="st1" width="8.74" height="8.74"/>
				</g>
			</g>
		</g>
	</g>
	<g>
		<g>
			<g>
				<g>
					<g>
						<path class="st2" d="M430.18,293.28c9.24-4.77,20.13-5.39,30.39-3.69c5.51,0.91,11.26,2.56,15.01,6.7
							c3.75,4.14,4.46,11.43,0.15,14.99c-2.56,2.12-6.14,2.44-9.47,2.4c-8.03-0.09-16.95-1.51-23.37,3.33
							c-3.66,2.76-6.1,7.34-10.48,8.7c-4.28,1.33-9.12-1.2-11.39-5.07c-2.27-3.87-2.35-8.7-1.29-13.06
							C419.75,307.58,420.87,298.08,430.18,293.28z"/>
					</g>
				</g>
			</g>
			<g>
				<g>
					<g>
						<path class="st2" d="M409,252.39c5.65,8.07,16.64,5.4,21.73,0.47c5.09-4.93,7.25-12.07,9.21-18.88
							c4.48-15.56,8.99-31.89,5.66-47.74c-1-4.74-2.77-9.46-6.1-12.98c-3.33-3.51-8.45-5.61-13.13-4.37
							c-5.54,1.46-8.98,6.89-11.47,12.05c-7.31,15.17-11.19,31.99-11.24,48.83C403.64,237.65,404.56,245.9,409,252.39"/>
					</g>
				</g>
			</g>
			<g>
				<g>
					<g>
						<path class="st2" d="M393.48,263.98c6.14-7.28,7.3-17.91,4.57-27.03c-2.73-9.13-8.9-16.89-16.01-23.23
							c-8.34-7.43-18.14-13.21-28.67-16.92c-4.15-1.46-8.52-2.61-12.9-2.19s-8.78,2.65-10.82,6.55c-3.02,5.76-0.12,12.74,3,18.43
							c5.51,10.03,11.82,19.63,18.83,28.68c5.64,7.28,12.11,14.46,20.71,17.75c8.6,3.29,17.54,2.9,22.1-3.06"/>
					</g>
				</g>
			</g>
			<g>
				<g>
					<g>
						<g>
							<path class="st1" d="M408.62,374.19c0.11,0.01,0.28-1.3,0.51-3.67c0.26-2.67,0.59-6.02,0.97-10.01
								c0.47-4.21,1.08-9.23,2.25-14.69c1.17-5.45,2.99-11.35,5.34-17.33c2.43-5.95,5.39-11.36,8.85-15.68
								c3.44-4.34,7.43-7.49,11.19-9.3c3.74-1.85,7.1-2.6,9.42-2.93c2.34-0.24,3.65-0.42,3.65-0.53c0-0.1-1.31-0.12-3.72-0.06
								c-2.38,0.16-5.88,0.76-9.83,2.56c-3.96,1.76-8.2,4.95-11.8,9.38c-3.63,4.42-6.7,9.94-9.17,16
								c-2.39,6.09-4.18,12.05-5.3,17.62c-1.11,5.55-1.62,10.62-1.95,14.87c-0.32,4.25-0.44,7.69-0.5,10.07
								C408.49,372.86,408.52,374.18,408.62,374.19z"/>
						</g>
					</g>
				</g>
			</g>
			<g>
				<g>
					<g>
						<g>
							<path class="st1" d="M409.31,366.48c0.05,0,0.08-0.59,0.1-1.7c0-1.28-0.01-2.89-0.01-4.87c-0.01-4.22-0.01-10.34,0.22-17.89
								c0.37-15.1,1.67-31.35,4.18-54.26c2.38-21.54,5.57-46.61,8.94-62.91c0.72-3.71,1.45-7.04,2.13-9.96
								c0.65-2.93,1.21-5.45,1.75-7.49c0.46-1.92,0.84-3.49,1.14-4.73c0.24-1.09,0.35-1.67,0.3-1.68c-0.05-0.01-0.25,0.54-0.59,1.6
								c-0.37,1.23-0.84,2.77-1.41,4.66c-0.63,2.02-1.27,4.53-2,7.45c-0.76,2.91-1.57,6.24-2.36,9.94
								c-3.33,14.77-6.86,35.41-9.4,58.38c-2.52,22.96-3.65,43.86-3.75,59c-0.09,7.57,0.07,13.7,0.26,17.92
								c0.12,1.98,0.22,3.59,0.3,4.87C409.19,365.9,409.26,366.48,409.31,366.48z"/>
						</g>
					</g>
				</g>
			</g>
			<g>
				<g>
					<g>
						<g>
							<path class="st1" d="M409.41,326.17c0.11,0,0.09-1.81-0.04-5.09c-0.19-3.27-0.64-7.99-1.56-13.78
								c-0.98-5.77-2.34-12.63-4.48-20.07c-0.93-3.4-3.11-11.56-8.39-23.75c-6.96-16.52-16.42-30.02-24.65-38.38
								c-1.93-2.22-4.08-3.82-5.8-5.39c-0.89-0.75-1.68-1.5-2.48-2.1c-0.81-0.56-1.55-1.07-2.25-1.55
								c-2.71-1.85-4.23-2.83-4.28-2.74c-0.24,0.33,6.07,4.04,14.03,12.52c7.93,8.46,17.13,21.87,24.04,38.25
								c3.85,8.88,6.54,16.81,8.44,23.53c2.2,7.38,3.66,14.16,4.77,19.87c1.05,5.73,1.66,10.4,2.02,13.64
								C409.09,324.37,409.31,326.17,409.41,326.17z"/>
						</g>
					</g>
				</g>
			</g>
		</g>
		<g>
			<g>
				<g>
					<polygon class="st1" points="370.44,397.28 374.48,452.63 445.58,452.63 449.62,397.28 					"/>
				</g>
			</g>
		</g>
		<g>
			<g>
				<g>
					<rect x="363.57" y="375.47" class="st1" width="94.53" height="21.82"/>
				</g>
			</g>
		</g>
		<g>
			<g>
				<g>
					<polygon class="st2" points="363.57,450.51 363.57,456.56 368.02,456.56 456.54,456.56 456.54,450.51 					"/>
				</g>
			</g>
		</g>
		<g>
			<g>
				<g>
					<polygon class="st1" points="372.37,467.2 368.02,456.56 453.16,456.56 448.08,467.2 					"/>
				</g>
			</g>
		</g>
		<g>
			<g>
				<g>
					<g>
						<path class="st3" d="M448.3,415.37c0.02,0.01-0.1,0.19-0.33,0.51c-0.28,0.37-0.63,0.84-1.06,1.41
							c-1.01,1.29-2.4,3.07-4.14,5.3l-0.18,0.24l-0.18-0.25c-2.6-3.6-6.08-8.41-10.18-14.07h0.59c-3.03,4.29-6.4,9.06-10.02,14.19
							l-0.31,0.44l-0.35-0.42c-3.7-4.4-7.71-9.18-11.88-14.14l0.68-0.01c-0.21,0.26-0.43,0.54-0.65,0.82
							c-3.68,4.62-7.25,9.09-10.62,13.32l-0.35,0.44l-0.33-0.46c-3.61-5.1-6.98-9.87-10.02-14.18l0.58,0.03
							c-4.94,5.63-9.13,10.4-12.34,14.06l-0.22,0.25l-0.17-0.28c-1.63-2.73-2.92-4.91-3.87-6.49c-0.4-0.7-0.73-1.27-0.99-1.73
							c-0.22-0.4-0.32-0.6-0.3-0.62c0.02-0.01,0.16,0.18,0.41,0.55c0.29,0.44,0.65,0.99,1.1,1.66c0.99,1.55,2.35,3.69,4.06,6.38
							l-0.39-0.03c3.16-3.71,7.29-8.54,12.15-14.24l0.31-0.36l0.28,0.39c3.07,4.29,6.47,9.04,10.11,14.12l-0.68-0.02
							c3.36-4.23,6.92-8.71,10.6-13.34c0.22-0.28,0.45-0.56,0.65-0.82l0.34-0.42l0.35,0.42c4.16,4.97,8.16,9.76,11.85,14.16
							l-0.67,0.03c3.66-5.1,7.06-9.85,10.12-14.11l0.3-0.41l0.29,0.41c4.01,5.72,7.41,10.59,9.96,14.23l-0.36-0.01
							c1.82-2.18,3.26-3.91,4.31-5.17c0.47-0.54,0.85-0.98,1.15-1.34C448.14,415.51,448.29,415.36,448.3,415.37z"/>
					</g>
				</g>
			</g>
		</g>
		<g>
			<g>
				<g>
					<g>
						<path class="st3" d="M450.61,396.92c0,0.24-17.82,0.44-39.79,0.44c-21.98,0-39.79-0.2-39.79-0.44
							c0-0.24,17.81-0.44,39.79-0.44C432.8,396.48,450.61,396.67,450.61,396.92z"/>
					</g>
				</g>
			</g>
		</g>
		<g>
			<g>
				<g>
					<g>
						<path class="st3" d="M454.2,457.16c0,0.24-19.36,0.44-43.24,0.44c-23.89,0-43.25-0.2-43.25-0.44c0-0.24,19.36-0.44,43.25-0.44
							C434.84,456.71,454.2,456.91,454.2,457.16z"/>
					</g>
				</g>
			</g>
		</g>
	</g>
</g>
<g id="Background_Simple" class="st4">
	<path class="st5" d="M77.51,143.46l1.96-3.54c16.48-29.86,47.92-48.87,82.02-48.34c4.38,0.07,8.76,0.45,13.1,1.16
		c31.22,5.09,59.21,26.92,71.74,55.97c7.37,17.08,10.14,37.02,23.23,50.24c17.04,17.21,44.56,16.48,68.71,14.61
		c24.14-1.88,51.69-2.53,68.65,14.75c10.62,10.82,14.58,26.74,14.48,41.9c-0.28,40.15-26.87,77.28-61.97,96.76
		c-35.11,19.48-77.35,23.05-117.05,17.07c-55.62-8.39-109.43-36.06-143.1-81.11C65.6,257.87,54.66,194.86,77.51,143.46z"/>
</g>
<g id="Character">
	<g>
		<g>
			<path class="st6" d="M197.76,247.14l-8,4.29l-17.7,13.63c0,0-54.23,7.2-56.31,8.76c-2.08,1.56-29.05,14.37-32.7,31.55
				c-3.64,17.18-11.14,129.3-11.14,129.3l9.84,33.13l197.51,0.31l46.32-0.66c0,0,17.8-41.57,17.8-53.02
				c0-11.46-5.21-97.37-5.21-97.37l-55.55-39.17L197.76,247.14z"/>
		</g>
		<g>
			<g>
				<path class="st7" d="M171.55,264.25c0.01,0.01-0.08,0.17-0.28,0.46c-0.23,0.34-0.52,0.76-0.87,1.27
					c-0.78,1.08-1.83,2.7-3.07,4.73c-0.6,1.03-1.28,2.14-1.91,3.39c-0.67,1.23-1.31,2.58-1.97,4c-1.28,2.87-2.53,6.1-3.59,9.57
					c-2.09,6.96-3.17,13.47-3.89,18.18c-0.33,2.3-0.6,4.2-0.8,5.59c-0.09,0.61-0.17,1.11-0.23,1.52c-0.06,0.35-0.1,0.53-0.11,0.53
					c-0.02,0-0.01-0.19,0.01-0.54c0.03-0.41,0.08-0.92,0.13-1.53c0.12-1.33,0.33-3.25,0.64-5.62c0.63-4.73,1.65-11.28,3.76-18.28
					c1.07-3.49,2.33-6.74,3.65-9.62c0.68-1.43,1.33-2.78,2.03-4.01c0.65-1.25,1.35-2.36,1.97-3.38c1.28-2.02,2.39-3.61,3.22-4.66
					c0.38-0.49,0.7-0.89,0.95-1.21C171.41,264.38,171.54,264.24,171.55,264.25z"/>
			</g>
		</g>
		<g class="st8">
			<g>
				<path d="M172.78,297.21c-0.33-1.05-0.75-2.25-1.78-2.66c-0.81-0.32-0.48,0.2-1.29,0.53c-7.5,3.09-11.12,10.03-14.3,17.84
					l0.18-0.19c-0.47,1.2,0.02,2.92,1.23,3.62c1.69,0.99,3.86,0.45,5.6-0.45c1.74-0.9,3.33-2.15,5.22-2.63
					c4.11-1.05,8.19,1.76,11.09,4.85c2.9,3.1,5.51,6.78,9.46,8.31C181.34,317.75,176.09,307.78,172.78,297.21z"/>
			</g>
		</g>
		<g>
			<g>
				<path class="st7" d="M154.83,313.49c0,0,0.89-2.39,3.17-6.36c1.15-1.98,2.67-4.35,4.76-6.85c1.07-1.23,2.28-2.5,3.74-3.65
					c1.47-1.12,3.21-2.15,5.28-2.53l0.15-0.03l0.06,0.15c1.26,3.27,2.58,6.84,4.1,10.6c1.53,3.75,3.28,7.7,5.59,11.58
					c2.29,3.88,5.15,7.67,8.6,11.12c3.44,3.45,7.44,6.55,11.78,9.34c1.44,0.86,2.85,1.76,4.29,2.56c1.46,0.78,2.9,1.55,4.33,2.31
					l-0.26,0.02c2.45-1.69,4.86-3.36,7.22-4.98c1.18-0.81,2.35-1.62,3.5-2.41c1.16-0.79,2.29-1.58,3.36-2.42
					c4.29-3.35,8-6.98,11.2-10.53l0.02-0.02l0.02-0.01c4.45-3.42,7.9-7.33,10.27-11.21c2.42-3.86,3.81-7.62,4.63-10.77
					c0.81-3.16,1.07-5.72,1.18-7.46c0.06-0.87,0.04-1.54,0.07-1.99c0.01-0.45,0.04-0.68,0.04-0.68s0.02,0.23,0.03,0.68
					c0,0.45,0.04,1.12,0,2c-0.07,1.75-0.28,4.33-1.06,7.52c-0.79,3.18-2.15,6.99-4.57,10.89c-2.37,3.93-5.83,7.9-10.31,11.37
					l0.03-0.03c-3.21,3.6-6.92,7.24-11.24,10.63c-1.08,0.85-2.21,1.65-3.37,2.44c-1.15,0.8-2.32,1.61-3.5,2.42
					c-2.36,1.63-4.77,3.3-7.22,5l-0.13,0.09l-0.13-0.07c-1.44-0.76-2.89-1.54-4.36-2.32c-1.45-0.8-2.87-1.71-4.32-2.58
					c-4.36-2.8-8.39-5.93-11.86-9.42c-3.48-3.48-6.35-7.31-8.65-11.23c-2.32-3.91-4.07-7.89-5.58-11.66
					c-1.51-3.78-2.81-7.36-4.05-10.63l0.21,0.12c-1.97,0.35-3.68,1.34-5.13,2.43c-1.44,1.12-2.64,2.36-3.72,3.57
					c-2.1,2.46-3.63,4.8-4.81,6.75c-1.17,1.96-1.99,3.54-2.53,4.61c-0.26,0.52-0.46,0.93-0.61,1.23
					C154.92,313.36,154.84,313.5,154.83,313.49z"/>
			</g>
		</g>
		<g>
			<g>
				<path class="st7" d="M266.6,288.87c0,0,0.33,5.84-0.72,15.25c-0.53,4.7-1.48,10.28-3.05,16.37c-1.56,6.09-3.79,12.66-6.62,19.38
					l-0.38,0.9l-0.12-0.98c-0.07-0.58-0.13-1.22-0.22-1.85c-0.5-3.69-1.37-7.25-2.52-10.56c-0.58-1.66-1.22-3.26-1.93-4.8
					c-0.35-0.77-0.72-1.52-1.1-2.26c-0.39-0.74-0.74-1.46-1.22-2.09c-0.47-0.62-1.04-1.18-1.72-1.43c-0.67-0.26-1.41-0.09-1.97,0.37
					c-0.56,0.45-1.03,1.07-1.53,1.62c-0.49,0.56-0.97,1.11-1.45,1.66c-1.9,2.17-3.67,4.19-5.29,6.04c-3.23,3.66-5.85,6.63-7.69,8.72
					c-0.9,1-1.6,1.79-2.11,2.35c-0.23,0.25-0.41,0.45-0.56,0.6c-0.13,0.13-0.2,0.2-0.2,0.19c-0.01-0.01,0.05-0.08,0.16-0.23
					c0.14-0.17,0.31-0.38,0.52-0.64c0.49-0.58,1.17-1.39,2.04-2.42c1.81-2.11,4.39-5.12,7.56-8.82c1.6-1.86,3.36-3.9,5.24-6.08
					c0.47-0.55,0.95-1.1,1.44-1.66c0.5-0.55,0.94-1.17,1.58-1.69c0.62-0.53,1.59-0.78,2.41-0.45c0.82,0.31,1.43,0.93,1.94,1.58
					c0.52,0.66,0.89,1.42,1.28,2.15c0.38,0.74,0.76,1.5,1.11,2.27c0.71,1.55,1.37,3.17,1.96,4.84c1.17,3.35,2.05,6.93,2.55,10.66
					c0.1,0.64,0.15,1.28,0.22,1.87l-0.5-0.08c2.82-6.69,5.06-13.24,6.64-19.3c1.59-6.06,2.58-11.61,3.15-16.29
					c0.58-4.68,0.81-8.49,0.92-11.12c0.07-1.31,0.07-2.34,0.1-3.03c0.01-0.32,0.03-0.58,0.03-0.79
					C266.59,288.96,266.6,288.87,266.6,288.87z"/>
			</g>
		</g>
		<g>
			<g>
				<path class="st7" d="M192.02,261.24c0.01,0.01-0.05,0.07-0.15,0.2c-0.13,0.14-0.29,0.32-0.48,0.54
					c-0.45,0.45-1.02,1.19-1.76,2.14c-1.43,1.93-3.23,4.94-4.79,8.95c-1.6,3.99-2.93,8.98-3.59,14.62
					c-0.62,5.64-0.55,11.96,0.8,18.38c0.64,3.22,1.62,6.28,2.8,9.13c1.13,2.88,2.6,5.48,4.11,7.89c3.1,4.76,6.7,8.48,10,11.22
					c1.61,1.43,3.25,2.48,4.62,3.51c1.46,0.9,2.68,1.72,3.73,2.31c1.03,0.56,1.84,1.01,2.43,1.34c0.25,0.15,0.46,0.26,0.63,0.36
					c0.14,0.08,0.21,0.13,0.21,0.14c0,0.01-0.08-0.02-0.23-0.09c-0.17-0.08-0.39-0.19-0.65-0.31c-0.61-0.31-1.44-0.72-2.48-1.25
					c-1.07-0.57-2.31-1.37-3.79-2.25c-1.39-1-3.06-2.05-4.7-3.46c-3.35-2.73-7.02-6.45-10.17-11.24c-1.53-2.42-3.02-5.05-4.18-7.95
					c-1.19-2.88-2.19-5.97-2.83-9.22c-1.37-6.48-1.42-12.86-0.77-18.54c0.69-5.69,2.07-10.7,3.72-14.7
					c1.62-4.02,3.49-7.03,4.97-8.94c0.77-0.94,1.37-1.66,1.84-2.09c0.21-0.2,0.38-0.37,0.52-0.51
					C191.95,261.29,192.01,261.24,192.02,261.24z"/>
			</g>
		</g>
		<g>
			<g>
				<path class="st7" d="M106.94,357.33c0.01-0.01,0.08,0.09,0.2,0.29c0.14,0.25,0.32,0.55,0.54,0.93l-0.15,0.05
					c-0.71-3.36-2.66-13.66-4.86-25.85c-1.33-7.51-2.53-14.3-3.41-19.3c-0.4-2.42-0.73-4.4-0.98-5.86c-0.1-0.65-0.18-1.18-0.24-1.6
					c-0.05-0.37-0.07-0.56-0.05-0.56s0.07,0.18,0.15,0.54c0.09,0.42,0.2,0.94,0.34,1.58c0.28,1.45,0.67,3.42,1.14,5.83
					c0.92,5,2.18,11.78,3.56,19.27c2.2,12.18,4,22.52,4.5,25.91l0.08,0.51l-0.22-0.46c-0.19-0.39-0.34-0.71-0.47-0.96
					C106.97,357.44,106.93,357.33,106.94,357.33z"/>
			</g>
		</g>
		<g>
			<g>
				<path class="st7" d="M104.53,355.27c-0.13,0.06-2.65-5.01-5.62-11.32c-2.98-6.31-5.28-11.48-5.15-11.54
					c0.13-0.06,2.65,5,5.62,11.32C102.35,350.04,104.66,355.21,104.53,355.27z"/>
			</g>
		</g>
		<g>
			<path class="st9" d="M100.68,362.45"/>
		</g>
		<g class="st8">
			<g>
				<path d="M103.5,465.22c6.27,3.15,20.8-2.41,26.08-9.34c5.28-6.93,6.81-15.94,7.96-24.58c1.73-13.02,2.96-26.11,3.7-39.22
					c10.76,7.87,24.24,11.95,37.55,11.34c8.48-0.38,18.15-3.75,20.77-11.83c2.6-7.99-2.99-16.2-8.8-22.27
					c-5.53-5.78-11.56-11.07-18.01-15.8c-4.24-3.1-8.87-6.04-14.09-6.61c-5.63-0.62-11.32,1.69-15.61,5.4
					c-4.28,3.71-7.27,8.71-9.46,13.93c-6.69,15.94-6.33,33.8-7.69,51.03c-1.37,17.24-3.19,35.09-18.47,46.31"/>
			</g>
		</g>
		<g>
			<g>
				<path class="st7" d="M103.91,465.28c0-0.01,0.14-0.08,0.43-0.21c0.32-0.14,0.74-0.32,1.26-0.54c1.05-0.59,2.6-1.45,4.28-2.94
					c3.41-2.9,7.62-7.84,11.55-14.4l-0.03,0.08c0.91-6.85,1.98-14.85,3.12-23.35c1.83-13.48,3.46-25.68,4.76-34.5
					c0.81-4.35,1.47-7.89,1.93-10.38c0.23-1.19,0.42-2.13,0.55-2.82c0.06-0.3,0.11-0.54,0.16-0.73c0.04-0.16,0.06-0.25,0.07-0.25
					c0.01,0,0,0.09-0.02,0.26c-0.03,0.2-0.06,0.44-0.11,0.74c-0.11,0.69-0.26,1.64-0.45,2.83c-0.42,2.5-1.03,6.04-1.77,10.4
					c-1.19,8.87-2.81,21.05-4.61,34.52c-1.16,8.5-2.25,16.49-3.18,23.34l-0.01,0.05l-0.02,0.04c-4.01,6.59-8.28,11.51-11.78,14.38
					c-1.72,1.47-3.32,2.31-4.39,2.86c-0.56,0.23-1.01,0.38-1.3,0.48C104.07,465.25,103.91,465.3,103.91,465.28z"/>
			</g>
		</g>
		<g>
			<g>
				<path class="st7" d="M200.17,467.45c-0.01,0-0.04-0.1-0.09-0.32c-0.06-0.24-0.13-0.55-0.22-0.94c-0.17-0.83-0.51-2.04-0.77-3.63
					c-0.59-3.16-1.2-7.8-1.38-13.56c-0.16-5.76,0.11-12.63,1.08-20.18c0.92-7.56,2.45-15.79,4.23-24.38
					c1.71-8.62,3.86-16.71,5.59-24.1c1.77-7.39,2.9-14.15,3.21-19.88c0.3-5.73-0.06-10.38-0.5-13.56c-0.17-1.6-0.45-2.82-0.56-3.66
					c-0.06-0.4-0.11-0.71-0.14-0.95c-0.03-0.22-0.04-0.33-0.03-0.33c0.01,0,0.04,0.11,0.08,0.32c0.05,0.24,0.11,0.55,0.2,0.94
					c0.14,0.83,0.45,2.05,0.65,3.65c0.5,3.18,0.92,7.85,0.66,13.61c-0.26,5.76-1.36,12.57-3.11,19.97
					c-1.72,7.42-3.85,15.49-5.55,24.1c-1.78,8.59-3.32,16.8-4.26,24.34c-0.99,7.53-1.3,14.38-1.19,20.11
					c0.13,5.74,0.68,10.36,1.21,13.53c0.23,1.59,0.53,2.8,0.67,3.64c0.07,0.39,0.13,0.71,0.17,0.95
					C200.16,467.34,200.17,467.45,200.17,467.45z"/>
			</g>
		</g>
		<g>
			<g>
				<path class="st7" d="M216.99,354.7c-0.13-0.08,1.6-2.84,3.52-6.35c1.93-3.51,3.31-6.44,3.45-6.38c0.06,0.03-0.2,0.8-0.72,2.01
					c-0.52,1.21-1.31,2.85-2.27,4.62c-0.97,1.76-1.93,3.31-2.67,4.4C217.56,354.09,217.05,354.73,216.99,354.7z"/>
			</g>
		</g>
		<g class="st8">
			<g>
				<path d="M220.22,350.54c5.21-6.1,10.86-11.82,16.9-17.12c1.65-1.45,3.44-2.92,5.61-3.28c2.64-0.44,5.33,0.92,7.16,2.88
					c1.83,1.96,2.97,4.44,4.08,6.88c2.62-6.45-0.1-13.7-2.8-20.12c-0.88-2.09-2.4-4.56-4.64-4.23c-1.19,0.18-2.09,1.15-2.88,2.06
					c-8.66,10.05-16.68,20.67-23.99,31.74"/>
			</g>
		</g>
		<g class="st8">
			<g>
				<path d="M308.14,302.91l0.37-3.17c-3.81,0.36-8.49,0.81-11.53,3.13c-3.55,2.71-4.95,7.32-6.14,11.62
					c-2.72,9.79,4.99,60.14,4.6,70.29c3.38-1.43,5.75-23.04,6.36-26.66c1.48-8.81-1.51-14.31-0.61-16.77
					c0.91-2.45,0.88-5.13,0.96-7.75C302.47,321.91,303.63,313.69,308.14,302.91"/>
			</g>
		</g>
	</g>
	<g>
		<g>
			<g>
				<path class="st7" d="M258.43,141.31c-4.84-6-3.26-15.59,2.28-20.95c5.54-5.36,13.97-6.91,21.57-5.63
					c11.01,1.85,20.91,9.33,25.71,19.4c2.59,5.45,4.01,11.88,8.77,15.59c4.18,3.26,9.94,3.54,14.7,5.87
					c6.38,3.13,10.5,9.81,11.96,16.77c1.46,6.96,0.58,14.19-0.89,21.15c-1.35,6.38-3.15,13.28-0.41,19.2
					c2.67,5.77,8.92,8.92,13.03,13.77c7.73,9.13,5.98,24.68-3.6,31.86c-3.05,2.29-6.91,4.03-8.37,7.56
					c-1.33,3.22-0.2,6.87-0.26,10.36c-0.18,8.97-10.06,16.34-18.71,13.96c-4.37-1.2-8.39-4.43-12.87-3.81
					c-4.46,0.61-7.43,4.73-11.05,7.4c-7.12,5.25-18.04,4.44-24.31-1.8c-2.63-2.61-4.74-6.17-8.32-7.12
					c-3.57-0.95-7.33,1.1-10.99,0.61c-4.79-0.65-7.94-5.41-9.36-10.04c-1.42-4.63-1.8-9.64-4.19-13.85
					c-3.13-5.51-9.1-8.62-14.11-12.5c-11.06-8.55-18.16-22.03-18.95-35.99c-0.79-13.96,4.74-28.16,14.76-37.91"/>
			</g>
		</g>
	</g>
	<g>
		<g>
			<path class="st10" d="M191.36,261.27c-9.57,10.97-13.34,26.73-9.78,40.84c3.56,14.11,15.37,34.74,28.99,39.86
				c8.84-6.48,20.2-15.53,28.44-22.75c5.33-4.67,8.16-11.5,10.8-18.09c1.52-3.8,3.07-7.9,2.12-11.88c-0.7-2.93-2.69-5.37-4.78-7.54
				c-13.41-13.94-33.84-20.76-52.94-17.66"/>
		</g>
		<g>
			<g>
				<g>
					<g>
						<g>
							<g>
								<g>
									<g>
										<g>
											<g>
												<g>
													<g>
														<g>
															<g>
																<g>
																	<path class="st10" d="M231.83,159.68L231.83,159.68c5.07-10.28,16.64-15.61,27.74-12.78l34.12,8.7
																		c17.05,5.5,30.4,31.88,20.35,54.99c-7.94,18.25-16.07,41.18-24.22,53.78C273.42,289.7,251,283.91,251,283.91
																		l-12.1,26.99l-49.47-46.39L231.83,159.68z"/>
																</g>
															</g>
														</g>
														<g>
															<g>
																<g>
																	<g>
																		<g>
																			<g>
																				<g>
																					<g>
																						<g>
																							<g>
																								<g>
																									<g>
																										<path class="st7" d="M289.43,217.73c0.64-0.24,2.32,2.95,6.02,4.73c3.68,1.83,7.31,1.24,7.5,1.89
																											c0.1,0.3-0.73,0.9-2.33,1.18c-1.58,0.29-3.97,0.17-6.27-0.96c-2.3-1.13-3.83-2.92-4.52-4.33
																											C289.11,218.82,289.12,217.83,289.43,217.73z"/>
																									</g>
																								</g>
																							</g>
																						</g>
																					</g>
																				</g>
																			</g>
																		</g>
																	</g>
																</g>
															</g>
														</g>
														<g>
															<g>
																<g>
																	<g>
																		<g>
																			<g>
																				<g>
																					<g>
																						<g>
																							<g>
																								<g>
																									<g>
																										<path class="st7" d="M250.8,200.14c0.73-0.13,2.38,3.42,6.36,5.88c3.95,2.51,8.01,2.54,8.17,3.24
																											c0.09,0.32-0.86,0.79-2.65,0.8c-1.76,0.03-4.4-0.52-6.87-2.07c-2.47-1.55-4.05-3.64-4.73-5.2
																											C250.38,201.21,250.45,200.19,250.8,200.14z"/>
																									</g>
																								</g>
																							</g>
																						</g>
																					</g>
																				</g>
																			</g>
																		</g>
																	</g>
																</g>
															</g>
														</g>
														<g>
															<g>
																<g>
																	<g>
																		<g>
																			<g>
																				<g>
																					<g>
																						<g>
																							<g>
																								<g>
																									<path class="st7" d="M267.17,237.86c0.08-0.22,2.59,0.41,6.6,1.6c1,0.33,2,0.54,2.45-0.05
																										c0.53-0.59,0.59-1.81,0.62-3.13c0.13-2.72,0.26-5.58,0.4-8.57c0.67-12.16,1.61-21.98,2.1-21.95
																										c0.49,0.03,0.34,9.91-0.33,22.07c-0.19,2.99-0.37,5.84-0.54,8.56c-0.12,1.25-0.04,2.77-1.17,3.99
																										c-0.58,0.6-1.51,0.81-2.2,0.7c-0.7-0.09-1.24-0.31-1.73-0.5C269.46,239.11,267.09,238.08,267.17,237.86z"
																										/>
																								</g>
																							</g>
																						</g>
																					</g>
																				</g>
																			</g>
																		</g>
																	</g>
																</g>
															</g>
														</g>
														<g>
															<g>
																<g>
																	<g>
																		<g>
																			<g>
																				<g>
																					<g>
																						<g>
																							<g>
																								<path class="st11" d="M250.95,283.97c0,0-19.76-7.41-33.08-26.37c0,0,0.75,23.15,30.05,33.16L250.95,283.97
																									z"/>
																							</g>
																						</g>
																					</g>
																				</g>
																			</g>
																		</g>
																	</g>
																</g>
															</g>
														</g>
													</g>
												</g>
											</g>
											<g>
												<g>
													<g>
														<g>
															<g>
																<g>
																	<g>
																		<g>
																			<g>
																				<g>
																					<path class="st7" d="M253.9,187.32c0.63-1.01,4.54,0.36,9.38,0.79c4.83,0.53,8.93-0.05,9.35,1.06
																						c0.18,0.53-0.7,1.42-2.46,2.15c-1.75,0.73-4.4,1.22-7.3,0.94c-2.9-0.29-5.4-1.29-6.97-2.35
																						C254.31,188.84,253.62,187.8,253.9,187.32z"/>
																				</g>
																			</g>
																		</g>
																	</g>
																</g>
															</g>
														</g>
													</g>
												</g>
											</g>
											<g>
												<g>
													<g>
														<g>
															<g>
																<g>
																	<g>
																		<g>
																			<g>
																				<g>
																					<path class="st7" d="M297.49,198.32c1.26-0.01,2.82,3.1,5.52,6.08c2.6,3.06,5.5,5.02,5.31,6.26
																						c-0.12,0.57-1.17,0.82-2.82,0.33c-1.64-0.48-3.83-1.78-5.66-3.86c-1.82-2.07-2.82-4.41-3.07-6.08
																						C296.51,199.35,296.9,198.36,297.49,198.32z"/>
																				</g>
																			</g>
																		</g>
																	</g>
																</g>
															</g>
														</g>
													</g>
												</g>
											</g>
										</g>
									</g>
								</g>
							</g>
						</g>
					</g>
				</g>
			</g>
			<g>
				<path class="st11" d="M258.5,248.31c0,0,2.32-1.21,1.25-5.67c-1.08-4.45-6.74-8.49-10.33-4.83c0,0-3.62,0.28-2.2,4.46
					c1.43,4.18,9.68,10.08,11.22,6.72"/>
			</g>
			<g>
				<g>
					<g>
						<g>
							<g>
								<g>
									<g>
										<g>
											<g>
												<g>
													<g>
														<path class="st7" d="M257.15,251.72c-0.66-0.11,0.35-4.46-2.66-8.42c-2.99-3.96-7.74-4.55-7.63-5.17
															c0-0.29,1.23-0.6,3.2-0.2c1.93,0.38,4.59,1.65,6.43,4.07c1.83,2.42,2.22,5.17,1.95,6.99
															C258.18,250.85,257.44,251.81,257.15,251.72z"/>
													</g>
												</g>
											</g>
										</g>
									</g>
								</g>
							</g>
						</g>
					</g>
				</g>
			</g>
			<g>
				<g>
					<g>
						<g>
							<path class="st7" d="M202.66,145.47c-5.3,4.07-8.46,10.79-8.2,17.47c0.15,3.74,1.06,8.15-1.69,10.68
								c-2.8,2.58-7.22,1.19-11.03,1.21c-6.63,0.03-12.78,5.55-13.54,12.14c-0.27,2.36,0.04,4.92-1.17,6.97
								c-1.25,2.13-3.77,3.09-5.88,4.37c-5.26,3.19-8.61,9.28-8.5,15.43c0.12,6.15,3.71,12.11,9.09,15.09
								c2.45,1.36,5.31,2.2,7.1,4.36c2.05,2.47,2.13,5.97,3.13,9.01c1.92,5.84,7.81,10.14,13.97,10.18
								c6.15,0.04,12.1-4.16,14.11-9.98"/>
						</g>
					</g>
				</g>
				<g>
					<g>
						<g>
							<g>
								<g>
									<path class="st7" d="M257.96,135.9c-2,5.84-1.27,12.56,1.94,17.84c3.22,5.27,8.85,9,14.96,9.9
										c4.74,0.7,10.4,0.1,13.46,3.78c3.22,3.88,1.31,10.07,3.86,14.42c3.64,6.22,9.84,11.18,15.73,15.33
										c4.54,3.21-0.65,12.14,1.33,17.34c1.98,5.2,10.13,17.06,15.69,17.27c1.22-4.65,8.14-25.07,8.26-29.88
										c0.12-4.81-0.96-9.8-3.94-13.57c-1.63-2.07-3.78-3.72-5.19-5.95c-3.05-4.81-2.02-11.03-3.01-16.63
										c-1.28-7.22-6.28-13.68-12.95-16.73c-5.55-2.54-12.06-2.82-17.19-6.13c-3.79-2.45-6.5-6.36-10.43-8.58
										c-7.65-4.32-17.23-1.03-25.14,2.81"/>
								</g>
							</g>
						</g>
					</g>
				</g>
				<g>
					<g>
						<g>
							<path class="st7" d="M221.13,194.03c-0.79-0.53-6.03,3.44-0.86,6.61c9.07,5.55,16.86-13.19,16.52-19.42
								c4.62-1.95,9.3-3.93,13.36-7.02c4.07-3.09,10.15-13.21,11.24-18.32c3.47,1.41,20.23,1.53,18.78,0.53
								c-3.31-2.29-10-7.2-10.89-11.05c-1.93-8.35-7.86-15.61-15.69-17.8c-7.83-2.18-17.27,1.39-21.59,8.98
								c-9.33-3.08-20.39-0.31-27.83,6.97c-7.44,7.28-10.97,18.78-8.88,28.94c0.55,2.66,1.45,5.44,0.59,8.08
								c-1.06,3.27-4.34,5.03-6.94,7.15c-7.12,5.77-10.18,15.96-9.3,25.16c0.88,9.2,2.45,12.86,7,16.19
								c8.91,6.51-9.61,23.13,6.98,28.74"/>
						</g>
					</g>
				</g>
				<g>
					<g>
						<g>
							<g>
								<path class="st12" d="M344.96,257.55c-0.05-0.07,0.59-0.41,1.56-1.33c0.96-0.91,2.34-2.38,3.34-4.7
									c1.02-2.27,1.72-5.44,0.94-8.92c-0.78-3.48-3.41-6.81-6.93-9.64c-3.42-2.94-7.91-5.56-11.09-10.19
									c-3.22-4.65-3.75-10.97-2.73-16.97c1-6.09,3.54-12.01,5.17-18.31c0.82-3.15,1.33-6.43,1.22-9.75
									c-0.11-3.3-0.84-6.68-2.61-9.54c-1.76-2.86-4.47-5-7.44-6.45c-2.98-1.46-6.2-2.31-9.4-2.86c-3.21-0.54-6.49-0.84-9.6-1.84
									c-3.1-0.93-6.06-2.97-7.47-5.88c-1.45-2.86-1.77-5.89-2.41-8.64c-0.56-2.78-1.61-5.28-3.23-7.35
									c-3.18-4.19-7.89-6.51-12.25-7.33c-4.43-0.8-8.57,0.06-11.86,1.43c-3.3,1.41-5.82,3.29-7.69,5c-3.7,3.5-4.93,6.15-5.08,6.04
									c-0.02-0.01,0.05-0.17,0.22-0.48c0.17-0.3,0.39-0.77,0.77-1.33c0.71-1.15,1.9-2.78,3.73-4.6c1.85-1.8,4.37-3.79,7.75-5.3
									c3.36-1.47,7.66-2.45,12.31-1.67c4.57,0.8,9.53,3.16,12.95,7.58c1.74,2.16,2.91,4.92,3.5,7.76
									c0.66,2.81,1.02,5.77,2.35,8.34c1.28,2.59,3.84,4.37,6.78,5.25c2.94,0.94,6.15,1.23,9.43,1.77
									c3.28,0.56,6.62,1.43,9.76,2.96c3.13,1.51,6.07,3.81,7.98,6.93c1.92,3.11,2.69,6.72,2.8,10.19
									c0.11,3.48-0.44,6.9-1.28,10.11c-1.69,6.44-4.22,12.3-5.22,18.19c-1.02,5.82-0.52,11.81,2.44,16.17
									c2.93,4.38,7.34,7.06,10.78,10.08c3.54,2.92,6.29,6.46,7.05,10.19c0.76,3.69-0.06,6.97-1.19,9.29
									c-1.11,2.37-2.6,3.83-3.63,4.69C345.64,257.3,344.96,257.55,344.96,257.55z"/>
							</g>
						</g>
					</g>
				</g>
				<g>
					<g>
						<g>
							<g>
								<path class="st12" d="M314.29,197.17c0.12,0.05-0.49,1.43-1.1,4.05c-0.58,2.61-1.13,6.53-0.35,11.26
									c0.38,2.35,1.08,4.9,2.27,7.43c1.14,2.57,2.9,4.96,4.9,7.5c0.97,1.29,1.95,2.68,2.67,4.29c0.74,1.6,1.1,3.47,0.94,5.31
									c-0.29,3.72-2.12,7.02-3.48,10.38c-1.43,3.33-2.23,6.9-0.92,9.99c1.22,3.09,3.69,5.44,5.94,7.69
									c2.28,2.24,4.48,4.5,5.87,7.13c0.66,1.32,1.12,2.73,1.26,4.11c0.09,1.38,0.04,2.72-0.3,3.94c-1.24,4.96-4.7,7.79-7.15,8.92
									c-1.28,0.54-2.34,0.78-3.06,0.84c-0.72,0.05-1.1,0.05-1.1,0c-0.03-0.16,1.55-0.1,3.93-1.3c2.28-1.21,5.44-4.02,6.48-8.67
									c0.52-2.28,0.3-4.92-1.02-7.33c-1.32-2.42-3.45-4.56-5.76-6.78c-2.26-2.23-4.89-4.63-6.29-8.09
									c-0.69-1.71-0.92-3.66-0.67-5.54c0.24-1.88,0.87-3.68,1.57-5.41c1.41-3.45,3.15-6.66,3.42-9.98
									c0.35-3.34-1.41-6.27-3.3-8.78c-1.93-2.51-3.79-5.09-4.92-7.77c-1.19-2.66-1.86-5.3-2.19-7.74
									c-0.68-4.9,0.03-8.91,0.78-11.53c0.38-1.31,0.76-2.31,1.07-2.96C314.07,197.48,314.25,197.15,314.29,197.17z"/>
							</g>
						</g>
					</g>
				</g>
				<g>
					<g>
						<g>
							<g>
								<path class="st12" d="M164.25,228.56c-0.02,0.02-0.21-0.12-0.57-0.42c-0.37-0.29-0.86-0.78-1.45-1.47
									c-1.15-1.38-2.66-3.72-3.32-7.1c-0.67-3.3-0.41-7.88,2.45-11.88c2.75-3.92,7.96-7.18,14.07-6.89l-0.55,0.73
									c-1.12-3.14-1.96-6.66-1.68-10.4c0.22-3.7,1.99-7.66,5.35-10.04c1.63-1.21,3.7-1.99,5.85-2c2.18,0.01,4.19,0.85,6.04,1.71
									c1.86,0.86,3.68,1.83,5.6,2.16c1.9,0.34,3.87-0.2,5.29-1.57c2.13-1.99,3.09-4.96,3.28-7.86c0.23-2.94-0.05-5.94,0.26-8.93
									c0.61-6,3.49-11.37,7.37-15.16c3.88-3.86,8.87-5.94,13.54-6.57c4.7-0.63,9.13,0.1,12.71,1.6l-0.57,0.22
									c1.58-3.26,4.34-5.28,6.88-6.32c2.57-1.07,5.02-1.22,6.93-1.03c1.93,0.2,3.32,0.79,4.21,1.22c0.87,0.5,1.29,0.81,1.27,0.84
									c-0.06,0.17-1.77-1.28-5.52-1.58c-1.84-0.11-4.19,0.11-6.62,1.19c-2.4,1.05-4.95,3.01-6.36,6.05l-0.18,0.38l-0.39-0.16
									c-3.47-1.38-7.74-2.02-12.23-1.36c-4.47,0.67-9.18,2.69-12.85,6.38c-3.67,3.63-6.38,8.76-6.93,14.43
									c-0.29,2.83,0,5.81-0.23,8.91c-0.2,3.07-1.21,6.41-3.69,8.73c-1.65,1.63-4.18,2.32-6.39,1.89c-2.22-0.39-4.1-1.43-5.93-2.27
									c-1.82-0.85-3.66-1.6-5.5-1.61c-1.84,0.01-3.64,0.66-5.11,1.74c-3.03,2.14-4.66,5.66-4.9,9.12
									c-0.29,3.48,0.48,6.88,1.54,9.94l0.27,0.78l-0.82-0.05c-5.64-0.34-10.62,2.65-13.27,6.31c-2.76,3.71-3.11,8.04-2.55,11.24
									c0.54,3.28,1.91,5.59,2.96,7.01C163.56,227.88,164.3,228.5,164.25,228.56z"/>
							</g>
						</g>
					</g>
				</g>
				<g>
					<g>
						<g>
							<g>
								<path class="st12" d="M257.55,143.43c0.07,0.23-1.95-0.1-4.51,1.75c-2.56,1.81-4.77,6.18-5.42,11.74l-0.06,0.48l-0.47-0.04
									c-4.72-0.39-10.69,1.45-14.73,6.15c-0.97,1.17-1.83,2.54-2.37,3.99c-0.51,1.49-0.77,3.14-1.02,4.84
									c-0.26,1.7-0.49,3.46-1.03,5.24c-0.46,1.76-1.6,3.6-3.15,4.72c-3.32,2.59-7.39,3.04-10.96,3.61
									c-3.63,0.49-7.04,1.09-9.99,2.59c-5.94,2.88-9.86,7.88-11.57,12.53c-1.78,4.69-1.71,8.9-1.36,11.67
									c0.36,2.8,0.95,4.28,0.83,4.32c-0.04,0.02-0.21-0.34-0.48-1.05c-0.25-0.71-0.6-1.77-0.85-3.19c-0.51-2.8-0.74-7.14,1-12.07
									c1.68-4.88,5.69-10.2,11.91-13.29c3.08-1.6,6.73-2.27,10.33-2.77c3.56-0.57,7.43-1.07,10.33-3.36
									c2.86-2.01,3.16-5.8,3.72-9.13c0.26-1.7,0.53-3.42,1.11-5.07c0.63-1.66,1.55-3.08,2.62-4.35c4.4-5.02,10.74-6.84,15.74-6.33
									l-0.53,0.44c0.8-5.78,3.23-10.26,6.07-12.09c1.38-0.92,2.67-1.23,3.52-1.31C257.1,143.38,257.55,143.38,257.55,143.43z"/>
							</g>
						</g>
					</g>
				</g>
			</g>
			<g>
				<g>
					<g>
						<g>
							<g>
								<g>
									<g>
										<g>
											<g>
												<g>
													<g>
														<g>
															<g>
																<path class="st10" d="M223.06,196.87c2.85-5.59-0.98-12.61-7.25-12.6c-3.44,0.01-7.15,1.87-10.23,7.78
																	c-8.21,15.74,9.29,20.74,9.55,20.3C215.29,212.08,219.72,203.42,223.06,196.87z"/>
															</g>
														</g>
													</g>
												</g>
											</g>
										</g>
									</g>
								</g>
							</g>
						</g>
					</g>
				</g>
				<g>
					<g>
						<g>
							<g>
								<g>
									<g>
										<g>
											<g>
												<g>
													<g>
														<g>
															<g>
																<g>
																	<path class="st11" d="M213.43,203.88c-0.04-0.09-0.37,0.05-0.95,0.02c-0.56-0.03-1.41-0.29-2.07-1.03
																		c-1.34-1.48-1.37-4.85,0.04-7.73c0.71-1.45,1.72-2.66,2.81-3.53c1.08-0.9,2.25-1.32,3.16-1.03
																		c0.93,0.24,1.26,1.05,1.23,1.6c-0.02,0.55-0.28,0.81-0.21,0.88c0.02,0.06,0.48-0.09,0.69-0.8
																		c0.1-0.35,0.11-0.81-0.1-1.31c-0.22-0.5-0.69-0.95-1.31-1.19c-1.26-0.55-2.93,0-4.14,0.95
																		c-1.27,0.92-2.44,2.26-3.24,3.89c-1.55,3.22-1.48,7.04,0.46,8.88c0.96,0.87,2.05,1.01,2.72,0.89
																		C213.21,204.24,213.47,203.94,213.43,203.88z"/>
																</g>
															</g>
														</g>
													</g>
												</g>
											</g>
										</g>
									</g>
								</g>
							</g>
						</g>
					</g>
				</g>
			</g>
		</g>
	</g>
	<g>
		<g>
			<g>
				<path class="st7" d="M207.38,415.49c-1.39-2.58-4.97-4.17-4.97-4.17l-2.98-7.35c0,0,1.19-2.58,0-5.76
					c-1.19-3.18-9.93-21.66-9.74-22.25l-2.26-0.13c0,0,8.06,19.55,8.85,20.55c0.79,0.99,1.95,6.81-0.03,7.61
					c-1.99,0.79-6.21-1.36-8-3.15c-1.79-1.79-7.48-15.24-8.48-18.02c-0.99-2.78,0.78-6.65,0.78-6.65l1.59-3.77h-2.19
					c0,0-1.39,3.97-2.19,7.75c-0.79,3.78,8.15,20.27,9.54,22.05c1.39,1.79,6.16,3.18,8.74,4.97c2.58,1.79,2.19,7.35,2.19,7.35
					s-2.19,2.98-2.38,6.56s7.75,20.46,13.11,24.04c5.36,3.58,11.72,0.99,12.32,1.19c0.6,0.2,1.99-2.78,1.99-2.78
					S208.77,418.07,207.38,415.49z M214.7,445.02c-2.86-0.23-5.81-2.19-7.38-4.27c-0.65-0.86-7.61-12.97-8.5-15.22
					c-1.57-3.93-0.48-6.11,0.09-8.42c0.83-3.34,6-1.38,6-1.38s15.22,26.3,14.87,27.1C219.43,443.63,217.56,445.25,214.7,445.02z"/>
			</g>
			<g>
				<path class="st7" d="M223.27,443.5c0,0,44.31-16.86,46.38-18.77c2.07-1.91,9.55-12.89,9.55-12.89s3.66,0.64,3.18,1.59
					c-0.48,0.95-7.48,11.94-14.96,15.12c-7.48,3.18-46.14,17.74-46.14,17.74L223.27,443.5z"/>
			</g>
		</g>
		<g>
			<g>
				<path class="st6" d="M83.05,304.55L64.8,409.81c0,0-6.72,20.48-5.76,24.96c0.96,4.48,4.35,23.81,14.59,29.89
					c10.24,6.08,30.52,2.11,34.68-2.05c4.16-4.16,12.36-11.78,13.32-15.3c0.96-3.52,7.69-57.04,7.69-57.04l2.67-15.01
					c0,0-9.92,3.2-16-0.96c-6.08-4.16-14.08-22.08-14.08-22.08l-8.96,13.76L83.05,304.55z"/>
			</g>
			<g>
				<g>
					<path class="st7" d="M101.92,352.21c0.01,0.01-0.11,0.21-0.35,0.59c-0.28,0.42-0.64,0.97-1.08,1.64
						c-0.94,1.43-2.3,3.49-3.93,6.08c-3.28,5.15-7.67,12.37-12.46,20.37c-4.79,8.01-9.11,15.27-12.32,20.47
						c-1.6,2.6-2.93,4.7-3.86,6.13c-0.45,0.68-0.81,1.22-1.09,1.64c-0.25,0.37-0.39,0.56-0.41,0.55c-0.02-0.01,0.1-0.22,0.32-0.61
						c0.26-0.43,0.59-0.99,1.01-1.69c0.91-1.52,2.17-3.63,3.71-6.21c3.15-5.3,7.44-12.54,12.19-20.55c4.79-8,9.23-15.2,12.59-20.31
						c1.67-2.56,3.08-4.6,4.07-5.99c0.48-0.66,0.87-1.18,1.16-1.59C101.75,352.38,101.9,352.2,101.92,352.21z"/>
				</g>
			</g>
			<g>
				<g>
					<path class="st7" d="M129.7,388.16c0.01,0.01-0.12,0.16-0.38,0.44c-0.27,0.27-0.63,0.69-1.17,1.17
						c-1.06,0.97-2.7,2.3-5.05,3.41c-1.18,0.53-2.52,1.03-4.03,1.27c-1.5,0.27-3.15,0.35-4.86,0.12c-1.7-0.22-3.46-0.68-5.18-1.4
						c-1.71-0.73-3.41-1.66-5.03-2.79c-1.59-1.17-3-2.5-4.23-3.9c-1.2-1.43-2.22-2.91-3.05-4.4c-1.66-3-2.56-5.98-3.03-8.51
						c-0.46-2.54-0.48-4.64-0.41-6.07c0.03-0.72,0.12-1.27,0.16-1.65c0.05-0.38,0.08-0.57,0.1-0.57c0.05,0-0.02,0.8-0.05,2.22
						c-0.01,1.43,0.07,3.5,0.57,6c0.51,2.49,1.43,5.41,3.09,8.34c0.83,1.46,1.84,2.91,3.02,4.31c1.21,1.37,2.59,2.67,4.15,3.81
						c1.58,1.1,3.25,2.02,4.92,2.75c1.68,0.71,3.39,1.17,5.04,1.39c1.65,0.24,3.26,0.18,4.72-0.07c1.47-0.22,2.79-0.69,3.95-1.18
						c2.31-1.05,3.98-2.31,5.06-3.23C129.1,388.68,129.67,388.12,129.7,388.16z"/>
				</g>
			</g>
			<g>
				<path class="st10" d="M101.92,352.21l13.65-8.78c0,0,36.41-14.79,40.1-15.64c3.7-0.85,7.96-2.56,9.95,0
					c1.99,2.56,22.75,17.63,22.75,17.63s12.23,23.04,12.23,26.17s3.41,7.13,0,8.26c-3.41,1.13-3.41,1.13-3.41,1.13
					s-1.14,5.58-5.4,6.2c-4.27,0.62-5.69,0-5.69,0s-0.28,5.58-3.7,5.23c-3.41-0.34-9.1-5.23-9.1-5.23s-2.56,2.9-4.55,2.9
					c-1.99,0-8.25-4.27-8.25-4.27l-12.1-10.52l-10.66-3.7l-5.76,3.66c0,0-12.31,1.05-14.15,0.04
					C115.99,374.29,101.92,352.21,101.92,352.21z"/>
			</g>
			<g>
				<g>
					<path class="st11" d="M171.82,388.16c-0.03,0.01-0.26-0.57-0.63-1.61c-0.18-0.53-0.41-1.17-0.72-1.89
						c-0.3-0.73-0.61-1.57-1.05-2.46c-0.41-0.9-0.87-1.89-1.44-2.91c-0.52-1.04-1.18-2.1-1.85-3.22c-1.41-2.21-3.09-4.55-5.08-6.83
						c-2.01-2.26-4.11-4.24-6.11-5.92c-1.03-0.81-1.99-1.6-2.96-2.26c-0.94-0.69-1.85-1.28-2.69-1.8c-0.82-0.55-1.62-0.96-2.3-1.36
						c-0.68-0.4-1.28-0.71-1.78-0.96c-0.99-0.5-1.53-0.8-1.52-0.83c0.01-0.03,0.58,0.2,1.61,0.65c0.51,0.22,1.14,0.5,1.83,0.88
						c0.7,0.37,1.51,0.77,2.36,1.3c0.86,0.51,1.79,1.08,2.75,1.76c0.99,0.64,1.97,1.43,3.01,2.24c2.04,1.68,4.17,3.67,6.2,5.95
						c2,2.31,3.7,4.68,5.09,6.92c0.67,1.14,1.32,2.22,1.83,3.28c0.56,1.04,1,2.04,1.39,2.96c0.42,0.91,0.71,1.77,0.99,2.51
						c0.29,0.74,0.49,1.39,0.64,1.93C171.7,387.55,171.85,388.15,171.82,388.16z"/>
				</g>
			</g>
			<g>
				<g>
					<path class="st11" d="M186.08,387.81c-0.02,0.01-0.12-0.14-0.31-0.44c-0.18-0.3-0.47-0.73-0.78-1.32
						c-0.63-1.17-1.43-2.93-2.22-5.18c-0.8-2.24-1.56-4.97-2.46-7.97c-0.93-2.98-2-6.27-3.84-9.35c-1.8-3.11-4.33-5.5-6.84-7.33
						c-2.52-1.84-4.94-3.32-6.79-4.83c-1.87-1.49-3.16-2.97-3.86-4.11c-0.34-0.57-0.6-1.03-0.72-1.36c-0.14-0.32-0.21-0.49-0.19-0.5
						c0.06-0.03,0.34,0.66,1.08,1.74c0.74,1.09,2.05,2.49,3.92,3.93c1.86,1.46,4.29,2.9,6.85,4.73c2.55,1.83,5.16,4.28,7.01,7.45
						c1.88,3.15,2.95,6.48,3.86,9.48c0.88,3.01,1.6,5.74,2.35,7.98c0.74,2.25,1.48,4.01,2.05,5.2
						C185.76,387.14,186.12,387.78,186.08,387.81z"/>
				</g>
			</g>
			<g>
				<g>
					<path class="st11" d="M196.34,381.21c-0.02,0-0.07-0.17-0.15-0.5c-0.09-0.39-0.2-0.86-0.34-1.44
						c-0.13-0.63-0.31-1.39-0.57-2.26c-0.25-0.87-0.49-1.88-0.87-2.96c-0.35-1.09-0.74-2.28-1.25-3.52
						c-0.46-1.27-1.07-2.57-1.68-3.95c-1.31-2.72-2.91-5.64-4.86-8.53c-1.98-2.88-4.1-5.44-6.15-7.66
						c-1.06-1.08-2.04-2.13-3.05-3.01c-0.97-0.93-1.93-1.73-2.82-2.46c-0.86-0.75-1.71-1.35-2.43-1.9c-0.72-0.56-1.36-1.01-1.9-1.36
						c-0.49-0.34-0.89-0.62-1.21-0.85c-0.27-0.2-0.41-0.31-0.4-0.33c0.01-0.02,0.17,0.07,0.46,0.24c0.34,0.21,0.76,0.46,1.27,0.76
						c0.55,0.33,1.22,0.75,1.95,1.29c0.74,0.53,1.61,1.11,2.49,1.85c0.9,0.71,1.89,1.5,2.88,2.43c1.03,0.88,2.03,1.93,3.11,3
						c2.09,2.22,4.24,4.8,6.23,7.7c1.96,2.92,3.57,5.87,4.87,8.62c0.61,1.4,1.21,2.71,1.65,4c0.5,1.26,0.87,2.47,1.2,3.57
						c0.36,1.09,0.58,2.11,0.8,3c0.23,0.88,0.38,1.66,0.48,2.29c0.1,0.59,0.18,1.07,0.25,1.46
						C196.34,381.03,196.36,381.21,196.34,381.21z"/>
				</g>
			</g>
			<g>
				<g>
					<path class="st11" d="M142.76,342.39c0.01,0.09-0.71,0.19-1.76,0.65c-1.04,0.44-2.42,1.31-3.46,2.69
						c-1.04,1.38-1.5,2.94-1.65,4.06c-0.15,1.13-0.06,1.86-0.15,1.87c-0.06,0.01-0.28-0.7-0.22-1.9c0.05-1.18,0.48-2.86,1.6-4.34
						c1.12-1.48,2.62-2.34,3.74-2.71C142,342.31,142.76,342.33,142.76,342.39z"/>
				</g>
			</g>
			<g>
				<g>
					<path class="st11" d="M152.9,332.75c0.08,0.13-1.68,1.25-3.42,3.11c-1.76,1.84-2.78,3.66-2.91,3.59
						c-0.12-0.05,0.72-2.04,2.54-3.95C150.9,333.58,152.85,332.63,152.9,332.75z"/>
				</g>
			</g>
		</g>
	</g>
	<g>
		<g>
			<g>
				<g>
					<g>
						<path class="st10" d="M295.61,214c-1.73,0.71-2.08,2.78-2.05,4.65c0.03,2.34,0.62,2.72,2.54,6.65
							c3.12,6.41,6.86,18.57,6.86,18.57s-3.06,30.7-1.05,37.91c1.82,6.51,7.97,8.17,7.97,8.17l-2.8,23.71h33.49
							c0,0-1.19-22.95-1.91-29.95c-0.76-7.4-0.25-52.15-0.25-52.15l-3.29-23.9l-7.76-13.41c0,0-4.04,2.43-2.29,7.34
							c1.75,4.92,2.9,14.34,2.9,14.34l-19.39-29.18c0,0-3.81,0.91-4.04,7.96c0,0-5.64,3.67-2.01,9.63
							c4.05,6.65,8.26,26.63,6.78,26.64l-12.03-17.67L295.61,214z"/>
					</g>
				</g>
				<g>
					<g>
						<g>
							<path class="st11" d="M307.08,313.66c0,0,0.04-0.53,0.15-1.57c0.12-1.05,0.29-2.59,0.51-4.59c0.46-4.04,1.14-9.97,2.01-17.56
								l0.09,0.14c-1.5-0.47-2.95-1.27-4.26-2.37c-1.32-1.09-2.45-2.52-3.2-4.22c-0.8-1.69-1.01-3.64-1.17-5.59
								c-0.12-1.97-0.16-4-0.14-6.1c0.09-8.39,0.74-17.76,1.69-27.94l0.01,0.08c-1.57-4.94-3.3-10.15-5.48-15.43
								c-0.55-1.32-1.14-2.63-1.8-3.93c-0.62-1.32-1.43-2.54-1.91-4.03c-0.21-0.75-0.25-1.53-0.24-2.29
								c0.02-0.76,0.09-1.54,0.33-2.3c0.23-0.75,0.68-1.5,1.4-1.94c0.36-0.23,0.73-0.35,1.07-0.5l1.06-0.44l0.18-0.07l0.11,0.16
								c3.99,5.85,8.21,12.05,12.55,18.42l-0.45,0.09c0.19-1.48,0.11-3.07-0.06-4.63c-0.19-1.56-0.43-3.13-0.8-4.68
								c-0.69-3.12-1.67-6.21-2.8-9.29c-1.1-3.09-2.49-6.09-3.84-9.18c-0.64-1.57-0.98-3.37-0.54-5.09c0.4-1.72,1.43-3.25,2.86-4.32
								l-0.11,0.19c0.19-1.48,0.48-3.02,1.07-4.51c0.29-0.74,0.68-1.47,1.17-2.13c0.51-0.65,1.1-1.26,2-1.55l0.16-0.05l0.11,0.16
								c0.07,0.11,0.15,0.22,0.22,0.34c6.56,9.88,12.97,19.53,19.16,28.85l-0.47,0.17c-0.51-3.89-1.13-7.73-2.05-11.43
								c-0.23-0.92-0.49-1.84-0.8-2.73c-0.3-0.92-0.53-1.89-0.48-2.88c0.07-1.99,1.22-3.81,2.83-4.89l0.21-0.14l0.13,0.23
								c2.65,4.59,5.23,9.06,7.75,13.42l0.02,0.04l0.01,0.05c1.14,8.36,2.24,16.33,3.27,23.9l0,0.02l0,0.02
								c-0.14,12.38-0.21,23.7-0.2,33.73c0.01,5.01,0.04,9.7,0.15,14.02c0.06,2.17,0.18,4.22,0.38,6.2
								c0.17,1.98,0.29,3.87,0.41,5.66c0.46,7.16,0.75,12.78,0.94,16.61c0.09,1.91,0.16,3.37,0.21,4.37c0.04,0.99,0.05,1.5,0.05,1.5
								s-0.05-0.51-0.11-1.5c-0.06-1-0.15-2.46-0.27-4.37c-0.24-3.83-0.56-9.45-1.06-16.6c-0.13-1.79-0.26-3.67-0.44-5.65
								c-0.21-1.97-0.34-4.06-0.41-6.22c-0.13-4.33-0.18-9.02-0.2-14.03c-0.05-10.03,0-21.35,0.11-33.73l0,0.03
								c-1.05-7.56-2.15-15.54-3.31-23.89l0.03,0.09c-2.52-4.36-5.11-8.83-7.76-13.41l0.34,0.09c-1.46,0.98-2.54,2.68-2.59,4.49
								c-0.04,0.91,0.16,1.81,0.46,2.69c0.31,0.91,0.58,1.83,0.81,2.77c0.93,3.74,1.55,7.58,2.07,11.5l0.14,1.09l-0.61-0.92
								c-6.19-9.32-12.61-18.97-19.17-28.84c-0.08-0.12-0.15-0.23-0.22-0.34l0.27,0.11c-0.64,0.2-1.25,0.77-1.7,1.36
								c-0.46,0.61-0.82,1.29-1.1,2c-0.57,1.42-0.85,2.93-1.04,4.38l-0.01,0.11l-0.1,0.07c-1.29,0.96-2.29,2.42-2.65,4
								c-0.41,1.59-0.1,3.27,0.52,4.78c1.33,3.05,2.74,6.09,3.85,9.2c1.14,3.09,2.12,6.21,2.82,9.36c0.37,1.57,0.62,3.16,0.81,4.74
								c0.17,1.59,0.26,3.16,0.05,4.78l-0.08,0.63l-0.37-0.54c-4.34-6.37-8.55-12.57-12.53-18.43l0.29,0.09
								c-0.68,0.3-1.47,0.56-2.07,0.9c-0.6,0.36-0.99,1-1.21,1.68c-0.22,0.69-0.3,1.43-0.31,2.16c-0.01,0.74,0.02,1.47,0.22,2.15
								c0.43,1.36,1.25,2.63,1.88,3.95c0.66,1.31,1.25,2.64,1.8,3.96c2.18,5.31,3.9,10.52,5.47,15.48l0.01,0.04l0,0.04
								c-0.97,10.17-1.64,19.54-1.76,27.91c-0.03,2.09,0.01,4.12,0.12,6.07c0.16,1.95,0.35,3.84,1.13,5.49
								c1.45,3.34,4.4,5.52,7.26,6.46l0.11,0.04l-0.01,0.1c-0.92,7.59-1.64,13.51-2.13,17.55c-0.25,2-0.44,3.54-0.57,4.58
								C307.17,313.13,307.08,313.66,307.08,313.66z"/>
						</g>
					</g>
				</g>
			</g>
			<g>
				<g>
					<path class="st11" d="M321.88,233.55c-0.04,0-0.16-0.59-0.36-1.65c-0.18-1.07-0.51-2.61-0.94-4.51
						c-0.9-3.78-2.43-8.94-4.95-14.31c-2.49-5.38-5.37-9.93-7.54-13.15c-1.08-1.61-1.98-2.91-2.61-3.79
						c-0.62-0.89-0.96-1.4-0.93-1.42c0.03-0.02,0.42,0.44,1.09,1.3c0.68,0.85,1.63,2.11,2.75,3.71c2.25,3.18,5.2,7.73,7.71,13.14
						c2.53,5.41,4.03,10.63,4.84,14.44c0.39,1.91,0.66,3.47,0.78,4.55C321.86,232.95,321.92,233.55,321.88,233.55z"/>
				</g>
			</g>
			<g>
				<g>
					<path class="st11" d="M332.28,226.1c-0.13,0.06-1.23-2.27-2.45-5.2c-1.22-2.93-2.1-5.34-1.97-5.4c0.13-0.06,1.23,2.27,2.45,5.2
						C331.53,223.63,332.41,226.04,332.28,226.1z"/>
				</g>
			</g>
		</g>
		<g>
			<path class="st6" d="M304.41,303.84L304.41,303.84c-5.87,51.87-13.53,107.09-22.33,164.46h68.17h0
				c12.82-28.38,4.98-53.14,1.56-88.43l-11.24-80.13L304.41,303.84z"/>
		</g>
	</g>
	<g>
		<g>
			<path class="st7" d="M282.08,468.3c-0.01,0,0-0.12,0.02-0.34c0.03-0.25,0.07-0.57,0.12-0.98c0.12-0.9,0.3-2.16,0.52-3.78
				c0.48-3.31,1.17-8.04,2.01-13.87c1.73-11.74,4.1-27.9,6.72-45.76c2.57-17.88,4.75-34.09,6.18-45.84
				c0.73-5.87,1.28-10.63,1.65-13.92c0.19-1.62,0.34-2.89,0.44-3.79c0.05-0.41,0.1-0.73,0.13-0.98c0.03-0.22,0.05-0.33,0.06-0.33
				c0.01,0,0.01,0.12-0.01,0.34c-0.02,0.25-0.04,0.58-0.08,0.99c-0.08,0.9-0.2,2.17-0.35,3.8c-0.31,3.3-0.81,8.06-1.49,13.94
				c-1.34,11.76-3.46,27.98-6.03,45.87c-2.57,17.88-5.06,34.04-6.88,45.74c-0.92,5.82-1.66,10.55-2.18,13.85
				c-0.26,1.61-0.47,2.87-0.62,3.76c-0.07,0.41-0.13,0.73-0.17,0.98C282.11,468.19,282.09,468.31,282.08,468.3z"/>
		</g>
	</g>
</g>
<g id="Device">
	<g>
		<g>
			<g>
				<g>
					<path class="st12" d="M429.78,467.85H235.39l25.08-136.43c0.89-4.84,5.11-8.35,10.03-8.35h174.67c6.4,0,11.22,5.83,10.01,12.11
						L429.78,467.85z"/>
				</g>
			</g>
			<g>
				<g>
					<path class="st12" d="M235.39,467.85h-73.73l0.3-0.22c6.58-4.93,14.52-7.71,22.74-7.96l52.73-1.55L235.39,467.85z"/>
				</g>
			</g>
		</g>
		<g>
			<g>
				<g>
					<path class="st7" d="M282.08,323.25c-0.01,0.05-0.54-0.1-1.57-0.11c-1.02-0.01-2.57,0.2-4.32,1.07
						c-1.74,0.86-3.68,2.39-5.18,4.71c-1.5,2.33-2.52,5.38-3.17,8.82c-0.63,3.45-1.19,7.28-1.88,11.37
						c-0.7,4.09-1.45,8.45-2.31,13.04c-1.69,9.17-3.7,19.22-5.88,29.76c-4.39,21.07-8.45,40.12-11.11,53.97
						c-1.34,6.92-2.37,12.53-3.07,16.41c-0.35,1.9-0.62,3.39-0.81,4.47c-0.09,0.48-0.17,0.86-0.23,1.16
						c-0.06,0.26-0.09,0.39-0.1,0.39c-0.01,0,0-0.14,0.03-0.4c0.04-0.3,0.09-0.69,0.16-1.17c0.16-1.08,0.39-2.58,0.68-4.49
						c0.61-3.9,1.57-9.52,2.84-16.46c2.53-13.88,6.51-32.95,10.9-54.02c2.18-10.53,4.21-20.58,5.94-29.73
						c0.88-4.58,1.65-8.94,2.38-13.02c0.71-4.08,1.3-7.89,1.97-11.37c0.69-3.47,1.76-6.57,3.34-8.94c1.58-2.37,3.6-3.91,5.4-4.75
						c1.81-0.85,3.41-1.02,4.44-0.96C281.56,323.05,282.08,323.25,282.08,323.25z"/>
				</g>
			</g>
		</g>
		<g>
			<g>
				<path class="st3" d="M364.18,392.39c0,5.19-4.21,9.4-9.4,9.4c-5.19,0-9.4-4.21-9.4-9.4s4.21-9.4,9.4-9.4
					C359.97,382.99,364.18,387.2,364.18,392.39z"/>
			</g>
		</g>
	</g>
</g>
<g id="Desk">
	<g>
		<g>
			<path class="st7" d="M477.62,468.01c0,0.14-102.36,0.26-228.61,0.26c-126.29,0-228.63-0.12-228.63-0.26s102.34-0.26,228.63-0.26
				C375.25,467.75,477.62,467.86,477.62,468.01z"/>
		</g>
	</g>
</g>
<g id="Lighting_bolts">
	<g>
		<g>
			<polygon class="st6" points="206.58,109.81 203.91,84.7 191.1,87.59 180.06,68.09 186.94,94.45 199.93,91.47 			"/>
		</g>
		<g>
			<polygon class="st6" points="201.36,114.55 189.46,102.3 183.85,109.19 169.84,103.42 184.5,114.58 190.17,107.57 			"/>
		</g>
	</g>
	<g>
		<g>
			<polygon class="st6" points="330,125.38 340.82,105.7 350.33,112.47 366.08,100.27 351.39,119.53 341.75,112.63 			"/>
		</g>
		<g>
			<polygon class="st6" points="349.85,136.61 361.04,131.84 362.83,137.9 373.62,137.97 360.92,141.26 359.12,135.1 			"/>
		</g>
	</g>
</g>
<g id="Line">
	<g>
		<g>
			<path class="st7" d="M272.23,60.15c0,0,0.45-0.29,1.35-0.83c0.91-0.52,2.27-1.29,4.17-2.09c3.75-1.6,9.73-3.56,17.69-3.26
				c0.99,0.05,2.01,0.11,3.05,0.25c1.04,0.11,2.11,0.28,3.18,0.58c1.07,0.3,2.14,0.69,3.15,1.28c1,0.6,1.96,1.39,2.57,2.47
				c0.64,1.06,0.84,2.39,0.62,3.66c-0.25,1.28-0.96,2.44-1.85,3.43c-1.83,1.96-4.33,3.33-7.03,4.25
				c-5.36,1.97-11.54,3.03-18.07,2.59c-6.51-0.43-13.39-2.29-19.7-6.04l-0.14-0.08l0.09-0.14c2.41-3.93,6.07-7.22,10.38-9.54
				c4.32-2.33,9.28-3.76,14.46-4.14c5.19-0.39,10.55,0.13,15.9,1.29c2.67,0.57,5.35,1.28,8.03,2.11c2.67,0.83,5.39,1.69,7.95,3.05
				c2.55,1.33,4.93,3.26,6.41,5.86c0.73,1.3,1.26,2.74,1.39,4.25c0.16,1.51-0.14,3.06-0.74,4.46c-1.25,2.84-3.81,4.85-6.5,6.28
				c-2.72,1.45-5.73,2.36-8.76,3.07c-12.13,2.97-25.37,3.46-38.54,0.98c-0.83-0.14-1.64-0.33-2.46-0.51
				c-0.82-0.17-1.64-0.36-2.46-0.57c-1.64-0.39-3.29-0.83-4.87-1.49c-1.58-0.64-3.12-1.47-4.45-2.61c-1.32-1.13-2.4-2.67-2.69-4.45
				c-0.33-1.76,0.14-3.63,1.12-5.11c0.96-1.5,2.3-2.7,3.73-3.73c1.44-1.03,3.02-1.84,4.61-2.58c0.79-0.4,1.6-0.74,2.42-1.09
				c0.81-0.36,1.63-0.69,2.47-0.99c6.65-2.49,13.82-3.88,21.1-3.99c3.64-0.06,7.31,0.19,10.95,0.76c0.91,0.14,1.82,0.29,2.72,0.49
				c0.9,0.19,1.81,0.37,2.7,0.62c1.8,0.44,3.6,0.96,5.31,1.72c1.72,0.74,3.38,1.69,4.8,2.95c1.42,1.25,2.58,2.9,3.03,4.79l0.15,0.71
				l0.06,0.72c0.07,0.48-0.01,0.97-0.03,1.45c-0.15,0.95-0.39,1.91-0.84,2.77c-0.83,1.76-2.17,3.2-3.62,4.44
				c-1.46,1.24-3.1,2.27-4.8,3.15c-0.85,0.45-1.73,0.83-2.61,1.2c-0.87,0.39-1.76,0.74-2.66,1.09c-3.57,1.39-7.26,2.53-11.03,3.39
				c-7.54,1.75-15.39,2.41-23.24,1.92c-3.92-0.25-7.91-1.07-11.43-3.01c-1.74-0.98-3.36-2.28-4.47-4c-1.09-1.72-1.6-3.8-1.44-5.84
				c0.14-1.68,0.75-3.28,1.63-4.68c0.88-1.41,1.99-2.65,3.21-3.73c2.46-2.17,5.35-3.78,8.33-5.01c5.95-2.53,12.29-4.03,18.65-4.5
				c3.18-0.23,6.37-0.21,9.53,0.07c1.58,0.14,3.15,0.34,4.7,0.61c1.55,0.25,3.12,0.58,4.61,1.11c1.49,0.53,2.95,1.18,4.24,2.12
				c1.29,0.92,2.45,2.12,3.06,3.63c0.65,1.48,0.67,3.21,0.15,4.72c-0.51,1.52-1.48,2.84-2.65,3.89c-2.4,2.12-5.5,3.01-8.45,3.72
				c-2.97,0.71-5.93,1.41-8.89,2.06c-5.91,1.31-11.84,2.41-17.78,2.88c-5.93,0.5-11.88,0.28-17.62-0.85
				c-5.72-1.14-11.22-3.27-15.94-6.5l-0.26-0.18l0.23-0.21c8.22-7.24,18.47-11.57,28.77-13.05c10.32-1.49,20.77-0.15,29.83,3.85
				c1.11,0.56,2.18,1.21,3.12,2.03c0.94,0.81,1.75,1.83,2.16,3.03c0.4,1.21,0.33,2.54-0.18,3.7c-0.52,1.15-1.39,2.07-2.36,2.81
				c-1.95,1.48-4.25,2.27-6.48,3.02c-2.25,0.72-4.54,1.26-6.83,1.62c-4.6,0.7-9.22,0.71-13.66,0.01c-1.11-0.21-2.25-0.52-3.16-1.28
				c-0.92-0.74-1.37-2-1.15-3.15c0.25-1.15,0.96-2.09,1.75-2.86c0.8-0.78,1.73-1.39,2.7-1.89c7.92-3.57,16.45-4.68,24.37-3.82
				c1.98,0.22,3.94,0.59,5.77,1.33c1.82,0.72,3.5,1.86,4.64,3.43c1.14,1.55,1.81,3.48,1.59,5.38c-0.21,1.92-1.42,3.53-2.8,4.7
				c-1.39,1.19-2.96,2.05-4.49,2.93c-1.55,0.83-3.12,1.59-4.72,2.21c-3.18,1.27-6.41,2.14-9.6,2.65
				c-6.38,1.03-12.54,0.61-17.99-0.78l-0.18-0.05l0.11-0.15c2.65-3.64,6.3-6.11,10.01-7.47c3.72-1.36,7.54-1.68,10.92-1.07
				c1.69,0.27,3.3,0.82,4.62,1.73c0.65,0.46,1.22,1.02,1.63,1.67c0.4,0.65,0.67,1.38,0.74,2.11c0.16,1.47-0.38,2.85-1.1,3.94
				c-0.72,1.11-1.65,1.96-2.58,2.67c-1.89,1.42-3.9,2.02-5.53,2.69c-1.65,0.63-3.02,1.21-4.05,1.8c-1.03,0.59-1.74,1.16-2.17,1.57
				c-0.23,0.2-0.37,0.38-0.48,0.48c-0.11,0.11-0.16,0.16-0.16,0.16s0.19-0.24,0.62-0.67c0.43-0.43,1.13-1,2.16-1.61
				c1.03-0.6,2.4-1.2,4.05-1.84c1.63-0.67,3.63-1.29,5.49-2.7c0.92-0.7,1.83-1.56,2.53-2.64c0.71-1.07,1.22-2.41,1.06-3.83
				c-0.07-0.71-0.33-1.4-0.72-2.03c-0.4-0.62-0.95-1.16-1.59-1.61c-1.29-0.88-2.87-1.42-4.54-1.69c-3.35-0.59-7.13-0.26-10.81,1.09
				c-3.66,1.36-7.27,3.81-9.88,7.41l-0.07-0.2c5.42,1.37,11.55,1.78,17.88,0.74c3.16-0.52,6.37-1.39,9.53-2.65
				c1.59-0.62,3.14-1.38,4.68-2.2c1.51-0.87,3.08-1.73,4.43-2.9c1.35-1.14,2.48-2.67,2.68-4.48c0.2-1.8-0.43-3.65-1.54-5.13
				c-1.09-1.51-2.72-2.6-4.49-3.31c-1.78-0.72-3.71-1.08-5.67-1.3c-7.84-0.85-16.33,0.28-24.15,3.81c-0.94,0.49-1.84,1.08-2.6,1.82
				c-0.76,0.73-1.42,1.63-1.63,2.65c-0.19,1.01,0.2,2.11,1.02,2.77c0.81,0.68,1.89,0.99,2.97,1.18c4.39,0.69,8.98,0.68,13.53-0.02
				c2.27-0.36,4.54-0.9,6.77-1.61c2.21-0.75,4.47-1.53,6.35-2.96c0.93-0.71,1.75-1.58,2.22-2.64c0.46-1.06,0.52-2.28,0.16-3.38
				c-0.38-1.1-1.13-2.06-2.04-2.84c-0.9-0.79-1.94-1.42-3.03-1.97c-8.95-3.94-19.35-5.28-29.57-3.79
				c-10.21,1.48-20.37,5.78-28.51,12.95l-0.02-0.38c4.66,3.19,10.1,5.29,15.77,6.42c5.68,1.12,11.58,1.33,17.48,0.83
				c5.9-0.47,11.8-1.57,17.71-2.87c2.95-0.65,5.91-1.35,8.88-2.06c2.93-0.71,5.95-1.6,8.23-3.61c1.12-1,2.03-2.26,2.51-3.68
				c0.48-1.41,0.46-2.99-0.14-4.36c-0.56-1.39-1.65-2.52-2.88-3.41c-1.24-0.9-2.66-1.54-4.11-2.05c-1.46-0.52-2.98-0.84-4.53-1.09
				c-1.54-0.27-3.1-0.47-4.66-0.6c-3.13-0.28-6.29-0.3-9.44-0.06c-6.31,0.46-12.59,1.95-18.49,4.46c-2.96,1.22-5.79,2.8-8.19,4.92
				c-2.36,2.1-4.4,4.87-4.67,8.07c-0.15,1.92,0.33,3.89,1.36,5.51c1.04,1.63,2.6,2.88,4.28,3.83c3.42,1.88,7.34,2.7,11.21,2.94
				c7.8,0.49,15.6-0.17,23.09-1.9c3.75-0.85,7.41-1.98,10.96-3.37c0.89-0.34,1.77-0.7,2.64-1.08c0.88-0.37,1.74-0.75,2.58-1.19
				c1.67-0.86,3.28-1.87,4.7-3.08c1.41-1.21,2.7-2.61,3.49-4.27c0.43-0.81,0.65-1.71,0.79-2.61c0.02-0.45,0.09-0.91,0.03-1.36
				l-0.05-0.68l-0.14-0.67c-0.41-1.77-1.5-3.33-2.87-4.53c-1.37-1.21-2.98-2.14-4.67-2.86c-1.68-0.74-3.45-1.26-5.23-1.69
				c-0.88-0.25-1.78-0.43-2.68-0.61c-0.89-0.2-1.8-0.36-2.7-0.49c-3.61-0.57-7.25-0.82-10.86-0.76c-7.23,0.11-14.34,1.48-20.93,3.95
				c-0.83,0.29-1.65,0.62-2.45,0.98c-0.81,0.34-1.62,0.68-2.4,1.08c-1.59,0.74-3.14,1.54-4.54,2.54c-1.4,1-2.69,2.17-3.61,3.59
				c-0.93,1.41-1.36,3.13-1.05,4.77c0.27,1.65,1.27,3.09,2.53,4.17c1.27,1.09,2.77,1.9,4.32,2.53c1.55,0.65,3.17,1.08,4.81,1.47
				c0.81,0.21,1.63,0.41,2.45,0.57c0.82,0.17,1.63,0.37,2.45,0.5c13.1,2.47,26.28,2,38.35-0.95c3.03-0.71,5.98-1.6,8.66-3.03
				c2.65-1.4,5.12-3.37,6.31-6.07c0.57-1.34,0.85-2.81,0.71-4.25c-0.13-1.44-0.63-2.83-1.34-4.08c-1.43-2.52-3.73-4.4-6.24-5.71
				c-2.51-1.33-5.22-2.2-7.88-3.02c-2.67-0.83-5.33-1.54-8-2.11c-5.32-1.16-10.65-1.68-15.79-1.3c-5.14,0.38-10.05,1.79-14.33,4.08
				c-4.27,2.29-7.89,5.53-10.27,9.4l-0.06-0.23c6.25,3.74,13.08,5.6,19.55,6.03c6.49,0.45,12.64-0.59,17.97-2.53
				c2.69-0.91,5.14-2.26,6.94-4.17c0.87-0.96,1.56-2.09,1.8-3.31c0.21-1.21,0.03-2.49-0.58-3.51c-0.58-1.04-1.51-1.81-2.49-2.4
				c-0.99-0.58-2.05-0.98-3.1-1.27c-1.05-0.3-2.11-0.47-3.15-0.58c-1.03-0.14-2.05-0.21-3.03-0.26c-7.93-0.33-13.9,1.6-17.65,3.17
				c-1.9,0.79-3.27,1.54-4.18,2.05C272.7,59.89,272.23,60.15,272.23,60.15z"/>
		</g>
	</g>
</g>
</svg>
