<?xml version="1.0" encoding="utf-8"?>
<!-- Generator: Adobe Illustrator 25.1.0, SVG Export Plug-In . SVG Version: 6.00 Build 0)  -->
<svg version="1.1" xmlns="http://www.w3.org/2000/svg" xmlns:xlink="http://www.w3.org/1999/xlink" x="0px" y="0px"
	 viewBox="0 0 500 500" style="enable-background:new 0 0 500 500;" xml:space="preserve">
<style type="text/css">
	.st0{fill:#F5F5F5;}
	.st1{fill:#E6E6E6;}
	.st2{fill:#F0F0F0;}
	.st3{fill:#E0E0E0;}
	.st4{display:none;}
	.st5{display:inline;fill:#EBEBEB;}
	.st6{fill:#263238;}
	.st7{fill:#FFFFFF;}
	.st8{fill:#455A64;}
	.st9{fill:#E8505B;}
	.st10{opacity:0.5;fill:#FFFFFF;}
	.st11{opacity:0.3;fill:#FFFFFF;}
	.st12{fill:#B78876;}
	.st13{fill:#A36957;}
	.st14{opacity:0.2;}
	.st15{fill:#FFBE9D;}
	.st16{fill:#EB996E;}
</style>
<g id="Background_Complete">
	<g>
		<g>
			<path class="st0" d="M430.3,289.76v42.41c0,7.67-6.22,13.89-13.89,13.89H264.33c-7.67,0-13.89-6.22-13.89-13.89v-35.84
				l-18.93-19.89l184.86-0.58C424.05,275.84,430.3,282.07,430.3,289.76z"/>
			<g>
				<polygon class="st1" points="272.85,301.56 410.85,300.92 410.84,296.68 272.84,297.32 				"/>
			</g>
			<g>
				<polygon class="st1" points="272.85,315.51 410.85,314.88 410.84,310.64 272.84,311.27 				"/>
			</g>
			<g>
				
					<rect x="272.84" y="324.74" transform="matrix(1 -4.919255e-03 4.919255e-03 1 -1.6043 1.4804)" class="st1" width="54.6" height="4.24"/>
			</g>
		</g>
		<path class="st0" d="M160.79,46.58h89.7c4.44,0,8.04,3.6,8.04,8.04v43.87c0,4.44-3.6,8.04-8.04,8.04h-76.11
			c-4.44,0-8.04-3.6-8.04-8.04V52.12L160.79,46.58z"/>
		<path class="st2" d="M273.47,126.44v15.75c0,2.21,1.79,4,4,4h88.06c2.21,0,4-1.79,4-4v-8.61l10.11-10.82l-102.16-0.33
			C275.27,122.43,273.47,124.23,273.47,126.44z"/>
		<g>
			<path class="st3" d="M214.11,95.09v28.13c0,5.09-4.13,9.22-9.22,9.22H104.03c-5.09,0-9.22-4.13-9.22-9.22V99.46L82.26,86.26
				l122.61-0.38C209.97,85.86,214.11,89.99,214.11,95.09z"/>
			<g>
				<polygon class="st2" points="109.68,102.92 201.21,102.5 201.2,99.69 109.68,100.11 				"/>
			</g>
			<g>
				<polygon class="st2" points="109.68,112.18 201.21,111.75 201.2,108.94 109.68,109.36 				"/>
			</g>
			<g>
				
					<rect x="109.68" y="118.3" transform="matrix(1 -4.920635e-03 4.920635e-03 1 -0.5875 0.6302)" class="st2" width="36.21" height="2.81"/>
			</g>
		</g>
		<g>
			<path class="st2" d="M65.45,187.92v42.41c0,7.67,6.22,13.89,13.89,13.89h152.07c7.67,0,13.89-6.22,13.89-13.89V194.5l18.93-19.89
				l-184.86-0.58C71.7,174.01,65.45,180.23,65.45,187.92z"/>
			<g>
				<polygon class="st1" points="222.9,199.72 84.9,199.09 84.92,194.85 222.91,195.48 				"/>
			</g>
			<g>
				<polygon class="st1" points="222.9,213.68 84.9,213.04 84.92,208.8 222.91,209.44 				"/>
			</g>
			<g>
				
					<rect x="193.49" y="197.72" transform="matrix(4.919210e-03 -1 1 4.919210e-03 -30.3767 419.5229)" class="st1" width="4.24" height="54.6"/>
			</g>
		</g>
		<g>
			
				<ellipse transform="matrix(0.4102 -0.912 0.912 0.4102 131.422 363.997)" class="st0" cx="347.14" cy="80.39" rx="18.47" ry="18.47"/>
			<g>
				<path class="st3" d="M340.77,75.74c0.7-0.06,1.33,0.71,1.42,1.72c0.08,1.01-0.42,1.88-1.12,1.93c-0.7,0.06-1.33-0.71-1.42-1.72
					C339.57,76.66,340.07,75.79,340.77,75.74z"/>
				<g>
					<path class="st3" d="M342.39,71.06c-0.01,0.16-1.56,0.01-3.29,0.67c-1.74,0.63-2.82,1.74-2.94,1.63
						c-0.12-0.07,0.87-1.44,2.75-2.13C340.79,70.53,342.44,70.93,342.39,71.06z"/>
				</g>
			</g>
			<g>
				<path class="st3" d="M352.51,75.5c-0.7-0.03-1.3,0.77-1.35,1.78c-0.04,1.01,0.49,1.86,1.2,1.89c0.7,0.03,1.3-0.77,1.35-1.78
					C353.74,76.37,353.21,75.52,352.51,75.5z"/>
				<g>
					<path class="st3" d="M350.69,70.89c-0.05-0.13,1.57-0.6,3.48,0.03c1.91,0.61,2.95,1.94,2.84,2.01c-0.11,0.12-1.23-0.95-3-1.51
						C352.25,70.84,350.71,71.05,350.69,70.89z"/>
				</g>
			</g>
			<g>
				<path class="st3" d="M356.25,80.2c0.03,0,0.01,0.36-0.13,0.99c-0.14,0.63-0.46,1.52-1.07,2.51c-0.61,0.99-1.54,2.04-2.82,2.91
					c-1.27,0.87-2.9,1.52-4.69,1.63c-1.79,0.08-3.49-0.4-4.84-1.13c-1.36-0.73-2.4-1.69-3.1-2.61c-0.71-0.92-1.12-1.77-1.33-2.38
					c-0.21-0.61-0.26-0.96-0.23-0.97c0.11-0.05,0.4,1.39,1.85,3.11c0.71,0.85,1.74,1.74,3.04,2.41c1.3,0.68,2.9,1.11,4.58,1.03
					c1.68-0.1,3.23-0.7,4.45-1.5c1.23-0.81,2.15-1.79,2.77-2.71C355.99,81.63,356.13,80.17,356.25,80.2z"/>
			</g>
		</g>
		<g>
			<path class="st2" d="M93.35,287.97h2.67l5.84-7.78v-5.11c0,0,4.13-0.24,3.65,6.44c-0.49,6.69,0.04,4.98,0.04,4.98
				s8.78,0.03,9.51,0.76c0.53,0.53,0.77,8.87,0.86,13.39c0.05,2.28-1.41,4.39-3.63,4.93c-0.31,0.08-0.63,0.12-0.94,0.12
				c-2.19,0-13.37-1.7-13.37-1.7h-4.62V287.97z"/>
			<polygon class="st2" points="85.7,286.57 87.34,304.06 91.92,304.06 91.92,286.92 			"/>
		</g>
		<path class="st2" d="M461.01,135.92c-1.25-1.49-3.5-1.43-4.95-0.24c-1.44,1.2-2.07,2.55-2.25,4.57c-0.44-1.97-1.36-3.23-2.96-4.22
			c-1.6-1-3.86-0.75-4.91,0.89c-0.61,0.96-0.74,2.25-0.5,3.41c0.23,1.17,0.64,2.36,1.42,3.19c2.77,2.95,4.2,3.41,7.63,5.41
			c3.12-2.43,4.13-3.05,6.47-6.33c0.66-0.92,0.91-2.16,0.98-3.35C462.03,138.06,461.74,136.8,461.01,135.92z"/>
	</g>
</g>
<g id="Background_Simple" class="st4">
	<path class="st5" d="M91.95,182.4c8.2,103.3,48.4,203.46,169.2,195.28c62.27-4.22,182.32-55.44,170.6-133.98
		c-16.14-108.25-128.41-45.8-185.66-72.1c-39.24-18.03-25.45-89.75-91.21-88.62C102.91,83.87,88.54,139.45,91.95,182.4z"/>
</g>
<g id="Device">
	<g>
		<g>
			<g>
				<g>
					<g>
						<path class="st6" d="M296.22,405.73l-104.08-0.48c-12.52-0.06-22.62-10.25-22.57-22.77l1.1-260.93
							c0.05-12.52,10.25-22.63,22.78-22.58l104.08,0.48c12.52,0.06,22.62,10.25,22.57,22.77L319,383.15
							C318.94,395.67,308.74,405.78,296.22,405.73z"/>
					</g>
					<g>
						<path class="st7" d="M297.38,108.46l-20.18-0.09c-2.71-0.01-4.91,2.27-4.92,5.1l-0.02,3.66c-0.01,2.83-2.22,5.11-4.92,5.1
							l-39.33-0.18c-2.71-0.01-4.89-2.32-4.88-5.15l0.02-3.66c0.01-2.83-2.17-5.13-4.88-5.14l-7.1-0.03l-17.66-0.08
							c-8.77-0.04-15.91,7.04-15.95,15.81l-1.08,254.68c-0.04,8.77,7.04,15.91,15.8,15.95l103.87,0.48
							c8.77,0.04,15.91-7.04,15.95-15.81l1.08-254.68C313.22,115.64,306.15,108.5,297.38,108.46z"/>
					</g>
				</g>
			</g>
			<g>
				<path class="st8" d="M240.29,362.76c0,1.2-0.98,2.18-2.18,2.18c-1.2,0-2.18-0.98-2.18-2.18c0-1.2,0.98-2.18,2.18-2.18
					C239.31,360.58,240.29,361.55,240.29,362.76z"/>
				<path class="st8" d="M248.57,362.76c0,1.2-0.98,2.18-2.18,2.18s-2.18-0.98-2.18-2.18c0-1.2,0.98-2.18,2.18-2.18
					S248.57,361.55,248.57,362.76z"/>
				<path class="st8" d="M256.85,362.76c0,1.2-0.98,2.18-2.18,2.18s-2.18-0.98-2.18-2.18c0-1.2,0.98-2.18,2.18-2.18
					S256.85,361.55,256.85,362.76z"/>
			</g>
			<g>
				<g>
					<path class="st8" d="M196.91,179.51c0,0-0.01-0.19,0-0.56c0.01-0.37,0.08-0.92,0.27-1.62c0.21-0.69,0.55-1.53,1.19-2.39
						c0.63-0.85,1.55-1.73,2.82-2.32c1.24-0.66,2.86-0.81,4.52-0.75c1.68,0,3.51,0,5.48,0c3.94,0,8.44,0,13.44,0.01
						c20.02,0.04,48.02,0.1,79.98,0.16l0.59,0l-0.41,0.43c-3.26,3.43-6.73,7.08-10.25,10.78l0.07-0.18c0,3.42,0,7.08,0,10.77
						c0,2.38,0,4.74,0,7.09c-0.01,1.15,0.07,2.38-0.27,3.55c-0.3,1.17-0.88,2.26-1.68,3.15c-0.79,0.89-1.78,1.62-2.88,2.06
						c-1.09,0.46-2.31,0.61-3.46,0.58c-2.28,0-4.54,0-6.78,0c-8.96-0.01-17.61-0.01-25.84-0.02c-16.47-0.02-31.3-0.04-43.76-0.06
						c-1.56,0-3.08-0.01-4.56-0.01c-1.46,0.05-3.01-0.1-4.28-0.77c-2.61-1.24-4.19-3.88-4.32-6.39c-0.04-4.97,0.01-9.21,0.02-12.7
						c0.02-3.47,0.04-6.17,0.05-8.02c0.01-0.91,0.02-1.6,0.03-2.09C196.89,179.75,196.91,179.51,196.91,179.51s0.02,0.24,0.03,0.71
						c0.01,0.49,0.01,1.18,0.03,2.09c0.01,1.85,0.03,4.55,0.05,8.02c0.03,3.48,0,7.75,0.07,12.68c0.13,2.42,1.67,4.93,4.17,6.11
						c1.24,0.64,2.66,0.77,4.14,0.72c1.48,0,3-0.01,4.56-0.01c12.46-0.02,27.29-0.03,43.76-0.06c8.24,0,16.88-0.01,25.84-0.02
						c2.24,0,4.5,0,6.78,0c1.13,0.02,2.23-0.12,3.26-0.55c1.03-0.42,1.95-1.09,2.69-1.93c0.75-0.83,1.29-1.85,1.57-2.94
						c0.31-1.08,0.24-2.24,0.25-3.42c0-2.35,0-4.71,0-7.09c0-3.69,0-7.34,0-10.77v-0.1l0.07-0.08c3.53-3.7,7-7.35,10.26-10.77
						l0.18,0.43c-31.96-0.14-59.96-0.25-79.98-0.34c-5-0.03-9.5-0.06-13.44-0.08c-1.97-0.01-3.8-0.03-5.48-0.04
						c-1.68-0.07-3.21,0.06-4.44,0.69c-1.24,0.57-2.15,1.41-2.79,2.24c-0.64,0.83-0.99,1.66-1.21,2.33
						C196.88,178.75,196.96,179.52,196.91,179.51z"/>
				</g>
				<g>
					<polygon class="st8" points="282.22,185.91 207.45,185.56 207.46,183.26 282.22,183.61 					"/>
				</g>
				<g>
					<polygon class="st8" points="282.22,193.47 207.45,193.12 207.46,190.82 282.22,191.17 					"/>
				</g>
				<g>
					
						<rect x="266.28" y="184.82" transform="matrix(4.918223e-03 -1 1 4.918223e-03 66.5016 466.058)" class="st8" width="2.3" height="29.58"/>
				</g>
			</g>
			<g>
				<path class="st9" d="M298.56,230.15v22.98c0,4.16-3.37,7.53-7.53,7.53h-82.4c-4.16,0-7.53-3.37-7.53-7.53v-19.42l-10.26-10.78
					l100.16-0.31C295.18,222.61,298.56,225.99,298.56,230.15z"/>
				<g>
					<polygon class="st7" points="213.26,236.55 288.03,236.2 288.02,233.9 213.25,234.25 					"/>
				</g>
				<g>
					<polygon class="st7" points="213.26,244.11 288.03,243.76 288.02,241.46 213.25,241.81 					"/>
				</g>
				<g>
					
						<rect x="213.25" y="249.11" transform="matrix(1 -4.918223e-03 4.918223e-03 1 -1.2281 1.1246)" class="st7" width="29.58" height="2.3"/>
				</g>
			</g>
			<g>
				<g>
					<g>
						<path class="st9" d="M253.71,142.12c1.4-0.59,2.4-2.03,2.41-3.74c0.01-2.23-1.68-4.05-3.77-4.06
							c-2.09-0.01-3.8,1.79-3.81,4.02c-0.01,1.72,1,3.18,2.41,3.77c-5.83,0.88-5.57,7.22-5.57,7.22l13.79,0.06
							C259.17,149.4,259.49,142.99,253.71,142.12z"/>
						<path class="st10" d="M253.71,142.12c1.4-0.59,2.4-2.03,2.41-3.74c0.01-2.23-1.68-4.05-3.77-4.06
							c-2.09-0.01-3.8,1.79-3.81,4.02c-0.01,1.72,1,3.18,2.41,3.77c-5.83,0.88-5.57,7.22-5.57,7.22l13.79,0.06
							C259.17,149.4,259.49,142.99,253.71,142.12z"/>
					</g>
					<g>
						<path class="st9" d="M246.14,142.12c1.4-0.59,2.4-2.03,2.41-3.74c0.01-2.23-1.68-4.05-3.77-4.06
							c-2.09-0.01-3.8,1.79-3.81,4.02c-0.01,1.72,1,3.18,2.41,3.77c-5.83,0.88-5.57,7.22-5.57,7.22l13.79,0.06
							C251.6,149.4,251.92,142.99,246.14,142.12z"/>
					</g>
				</g>
				<g>
					
						<rect x="230.13" y="152.17" transform="matrix(1 4.621387e-03 -4.621387e-03 1 0.7165 -1.1475)" class="st9" width="37.07" height="4.6"/>
					
						<rect x="230.13" y="152.17" transform="matrix(1 4.621387e-03 -4.621387e-03 1 0.7165 -1.1475)" class="st11" width="37.07" height="4.6"/>
				</g>
			</g>
			<g>
				<g>
					<path class="st8" d="M198.64,282.52c0,0-0.02-0.19,0.02-0.55c0.04-0.36,0.15-0.91,0.51-1.52c0.35-0.61,0.99-1.3,1.96-1.71
						c0.99-0.45,2.23-0.27,3.56-0.31c5.4,0,13.21,0,22.93-0.01c19.47,0.04,46.58,0.1,77.2,0.16l0.59,0l-0.41,0.43
						c-3.23,3.46-6.65,7.11-10.11,10.82l0.07-0.18c0,0.27,0,0.56,0,0.86c0,2.14,0,4.27,0,6.39c-0.01,0.54,0.01,1.04-0.01,1.6
						c-0.03,0.56-0.17,1.11-0.42,1.62c-0.48,1.01-1.38,1.81-2.43,2.17c-0.52,0.19-1.1,0.25-1.62,0.24h-1.56c-1.04,0-2.07,0-3.1,0
						c-2.06,0-4.09,0-6.11,0c-8.08-0.01-15.88-0.01-23.3-0.02c-14.85-0.02-28.22-0.04-39.46-0.06c-2.81-0.01-5.48-0.01-8.01-0.02
						c-1.27,0-2.49-0.01-3.69-0.01c-0.6,0-1.18,0-1.76,0c-0.57-0.01-1.15,0.04-1.73-0.1c-1.14-0.24-2.09-0.97-2.65-1.88
						c-0.28-0.46-0.47-0.96-0.55-1.46c-0.09-0.51-0.05-1.01-0.06-1.48c0.01-1.91,0.02-3.65,0.02-5.23c0.02-3.13,0.04-5.56,0.05-7.23
						c0.01-0.81,0.02-1.44,0.03-1.88C198.63,282.74,198.64,282.52,198.64,282.52s0.02,0.22,0.03,0.64c0.01,0.44,0.01,1.07,0.03,1.88
						c0.01,1.67,0.03,4.11,0.05,7.23c0.01,1.57,0.01,3.32,0.02,5.23c0.01,0.48-0.02,0.97,0.07,1.44c0.08,0.47,0.26,0.94,0.53,1.37
						c0.53,0.85,1.43,1.52,2.48,1.74c0.52,0.12,1.08,0.07,1.67,0.08c0.58,0,1.16,0,1.76,0c1.19,0,2.42-0.01,3.69-0.01
						c2.53-0.01,5.2-0.01,8.01-0.02c11.24-0.02,24.61-0.04,39.46-0.06c7.43,0,15.22-0.01,23.3-0.02c2.02,0,4.06,0,6.11,0
						c1.03,0,2.06,0,3.1,0h1.56c0.51,0,0.98-0.05,1.45-0.21c0.92-0.32,1.71-1.02,2.13-1.91c0.21-0.44,0.34-0.93,0.36-1.42
						c0.02-0.5,0.01-1.05,0.01-1.57c0-2.12,0-4.25,0-6.39c0-0.29,0-0.59,0-0.86v-0.1l0.07-0.08c3.47-3.71,6.88-7.36,10.11-10.82
						l0.19,0.43c-30.62-0.13-57.73-0.25-77.2-0.33c-9.72-0.06-17.53-0.12-22.93-0.15c-1.34,0.03-2.56-0.16-3.51,0.26
						c-0.95,0.38-1.58,1.04-1.93,1.63c-0.37,0.59-0.49,1.13-0.54,1.48C198.66,282.34,198.66,282.52,198.64,282.52z"/>
				</g>
				<g>
					<polygon class="st8" points="285.57,288.58 210.8,288.24 210.81,285.94 285.58,286.29 					"/>
				</g>
				<g>
					
						<rect x="269.26" y="279.59" transform="matrix(4.891755e-03 -1 1 4.891755e-03 -25.6719 563.7168)" class="st8" width="2.3" height="30.34"/>
				</g>
			</g>
			<path class="st9" d="M295.93,323.54v15.75c0,2.21-1.79,4-4,4h-88.06c-2.21,0-4-1.79-4-4v-8.61l-10.11-10.82l102.16-0.33
				C294.13,319.53,295.93,321.32,295.93,323.54z"/>
			<g>
				<polygon class="st7" points="209.01,329.6 283.78,329.26 283.77,326.96 209,327.3 				"/>
			</g>
			<g>
				<polygon class="st7" points="209.01,337 283.78,336.65 283.77,334.36 209,334.7 				"/>
			</g>
		</g>
	</g>
</g>
<g id="Emojis">
	<g>
		<g>
			<circle class="st9" cx="416.45" cy="123" r="11.73"/>
			<circle class="st10" cx="416.45" cy="123" r="11.73"/>
		</g>
		<path class="st6" d="M412.56,119.64c0.44-0.03,0.84,0.47,0.88,1.11c0.04,0.64-0.29,1.18-0.73,1.21c-0.45,0.03-0.84-0.47-0.88-1.11
			C411.78,120.21,412.11,119.66,412.56,119.64z"/>
		<g>
			<path class="st6" d="M413.65,116.69c-0.03,0.17-0.98,0.12-2.06,0.5c-1.08,0.36-1.8,0.99-1.93,0.88
				c-0.13-0.09,0.49-1.01,1.73-1.43C412.64,116.2,413.7,116.54,413.65,116.69z"/>
		</g>
		<g>
			<path class="st6" d="M422.15,121.47c-0.13,0.1-0.76-0.57-1.77-0.68c-1.01-0.11-1.77,0.41-1.87,0.29
				c-0.05-0.06,0.07-0.28,0.41-0.51c0.33-0.23,0.89-0.43,1.52-0.36c0.63,0.07,1.14,0.38,1.41,0.68
				C422.14,121.18,422.21,121.42,422.15,121.47z"/>
		</g>
		<g>
			<path class="st6" d="M423.16,119.51c-0.09,0.15-1.04-0.35-2.31-0.39c-1.27-0.06-2.26,0.36-2.33,0.21
				c-0.1-0.12,0.9-0.86,2.36-0.79C422.33,118.58,423.26,119.4,423.16,119.51z"/>
		</g>
		<g>
			<path class="st6" d="M422.33,122.77c0.05-0.01,0.07,0.97-0.73,2.25c-0.76,1.25-2.52,2.76-4.9,2.86
				c-2.38,0.05-4.23-1.35-5.07-2.55c-0.88-1.23-0.93-2.21-0.88-2.2c0.1-0.04,0.3,0.87,1.2,1.95c0.86,1.06,2.6,2.27,4.72,2.22
				c2.12-0.08,3.78-1.39,4.57-2.51C422.08,123.65,422.22,122.74,422.33,122.77z"/>
		</g>
	</g>
	<g>
		<g>
			<path class="st9" d="M88.22,330.49c-0.26,9.11-7.85,16.28-16.96,16.02c-9.11-0.26-16.28-7.85-16.02-16.96
				c0.26-9.11,7.85-16.28,16.96-16.02C81.31,313.79,88.48,321.38,88.22,330.49z"/>
			<path class="st10" d="M88.22,330.49c-0.26,9.11-7.85,16.28-16.96,16.02c-9.11-0.26-16.28-7.85-16.02-16.96
				c0.26-9.11,7.85-16.28,16.96-16.02C81.31,313.79,88.48,321.38,88.22,330.49z"/>
		</g>
		<path class="st9" d="M68.48,325.45c-0.57-0.83-1.73-0.91-2.53-0.36s-1.19,1.21-1.38,2.24c-0.13-1.04-0.54-1.73-1.32-2.32
			c-0.77-0.59-1.95-0.58-2.57,0.22c-0.36,0.46-0.49,1.12-0.43,1.73c0.06,0.61,0.22,1.25,0.58,1.71c1.28,1.65,1.99,1.96,3.66,3.15
			c1.72-1.1,2.27-1.37,3.63-2.94c0.38-0.44,0.57-1.07,0.67-1.67C68.9,326.59,68.81,325.93,68.48,325.45z"/>
		<path class="st9" d="M83.04,325.86c-0.57-0.83-1.73-0.91-2.53-0.36c-0.8,0.54-1.19,1.21-1.38,2.24c-0.13-1.04-0.54-1.73-1.32-2.32
			c-0.77-0.59-1.95-0.58-2.57,0.22c-0.36,0.46-0.49,1.12-0.43,1.73c0.06,0.61,0.22,1.25,0.58,1.71c1.28,1.65,1.99,1.96,3.66,3.15
			c1.72-1.1,2.27-1.37,3.63-2.94c0.38-0.44,0.57-1.07,0.67-1.67C83.46,327.01,83.37,326.35,83.04,325.86z"/>
		<path class="st7" d="M77.08,334.05c-0.33,2.69-2.94,4.89-5.65,4.77c-2.71-0.12-5.11-2.55-5.19-5.26L77.08,334.05z"/>
	</g>
</g>
<g id="Character_1">
	<g>
		<path class="st12" d="M134.25,332.4c0.29-1.69-0.35-7.87-0.35-7.87s-6.48-0.69-6.87-7.11c-0.39-6.42,0-21.24,0-21.24l11.8-5.77
			l12.98,9.83l-1.97,32.12L134.25,332.4z"/>
		<g>
			<path class="st6" d="M128.82,306.92c0,0.45,0.37,0.82,0.82,0.82c0.45,0,0.82-0.37,0.82-0.82s-0.37-0.82-0.82-0.82
				C129.19,306.1,128.82,306.46,128.82,306.92z"/>
			<g>
				<path class="st6" d="M127.62,306.33c0.11,0.11,0.71-0.41,1.6-0.46c0.88-0.06,1.55,0.38,1.64,0.26c0.05-0.05-0.06-0.25-0.36-0.45
					c-0.29-0.2-0.77-0.38-1.32-0.35c-0.55,0.03-1.01,0.27-1.27,0.5C127.65,306.07,127.56,306.28,127.62,306.33z"/>
			</g>
		</g>
		<g>
			<circle class="st6" cx="139.21" cy="306.77" r="0.82"/>
			<g>
				<path class="st6" d="M137.18,306.17c0.11,0.11,0.71-0.41,1.6-0.46c0.88-0.06,1.55,0.38,1.64,0.26c0.05-0.05-0.06-0.25-0.36-0.45
					c-0.29-0.2-0.77-0.38-1.32-0.35c-0.55,0.03-1.01,0.27-1.27,0.5C137.21,305.92,137.13,306.13,137.18,306.17z"/>
			</g>
		</g>
		<g>
			<path class="st6" d="M134.14,313.56c0-0.05-0.55-0.12-1.45-0.18c-0.23-0.01-0.45-0.05-0.49-0.21c-0.06-0.17,0.03-0.43,0.13-0.71
				c0.19-0.58,0.39-1.19,0.61-1.83c0.84-2.61,1.45-4.75,1.35-4.78c-0.1-0.03-0.86,2.06-1.7,4.67c-0.2,0.64-0.4,1.26-0.58,1.84
				c-0.08,0.27-0.21,0.58-0.09,0.93c0.07,0.17,0.23,0.29,0.38,0.32c0.15,0.04,0.27,0.03,0.38,0.03
				C133.58,313.63,134.14,313.61,134.14,313.56z"/>
		</g>
		<path class="st7" d="M137.07,314.4c-0.44,0.25-2.54,1.5-4.28,1.47c0,0,1.11,1.6,2.94,0.83
			C137.61,315.91,137.07,314.4,137.07,314.4z"/>
		<path class="st13" d="M133.9,324.53c0,0,4.33,0.05,8.51-2.88c0,0-1.93,4.72-8.37,4.45L133.9,324.53z"/>
		<path class="st6" d="M160.34,305c0,0,2.61,14.81-9.9,17.49l0.37-17.85L160.34,305z"/>
		<path class="st6" d="M159.93,301.72c-0.96-3.69-2.51-6.52-4.29-8.69c1.81,0.75,3.04,1.51,3.26,1.26c0.12-0.15-0.22-0.69-0.99-1.35
			c-0.77-0.66-1.98-1.41-3.46-1.89c-0.2-0.07-0.39-0.11-0.59-0.16c0.82-0.34,1.58-0.81,2.22-1.43c1.5-1.47,2.17-3.87,1.25-5.75
			c-0.83-1.68-2.82-2.65-4.68-2.45c-1.86,0.2-3.53,1.45-4.44,3.09c-0.22,0.4-0.4,0.81-0.53,1.24c0.03-0.64,0.09-1.35,0.22-2.12
			c0.4-2.47,1.32-4.33,1.17-4.4c-0.11-0.08-1.29,1.73-1.71,4.31c-0.04,0.24-0.06,0.47-0.09,0.7c-0.22-0.71-0.47-1.34-0.72-1.87
			c-0.62-1.29-1.19-1.98-1.36-1.9c-0.35,0.18,0.79,2.88,1.26,6.54c-1.58-0.49-2.85-0.64-3.48-0.64c-2.18,0-5.8-1.05-10.93,3.11
			c-1.53,0.99-3.12,2.38-4.4,4.23c-2,2.9-2.7,6.12-2.75,8.38c-0.03,1.14,0.06,2.06,0.17,2.69c0.11,0.63,0.21,0.96,0.25,0.96
			c0.1-0.01-0.19-1.39-0.04-3.62c0.09-1.36,0.41-3.07,1.09-4.83c-1.28,4.47,0.49,8.07,0.49,8.07l11.45-1.79
			c-0.74-2.51-0.2-6.49,0.15-8.44c2.02,9.35,10.05,13.84,10.05,13.84l12.05-1.9C160.39,305.83,160.19,302.7,159.93,301.72z"/>
		<g>
			<g>
				<path class="st9" d="M187.65,444.94c0.37,0.18,29.91,5.97,28.82,2.05c-1.09-3.92-28.55-10.28-28.55-10.28L187.65,444.94z"/>
				<g>
					<path class="st6" d="M201.08,442.33c0.14-0.02,0.34,0.69,0.34,1.58c0,0.89-0.22,1.59-0.36,1.57c-0.14-0.02-0.17-0.72-0.16-1.58
						C200.91,443.05,200.94,442.34,201.08,442.33z"/>
				</g>
				<g>
					<path class="st6" d="M199.51,441.79c0.14-0.03,0.39,0.8,0.3,1.83c-0.09,1.04-0.48,1.8-0.61,1.75c-0.14-0.05,0.01-0.83,0.09-1.8
						C199.37,442.61,199.36,441.81,199.51,441.79z"/>
				</g>
				<g>
					<path class="st6" d="M197.6,441.62c0.14-0.01,0.34,0.78,0.36,1.78c0.02,1-0.15,1.81-0.29,1.8c-0.15-0.01-0.21-0.81-0.23-1.79
						C197.42,442.44,197.46,441.64,197.6,441.62z"/>
				</g>
				<g>
					<path class="st6" d="M193.97,438.74c0-0.02,0.16,0,0.46,0.06c0.3,0.05,0.74,0.14,1.3,0.27c1.13,0.25,2.75,0.63,4.75,1.18
						c1.99,0.54,4.35,1.25,6.94,2.12c1.29,0.45,2.65,0.89,4.03,1.48c1.37,0.59,2.78,1.35,3.94,2.48c0.14,0.14,0.31,0.27,0.43,0.54
						c0.15,0.27,0,0.69-0.25,0.83c-0.46,0.29-0.88,0.24-1.25,0.28c-0.77,0.06-1.53,0.08-2.27,0.11c-1.49,0.03-2.93-0.02-4.3-0.11
						c-2.73-0.17-5.17-0.52-7.21-0.84c-2.04-0.33-3.68-0.64-4.81-0.87c-0.51-0.11-0.94-0.2-1.3-0.28c-0.3-0.07-0.45-0.11-0.45-0.13
						c0.01-0.04,0.64,0.04,1.78,0.21c1.22,0.18,2.85,0.41,4.83,0.7c2.04,0.27,4.47,0.58,7.19,0.72c1.36,0.07,2.78,0.11,4.26,0.07
						c0.74-0.02,1.49-0.05,2.25-0.11c0.38-0.03,0.78-0.03,0.99-0.18c0.09-0.07,0.1-0.11,0.07-0.2c-0.04-0.1-0.17-0.23-0.31-0.36
						c-1.1-1.07-2.44-1.8-3.78-2.39c-1.35-0.58-2.7-1.04-3.98-1.5c-2.57-0.9-4.91-1.63-6.88-2.22c-1.97-0.59-3.58-1.03-4.69-1.34
						C194.57,438.95,193.96,438.77,193.97,438.74z"/>
				</g>
				<g>
					<path class="st6" d="M209.69,443.13c0.15,0.05-0.15,1.17-0.04,2.55c0.09,1.38,0.54,2.45,0.4,2.52
						c-0.11,0.08-0.82-0.97-0.92-2.48C209.01,444.21,209.57,443.07,209.69,443.13z"/>
				</g>
			</g>
			<g>
				<path class="st9" d="M89.95,439.09c-0.41-0.05-30.22,4.11-27.91,7.47c2.31,3.35,30.35,0.4,30.35,0.4L89.95,439.09z"/>
				<g>
					<path class="st6" d="M78.1,445.94c-0.13,0.06-0.55-0.54-0.83-1.38c-0.29-0.84-0.31-1.58-0.17-1.6
						c0.14-0.03,0.39,0.63,0.67,1.44C78.03,445.2,78.23,445.87,78.1,445.94z"/>
				</g>
				<g>
					<path class="st6" d="M79.77,445.93c-0.12,0.07-0.63-0.63-0.88-1.64c-0.26-1.01-0.14-1.86,0-1.86c0.15,0,0.27,0.79,0.5,1.73
						C79.63,445.11,79.9,445.86,79.77,445.93z"/>
				</g>
				<g>
					<path class="st6" d="M81.62,445.46c-0.13,0.06-0.58-0.63-0.92-1.57c-0.35-0.94-0.45-1.75-0.31-1.79
						c0.14-0.04,0.46,0.7,0.8,1.61C81.53,444.63,81.75,445.4,81.62,445.46z"/>
				</g>
				<g>
					<path class="st6" d="M86,447.01c0,0.02-0.15,0.05-0.46,0.1c-0.3,0.05-0.75,0.11-1.32,0.17c-1.15,0.13-2.81,0.3-4.87,0.43
						c-2.06,0.13-4.52,0.24-7.25,0.26c-1.37,0-2.8,0.02-4.3-0.09c-1.49-0.11-3.07-0.37-4.54-1.06c-0.18-0.09-0.38-0.15-0.58-0.37
						c-0.23-0.21-0.22-0.65-0.04-0.86c0.34-0.42,0.76-0.51,1.09-0.67c0.71-0.31,1.42-0.58,2.11-0.84c1.4-0.52,2.78-0.94,4.1-1.3
						c2.64-0.73,5.06-1.2,7.09-1.56c2.03-0.36,3.69-0.6,4.83-0.75c0.52-0.06,0.96-0.12,1.32-0.16c0.3-0.03,0.46-0.04,0.47-0.02
						c0.01,0.04-0.62,0.17-1.75,0.39c-1.22,0.23-2.83,0.54-4.79,0.91c-2.02,0.41-4.42,0.91-7.03,1.66c-1.3,0.38-2.67,0.8-4.05,1.32
						c-0.69,0.26-1.39,0.53-2.09,0.84c-0.35,0.15-0.73,0.28-0.87,0.5c-0.06,0.1-0.06,0.14,0,0.21c0.07,0.08,0.24,0.16,0.42,0.24
						c1.39,0.65,2.9,0.91,4.35,1.02c1.46,0.11,2.9,0.1,4.25,0.12c2.72,0.01,5.17-0.06,7.23-0.14c2.06-0.09,3.72-0.2,4.87-0.27
						C85.36,447.01,86,446.97,86,447.01z"/>
				</g>
				<g>
					<path class="st6" d="M69.71,447.98c-0.15,0-0.24-1.15-0.79-2.42c-0.53-1.28-1.31-2.14-1.2-2.25c0.08-0.11,1.09,0.65,1.68,2.05
						C69.99,446.74,69.84,448,69.71,447.98z"/>
				</g>
			</g>
			<path class="st8" d="M182.43,402.9h-15.17l-55.98,1.45l-15.96-2.07c-2.5-0.55-4.13-0.78-4.66-0.6c-1.55,0.51-3.67,2-5.47,4.15
				c-6.1,7.29-2.27,18.51,6.91,20.99l8.63,2.33l-18.87,6.06l6.37,18.08c0,0,28.16-6.09,55.47-12.52l43.71,11.82l6.3-20.29
				c0,0-2.78-0.91-7.41-2.41c4.64-1.42,7.59-2.54,8.02-3.21C197.06,422.41,201.93,402.6,182.43,402.9"/>
			<polygon class="st14" points="186,429.98 153.52,443.43 143.7,440.77 			"/>
			<polygon class="st14" points="100.81,404.42 142.39,416.33 174.06,405.53 			"/>
			<g>
				<path class="st6" d="M94.89,451.97c-0.06,0.03-0.58-0.97-1.32-2.62c-0.74-1.65-1.7-3.96-2.65-6.55c-0.95-2.59-1.7-4.98-2.2-6.72
					c-0.5-1.74-0.74-2.83-0.67-2.85c0.07-0.02,0.44,1.04,1.02,2.74c0.58,1.71,1.39,4.07,2.33,6.65c0.94,2.59,1.84,4.91,2.5,6.59
					C94.56,450.9,94.95,451.94,94.89,451.97z"/>
			</g>
			<g>
				<path class="st6" d="M195.13,409.64c0,0.01-0.09,0.05-0.26,0.12c-0.2,0.08-0.46,0.17-0.78,0.29c-0.73,0.25-1.73,0.61-3.01,1.06
					c-2.66,0.9-6.45,2.19-11.12,3.77c-9.4,3.14-22.42,7.39-36.85,11.92c-14.44,4.53-27.55,8.48-37.06,11.28
					c-4.73,1.37-8.58,2.48-11.28,3.26c-1.31,0.36-2.34,0.65-3.08,0.85c-0.33,0.09-0.59,0.16-0.8,0.21
					c-0.18,0.04-0.28,0.06-0.28,0.05c0-0.01,0.09-0.04,0.26-0.11c0.21-0.07,0.47-0.15,0.79-0.26c0.73-0.23,1.75-0.54,3.05-0.95
					c2.69-0.82,6.52-1.98,11.23-3.42c9.48-2.88,22.58-6.89,37.01-11.42c14.43-4.53,27.46-8.72,36.9-11.78
					c4.69-1.52,8.5-2.75,11.17-3.61c1.29-0.41,2.31-0.73,3.04-0.96c0.33-0.1,0.59-0.18,0.8-0.24
					C195.03,409.65,195.12,409.63,195.13,409.64z"/>
			</g>
			<g>
				<path class="st6" d="M164.85,408.91c0.01,0.02-0.21,0.11-0.64,0.27c-0.48,0.17-1.09,0.4-1.86,0.68c-1.62,0.58-3.98,1.4-6.9,2.39
					c-5.84,1.98-13.93,4.64-22.88,7.51c-8.96,2.87-17.09,5.4-22.99,7.18c-2.95,0.89-5.34,1.59-7,2.06
					c-0.79,0.22-1.43,0.39-1.91,0.53c-0.44,0.12-0.67,0.17-0.68,0.15c0-0.02,0.22-0.1,0.65-0.25c0.48-0.16,1.11-0.36,1.89-0.62
					c1.7-0.54,4.06-1.3,6.95-2.22c5.92-1.89,14.01-4.47,22.94-7.32c8.93-2.87,17.01-5.46,22.92-7.36c2.89-0.93,5.25-1.68,6.95-2.23
					c0.78-0.24,1.41-0.44,1.9-0.59C164.61,408.95,164.85,408.89,164.85,408.91z"/>
			</g>
			<g>
				<path class="st6" d="M142.18,416.26c-0.04,0.14-9.33-2.4-20.76-5.67c-11.43-3.27-20.66-6.03-20.62-6.17
					c0.04-0.14,9.33,2.4,20.76,5.67C132.99,413.36,142.22,416.12,142.18,416.26z"/>
			</g>
			<g>
				<path class="st6" d="M187.59,430.94c0.13,0.05-1.47,4.5-3.58,9.94c-2.11,5.44-3.93,9.81-4.07,9.75
					c-0.13-0.05,1.47-4.5,3.58-9.94C185.64,435.26,187.46,430.89,187.59,430.94z"/>
			</g>
			<g>
				<path class="st6" d="M183.69,439.32c-0.04,0.14-3.7-0.72-8.17-1.91c-4.48-1.19-8.08-2.27-8.04-2.41
					c0.04-0.14,3.7,0.72,8.17,1.91C180.13,438.1,183.73,439.18,183.69,439.32z"/>
			</g>
			<g>
				<path class="st6" d="M121.49,422.74c-0.01,0.04-0.56-0.08-1.55-0.31c-1.08-0.27-2.48-0.61-4.18-1.03
					c-3.52-0.9-8.39-2.12-13.7-3.72c-5.32-1.59-10.03-3.38-13.35-4.89c-1.66-0.76-2.97-1.42-3.87-1.91
					c-0.89-0.49-1.38-0.78-1.36-0.81c0.02-0.03,0.53,0.19,1.45,0.63c0.92,0.43,2.25,1.04,3.92,1.75c3.34,1.42,8.04,3.14,13.35,4.73
					c5.3,1.6,10.15,2.87,13.65,3.86c1.68,0.48,3.07,0.88,4.14,1.19C120.97,422.52,121.5,422.7,121.49,422.74z"/>
			</g>
		</g>
		<g>
			<g>
				<path class="st9" d="M152.23,331.51l-1.26,0.02l-0.18-4.26l-16.89,1.03c0,0,0.17,2.02,0.16,3.39
					c-10.39,1.03-27.07,6.33-27.46,29.75l13.34,0.3c-1.14,10.74-0.96,17.15-2.09,21.19c-1.86,6.66-7.76,20.71-6.57,21.42
					c1.19,0.71,55.92,1.73,58.53,0.3c2.61-1.42-2.14-19.76-3.33-24.75c-0.76-3.17-0.91-10.46-0.93-16.09l15.32-0.68
					C180.86,363.12,181.95,331.42,152.23,331.51z"/>
				<g>
					<path class="st6" d="M150.91,331.34c0.01,0.07-0.94,0.25-2.48,0.42c-1.54,0.18-3.68,0.34-6.05,0.39
						c-2.37,0.05-4.52-0.03-6.07-0.14c-1.55-0.11-2.5-0.25-2.5-0.32c0.01-0.07,0.96-0.07,2.51-0.05c1.55,0.02,3.68,0.04,6.04-0.01
						c2.36-0.05,4.49-0.16,6.03-0.24C149.94,331.31,150.9,331.27,150.91,331.34z"/>
				</g>
				<g>
					<path class="st6" d="M136.95,328.11c0.14,0,0.26,0.82,0.26,1.84c0,1.01-0.12,1.84-0.26,1.84c-0.14,0-0.26-0.82-0.26-1.84
						C136.69,328.93,136.81,328.11,136.95,328.11z"/>
				</g>
				<g>
					<path class="st6" d="M141.47,327.79c0.14,0,0.28,0.9,0.31,2.02c0.03,1.12-0.06,2.03-0.21,2.03c-0.14,0-0.28-0.9-0.31-2.02
						C141.23,328.7,141.33,327.79,141.47,327.79z"/>
				</g>
				<g>
					<path class="st6" d="M146.13,327.63c0.14-0.01,0.34,0.89,0.37,2.02c0.03,1.13-0.14,2.04-0.28,2.03
						c-0.15-0.01-0.22-0.91-0.24-2.02C145.95,328.55,145.98,327.64,146.13,327.63z"/>
				</g>
				<g>
					<path class="st6" d="M149.51,327.47c0.15,0,0.25,0.88,0.39,1.95c0.13,1.07,0.25,1.95,0.11,1.99c-0.14,0.04-0.49-0.81-0.62-1.92
						C149.24,328.37,149.37,327.46,149.51,327.47z"/>
				</g>
				<g>
					<path class="st6" d="M122.07,361.45c-0.14,0-0.28-2.25-0.3-5.03c-0.02-2.78,0.07-5.03,0.22-5.03c0.14,0,0.28,2.25,0.3,5.03
						C122.31,359.19,122.21,361.45,122.07,361.45z"/>
				</g>
				<g>
					<path class="st6" d="M165.02,363.12c-0.14,0.01-0.46-2.41-0.72-5.4c-0.25-3-0.34-5.44-0.2-5.45c0.14-0.01,0.46,2.41,0.72,5.4
						C165.07,360.67,165.16,363.11,165.02,363.12z"/>
				</g>
			</g>
			<g>
				<path class="st6" d="M122.07,361.45c0,0.07-0.88,0.08-2.29,0.07c-1.61-0.01-3.47-0.03-5.52-0.04c-2.05,0.01-3.9,0.02-5.52,0.03
					c-1.41,0.01-2.29,0-2.29-0.08c0-0.07,0.87-0.19,2.28-0.29c1.41-0.1,3.37-0.18,5.53-0.18c2.16,0,4.12,0.09,5.53,0.19
					C121.2,361.26,122.07,361.38,122.07,361.45z"/>
			</g>
			<g>
				<path class="st6" d="M180.86,363.12c0,0.14-3.65,0.26-8.16,0.26c-4.51,0-8.16-0.12-8.16-0.26c0-0.14,3.65-0.26,8.16-0.26
					C177.21,362.86,180.86,362.98,180.86,363.12z"/>
			</g>
		</g>
		<path class="st12" d="M180.19,363.25c0,0,3.99,37.33-7.44,41c-11.43,3.67-34.02-13.72-34.02-13.72l6.5-13.16
			c0,0,15.04,10.42,18.24,8.07c3.2-2.35,1.54-22.2,1.54-22.2H180.19z"/>
		<path class="st12" d="M106.81,361.45c0,0-4.07,36.96,7.36,40.63c11.43,3.67,34.02-13.72,34.02-13.72l-6.5-13.16
			c0,0-15.09,9.64-18.22,7.2c-1.81-1.41-1.86-20.77-1.86-20.77C116.26,361.41,111.33,361.18,106.81,361.45z"/>
		<g>
			<g>
				<path class="st6" d="M173.07,369.15l-7.59,37.2c0,0-46.64-0.36-47.13-0.5c-0.48-0.14-4.98-36.69-4.98-36.69H173.07z"/>
				<path class="st7" d="M139.57,387.99c0,1.44,1.25,2.61,2.79,2.61c1.54,0,2.8-1.17,2.8-2.61c0-1.44-1.25-2.61-2.8-2.61
					C140.83,385.38,139.57,386.55,139.57,387.99z"/>
			</g>
		</g>
		<g>
			<path class="st12" d="M149.37,306.38c0.52-0.51,2.24-0.6,2.84-0.18c0.6,0.43,0.92,1.14,1.06,1.86c0.23,1.19-0.01,2.51-0.85,3.39
				c-0.84,0.88-2.31,1.15-3.3,0.45"/>
			<g>
				<path class="st13" d="M150.57,310.89c-0.01-0.08,0.31-0.13,0.69-0.41c0.38-0.27,0.76-0.81,0.69-1.5
					c-0.05-0.69-0.54-1.15-0.96-1.34c-0.42-0.2-0.74-0.2-0.75-0.28c-0.02-0.06,0.32-0.23,0.88-0.08c0.54,0.11,1.3,0.72,1.36,1.65
					c0.11,0.93-0.53,1.67-1.04,1.88C150.93,311.05,150.57,310.95,150.57,310.89z"/>
			</g>
		</g>
	</g>
</g>
<g id="Character_2">
	<g>
		<g>
			<g>
				<path class="st9" d="M380.6,435.92l-1.95-10.57l-18.96,3.36l2.76,15.83l1.19-0.13c5.29-0.62,26.76-3.91,30.06-5.64
					C397.38,436.85,380.6,435.92,380.6,435.92z"/>
			</g>
			<g>
				<g>
					<path class="st6" d="M393.97,437.73c0.03,0.18-7.02,1.63-15.76,3.24c-8.74,1.61-15.84,2.77-15.88,2.59
						c-0.03-0.18,7.02-1.63,15.76-3.24C386.83,438.72,393.94,437.56,393.97,437.73z"/>
				</g>
			</g>
			<g>
				<g>
					<path class="st6" d="M381.33,438.02c-0.17-0.05-0.14-0.64,0.17-1.26c0.3-0.63,0.74-1.01,0.89-0.91c0.15,0.1-0.02,0.62-0.3,1.2
						C381.8,437.62,381.5,438.07,381.33,438.02z"/>
				</g>
			</g>
			<g>
				<g>
					<path class="st6" d="M382.67,438.49c-0.18-0.03-0.21-0.67,0.04-1.4c0.25-0.73,0.67-1.21,0.83-1.13
						c0.16,0.08,0.02,0.67-0.21,1.34C383.1,437.98,382.85,438.52,382.67,438.49z"/>
				</g>
			</g>
			<g>
				<g>
					<path class="st6" d="M368.03,442.44c-0.06,0.07-0.4-0.16-0.89-0.55c-0.5-0.39-1.16-0.94-1.97-1.36
						c-0.8-0.42-1.63-0.55-2.21-0.52c-0.59,0.03-0.95,0.19-1,0.1c-0.05-0.06,0.26-0.39,0.93-0.56c0.66-0.17,1.66-0.09,2.58,0.39
						c0.91,0.48,1.56,1.13,1.99,1.6C367.88,442.04,368.09,442.38,368.03,442.44z"/>
				</g>
			</g>
			<g>
				<g>
					<path class="st6" d="M381.02,436.02c0.12,0.13-0.14,0.56-0.64,0.86c-0.5,0.3-1,0.32-1.06,0.15c-0.06-0.17,0.29-0.45,0.73-0.71
						C380.49,436.05,380.9,435.88,381.02,436.02z"/>
				</g>
			</g>
			<g>
				<g>
					<path class="st6" d="M380.54,435.05c0.05,0.17-0.43,0.42-1.06,0.54c-0.64,0.13-1.17,0.08-1.19-0.1
						c-0.02-0.18,0.46-0.42,1.06-0.54C379.95,434.84,380.49,434.88,380.54,435.05z"/>
				</g>
			</g>
		</g>
		<path class="st6" d="M403.4,324.27c-5.88-11.85-37.33-57.69-37.33-57.69l-16.79,1.75l-0.02-0.1l-18.79,2.06h0l0,0l-10.36,1.14
			l37.51,163.83l25.94-0.47l-6.24-30.31C381.63,393.74,406.65,330.83,403.4,324.27z M376.64,331.34l-9.27,24.89l-10.51-51.03
			L376.64,331.34z"/>
		<g>
			<g>
				<path class="st15" d="M355.83,190.91c-0.24-1.71,0.68-8.82,0.68-8.82s6.53-0.48,7.14-6.92c0.6-6.45,0.69-21.35,0.69-21.35
					l-11.67-6.18l-13.36,9.47l-3.46,9l4.55,11.18l-0.14,3.7l-0.02,8.47L355.83,190.91z"/>
				<g>
					<g>
						<path class="st6" d="M363.46,164.62c-0.01,0.46-0.4,0.81-0.85,0.8c-0.46-0.01-0.81-0.4-0.8-0.85c0.01-0.46,0.4-0.81,0.85-0.8
							C363.12,163.78,363.48,164.16,363.46,164.62z"/>
						<g>
							<path class="st6" d="M363.52,163.75c-0.11,0.1-0.7-0.44-1.59-0.51c-0.89-0.09-1.57,0.33-1.66,0.21
								c-0.04-0.05,0.07-0.25,0.37-0.44c0.29-0.19,0.78-0.36,1.34-0.31c0.55,0.05,1,0.31,1.26,0.55
								C363.49,163.5,363.57,163.71,363.52,163.75z"/>
						</g>
					</g>
					<g>
						<path class="st6" d="M353.02,163.61c0.37,0.27,0.45,0.79,0.18,1.16c-0.27,0.37-0.79,0.45-1.16,0.18
							c-0.37-0.27-0.45-0.79-0.18-1.16C352.13,163.42,352.65,163.34,353.02,163.61z"/>
						<g>
							<path class="st6" d="M353.65,163.44c-0.11,0.1-0.7-0.44-1.59-0.51c-0.89-0.09-1.57,0.33-1.66,0.21
								c-0.04-0.05,0.07-0.25,0.37-0.44c0.29-0.19,0.78-0.36,1.34-0.31c0.55,0.05,1,0.31,1.26,0.55
								C353.63,163.18,353.71,163.39,353.65,163.44z"/>
						</g>
					</g>
					<g>
						<path class="st6" d="M356.62,171.06c0-0.05,0.56-0.1,1.46-0.14c0.23,0,0.45-0.03,0.5-0.2c0.07-0.17-0.01-0.44-0.1-0.72
							c-0.17-0.59-0.36-1.21-0.55-1.86c-0.76-2.65-1.3-4.82-1.21-4.85c0.05-0.01,0.25,0.51,0.53,1.37c0.28,0.86,0.65,2.05,1.03,3.38
							c0.18,0.65,0.36,1.28,0.52,1.87c0.07,0.28,0.19,0.59,0.06,0.93c-0.07,0.17-0.24,0.28-0.39,0.31
							c-0.15,0.03-0.28,0.02-0.39,0.02C357.18,171.15,356.62,171.11,356.62,171.06z"/>
					</g>
				</g>
				<path class="st7" d="M353.66,171.8c-0.88-0.63,2.44,1.56,4.25,1.62c0,0-1.17,1.57-2.98,0.74
					C353.06,173.3,353.66,171.8,353.66,171.8z"/>
				<path class="st16" d="M356.51,182.09c0,0-4.35-0.09-8.46-3.16c0,0,1.79,4.8,8.27,4.74L356.51,182.09z"/>
			</g>
			<g>
				<path class="st16" d="M341.15,167.9c-0.03-0.02-0.09,0.07-0.25,0.16c-0.15,0.08-0.42,0.15-0.72,0.06
					c-0.59-0.18-1.14-1.07-1.23-2.06c-0.04-0.5,0.03-0.98,0.19-1.39c0.14-0.41,0.39-0.71,0.68-0.78c0.29-0.08,0.5,0.08,0.58,0.23
					c0.08,0.15,0.06,0.26,0.08,0.27c0.02,0.01,0.11-0.1,0.05-0.32c-0.03-0.11-0.1-0.23-0.24-0.33c-0.14-0.1-0.34-0.14-0.54-0.11
					c-0.42,0.06-0.78,0.47-0.95,0.91c-0.19,0.45-0.29,0.99-0.24,1.55c0.1,1.11,0.73,2.11,1.54,2.29c0.39,0.08,0.71-0.06,0.87-0.2
					C341.15,168.03,341.17,167.91,341.15,167.9z"/>
			</g>
			<path class="st9" d="M366.04,154.89c-0.39,0.13-0.75,0.19-1.08,0.21c1.2-0.64,2.23-1.62,2.87-2.83c0.91-1.69,1.03-3.87-0.01-5.48
				c-1.04-1.61-3.36-2.37-5.01-1.4c0.8-1.32,0.16-3.17-1.11-4.04c-1.27-0.86-2.98-0.87-4.44-0.39c-1.46,0.48-2.74,1.39-3.99,2.28
				c-0.14-1.04-0.89-1.93-1.82-2.4c-0.94-0.47-2.03-0.55-3.06-0.39c-3,0.45-5.57,2.98-6.07,5.98c-0.94-0.97-2.39-1.4-3.7-1.1
				c-1.31,0.3-2.43,1.32-2.85,2.6c-0.02,0.05-0.02,0.09-0.04,0.14c-0.55,0.23-1.08,0.65-1.44,1.25c-0.54,0.87-0.71,2.09-0.31,3.21
				c0.36,1.12,1.21,1.97,1.98,2.51c0.37,0.29,0.7,0.57,0.91,0.89c0.21,0.31,0.31,0.64,0.35,0.96c-0.08,2.16-1.19,4.2-1.73,6.33
				c-0.74,2.93,0.89,6.95,1.83,9.83c0.94,2.88,1.27,4.03,3.09,4.23l0.29-7.74c-2.02,1.64-4.67-4-2.92-6.25
				c1.75-2.25,3.61-1.48,3.93-0.06c0.21,0.95,0.47,1.61,0.47,1.61h2.03l-0.22-1.7c0,0-0.41-7.51,3.18-7.97
				c1.27-0.16,1.56-0.04,2.72,0.51c1.15,0.55,2.37,0.55,3.65,0.51c1.28-0.04,3-1.45,2.96-2.73c1.44,1.71,3.76,2.65,5.99,2.42
				c0.58-0.06,1.15-0.2,1.69-0.41c0.52,0.16,1.28,0.2,2.05-0.06c0.8-0.27,1.41-0.78,1.72-1.23c0.32-0.45,0.38-0.79,0.32-0.82
				C368.12,153.29,367.48,154.44,366.04,154.89z M336.24,154.65c-0.75-0.58-1.44-1.3-1.78-2.3c-0.35-0.97-0.22-2.01,0.23-2.77
				c0.23-0.42,0.55-0.73,0.89-0.96c-0.34,2.27,1.14,4.57,1.53,6.93C336.87,155.22,336.56,154.92,336.24,154.65z"/>
		</g>
		<path class="st9" d="M400.38,164.28v12.88c0,2.92,2.37,5.29,5.29,5.29h22.3v7.37l4-7.04l0,0c2.46-0.18,4.36-2.23,4.36-4.7v-13.8
			c0-2.92-2.37-5.29-5.29-5.29h-25.37C402.75,158.99,400.38,161.36,400.38,164.28z"/>
		<path class="st7" d="M412.53,171.41c0,1.2-0.98,2.18-2.18,2.18c-1.2,0-2.18-0.98-2.18-2.18s0.98-2.18,2.18-2.18
			C411.55,169.23,412.53,170.21,412.53,171.41z"/>
		<path class="st7" d="M420.81,171.41c0,1.2-0.98,2.18-2.18,2.18s-2.18-0.98-2.18-2.18s0.98-2.18,2.18-2.18
			S420.81,170.21,420.81,171.41z"/>
		<path class="st7" d="M429.09,171.41c0,1.2-0.98,2.18-2.18,2.18c-1.2,0-2.18-0.98-2.18-2.18s0.98-2.18,2.18-2.18
			C428.11,169.23,429.09,170.21,429.09,171.41z"/>
		<g>
			<path class="st8" d="M418,202.59c-0.44-1.02-28.85,24.07-34.5,24.93l-16.57-21.57c0,0-3.44-5.46-10.82-14.8
				c-4.76-6.03-17.91-4.78-21.37,2.57c-5.87,12.48-6.08,29.05-10.61,55.57l-3.85,22.52c-0.01,0.04,5.67-0.66,5.65-0.62l40.32-4.23
				l1-26.95c7.97,8.08,10.44,9.76,14.59,9.12c10.43-1.62,46.92-34.44,46.92-34.44S418.44,203.61,418,202.59z"/>
			<g>
				<path class="st6" d="M423.84,219.28c-0.04,0.05-0.85-0.53-2.05-1.58c-1.2-1.05-2.78-2.61-4.36-4.46
					c-1.58-1.86-2.86-3.67-3.71-5.02c-0.85-1.35-1.29-2.24-1.24-2.27c0.07-0.04,0.62,0.78,1.54,2.07c0.92,1.29,2.23,3.05,3.8,4.89
					c1.57,1.84,3.09,3.42,4.22,4.53C423.18,218.55,423.89,219.22,423.84,219.28z"/>
			</g>
			<g>
				<path class="st6" d="M381.88,236.07c-0.14-0.03,0.08-1.96,0.5-4.32c0.42-2.36,0.87-4.25,1.02-4.23c0.14,0.03-0.08,1.96-0.5,4.32
					C382.48,234.2,382.02,236.09,381.88,236.07z"/>
			</g>
			<g>
				<path class="st6" d="M385.5,235.18c-0.14,0.04-0.71-1.62-1.27-3.7c-0.56-2.08-0.91-3.8-0.77-3.84s0.71,1.62,1.27,3.7
					C385.29,233.42,385.64,235.14,385.5,235.18z"/>
			</g>
			<polygon class="st14" points="345.84,211.67 366.83,251.35 367.3,239.58 			"/>
			<g>
				<path class="st6" d="M344.48,209.74c0.03-0.02,0.37,0.41,0.97,1.2c0.65,0.87,1.49,2,2.5,3.36c2.11,2.84,5.06,6.73,8.37,10.98
					c3.29,4.22,6.27,8.03,8.5,10.89c1.03,1.35,1.89,2.46,2.55,3.32c0.59,0.79,0.91,1.24,0.88,1.26c-0.03,0.02-0.4-0.38-1.04-1.14
					c-0.69-0.83-1.59-1.92-2.68-3.22c-2.24-2.73-5.31-6.54-8.63-10.8c-3.31-4.26-6.22-8.19-8.25-11.09
					c-1.02-1.45-1.83-2.63-2.37-3.46C344.74,210.23,344.45,209.76,344.48,209.74z"/>
			</g>
			<g>
				<path class="st6" d="M345.14,222.14c-0.04,0.01-0.17-0.43-0.37-1.22c-0.2-0.79-0.46-1.92-0.77-3.3l0.31,0.14
					c-1.23,0.67-2.62,1.43-4.12,2.25l-0.28,0.15l-0.09-0.31c-0.15-0.54-0.32-1.11-0.48-1.69c-0.25-0.89-0.49-1.76-0.72-2.59
					l0.37,0.15c-1.5,0.85-2.88,1.62-4.07,2.29l-0.25,0.14l-0.04-0.28c-0.33-2.29-0.49-3.73-0.42-3.74c0.08-0.01,0.38,1.4,0.8,3.68
					l-0.29-0.14c1.17-0.7,2.53-1.51,4.01-2.39l0.28-0.17l0.09,0.32c0.24,0.83,0.48,1.69,0.74,2.59c0.16,0.58,0.32,1.15,0.48,1.69
					l-0.37-0.16c1.52-0.79,2.93-1.53,4.17-2.17l0.26-0.13l0.05,0.28c0.26,1.39,0.46,2.54,0.59,3.34
					C345.13,221.68,345.18,222.13,345.14,222.14z"/>
			</g>
			<g>
				<path class="st6" d="M350.07,199.71c-0.02,0.04-0.42-0.19-1.11-0.62c-0.69-0.43-1.67-1.06-2.85-1.84l0.32-0.11
					c-0.42,1.33-0.89,2.85-1.4,4.48l-0.1,0.31l-0.28-0.16c-0.49-0.28-1-0.58-1.52-0.88c-0.8-0.47-1.58-0.92-2.32-1.36l0.37-0.15
					c-0.49,1.65-0.94,3.16-1.33,4.47l-0.08,0.28l-0.22-0.17c-1.83-1.42-2.94-2.34-2.9-2.4c0.05-0.06,1.24,0.74,3.13,2.09l-0.3,0.1
					c0.36-1.32,0.77-2.84,1.22-4.5l0.09-0.31l0.29,0.17c0.75,0.43,1.53,0.88,2.33,1.35c0.52,0.3,1.03,0.6,1.52,0.89l-0.37,0.14
					c0.54-1.62,1.04-3.13,1.49-4.46l0.09-0.27l0.23,0.16c1.15,0.82,2.1,1.5,2.74,1.99C349.74,199.38,350.09,199.68,350.07,199.71z"
					/>
			</g>
			<g>
				<path class="st3" d="M364.8,207.42c-0.03,0.03-0.37-0.28-0.95-0.84c-0.58-0.57-1.39-1.4-2.38-2.42l0.34-0.04
					c-0.7,1.21-1.49,2.59-2.35,4.07l-0.16,0.28l-0.24-0.22c-0.42-0.38-0.85-0.79-1.29-1.19c-0.68-0.63-1.34-1.25-1.97-1.83
					l0.39-0.06c-0.84,1.5-1.61,2.88-2.28,4.07l-0.14,0.25l-0.18-0.22c-1.47-1.79-2.36-2.92-2.3-2.97c0.06-0.05,1.05,1,2.6,2.72
					l-0.32,0.03c0.64-1.21,1.37-2.6,2.17-4.13l0.15-0.29l0.24,0.22c0.63,0.58,1.3,1.19,1.98,1.82c0.44,0.41,0.87,0.81,1.29,1.2
					l-0.4,0.06c0.88-1.46,1.7-2.83,2.43-4.02l0.15-0.25l0.19,0.21c0.95,1.05,1.72,1.92,2.24,2.54
					C364.55,207.02,364.83,207.39,364.8,207.42z"/>
			</g>
			<g>
				<path class="st6" d="M403.64,232.67c-0.04,0.03-0.34-0.32-0.84-0.96c-0.5-0.64-1.21-1.56-2.05-2.7l0.34,0.01
					c-0.84,1.11-1.81,2.38-2.84,3.74l-0.19,0.25l-0.21-0.25c-0.36-0.43-0.74-0.89-1.13-1.35c-0.59-0.71-1.17-1.41-1.72-2.07
					l0.4-0.01c-1.02,1.39-1.96,2.66-2.77,3.75l-0.17,0.23l-0.15-0.24c-1.24-1.96-1.98-3.2-1.91-3.24c0.06-0.04,0.92,1.12,2.23,3.02
					l-0.32-0.01c0.78-1.12,1.69-2.41,2.68-3.82l0.19-0.27l0.21,0.25c0.56,0.66,1.14,1.35,1.73,2.06c0.39,0.46,0.76,0.92,1.13,1.35
					l-0.4,0.01c1.06-1.34,2.05-2.59,2.91-3.69l0.18-0.23l0.16,0.23c0.81,1.16,1.46,2.12,1.91,2.8
					C403.44,232.26,403.67,232.65,403.64,232.67z"/>
			</g>
			<g>
				<path class="st3" d="M379.59,230.65c-0.03,0.03-0.4-0.23-1.04-0.73c-0.64-0.5-1.55-1.23-2.64-2.12l0.33-0.08
					c-0.55,1.28-1.18,2.74-1.85,4.32l-0.13,0.29l-0.26-0.19c-0.46-0.33-0.94-0.68-1.42-1.03c-0.75-0.55-1.47-1.08-2.17-1.59
					l0.38-0.11c-0.66,1.59-1.26,3.05-1.78,4.31l-0.11,0.27l-0.2-0.19c-1.67-1.6-2.69-2.63-2.63-2.68c0.05-0.06,1.16,0.87,2.9,2.4
					l-0.31,0.07c0.49-1.27,1.06-2.74,1.68-4.35l0.12-0.3l0.27,0.19c0.7,0.51,1.43,1.03,2.18,1.58c0.49,0.36,0.96,0.71,1.42,1.04
					l-0.39,0.1c0.71-1.56,1.36-3.01,1.94-4.28l0.12-0.26l0.21,0.19c1.06,0.93,1.93,1.71,2.52,2.26
					C379.3,230.29,379.62,230.61,379.59,230.65z"/>
			</g>
			<g>
				<path class="st3" d="M414.01,225.01c-0.04,0-0.13-0.44-0.26-1.25c-0.12-0.8-0.28-1.95-0.46-3.36l0.29,0.17
					c-1.28,0.55-2.74,1.18-4.31,1.86l-0.29,0.13l-0.06-0.32c-0.1-0.56-0.21-1.14-0.32-1.73c-0.17-0.91-0.33-1.8-0.48-2.65l0.35,0.18
					c-1.57,0.7-3.01,1.35-4.26,1.9l-0.26,0.12l-0.01-0.28c-0.11-2.31-0.14-3.75-0.07-3.76c0.08-0.01,0.25,1.43,0.45,3.73l-0.28-0.16
					c1.23-0.59,2.65-1.27,4.21-2.01l0.29-0.14l0.06,0.32c0.16,0.85,0.32,1.73,0.49,2.64c0.11,0.59,0.21,1.17,0.32,1.73l-0.35-0.19
					c1.58-0.65,3.06-1.25,4.35-1.77l0.27-0.11l0.03,0.28c0.13,1.41,0.23,2.57,0.28,3.38C414.04,224.55,414.05,225.01,414.01,225.01z
					"/>
			</g>
			<g>
				<path class="st6" d="M366.06,214.34c0.02,0.04-0.37,0.28-1.07,0.68c-0.7,0.4-1.73,0.96-2.97,1.63l0.06-0.33
					c0.97,1,2.08,2.14,3.27,3.37l0.22,0.23l-0.27,0.17c-0.48,0.3-0.99,0.6-1.5,0.92c-0.79,0.48-1.56,0.95-2.3,1.39l0.05-0.4
					c1.22,1.22,2.33,2.34,3.3,3.3l0.2,0.2l-0.26,0.11c-2.12,0.93-3.46,1.47-3.49,1.4c-0.03-0.07,1.25-0.74,3.33-1.76l-0.05,0.32
					c-0.99-0.94-2.13-2.03-3.38-3.22l-0.24-0.22l0.28-0.17c0.74-0.45,1.5-0.92,2.29-1.41c0.52-0.31,1.02-0.62,1.5-0.91l-0.05,0.4
					c-1.17-1.25-2.26-2.41-3.21-3.43l-0.2-0.21l0.25-0.12c1.27-0.62,2.32-1.13,3.06-1.46C365.61,214.47,366.04,214.3,366.06,214.34z
					"/>
			</g>
			<g>
				<path class="st3" d="M384.41,236.07c0.02,0.04-0.37,0.28-1.07,0.68c-0.7,0.4-1.73,0.96-2.97,1.63l0.06-0.33
					c0.97,1,2.08,2.14,3.27,3.37l0.22,0.23l-0.28,0.17c-0.48,0.3-0.99,0.6-1.5,0.92c-0.79,0.48-1.56,0.95-2.3,1.39l0.05-0.4
					c1.22,1.22,2.33,2.33,3.3,3.3l0.2,0.2l-0.26,0.11c-2.12,0.93-3.46,1.47-3.49,1.4c-0.03-0.07,1.25-0.74,3.33-1.76l-0.05,0.32
					c-0.99-0.94-2.13-2.03-3.38-3.22l-0.24-0.22l0.28-0.17c0.74-0.45,1.5-0.92,2.29-1.41c0.52-0.31,1.02-0.62,1.5-0.91l-0.05,0.4
					c-1.17-1.25-2.26-2.41-3.21-3.43l-0.2-0.21l0.25-0.12c1.27-0.62,2.32-1.13,3.06-1.46C383.97,236.2,384.39,236.03,384.41,236.07z
					"/>
			</g>
			<g>
				<path class="st3" d="M347.96,235.78c-0.04,0.01-0.17-0.43-0.37-1.22c-0.2-0.79-0.46-1.92-0.77-3.3l0.31,0.14
					c-1.23,0.67-2.62,1.43-4.12,2.25l-0.28,0.15l-0.09-0.31c-0.16-0.54-0.32-1.11-0.48-1.69c-0.25-0.89-0.49-1.76-0.72-2.59
					l0.37,0.15c-1.5,0.85-2.88,1.62-4.06,2.29l-0.25,0.14l-0.04-0.28c-0.33-2.29-0.49-3.73-0.42-3.74c0.08-0.01,0.38,1.4,0.8,3.68
					l-0.29-0.14c1.17-0.7,2.53-1.51,4.01-2.39l0.28-0.17l0.09,0.32c0.24,0.83,0.48,1.69,0.74,2.59c0.16,0.58,0.32,1.15,0.47,1.69
					l-0.37-0.16c1.52-0.79,2.93-1.53,4.17-2.17l0.25-0.13l0.05,0.28c0.26,1.39,0.46,2.54,0.59,3.34
					C347.95,235.31,348,235.77,347.96,235.78z"/>
			</g>
			<g>
				<path class="st6" d="M364.66,245.22c-0.04,0.01-0.17-0.43-0.37-1.22c-0.2-0.79-0.46-1.92-0.77-3.3l0.31,0.14
					c-1.23,0.67-2.62,1.43-4.12,2.25l-0.28,0.15l-0.09-0.31c-0.15-0.54-0.32-1.11-0.48-1.69c-0.25-0.89-0.49-1.76-0.72-2.59
					l0.37,0.15c-1.5,0.85-2.88,1.62-4.07,2.29l-0.25,0.14l-0.04-0.28c-0.33-2.29-0.49-3.73-0.42-3.74c0.08-0.01,0.38,1.4,0.8,3.67
					l-0.29-0.14c1.17-0.7,2.53-1.51,4.01-2.39l0.28-0.17l0.09,0.32c0.24,0.83,0.48,1.7,0.74,2.59c0.16,0.58,0.32,1.15,0.47,1.69
					l-0.37-0.16c1.52-0.79,2.93-1.53,4.17-2.17l0.25-0.13l0.05,0.28c0.26,1.39,0.46,2.54,0.59,3.34
					C364.65,244.75,364.71,245.21,364.66,245.22z"/>
			</g>
			<g>
				<path class="st3" d="M340.21,266.04c-0.04,0.01-0.17-0.43-0.37-1.22c-0.2-0.79-0.46-1.92-0.77-3.3l0.31,0.14
					c-1.23,0.67-2.62,1.43-4.12,2.25l-0.28,0.15l-0.09-0.31c-0.16-0.54-0.32-1.11-0.48-1.69c-0.25-0.89-0.49-1.76-0.72-2.59
					l0.37,0.15c-1.5,0.85-2.88,1.62-4.07,2.29l-0.25,0.14l-0.04-0.28c-0.33-2.29-0.49-3.73-0.42-3.74c0.08-0.01,0.38,1.4,0.8,3.68
					l-0.29-0.14c1.17-0.7,2.53-1.51,4.01-2.39l0.28-0.17l0.09,0.32c0.24,0.83,0.48,1.69,0.74,2.59c0.16,0.58,0.32,1.15,0.47,1.69
					l-0.37-0.16c1.52-0.79,2.93-1.53,4.17-2.17l0.25-0.13l0.05,0.28c0.26,1.39,0.46,2.54,0.59,3.34
					C340.21,265.58,340.26,266.03,340.21,266.04z"/>
			</g>
			<g>
				<path class="st6" d="M340.69,244.19c-0.03,0.03-0.41-0.23-1.05-0.72c-0.65-0.49-1.56-1.21-2.66-2.09l0.33-0.08
					c-0.54,1.29-1.15,2.76-1.81,4.33l-0.12,0.29l-0.26-0.19c-0.46-0.33-0.94-0.67-1.43-1.02c-0.75-0.54-1.48-1.07-2.19-1.57
					l0.38-0.11c-0.64,1.6-1.23,3.06-1.74,4.33l-0.11,0.27l-0.21-0.19c-1.69-1.58-2.71-2.6-2.66-2.66c0.05-0.06,1.17,0.85,2.92,2.37
					l-0.31,0.07c0.48-1.28,1.03-2.75,1.63-4.37l0.11-0.31l0.27,0.19c0.7,0.5,1.44,1.02,2.19,1.56c0.49,0.35,0.97,0.7,1.43,1.03
					l-0.39,0.11c0.69-1.57,1.33-3.02,1.89-4.3l0.12-0.26l0.21,0.18c1.07,0.92,1.95,1.69,2.55,2.23
					C340.39,243.83,340.71,244.16,340.69,244.19z"/>
			</g>
			<g>
				<path class="st6" d="M349.41,244.78c0.02,0.04-0.35,0.31-1.02,0.76c-0.67,0.45-1.65,1.08-2.85,1.83l0.03-0.34
					c1.04,0.93,2.23,1.99,3.5,3.13l0.24,0.21l-0.26,0.19c-0.46,0.33-0.94,0.67-1.43,1.02c-0.76,0.54-1.49,1.05-2.2,1.55l0.02-0.4
					c1.3,1.13,2.49,2.17,3.52,3.06l0.22,0.19l-0.25,0.13c-2.05,1.08-3.34,1.71-3.38,1.65c-0.04-0.07,1.19-0.83,3.19-1.99l-0.03,0.32
					c-1.05-0.87-2.27-1.87-3.6-2.97l-0.25-0.21l0.27-0.19c0.7-0.5,1.43-1.02,2.19-1.56c0.49-0.35,0.97-0.69,1.44-1.02l-0.02,0.4
					c-1.25-1.16-2.42-2.25-3.44-3.2l-0.21-0.2l0.24-0.14c1.22-0.71,2.23-1.29,2.95-1.68C348.98,244.94,349.39,244.74,349.41,244.78z
					"/>
			</g>
			<g>
				<path class="st3" d="M359.04,251.6c0.03,0.03-0.22,0.41-0.7,1.06c-0.48,0.65-1.19,1.58-2.06,2.69l-0.08-0.33
					c1.3,0.52,2.77,1.11,4.36,1.75l0.3,0.12l-0.18,0.27c-0.32,0.47-0.66,0.95-1,1.45c-0.53,0.76-1.05,1.5-1.54,2.21l-0.12-0.38
					c1.61,0.62,3.08,1.19,4.35,1.68l0.27,0.1l-0.19,0.21c-1.56,1.71-2.56,2.75-2.62,2.7c-0.06-0.05,0.84-1.18,2.33-2.96l0.08,0.31
					c-1.29-0.46-2.77-0.99-4.39-1.57l-0.31-0.11l0.19-0.27c0.49-0.71,1-1.45,1.53-2.22c0.34-0.49,0.68-0.98,1-1.44l0.11,0.38
					c-1.58-0.67-3.04-1.29-4.33-1.83l-0.26-0.11l0.18-0.22c0.91-1.09,1.66-1.97,2.2-2.58C358.69,251.9,359,251.57,359.04,251.6z"/>
			</g>
		</g>
		<g>
			<path class="st8" d="M353.56,267.9c0.01,0,0.05,0.11,0.12,0.33c0.07,0.25,0.17,0.57,0.29,0.98c0.24,0.87,0.6,2.15,1.01,3.82
				c0.4,1.67,0.92,3.71,1.27,6.15c0.22,1.21,0.1,2.63-0.51,3.91c-0.59,1.29-1.45,2.51-2.56,3.63l0.05-0.17
				c2.62,12.43,6.29,29.86,10.36,49.15c3.95,18.97,7.48,36.15,9.97,48.59c1.25,6.22,2.24,11.26,2.89,14.75
				c0.33,1.75,0.57,3.1,0.72,4.02c0.15,0.92,0.2,1.42,0.16,1.42c0,0-0.08-0.48-0.26-1.4c-0.19-0.95-0.47-2.29-0.82-4
				c-0.73-3.5-1.77-8.53-3.05-14.72c-2.6-12.45-6.17-29.61-10.12-48.56c-4-19.3-7.62-36.74-10.2-49.18l-0.02-0.1l0.07-0.07
				c2.12-2.13,3.55-4.81,3.04-7.24c-0.32-2.41-0.81-4.46-1.18-6.14c-0.39-1.65-0.7-2.93-0.91-3.84c-0.1-0.42-0.18-0.75-0.24-1
				C353.57,268.02,353.55,267.9,353.56,267.9z"/>
		</g>
		<g>
			<path class="st8" d="M332.5,270.3c0.03-0.01,0.15,0.22,0.31,0.68c0.16,0.45,0.32,1.14,0.38,2c0.13,1.7-0.28,4.23-1.93,6.35
				c-1.66,2.12-4.01,3.14-5.69,3.42c-0.85,0.15-1.55,0.16-2.03,0.12c-0.48-0.04-0.74-0.1-0.73-0.14c0-0.1,1.06,0.04,2.69-0.35
				c1.6-0.36,3.79-1.38,5.36-3.38c1.55-2,2.01-4.38,1.98-6.02C332.8,271.32,332.41,270.33,332.5,270.3z"/>
		</g>
		<g>
			<path class="st8" d="M349.25,271.37c-0.02-0.02,0.04-0.14,0.24-0.27c0.2-0.13,0.56-0.23,0.99-0.13c0.42,0.08,0.95,0.48,1.02,1.11
				c0.08,0.59-0.21,1.32-0.9,1.62c-0.7,0.27-1.41-0.04-1.78-0.5c-0.4-0.48-0.36-1.12-0.17-1.5c0.41-0.81,1.07-0.83,1.04-0.76
				c0.04,0.07-0.48,0.23-0.7,0.9c-0.11,0.32-0.09,0.74,0.19,1.05c0.27,0.31,0.79,0.5,1.22,0.33c0.42-0.17,0.66-0.68,0.62-1.08
				c-0.02-0.42-0.33-0.7-0.65-0.81C349.71,271.08,349.29,271.43,349.25,271.37z"/>
		</g>
		<g>
			<path class="st8" d="M370.39,273.59c0.03,0.05-0.66,0.48-1.94,0.67c-1.25,0.19-3.15,0.03-4.83-1.06
				c-1.68-1.09-2.61-2.75-2.94-3.98c-0.35-1.24-0.23-2.05-0.18-2.04c0.09-0.01,0.11,0.78,0.53,1.93c0.41,1.14,1.32,2.64,2.88,3.65
				c1.56,1,3.31,1.22,4.51,1.13C369.63,273.81,370.36,273.51,370.39,273.59z"/>
		</g>
		<g>
			<path class="st8" d="M381.37,426.48c0,0.04-0.35,0.08-1,0.12c-0.76,0.04-1.67,0.09-2.72,0.15c-2.44,0.12-5.54,0.26-8.98,0.43
				c-3.44,0.18-6.55,0.34-8.98,0.46c-1.06,0.05-1.96,0.09-2.72,0.12c-0.64,0.02-1,0.01-1-0.02c0-0.04,0.35-0.1,0.99-0.18
				c0.64-0.08,1.57-0.18,2.71-0.28c2.29-0.21,5.47-0.44,8.98-0.62c3.51-0.17,6.69-0.26,9-0.27c1.15-0.01,2.08,0,2.73,0.01
				C381.01,426.42,381.37,426.44,381.37,426.48z"/>
		</g>
		<g>
			<path class="st8" d="M335.72,281.71c0.14-0.03,8.02,32.43,17.59,72.5c9.58,40.08,17.22,72.6,17.08,72.63
				c-0.14,0.03-8.01-32.42-17.59-72.51C343.23,314.26,335.58,281.74,335.72,281.71z"/>
		</g>
		<g>
			<path class="st8" d="M361.31,282.96c0.01-0.01,0.07,0.07,0.18,0.21c0.13,0.17,0.29,0.39,0.49,0.65c0.45,0.61,1.07,1.46,1.85,2.54
				c1.62,2.25,3.91,5.46,6.74,9.41c2.84,3.99,6.21,8.74,9.95,14c1.87,2.64,3.82,5.41,5.85,8.28c1.97,2.89,3.99,6.11,4.54,9.92
				c0.54,3.81-0.58,7.47-1.74,10.76c-1.2,3.31-2.4,6.48-3.57,9.5c-2.33,6.03-4.56,11.41-6.49,15.91c-1.93,4.49-3.56,8.1-4.71,10.58
				c-0.57,1.21-1.02,2.16-1.34,2.85c-0.15,0.3-0.27,0.54-0.36,0.73c-0.08,0.16-0.13,0.25-0.14,0.24c-0.01,0,0.02-0.09,0.09-0.26
				c0.08-0.2,0.19-0.45,0.32-0.76c0.3-0.7,0.72-1.66,1.25-2.89c1.09-2.51,2.67-6.13,4.55-10.64c1.88-4.51,4.07-9.9,6.38-15.93
				c1.15-3.02,2.34-6.19,3.53-9.5c1.15-3.28,2.23-6.86,1.7-10.52c-0.52-3.66-2.49-6.83-4.44-9.7c-2.02-2.88-3.97-5.65-5.82-8.3
				c-3.7-5.29-7.04-10.05-9.85-14.06c-2.77-3.99-5.02-7.23-6.61-9.51c-0.75-1.1-1.35-1.97-1.77-2.6c-0.18-0.28-0.33-0.5-0.45-0.68
				C361.35,283.05,361.3,282.97,361.31,282.96z"/>
		</g>
		<g>
			<polygon class="st6" points="412.13,203.61 434.46,187.31 435.56,189.06 413.37,205.56 			"/>
			<path class="st15" d="M417.65,203.11c0,0,3-7.8,3.67-9.46c0.67-1.66,1.82-4.55,2.24-4.61c0.43-0.06,1.99,0.19-0.05,5.15
				c-2.04,4.96,2.41,1.93,2.41,1.93l4.3-3.08c0,0,3.4,10.15,1.46,13.21c-2.09,3.3-5.1,6.46-5.1,6.46L417.65,203.11z"/>
		</g>
	</g>
</g>
</svg>
