<?xml version="1.0" encoding="utf-8"?>
<!-- Generator: Adobe Illustrator 25.1.0, SVG Export Plug-In . SVG Version: 6.00 Build 0)  -->
<svg version="1.1" xmlns="http://www.w3.org/2000/svg" xmlns:xlink="http://www.w3.org/1999/xlink" x="0px" y="0px"
	 viewBox="0 0 500 500" style="enable-background:new 0 0 500 500;" xml:space="preserve">
<style type="text/css">
	.st0{fill:#E0E0E0;}
	.st1{fill:#F0F0F0;}
	.st2{fill:#FFFFFF;}
	.st3{fill:#E6E6E6;}
	.st4{fill:#263238;}
	.st5{fill:#E8505B;}
	.st6{fill:#455A64;}
	.st7{display:none;}
	.st8{display:inline;}
	.st9{fill:#E8E8E3;}
	.st10{opacity:0.1;}
	.st11{opacity:0.2;fill:#FFFFFF;}
	.st12{opacity:0.2;}
	.st13{fill:#FFBE9D;}
	.st14{fill:#EB996E;}
</style>
<g id="Background_Complete">
	<g>
		<g>
			<g>
				<g>
					<path class="st0" d="M466.89,316.2H303.03v-94.85h163.86V316.2z M304.03,315.2h161.86v-92.85H304.03V315.2z"/>
				</g>
				<g>
					<rect x="324.95" y="271.93" class="st1" width="108.13" height="3.17"/>
				</g>
				<g>
					<rect x="324.95" y="283.75" class="st1" width="115.58" height="3.46"/>
				</g>
				<g>
					<rect x="324.95" y="295.71" class="st1" width="115.58" height="3.46"/>
				</g>
				<g>
					<rect x="324.95" y="254.76" class="st1" width="37.79" height="8.23"/>
				</g>
				<g>
					<rect x="303.53" y="221.86" class="st0" width="162.86" height="15.1"/>
				</g>
			</g>
			<g>
				<g>
					<g>
						<path class="st2" d="M453.86,234.7c-0.21-0.2,1.89-2.73,4.69-5.65c2.8-2.92,5.23-5.13,5.44-4.93c0.21,0.2-1.89,2.73-4.69,5.65
							C456.5,232.69,454.07,234.9,453.86,234.7z"/>
					</g>
				</g>
				<g>
					<g>
						<path class="st2" d="M463.98,234.7c-0.21,0.2-2.64-2.01-5.44-4.93c-2.8-2.92-4.9-5.45-4.69-5.65s2.64,2.01,5.44,4.93
							C462.09,231.97,464.19,234.5,463.98,234.7z"/>
					</g>
				</g>
			</g>
		</g>
		<g>
			<g>
				<g>
					<rect x="102.36" y="34.05" class="st3" width="162.86" height="93.85"/>
				</g>
				<g>
					<rect x="123.79" y="84.12" class="st1" width="108.13" height="3.17"/>
				</g>
				<g>
					<rect x="123.79" y="95.95" class="st1" width="115.58" height="3.46"/>
				</g>
				<g>
					<rect x="123.79" y="107.91" class="st1" width="115.58" height="3.46"/>
				</g>
				<g>
					<rect x="123.79" y="66.96" class="st1" width="37.79" height="8.23"/>
				</g>
				<g>
					<rect x="102.36" y="34.05" class="st0" width="162.86" height="15.1"/>
				</g>
			</g>
			<g>
				<g>
					<g>
						<path class="st2" d="M252.14,46.82c-0.21-0.2,1.89-2.73,4.69-5.65c2.8-2.92,5.23-5.13,5.44-4.93c0.21,0.2-1.89,2.73-4.69,5.65
							C254.78,44.81,252.34,47.02,252.14,46.82z"/>
					</g>
				</g>
				<g>
					<g>
						<path class="st2" d="M262.26,46.82c-0.21,0.2-2.64-2.01-5.44-4.93c-2.8-2.92-4.9-5.45-4.69-5.65c0.21-0.2,2.64,2.01,5.44,4.93
							C260.37,44.09,262.47,46.63,262.26,46.82z"/>
					</g>
				</g>
			</g>
		</g>
		<g>
			<g>
				<path class="st0" d="M203.54,208.39H39.68v-94.85h163.86V208.39z M40.68,207.39h161.86v-92.85H40.68V207.39z"/>
			</g>
			<g>
				<rect x="61.61" y="164.12" class="st1" width="108.13" height="3.17"/>
			</g>
			<g>
				<rect x="61.61" y="175.94" class="st1" width="115.58" height="3.46"/>
			</g>
			<g>
				<rect x="61.61" y="187.9" class="st1" width="115.58" height="3.46"/>
			</g>
			<g>
				<rect x="61.61" y="146.95" class="st1" width="37.79" height="8.23"/>
			</g>
			<g>
				<rect x="40.18" y="114.04" class="st0" width="162.86" height="15.1"/>
			</g>
		</g>
		<g>
			<rect x="200.35" y="230.12" class="st3" width="192.3" height="172.16"/>
		</g>
		<g>
			<g>
				<rect x="59.38" y="175.89" class="st1" width="150.64" height="156.51"/>
			</g>
			<g>
				<rect x="59.38" y="175.89" class="st0" width="150.64" height="17.05"/>
			</g>
			<g>
				<path class="st2" d="M71.82,184.24c0,1.83-1.42,3.31-3.16,3.31c-1.75,0-3.16-1.48-3.16-3.31s1.42-3.31,3.16-3.31
					C70.4,180.94,71.82,182.42,71.82,184.24z"/>
			</g>
			<g>
				<path class="st2" d="M84.65,184.24c0,1.83-1.42,3.31-3.16,3.31c-1.75,0-3.16-1.48-3.16-3.31s1.42-3.31,3.16-3.31
					C83.23,180.94,84.65,182.42,84.65,184.24z"/>
			</g>
			<g>
				<path class="st2" d="M97.48,184.24c0,1.83-1.42,3.31-3.16,3.31c-1.75,0-3.16-1.48-3.16-3.31s1.42-3.31,3.16-3.31
					C96.06,180.94,97.48,182.42,97.48,184.24z"/>
			</g>
		</g>
		<g>
			<g>
				<rect x="253.08" y="68.28" class="st1" width="192.3" height="191.66"/>
			</g>
			<g>
				<rect x="253.08" y="68.28" class="st0" width="192.3" height="22.45"/>
			</g>
			<g>
				<path class="st2" d="M269.46,79.28c0,2.4-1.86,4.35-4.16,4.35c-2.3,0-4.16-1.95-4.16-4.35c0-2.4,1.86-4.35,4.16-4.35
					C267.59,74.93,269.46,76.88,269.46,79.28z"/>
			</g>
			<g>
				<path class="st2" d="M285.13,76.34c1.7,1.7,1.76,4.4,0.13,6.02c-1.63,1.63-4.32,1.57-6.02-0.13c-1.7-1.7-1.76-4.4-0.13-6.02
					C280.73,74.58,283.43,74.64,285.13,76.34z"/>
			</g>
			<g>
				<path class="st2" d="M303.24,79.28c0,2.4-1.86,4.35-4.16,4.35c-2.3,0-4.16-1.95-4.16-4.35c0-2.4,1.86-4.35,4.16-4.35
					C301.37,74.93,303.24,76.88,303.24,79.28z"/>
			</g>
		</g>
	</g>
</g>
<g id="Background_Simple">
	<path class="st1" d="M359.37,131.38c-36.62-31.96-86.19-0.01-134.34,67.34c-48.15,67.35-71.07,39.02-112.03,68.69
		c-40.97,29.66-51.86,151.25,92.38,139.43C349.61,395.02,455.1,214.92,359.37,131.38z"/>
</g>
<g id="Floor">
	<g>
		<path class="st4" d="M403.84,453.13c0,0.14-69.44,0.26-155.08,0.26c-85.67,0-155.09-0.12-155.09-0.26
			c0-0.14,69.42-0.26,155.09-0.26C334.4,452.87,403.84,452.99,403.84,453.13z"/>
	</g>
</g>
<g id="Plant">
	<g>
		<g>
			<g>
				<path class="st5" d="M336.18,330.71c-15.45-10.79-18.95-30.83-18.34-48.83c0.1-3.01-0.23-6.17,1.2-8.81
					c1.43-2.64,4.77-4.44,7.46-3.17c2.23,1.05,3.21,3.65,4.45,5.79c1.66,2.86,4.14,5.22,7.05,6.73c1.91,0.99,4.28,1.6,6.17,0.56
					c2.59-1.43,2.9-5.01,2.88-8c-0.04-5.57-0.07-11.14-0.1-16.72c-0.02-2.99-0.03-6.04,0.9-8.88c0.93-2.84,2.98-5.47,5.83-6.27
					c2.84-0.8,6.36,0.84,6.96,3.77c0.25,1.22,0,2.48,0.08,3.72c0.08,1.24,0.66,2.61,1.84,2.96c1.19,0.35,2.39-0.5,3.28-1.37
					c3.09-3.02,5.18-6.91,7.14-10.77s3.86-7.83,6.66-11.12c2.8-3.29,6.67-5.9,10.95-6.14c4.28-0.24,8.84,2.4,9.93,6.6
					c1.08,4.21-1.37,8.49-4.05,11.9c-3.97,5.06-8.67,9.54-13.89,13.24c-0.94,0.67-1.96,1.39-2.32,2.5
					c-0.65,1.99,1.24,3.97,3.21,4.63c2.23,0.74,4.65,0.51,6.98,0.79c2.33,0.27,4.86,1.3,5.74,3.51c1.22,3.06-1.33,6.26-3.85,8.36
					c-5.04,4.2-10.79,7.52-16.92,9.77c-2.2,0.8-4.51,1.51-6.29,3.06c-1.77,1.55-2.84,4.23-1.77,6.34c1.07,2.11,3.82,2.78,6.13,2.35
					c2.3-0.43,4.37-1.68,6.56-2.51c4.11-1.55,9.41-1.27,12.05,2.28c1.73,2.33,1.88,5.58,1.01,8.37c-0.87,2.78-2.65,5.18-4.53,7.39
					c-6.58,7.73-15.01,13.95-24.55,17.25C354.48,333.28,345.65,334.18,336.18,330.71"/>
			</g>
		</g>
		<g>
			<g>
				<g>
					<path class="st4" d="M396.2,226.66c0.01,0.01-0.09,0.1-0.29,0.28c-0.22,0.2-0.51,0.46-0.89,0.79
						c-0.78,0.69-1.94,1.71-3.39,3.07c-2.91,2.7-6.99,6.77-11.42,12.33c-2.22,2.77-4.54,5.91-6.96,9.32
						c-2.41,3.42-4.97,7.09-7.52,11.05c-2.54,3.96-5.09,8.2-7.38,12.78c-1.15,2.29-2.18,4.68-3.23,7.12
						c-1.04,2.44-2.1,4.91-3.17,7.41c-4.25,10.03-7.98,19.72-10.65,28.77c-2.69,9.05-4.28,17.43-4.98,24.53
						c-0.72,7.11-0.57,12.91-0.28,16.89c0.16,1.99,0.31,3.54,0.45,4.58c0.06,0.5,0.1,0.89,0.14,1.19c0.03,0.27,0.04,0.41,0.03,0.41
						c-0.01,0-0.04-0.13-0.08-0.4c-0.05-0.29-0.11-0.68-0.19-1.18c-0.18-1.04-0.36-2.58-0.55-4.58c-0.36-3.98-0.56-9.8,0.11-16.94
						c0.65-7.13,2.22-15.56,4.88-24.64c2.65-9.09,6.38-18.81,10.63-28.84c1.07-2.5,2.13-4.98,3.18-7.42
						c1.05-2.43,2.09-4.84,3.25-7.14c2.3-4.6,4.87-8.85,7.43-12.81c2.56-3.96,5.14-7.63,7.57-11.04c2.44-3.41,4.78-6.54,7.03-9.3
						c4.48-5.55,8.62-9.58,11.58-12.24c1.47-1.33,2.65-2.33,3.46-2.99c0.39-0.32,0.69-0.56,0.92-0.75
						C396.09,226.73,396.2,226.65,396.2,226.66z"/>
				</g>
			</g>
		</g>
		<g>
			<g>
				<g>
					<path class="st4" d="M358.04,276c-0.04,0.01-0.14-0.45-0.29-1.28c-0.16-0.83-0.34-2.03-0.55-3.52
						c-0.42-2.98-0.87-7.11-1.34-11.66c-0.47-4.56-0.97-8.67-1.44-11.63c-0.23-1.48-0.43-2.68-0.57-3.5
						c-0.14-0.83-0.2-1.29-0.17-1.3c0.04-0.01,0.17,0.44,0.38,1.25c0.21,0.81,0.47,2,0.75,3.48c0.57,2.96,1.13,7.08,1.6,11.64
						c0.45,4.5,0.86,8.57,1.18,11.67c0.15,1.4,0.28,2.59,0.38,3.54C358.05,275.53,358.08,276,358.04,276z"/>
				</g>
			</g>
		</g>
		<g>
			<g>
				<g>
					<path class="st4" d="M396.48,268.82c0,0.04-0.55,0.1-1.53,0.18c-0.99,0.09-2.41,0.21-4.17,0.41
						c-3.52,0.38-8.37,1.08-13.68,2.08c-5.31,1.01-10.08,2.13-13.5,3.04c-1.72,0.44-3.1,0.84-4.05,1.11
						c-0.95,0.27-1.49,0.4-1.5,0.37c-0.01-0.04,0.5-0.24,1.44-0.58c0.94-0.33,2.3-0.79,4.01-1.28c3.41-1.01,8.18-2.19,13.51-3.21
						c5.33-1,10.2-1.64,13.74-1.92c1.77-0.15,3.21-0.21,4.2-0.24C395.93,268.77,396.48,268.78,396.48,268.82z"/>
				</g>
			</g>
		</g>
		<g>
			<g>
				<g>
					<path class="st4" d="M341.3,318.72c-0.02,0.01-0.11-0.15-0.26-0.47c-0.18-0.38-0.39-0.83-0.66-1.39
						c-0.57-1.21-1.34-2.98-2.26-5.18c-1.85-4.4-4.22-10.57-6.75-17.4c-2.53-6.84-4.83-13.02-6.59-17.45
						c-0.86-2.16-1.57-3.93-2.1-5.25c-0.23-0.57-0.41-1.04-0.56-1.43c-0.12-0.33-0.18-0.51-0.16-0.51c0.02-0.01,0.11,0.15,0.26,0.47
						c0.18,0.38,0.39,0.83,0.66,1.39c0.57,1.21,1.34,2.98,2.26,5.18c1.85,4.4,4.22,10.57,6.75,17.41
						c2.52,6.84,4.83,13.01,6.59,17.45c0.86,2.16,1.57,3.93,2.1,5.25c0.23,0.57,0.41,1.05,0.56,1.43
						C341.26,318.53,341.32,318.71,341.3,318.72z"/>
				</g>
			</g>
		</g>
		<g>
			<g>
				<g>
					<path class="st4" d="M392.38,302.25c0,0.02-0.17,0.09-0.51,0.21c-0.4,0.13-0.89,0.3-1.48,0.5c-1.37,0.44-3.22,1.04-5.47,1.77
						c-4.62,1.5-10.97,3.64-17.99,6.02c-7.02,2.38-13.4,4.46-18.05,5.87c-2.33,0.7-4.21,1.25-5.52,1.6
						c-0.61,0.16-1.11,0.29-1.51,0.4c-0.35,0.08-0.53,0.12-0.54,0.1c0-0.02,0.17-0.09,0.51-0.21c0.4-0.13,0.89-0.3,1.48-0.5
						c1.37-0.44,3.22-1.04,5.47-1.77c4.62-1.5,10.97-3.64,17.99-6.02c7.02-2.38,13.4-4.46,18.05-5.86c2.33-0.7,4.21-1.25,5.52-1.6
						c0.61-0.16,1.11-0.29,1.51-0.4C392.19,302.27,392.37,302.24,392.38,302.25z"/>
				</g>
			</g>
		</g>
	</g>
</g>
<g id="Padlock">
	<g>
		<g>
			<g>
				<path class="st5" d="M371.54,59.68l-5.15,1.84l-2.2-6.73c-4.06-12.41-17.03-19.05-28.9-14.81
					c-11.87,4.25-18.22,17.8-14.15,30.21l2.2,6.73l-5.17,1.85c-4.02,1.44-6.2,6.07-4.82,10.28l14.34,43.79
					c1.4,4.27,5.84,6.55,9.86,5.11l53.37-19.09c4.08-1.46,6.26-6.11,4.86-10.38l-14.34-43.79
					C380.07,60.48,375.63,58.22,371.54,59.68z M330.86,66.71c-2.23-6.8,1.25-14.23,7.76-16.56c6.5-2.33,13.61,1.32,15.83,8.12
					l2.2,6.73l-23.59,8.44L330.86,66.71z M360.87,105.57l3.66,11.18c0.15,0.47-0.12,0.96-0.57,1.12l-5.12,1.83
					c-0.39,0.14-0.89-0.07-1.05-0.54l-3.66-11.18c-3.97-0.17-7.65-2.8-9.03-7c-1.77-5.41,1-11.32,6.19-13.18
					c5.19-1.86,10.84,1.04,12.61,6.45C365.28,98.46,363.91,102.89,360.87,105.57z"/>
			</g>
		</g>
		<g>
			<path class="st4" d="M366.16,61.4c0.05,0.14-9.55,3.73-21.44,8.03c-11.89,4.3-21.57,7.67-21.62,7.54
				c-0.05-0.14,9.55-3.73,21.44-8.03C356.44,64.64,366.11,61.27,366.16,61.4z"/>
		</g>
		<g>
			<g>
				<path class="st4" d="M377.5,63.24c0.01,0,0.05,0.09,0.12,0.26c0.08,0.2,0.17,0.46,0.29,0.78c0.26,0.73,0.61,1.74,1.07,3.03
					c0.92,2.68,2.23,6.49,3.84,11.18c1.61,4.74,3.51,10.36,5.63,16.6c1.04,3.13,2.19,6.39,3.28,9.83c0.51,1.73,0.93,3.57,0.75,5.49
					c-0.09,0.95-0.35,1.9-0.81,2.77c-0.47,0.86-1.13,1.61-1.89,2.23c-1.54,1.23-3.34,1.95-5.08,2.59c-1.75,0.63-3.47,1.24-5.16,1.85
					c-3.38,1.21-6.64,2.38-9.75,3.49c-6.21,2.21-11.8,4.2-16.51,5.88c-4.68,1.65-8.48,2.98-11.15,3.92
					c-1.29,0.44-2.31,0.79-3.04,1.04c-0.33,0.11-0.59,0.19-0.79,0.26c-0.18,0.06-0.27,0.08-0.28,0.07c0-0.01,0.08-0.05,0.26-0.12
					c0.2-0.08,0.46-0.18,0.78-0.31c0.72-0.27,1.73-0.65,3.01-1.13c2.66-0.98,6.44-2.37,11.09-4.08c4.7-1.71,10.28-3.73,16.48-5.98
					c3.1-1.12,6.36-2.3,9.74-3.52c1.69-0.61,3.41-1.23,5.15-1.86c1.72-0.64,3.48-1.35,4.93-2.51c0.72-0.58,1.33-1.28,1.76-2.07
					c0.43-0.8,0.67-1.68,0.75-2.57c0.17-1.8-0.23-3.59-0.72-5.29c-1.08-3.4-2.22-6.69-3.25-9.82c-2.08-6.25-3.95-11.89-5.52-16.64
					c-1.54-4.71-2.8-8.54-3.68-11.23c-0.41-1.3-0.74-2.33-0.98-3.06c-0.1-0.33-0.18-0.59-0.24-0.8
					C377.51,63.34,377.49,63.25,377.5,63.24z"/>
			</g>
		</g>
		<g>
			<g>
				<path class="st4" d="M349.34,49.45c-0.03,0.04-0.53-0.27-1.51-0.66c-0.99-0.38-2.48-0.82-4.37-0.88
					c-1.88-0.07-4.16,0.22-6.44,1.22c-2.27,0.98-4.51,2.73-6.11,5.11c-1.63,2.37-2.35,5.11-2.35,7.59c-0.02,2.5,0.51,4.72,1.02,6.54
					c0.53,1.83,1.07,3.27,1.42,4.28c0.36,1.01,0.55,1.56,0.52,1.58c-0.03,0.01-0.29-0.52-0.71-1.51c-0.41-0.99-1.01-2.42-1.58-4.25
					c-0.56-1.83-1.14-4.08-1.15-6.65c-0.03-2.56,0.71-5.43,2.4-7.88c1.66-2.46,3.99-4.26,6.35-5.26c2.37-1.01,4.73-1.26,6.65-1.14
					c1.94,0.11,3.45,0.62,4.43,1.06c0.48,0.24,0.85,0.43,1.09,0.59C349.23,49.35,349.35,49.44,349.34,49.45z"/>
			</g>
		</g>
		<g>
			<g>
				<path class="st4" d="M349.8,88.58c-0.01-0.01,0.17-0.1,0.51-0.25c0.34-0.16,0.85-0.36,1.54-0.56c0.68-0.21,1.56-0.37,2.6-0.43
					c1.03-0.05,2.25,0.06,3.51,0.52c2.55,0.9,4.91,3.51,6.07,6.97c0.56,1.75,0.61,3.78,0.05,5.74c-0.6,1.95-1.69,3.83-3.27,5.41
					l0.07-0.27c1.33,3.64,2.77,7.61,4.28,11.74l0.09,0.25l-0.25,0.08c-0.72,0.24-1.5,0.5-2.29,0.77c-1.68,0.56-3.35,1.12-4.98,1.67
					l-0.25,0.08l-0.08-0.25c-1.37-4.15-2.87-8.05-3.96-11.79l0.22,0.17c-2.05-0.14-3.89-1-5.35-2.12c-1.47-1.13-2.6-2.53-3.36-4.01
					c-0.75-1.48-1.12-3.05-1.06-4.5c0.04-1.45,0.37-2.76,0.84-3.86c0.93-2.23,2.32-3.63,3.35-4.4
					C349.12,88.78,349.8,88.58,349.8,88.58c0.02,0.04-0.63,0.3-1.64,1.09c-0.98,0.79-2.31,2.19-3.18,4.38
					c-0.87,2.14-1.25,5.21,0.31,8.08c0.75,1.42,1.85,2.76,3.27,3.84c1.42,1.07,3.18,1.87,5.11,1.99l0.17,0.01l0.05,0.16
					c1.1,3.71,2.61,7.6,3.99,11.77l-0.33-0.16c1.63-0.55,3.29-1.1,4.97-1.67c0.78-0.26,1.56-0.52,2.29-0.77l-0.16,0.33
					c-1.5-4.13-2.93-8.1-4.25-11.75l-0.05-0.15l0.12-0.12c1.5-1.48,2.59-3.31,3.16-5.17c0.55-1.88,0.51-3.81,0-5.49
					c-1.09-3.36-3.34-5.91-5.78-6.81c-1.2-0.47-2.38-0.6-3.39-0.57c-1.01,0.04-1.88,0.16-2.56,0.35
					C350.51,88.29,349.81,88.63,349.8,88.58z"/>
			</g>
		</g>
	</g>
</g>
<g id="Device">
	<g>
		<g>
			<g>
				<path class="st6" d="M318.89,377.32l-99.88-0.46c-12.01-0.05-21.71-9.84-21.66-21.85l1.06-250.4
					c0.05-12.02,9.84-21.72,21.86-21.67l99.88,0.46c12.01,0.06,21.71,9.84,21.66,21.85l-1.06,250.4
					C340.7,367.67,330.91,377.37,318.89,377.32z"/>
			</g>
			<g>
				<path class="st2" d="M320.01,92.04l-19.37-0.09c-2.6-0.01-4.71,2.18-4.72,4.89l-0.02,3.51c-0.01,2.71-2.13,4.91-4.72,4.89
					l-37.75-0.17c-2.6-0.01-4.69-2.22-4.68-4.94l0.02-3.51c0.01-2.71-2.08-4.93-4.68-4.94l-6.81-0.03l-16.95-0.08
					c-8.42-0.04-15.27,6.76-15.31,15.17l-1.03,244.41c-0.04,8.41,6.75,15.26,15.17,15.3l99.68,0.46
					c8.42,0.04,15.27-6.75,15.31-15.17l1.03-244.41C335.21,98.93,328.42,92.08,320.01,92.04z"/>
			</g>
			<g>
				<g>
					<g>
						<g>
							<path class="st5" d="M306.59,334.32l-74.12-0.34c-0.77,0-1.39-0.84-1.38-1.87l0.08-19.39c0-1.03,0.63-1.86,1.4-1.85
								l74.12,0.34c0.77,0,1.39,0.84,1.38,1.87l-0.08,19.39C307.99,333.5,307.36,334.33,306.59,334.32z"/>
						</g>
						<g class="st7">
							<g class="st8">
								<g>
									<path class="st9" d="M256.46,324.07c0.31,0.2,0.76,0.37,1.23,0.37c0.71,0,1.12-0.38,1.13-0.95c0-0.52-0.29-0.83-1.01-1.11
										c-0.87-0.33-1.41-0.81-1.41-1.59c0-0.87,0.7-1.51,1.74-1.51c0.54,0,0.95,0.14,1.18,0.28l-0.2,0.59
										c-0.17-0.11-0.53-0.27-1.01-0.27c-0.73,0-1.01,0.45-1.01,0.83c0,0.52,0.32,0.78,1.06,1.08c0.91,0.38,1.36,0.83,1.36,1.65
										c0,0.86-0.61,1.61-1.88,1.6c-0.52,0-1.08-0.17-1.36-0.37L256.46,324.07z"/>
									<path class="st9" d="M261.18,319.37l-0.02,5.59l-0.69,0l0.02-5.59L261.18,319.37z"/>
									<path class="st9" d="M262.36,324.98l0.02-5.59l0.76,0l1.7,2.83c0.39,0.66,0.7,1.25,0.95,1.83l0.02-0.01
										c-0.06-0.75-0.07-1.43-0.07-2.3l0.01-2.34l0.65,0l-0.02,5.59l-0.7,0l-1.69-2.84c-0.37-0.63-0.72-1.27-0.99-1.88l-0.02,0.01
										c0.04,0.71,0.04,1.38,0.04,2.31l-0.01,2.39L262.36,324.98z"/>
									<path class="st9" d="M271.66,324.77c-0.31,0.12-0.92,0.3-1.65,0.3c-0.81,0-1.48-0.22-2-0.75
										c-0.46-0.47-0.74-1.21-0.74-2.08c0.01-1.67,1.11-2.88,2.9-2.88c0.62,0,1.11,0.15,1.34,0.26l-0.17,0.59
										c-0.28-0.14-0.64-0.24-1.18-0.24c-1.3-0.01-2.15,0.83-2.16,2.24c-0.01,1.42,0.8,2.26,2.06,2.27c0.45,0,0.76-0.06,0.92-0.15
										l0.01-1.67l-1.08,0l0-0.58l1.76,0.01L271.66,324.77z"/>
									<path class="st9" d="M275.11,319.44l-0.01,3.32c0,1.25,0.52,1.78,1.24,1.78c0.79,0,1.3-0.54,1.31-1.77l0.01-3.32l0.69,0
										l-0.01,3.26c-0.01,1.72-0.87,2.42-2.03,2.41c-1.09,0-1.91-0.66-1.91-2.4l0.01-3.3L275.11,319.44z"/>
									<path class="st9" d="M279.55,319.53c0.33-0.06,0.77-0.11,1.33-0.11c0.68,0,1.18,0.17,1.5,0.47
										c0.29,0.27,0.47,0.67,0.47,1.17c0,0.51-0.15,0.91-0.42,1.2c-0.37,0.41-0.96,0.61-1.64,0.6c-0.21,0-0.4-0.01-0.56-0.05
										l-0.01,2.24l-0.69,0L279.55,319.53z M280.23,322.23c0.15,0.05,0.35,0.06,0.57,0.06c0.84,0,1.35-0.42,1.35-1.19
										c0-0.74-0.5-1.11-1.26-1.11c-0.3,0-0.53,0.03-0.65,0.05L280.23,322.23z"/>
								</g>
							</g>
						</g>
					</g>
				</g>
			</g>
		</g>
		<g>
			<g>
				
					<rect x="221.51" y="163.81" transform="matrix(1 4.615699e-03 -4.615699e-03 1 0.7695 -1.08)" class="st5" width="25.72" height="4.72"/>
				
					<rect x="221.51" y="163.81" transform="matrix(1 4.615699e-03 -4.615699e-03 1 0.7695 -1.08)" class="st10" width="25.72" height="4.72"/>
			</g>
			<g>
				<g>
					<path class="st0" d="M322.65,192.83c0-0.02,0.21,0.01,0.59-0.14c0.35-0.14,0.91-0.56,0.97-1.35c0-1.59-0.01-3.91-0.01-6.89
						c0-1.5,0-3.16,0-4.98c0-0.46,0-0.92,0-1.39c0.01-0.49,0.01-0.94-0.28-1.31c-0.26-0.37-0.71-0.61-1.18-0.61
						c-0.51,0-1.04,0-1.57,0c-4.25-0.01-9.1-0.02-14.44-0.03c-21.42-0.08-50.99-0.19-83.64-0.31c-0.43,0-0.85,0.21-1.1,0.56
						c-0.28,0.35-0.27,0.77-0.26,1.31c0,1.01-0.01,2.03-0.01,3.03c-0.01,2.02-0.02,4.02-0.03,6.01c0,0.99-0.01,1.99-0.01,2.97
						c0.02,0.47-0.05,1.04,0.04,1.41c0.1,0.4,0.4,0.74,0.78,0.9c0.2,0.08,0.38,0.11,0.62,0.11l0.73,0l1.46,0.01
						c0.97,0,1.94,0.01,2.9,0.01c7.7,0.04,15.13,0.08,22.21,0.12c14.15,0.09,26.89,0.16,37.6,0.23c10.69,0.08,19.35,0.15,25.35,0.2
						c2.98,0.03,5.3,0.06,6.89,0.08c0.77,0.01,1.37,0.03,1.79,0.03C322.45,192.81,322.65,192.83,322.65,192.83s-0.21,0.02-0.61,0.02
						c-0.42,0-1.02,0.01-1.79,0.02c-1.6,0-3.92,0.01-6.89,0.02c-6-0.01-14.66-0.02-25.35-0.03c-10.71-0.03-23.45-0.07-37.6-0.12
						c-7.08-0.03-14.51-0.06-22.21-0.09c-0.96,0-1.93-0.01-2.9-0.01l-1.46-0.01l-0.73,0c-0.25,0.01-0.56-0.03-0.82-0.15
						c-0.52-0.22-0.94-0.69-1.08-1.24c-0.08-0.28-0.06-0.57-0.06-0.8l0-0.74c0-0.99,0.01-1.98,0.01-2.97
						c0.01-1.99,0.02-3.99,0.02-6.01c0-1.01,0.01-2.02,0.01-3.03c0.01-0.26-0.01-0.49,0.03-0.8c0.04-0.29,0.16-0.57,0.33-0.81
						c0.34-0.48,0.93-0.78,1.52-0.77c32.65,0.18,62.22,0.34,83.64,0.46c5.35,0.04,10.19,0.07,14.45,0.11c0.53,0,1.05,0.01,1.57,0.01
						c0.56,0.01,1.09,0.29,1.4,0.73c0.34,0.43,0.34,1.02,0.32,1.47c0,0.47-0.01,0.94-0.01,1.4c-0.02,1.82-0.03,3.48-0.04,4.98
						c-0.04,2.98-0.07,5.3-0.08,6.9c-0.09,0.83-0.69,1.26-1.05,1.39C322.87,192.88,322.65,192.83,322.65,192.83z"/>
				</g>
			</g>
			<g>
				
					<rect x="228.41" y="182.01" transform="matrix(1 4.619129e-03 -4.619129e-03 1 0.8536 -1.1617)" class="st5" width="47.04" height="4.41"/>
				
					<rect x="228.41" y="182.01" transform="matrix(1 4.619129e-03 -4.619129e-03 1 0.8536 -1.1617)" class="st11" width="47.04" height="4.41"/>
			</g>
			<g>
				
					<rect x="221.33" y="206.87" transform="matrix(1 4.615683e-03 -4.615683e-03 1 0.9683 -1.0787)" class="st5" width="25.72" height="4.72"/>
				
					<rect x="221.33" y="206.87" transform="matrix(1 4.615683e-03 -4.615683e-03 1 0.9683 -1.0787)" class="st10" width="25.72" height="4.72"/>
			</g>
			<g>
				<g>
					<path class="st0" d="M321.99,235.89c0-0.02,0.21,0,0.59-0.11c0.36-0.12,0.95-0.42,1.27-1.13c0.17-0.35,0.19-0.78,0.17-1.27
						c0-0.49,0-1.02-0.01-1.59c0-1.15,0-2.48-0.01-3.96c0-1.49,0-3.15,0-4.96c0-0.45,0-0.92,0-1.39c0.02-0.48-0.04-0.92-0.29-1.32
						c-0.24-0.39-0.63-0.7-1.09-0.84c-0.45-0.14-0.98-0.06-1.51-0.09c-4.24-0.01-9.06-0.02-14.4-0.03
						c-21.35-0.08-50.81-0.19-83.35-0.31c-0.9-0.02-1.74,0.72-1.83,1.61c-0.03,0.95-0.02,2-0.03,2.99
						c-0.01,2.01-0.02,4.01-0.03,5.99c0,0.99-0.01,1.98-0.01,2.96c0.02,0.49-0.05,1,0.06,1.4c0.11,0.41,0.38,0.78,0.73,1.03
						c0.37,0.25,0.76,0.34,1.24,0.32l1.45,0.01c0.97,0,1.93,0.01,2.89,0.01c7.67,0.04,15.08,0.08,22.13,0.12
						c14.1,0.09,26.8,0.16,37.47,0.23c10.65,0.08,19.28,0.15,25.26,0.2c2.97,0.04,5.28,0.06,6.87,0.08
						c0.77,0.02,1.36,0.03,1.79,0.03C321.79,235.87,321.99,235.89,321.99,235.89s-0.21,0.02-0.61,0.02c-0.42,0-1.01,0.01-1.79,0.02
						c-1.59,0-3.9,0.01-6.87,0.02c-5.98-0.01-14.61-0.02-25.26-0.03c-10.67-0.03-23.37-0.07-37.47-0.12
						c-7.05-0.03-14.46-0.06-22.13-0.09c-0.96,0-1.92-0.01-2.89-0.01l-1.45-0.01c-0.49,0.03-1.09-0.09-1.53-0.41
						c-0.45-0.31-0.79-0.78-0.94-1.31c-0.15-0.56-0.06-1.05-0.08-1.53c0-0.98,0.01-1.97,0.01-2.96c0.01-1.98,0.02-3.98,0.02-5.99
						c0.01-1.02-0.01-1.98,0.03-3.05c0.11-1.15,1.18-2.1,2.35-2.07c32.54,0.18,62,0.34,83.35,0.46c5.33,0.04,10.15,0.07,14.39,0.11
						c0.52,0.03,1.05-0.06,1.59,0.11c0.52,0.16,0.96,0.52,1.23,0.97c0.29,0.44,0.35,1,0.32,1.46c0,0.47-0.01,0.94-0.01,1.39
						c-0.02,1.81-0.03,3.47-0.04,4.96c-0.02,1.49-0.03,2.81-0.04,3.96c-0.01,0.57-0.01,1.1-0.02,1.59c0.01,0.48-0.02,0.95-0.21,1.31
						c-0.35,0.74-0.97,1.04-1.35,1.14C322.2,235.92,321.99,235.89,321.99,235.89z"/>
				</g>
			</g>
			<g>
				
					<rect x="221.14" y="251.79" transform="matrix(1 4.596258e-03 -4.596258e-03 1 1.1706 -1.0728)" class="st5" width="25.72" height="4.72"/>
				
					<rect x="221.14" y="251.79" transform="matrix(1 4.596258e-03 -4.596258e-03 1 1.1706 -1.0728)" class="st10" width="25.72" height="4.72"/>
			</g>
			<g>
				<g>
					<path class="st0" d="M321.8,280.8c0-0.02,0.21,0,0.59-0.11c0.36-0.12,0.95-0.42,1.27-1.13c0.17-0.35,0.19-0.78,0.17-1.27
						c0-0.49,0-1.02-0.01-1.59c0-1.15,0-2.48-0.01-3.96c0-1.49,0-3.15,0-4.96c0-0.45,0-0.92,0-1.39c0.02-0.48-0.04-0.92-0.29-1.32
						c-0.24-0.39-0.63-0.7-1.09-0.84c-0.45-0.14-0.98-0.06-1.51-0.09c-4.24-0.01-9.06-0.02-14.39-0.03
						c-21.35-0.08-50.81-0.19-83.35-0.31c-0.9-0.02-1.74,0.71-1.83,1.61c-0.03,0.95-0.02,2-0.03,2.99
						c-0.01,2.01-0.02,4.01-0.03,5.99c0,0.99-0.01,1.98-0.01,2.96c0.02,0.49-0.05,1,0.06,1.4c0.11,0.41,0.38,0.78,0.73,1.03
						c0.37,0.25,0.76,0.34,1.24,0.32l1.45,0.01c0.97,0,1.93,0.01,2.89,0.01c7.67,0.04,15.08,0.08,22.13,0.12
						c14.1,0.09,26.8,0.16,37.47,0.23c10.65,0.08,19.28,0.15,25.26,0.2c2.97,0.04,5.28,0.06,6.87,0.08
						c0.77,0.01,1.37,0.03,1.79,0.03C321.6,280.78,321.8,280.8,321.8,280.8s-0.21,0.02-0.61,0.02c-0.42,0-1.01,0.01-1.79,0.02
						c-1.59,0-3.9,0.01-6.87,0.02c-5.98-0.01-14.61-0.02-25.26-0.03c-10.67-0.03-23.37-0.07-37.47-0.12
						c-7.05-0.03-14.46-0.06-22.13-0.09c-0.96,0-1.92-0.01-2.89-0.01l-1.45-0.01c-0.49,0.03-1.09-0.09-1.53-0.41
						c-0.45-0.31-0.79-0.78-0.94-1.31c-0.15-0.56-0.06-1.05-0.08-1.54c0-0.98,0.01-1.97,0.01-2.96c0.01-1.98,0.02-3.98,0.02-5.99
						c0.01-1.02-0.01-1.98,0.03-3.05c0.11-1.15,1.18-2.1,2.35-2.07c32.54,0.18,62,0.34,83.35,0.46c5.33,0.04,10.15,0.07,14.39,0.11
						c0.52,0.03,1.05-0.06,1.59,0.11c0.52,0.16,0.96,0.52,1.23,0.97c0.29,0.44,0.35,1,0.32,1.46c0,0.47-0.01,0.94-0.01,1.39
						c-0.02,1.81-0.03,3.47-0.04,4.96c-0.02,1.49-0.03,2.81-0.04,3.96c-0.01,0.57-0.01,1.1-0.02,1.59c0.01,0.48-0.02,0.95-0.21,1.31
						c-0.35,0.74-0.97,1.04-1.35,1.14C322.02,280.84,321.8,280.8,321.8,280.8z"/>
				</g>
			</g>
			<g>
				
					<rect x="228.23" y="225.07" transform="matrix(1 4.619090e-03 -4.619090e-03 1 1.0525 -1.1604)" class="st5" width="47.04" height="4.41"/>
				
					<rect x="228.23" y="225.07" transform="matrix(1 4.619090e-03 -4.619090e-03 1 1.0525 -1.1604)" class="st11" width="47.04" height="4.41"/>
			</g>
			<g>
				<g>
					<g>
						<path class="st5" d="M232.51,272.64c-0.01,1.21-0.93,2.19-2.07,2.18c-1.14-0.01-2.05-0.99-2.05-2.2
							c0.01-1.21,0.93-2.19,2.07-2.18C231.6,270.44,232.52,271.43,232.51,272.64z"/>
					</g>
					<g>
						<path class="st5" d="M238.88,272.67c-0.01,1.21-0.93,2.19-2.07,2.18c-1.14,0-2.05-0.99-2.05-2.2c0-1.21,0.93-2.19,2.07-2.18
							C237.97,270.47,238.89,271.45,238.88,272.67z"/>
					</g>
					<g>
						<path class="st5" d="M245.26,272.7c0,1.21-0.93,2.19-2.07,2.18c-1.14,0-2.05-0.99-2.05-2.2c0.01-1.21,0.93-2.19,2.07-2.18
							C244.35,270.5,245.26,271.48,245.26,272.7z"/>
					</g>
					<g>
						<path class="st5" d="M251.63,272.73c0,1.21-0.93,2.19-2.07,2.18c-1.14,0-2.05-0.99-2.05-2.2c0-1.21,0.93-2.19,2.07-2.18
							C250.72,270.53,251.64,271.51,251.63,272.73z"/>
					</g>
					<g>
						<path class="st5" d="M258,272.75c0,1.21-0.93,2.19-2.07,2.18c-1.14,0-2.05-0.99-2.05-2.2c0.01-1.21,0.93-2.19,2.07-2.18
							C257.09,270.56,258.01,271.54,258,272.75z"/>
					</g>
					<g>
						<path class="st5" d="M264.38,272.78c0,1.21-0.93,2.19-2.07,2.18c-1.14,0-2.05-0.99-2.05-2.2c0-1.21,0.93-2.19,2.07-2.18
							C263.46,270.59,264.38,271.57,264.38,272.78z"/>
					</g>
					<g>
						<path class="st5" d="M270.75,272.81c-0.01,1.21-0.93,2.19-2.07,2.18c-1.14-0.01-2.05-0.99-2.05-2.2
							c0-1.21,0.93-2.19,2.07-2.18C269.84,270.62,270.75,271.6,270.75,272.81z"/>
					</g>
					<g>
						<path class="st5" d="M277.12,272.84c0,1.21-0.93,2.19-2.07,2.18c-1.14-0.01-2.05-0.99-2.05-2.2c0-1.21,0.93-2.19,2.07-2.18
							C276.21,270.64,277.13,271.63,277.12,272.84z"/>
					</g>
					<g>
						<path class="st5" d="M283.49,272.87c0,1.21-0.93,2.19-2.07,2.18c-1.14,0-2.05-0.99-2.05-2.2c0.01-1.21,0.93-2.19,2.07-2.18
							C282.58,270.67,283.5,271.66,283.49,272.87z"/>
					</g>
				</g>
				<g class="st12">
					<g>
						<path class="st2" d="M232.51,272.64c-0.01,1.21-0.93,2.19-2.07,2.18c-1.14-0.01-2.05-0.99-2.05-2.2
							c0.01-1.21,0.93-2.19,2.07-2.18C231.6,270.44,232.52,271.43,232.51,272.64z"/>
					</g>
					<g>
						<path class="st2" d="M238.88,272.67c-0.01,1.21-0.93,2.19-2.07,2.18c-1.14,0-2.05-0.99-2.05-2.2c0-1.21,0.93-2.19,2.07-2.18
							C237.97,270.47,238.89,271.45,238.88,272.67z"/>
					</g>
					<g>
						<path class="st2" d="M245.26,272.7c0,1.21-0.93,2.19-2.07,2.18c-1.14,0-2.05-0.99-2.05-2.2c0.01-1.21,0.93-2.19,2.07-2.18
							C244.35,270.5,245.26,271.48,245.26,272.7z"/>
					</g>
					<g>
						<path class="st2" d="M251.63,272.73c0,1.21-0.93,2.19-2.07,2.18c-1.14,0-2.05-0.99-2.05-2.2c0-1.21,0.93-2.19,2.07-2.18
							C250.72,270.53,251.64,271.51,251.63,272.73z"/>
					</g>
					<g>
						<path class="st2" d="M258,272.75c0,1.21-0.93,2.19-2.07,2.18c-1.14,0-2.05-0.99-2.05-2.2c0.01-1.21,0.93-2.19,2.07-2.18
							C257.09,270.56,258.01,271.54,258,272.75z"/>
					</g>
					<g>
						<path class="st2" d="M264.38,272.78c0,1.21-0.93,2.19-2.07,2.18c-1.14,0-2.05-0.99-2.05-2.2c0-1.21,0.93-2.19,2.07-2.18
							C263.46,270.59,264.38,271.57,264.38,272.78z"/>
					</g>
					<g>
						<path class="st2" d="M270.75,272.81c-0.01,1.21-0.93,2.19-2.07,2.18c-1.14-0.01-2.05-0.99-2.05-2.2
							c0-1.21,0.93-2.19,2.07-2.18C269.84,270.62,270.75,271.6,270.75,272.81z"/>
					</g>
					<g>
						<path class="st2" d="M277.12,272.84c0,1.21-0.93,2.19-2.07,2.18c-1.14-0.01-2.05-0.99-2.05-2.2c0-1.21,0.93-2.19,2.07-2.18
							C276.21,270.64,277.13,271.63,277.12,272.84z"/>
					</g>
					<g>
						<path class="st2" d="M283.49,272.87c0,1.21-0.93,2.19-2.07,2.18c-1.14,0-2.05-0.99-2.05-2.2c0.01-1.21,0.93-2.19,2.07-2.18
							C282.58,270.67,283.5,271.66,283.49,272.87z"/>
					</g>
				</g>
			</g>
			<g>
				<g>
					<path class="st5" d="M274.44,128.51c1.35-0.56,2.3-1.95,2.31-3.59c0.01-2.14-1.61-3.89-3.62-3.9
						c-2.01-0.01-3.64,1.72-3.65,3.86c-0.01,1.65,0.96,3.05,2.32,3.62c-5.6,0.84-5.34,6.93-5.34,6.93l13.23,0.06
						C279.69,135.49,279.99,129.34,274.44,128.51z"/>
					<path class="st10" d="M274.44,128.51c1.35-0.56,2.3-1.95,2.31-3.59c0.01-2.14-1.61-3.89-3.62-3.9
						c-2.01-0.01-3.64,1.72-3.65,3.86c-0.01,1.65,0.96,3.05,2.32,3.62c-5.6,0.84-5.34,6.93-5.34,6.93l13.23,0.06
						C279.69,135.49,279.99,129.34,274.44,128.51z"/>
				</g>
				<g>
					
						<rect x="248.74" y="139.37" transform="matrix(1 4.615101e-03 -4.615101e-03 1 0.6591 -1.2554)" class="st5" width="47.19" height="5.64"/>
					
						<rect x="248.74" y="139.37" transform="matrix(1 4.615101e-03 -4.615101e-03 1 0.6591 -1.2554)" class="st11" width="47.19" height="5.64"/>
				</g>
			</g>
		</g>
	</g>
</g>
<g id="Speech_Bubble">
	<g>
		<g>
			<g>
				<path class="st5" d="M122.47,168.68c0,0.01-0.16,0.03-0.46,0.05c-0.33,0.02-0.78,0.06-1.36,0.1c-0.6,0.01-1.33,0.14-2.19,0.29
					c-0.43,0.09-0.9,0.12-1.39,0.26c-0.49,0.14-1,0.28-1.55,0.43c-2.16,0.68-4.76,1.76-7.37,3.66c-2.61,1.88-5.22,4.57-7.26,8.08
					c-1.07,1.72-1.85,3.72-2.54,5.81c-0.57,2.13-1.07,4.39-1.11,6.78c-0.11,1.19,0.01,2.4,0.06,3.62c0.03,0.61,0.16,1.22,0.24,1.84
					c0.08,0.62,0.17,1.24,0.35,1.85c0.51,2.49,1.52,4.92,2.8,7.26c2.56,4.69,6.86,8.73,12.18,11.07c2.66,1.17,5.6,1.81,8.59,1.93
					c2.99,0.19,6.06-0.29,8.97-1.29l0.88-0.32l0.12-0.04l0.11,0.05c4.3,2.18,8.52,4.33,12.61,6.4l-0.38,0.32
					c-1.35-4.18-2.65-8.23-3.9-12.12l-0.05-0.15l0.11-0.11c3.18-3.18,5.39-7.05,6.62-11.01c1.23-3.97,1.44-8.01,0.96-11.72
					c-0.48-3.71-1.69-7.09-3.31-9.93c-1.62-2.85-3.63-5.17-5.69-6.97c-2.09-1.79-4.26-3.01-6.2-3.94c-1.99-0.83-3.76-1.36-5.23-1.65
					c-0.74-0.13-1.39-0.24-1.96-0.33c-0.57-0.04-1.05-0.07-1.45-0.1c-0.37-0.03-0.67-0.05-0.89-0.07
					C122.57,168.7,122.47,168.69,122.47,168.68c0-0.01,0.1-0.01,0.3-0.01c0.22,0.01,0.52,0.01,0.89,0.03
					c0.4,0.02,0.89,0.04,1.46,0.06c0.58,0.09,1.24,0.18,1.98,0.29c1.49,0.26,3.28,0.77,5.3,1.59c1.97,0.92,4.17,2.13,6.3,3.93
					c2.11,1.81,4.16,4.14,5.82,7.03c1.66,2.87,2.91,6.3,3.41,10.07c0.5,3.76,0.31,7.87-0.93,11.92c-1.24,4.03-3.48,7.98-6.72,11.23
					l0.06-0.26c1.26,3.89,2.57,7.94,3.92,12.11l0.2,0.61l-0.57-0.29c-4.09-2.07-8.31-4.21-12.62-6.4l0.22,0.01l-0.9,0.33
					c-2.97,1.02-6.11,1.51-9.17,1.32c-3.06-0.13-6.06-0.78-8.78-1.98c-5.43-2.4-9.81-6.53-12.41-11.31c-1.3-2.38-2.32-4.87-2.83-7.4
					c-0.18-0.62-0.27-1.25-0.35-1.88c-0.08-0.63-0.21-1.25-0.24-1.87c-0.05-1.25-0.16-2.48-0.05-3.68c0.05-2.42,0.57-4.72,1.16-6.88
					c0.72-2.12,1.52-4.14,2.61-5.88c2.09-3.55,4.75-6.25,7.41-8.13c2.66-1.89,5.3-2.96,7.49-3.61c0.55-0.14,1.08-0.28,1.57-0.41
					c0.49-0.14,0.97-0.16,1.4-0.24c0.87-0.14,1.61-0.25,2.21-0.24c0.58-0.02,1.04-0.03,1.37-0.05
					C122.31,168.67,122.47,168.67,122.47,168.68z"/>
			</g>
		</g>
		<g>
			<g>
				<path class="st5" d="M128.17,192.03h-1.85l-4.03-5.62v-3.69c0,0-2.86-0.18-2.52,4.65c0.34,4.83-0.03,3.6-0.03,3.6
					s-6.07,0.02-6.57,0.55c-0.37,0.38-0.53,6.41-0.6,9.68c-0.03,1.65,0.98,3.17,2.51,3.56c0.22,0.06,0.44,0.09,0.65,0.09
					c1.51,0,9.24-1.23,9.24-1.23h3.19V192.03z"/>
			</g>
			<g>
				<polygon class="st5" points="133.46,191.01 132.32,203.65 129.16,203.65 129.16,191.27 				"/>
			</g>
		</g>
	</g>
</g>
<g id="Character">
	<g>
		<g>
			<g>
				<g>
					<path class="st5" d="M171.15,448.34v-8.56l-15.33-0.1l-0.13,12.92l0.95,0.07c4.23,0.27,21.52,0.67,24.35-0.21
						C184.16,451.49,171.15,448.34,171.15,448.34z"/>
				</g>
				<g>
					<g>
						<path class="st4" d="M181.36,451.67c0,0.14-5.73,0.26-12.81,0.26c-7.07,0-12.81-0.12-12.81-0.26c0-0.14,5.73-0.26,12.81-0.26
							C175.62,451.41,181.36,451.53,181.36,451.67z"/>
					</g>
				</g>
				<g>
					<g>
						<path class="st4" d="M171.42,450.09c-0.13-0.07-0.02-0.52,0.31-0.96c0.33-0.45,0.73-0.68,0.83-0.58
							c0.1,0.1-0.11,0.48-0.41,0.89C171.85,449.84,171.55,450.16,171.42,450.09z"/>
					</g>
				</g>
				<g>
					<g>
						<path class="st4" d="M172.4,450.65c-0.13-0.05-0.06-0.56,0.24-1.09c0.3-0.54,0.7-0.86,0.81-0.77
							c0.11,0.09-0.08,0.53-0.36,1.02C172.81,450.31,172.53,450.7,172.4,450.65z"/>
					</g>
				</g>
				<g>
					<g>
						<path class="st4" d="M160.36,451.63c-0.06,0.04-0.29-0.18-0.62-0.56c-0.33-0.37-0.77-0.9-1.34-1.35
							c-0.57-0.44-1.2-0.67-1.66-0.72c-0.47-0.06-0.77,0.01-0.8-0.07c-0.03-0.06,0.26-0.27,0.81-0.3c0.54-0.04,1.31,0.17,1.96,0.68
							c0.65,0.5,1.06,1.11,1.32,1.54C160.3,451.3,160.42,451.59,160.36,451.63z"/>
					</g>
				</g>
				<g>
					<g>
						<path class="st4" d="M171.47,448.48c0.08,0.12-0.19,0.42-0.63,0.58c-0.44,0.16-0.83,0.11-0.85-0.04
							c-0.02-0.14,0.29-0.31,0.67-0.45C171.04,448.43,171.39,448.36,171.47,448.48z"/>
					</g>
				</g>
				<g>
					<g>
						<path class="st4" d="M171.23,447.65c0.01,0.14-0.39,0.27-0.91,0.27c-0.52,0.01-0.93-0.1-0.92-0.25
							c0.01-0.14,0.42-0.27,0.91-0.27C170.8,447.4,171.21,447.51,171.23,447.65z"/>
					</g>
				</g>
			</g>
			<g>
				<g>
					<path class="st5" d="M208.9,448.34l0-8.56l-15.33-0.1l-0.13,12.79l0.95,0.07c4.23,0.27,21.52,0.8,24.35-0.07
						C221.91,451.49,208.9,448.34,208.9,448.34z"/>
				</g>
				<g>
					<g>
						<path class="st4" d="M219.11,451.69c0,0.14-5.73,0.26-12.81,0.26c-7.07,0-12.81-0.12-12.81-0.26c0-0.14,5.73-0.26,12.81-0.26
							C213.38,451.43,219.11,451.55,219.11,451.69z"/>
					</g>
				</g>
				<g>
					<g>
						<path class="st4" d="M209.17,450.09c-0.13-0.07-0.02-0.52,0.31-0.96c0.33-0.45,0.73-0.68,0.83-0.58
							c0.1,0.1-0.11,0.48-0.41,0.89C209.6,449.84,209.3,450.16,209.17,450.09z"/>
					</g>
				</g>
				<g>
					<g>
						<path class="st4" d="M210.15,450.65c-0.13-0.05-0.06-0.56,0.24-1.09c0.3-0.54,0.7-0.86,0.81-0.77
							c0.11,0.09-0.08,0.53-0.36,1.02C210.56,450.31,210.29,450.7,210.15,450.65z"/>
					</g>
				</g>
				<g>
					<g>
						<path class="st4" d="M198.11,451.63c-0.06,0.04-0.29-0.18-0.62-0.56c-0.33-0.37-0.77-0.9-1.34-1.35
							c-0.57-0.44-1.2-0.67-1.66-0.72c-0.47-0.06-0.77,0.01-0.8-0.07c-0.03-0.06,0.26-0.27,0.81-0.3c0.54-0.04,1.31,0.17,1.96,0.68
							c0.65,0.5,1.06,1.11,1.32,1.54C198.05,451.3,198.17,451.59,198.11,451.63z"/>
					</g>
				</g>
				<g>
					<g>
						<path class="st4" d="M209.22,448.48c0.07,0.12-0.19,0.42-0.63,0.58c-0.44,0.16-0.83,0.11-0.85-0.04
							c-0.02-0.14,0.29-0.31,0.67-0.45C208.8,448.43,209.14,448.36,209.22,448.48z"/>
					</g>
				</g>
				<g>
					<g>
						<path class="st4" d="M208.98,447.65c0.01,0.14-0.39,0.27-0.91,0.27c-0.52,0.01-0.93-0.1-0.92-0.25
							c0.01-0.14,0.42-0.27,0.91-0.27C208.55,447.4,208.96,447.51,208.98,447.65z"/>
					</g>
				</g>
			</g>
			<g>
				<path class="st13" d="M265.38,194.44c-0.4-0.41-1.38-0.22-1.38-0.22s0.17-1.17-0.01-1.73c-0.18-0.57-1.44-0.46-1.44-0.46
					s-0.08-0.54,0.03-1.42c0.03-0.22-0.09-0.38-0.29-0.5c-0.6-0.36-1.88-0.34-1.88-0.34c-0.77-0.55,2.35-4.92,3.51-6.32
					c1.14-1.38,0.95-2.49-0.08-2.49c-0.7,0-4.35,4.2-5.46,5.61c-1.11,1.41-4.1,5.33-4.2,2.2c-0.1-3.13-1.36-5.5-2.14-5.9
					c-0.79-0.4-1.63,0.54-1.2,1.41c0.35,0.7,0.57,2.06,0.7,3.08c0.1,0.84,0.07,1.7-0.12,2.53c-0.52,2.34-1.08,3.87-1.35,4.52
					l-0.08-0.04c0,0-21.83,20.93-23.4,22.42c-1.42,1.34-29.78-1.59-35.46-2.19c-1.55-0.17-3.85-0.49-5.85-0.4
					c-2.46,0.11-2.9,0.46-5.37,0.49c-7.55,0.1-13.85,0.84-18.53,1.63c-5.66,0.96-10.31,4.99-12.06,10.46
					c-5.73,17.9-18.71,60.27-21.02,84.07c-1.82,3.42-3.86,7.42-4.68,9.67c-1.61,4.38-1.22,4.52-0.68,4.62
					c1.45,0.27,3.12-7.59,3.74-5.69c0.62,1.9-3.15,9.37-1.62,9.59c2,0.29,3.59-7.97,3.77-8.66c0.18-0.67,1.19-0.44,0.99,0.17
					c-0.29,0.88-3.1,10.21-1.15,10.51c1.09,0.17,1.2-1.81,1.2-1.81s1.99-8.92,2.91-8.75c0.93,0.17-0.06,5.45-0.52,7.21
					c-0.46,1.74,0.19,2.66,1.12,2.22c0.64-0.3,2.17-5.64,2.59-7.39c0.41-1.75,1.47-6.56,2.88-3.77c1.41,2.79,3.55,4.41,4.43,4.45
					c0.88,0.03,1.25-1.18,0.49-1.79c-0.62-0.49-1.39-1.62-1.93-2.5c-0.45-0.72-0.78-1.51-0.96-2.34c-0.7-3.2-0.7-5.06-0.7-5.06
					l-0.16-1.03c2.24-11.09,8.69-43.64,17.97-64.43l3.82,7.86l1.66,5.82l-10.18,25.14l43.41-0.57l-6.47-24.94l7.86-26l0,0
					c8.51,0.19,30.37,0.51,34.04-1.13c4.58-2.05,28.28-31.92,28.28-31.92h0c1.6-1.27,3.23-2.65,4.43-3.84
					C264.83,196.48,266.25,195.34,265.38,194.44z"/>
			</g>
			<g>
				<g>
					<path class="st5" d="M151.39,266.39c1.26-4.3,7.73-25.56,7.73-25.56s3.18,17.33,2.34,19.42c-0.96,2.41-2.73,5.16-2.73,5.16
						c-7.34,11.18-6.38,16.77-6.38,16.77l44.34-1.35c0.11-6.2-3.56-20.62-4.33-22.92c-0.77-2.3,1.78-9.84,1.78-9.84
						s5.01-5.09,4.82-7.71c-0.39-5.28-0.87-6.98-0.87-6.98l26.98,0.99l-0.85-18.31l-38.78-3.88c-1.34,3.82-13.56,1.95-13.56,1.95
						c-13.19,0.43-13.98,2.86-19.48,7.12c-5.5,4.26-14.55,40.82-14.55,40.82L151.39,266.39z"/>
				</g>
				<g>
					<g>
						<path class="st4" d="M177.61,262.06c0,0.07-0.89,0.13-2.34,0.12c-1.44-0.01-3.44-0.1-5.63-0.32
							c-2.19-0.22-4.17-0.53-5.58-0.81c-1.42-0.28-2.28-0.51-2.27-0.58c0.01-0.07,0.9,0.03,2.33,0.22c1.43,0.18,3.39,0.43,5.57,0.65
							c2.18,0.22,4.16,0.37,5.59,0.47C176.73,261.92,177.62,261.99,177.61,262.06z"/>
					</g>
				</g>
				<g>
					<g>
						<path class="st4" d="M180.65,258.29c0.02,0.06-0.9,0.41-2.42,0.83c-1.52,0.41-3.66,0.87-6.06,1.16
							c-2.4,0.28-4.59,0.34-6.16,0.3c-1.58-0.04-2.55-0.17-2.55-0.24c0-0.08,0.98-0.08,2.55-0.13c1.57-0.05,3.73-0.16,6.1-0.45
							c2.37-0.28,4.5-0.68,6.04-1C179.68,258.44,180.63,258.22,180.65,258.29z"/>
					</g>
				</g>
				<g>
					<g>
						<path class="st4" d="M195.57,241.47c0.07,0.01-0.04,0.88-0.3,2.26c-0.26,1.38-0.66,3.28-1.17,5.37
							c-0.51,2.09-1.03,3.96-1.44,5.3c-0.41,1.35-0.71,2.17-0.78,2.15c-0.07-0.02,0.1-0.87,0.42-2.24c0.38-1.56,0.81-3.35,1.29-5.33
							c0.49-1.98,0.93-3.76,1.32-5.32C195.25,242.29,195.49,241.46,195.57,241.47z"/>
					</g>
				</g>
				<g>
					<g>
						<path class="st4" d="M151.86,263.84c-0.04,0.14-3.1-0.57-6.83-1.59c-3.74-1.02-6.73-1.96-6.69-2.1
							c0.04-0.14,3.1,0.58,6.83,1.59C148.9,262.76,151.9,263.7,151.86,263.84z"/>
					</g>
				</g>
				<g>
					<g>
						<path class="st4" d="M198.57,233.15c0,0.02-0.41,0.07-1.15-0.01c-0.73-0.08-1.81-0.25-3.05-0.73
							c-1.24-0.47-2.66-1.24-3.98-2.42c-1.32-1.17-2.5-2.79-3.25-4.69c-0.76-1.9-1.02-3.88-0.9-5.64c0.12-1.76,0.58-3.35,1.37-4.46
							c0.78-1.13,1.81-1.67,2.53-1.86c0.36-0.1,0.66-0.12,0.85-0.11c0.2,0.01,0.3,0.03,0.3,0.04c0,0.05-0.41,0.03-1.09,0.26
							c-0.66,0.24-1.6,0.8-2.29,1.88c-1.36,2.14-1.74,6.05-0.29,9.7c0.73,1.83,1.84,3.38,3.09,4.52c1.25,1.15,2.6,1.94,3.79,2.44
							C196.92,233.07,198.59,233.03,198.57,233.15z"/>
					</g>
				</g>
				<g>
					<g>
						<path class="st4" d="M221.88,234.01c-0.14,0-0.25-4.13-0.24-9.21c0.01-5.09,0.13-9.22,0.28-9.22c0.14,0,0.25,4.13,0.24,9.22
							C222.15,229.88,222.03,234.01,221.88,234.01z"/>
					</g>
				</g>
			</g>
			<g>
				<g>
					<path class="st13" d="M185.2,213.3c0.11-2.23,0.34-4.75,0.34-4.75s5.52-0.61,5.85-6.31c0.33-5.7,0-18.85,0-18.85l-10.05-5.12
						L170.29,187l1.68,28.5l10.17,0.65C183.74,216.25,185.12,214.97,185.2,213.3z"/>
				</g>
				<g>
					<g>
						<path class="st14" d="M186.19,197.73c0.02,0,0.02,0.11-0.09,0.25c-0.1,0.13-0.32,0.29-0.63,0.28
							c-0.64-0.03-1.26-0.74-1.48-1.6c-0.11-0.44-0.11-0.88-0.03-1.27c0.07-0.38,0.29-0.76,0.6-0.86c0.15-0.06,0.31-0.05,0.42,0.01
							c0.12,0.06,0.19,0.15,0.23,0.23c0.07,0.17,0.02,0.27,0,0.26c-0.02,0-0.02-0.09-0.1-0.2c-0.08-0.11-0.27-0.21-0.47-0.1
							c-0.21,0.1-0.36,0.37-0.41,0.71c-0.06,0.34-0.06,0.74,0.05,1.13c0.2,0.77,0.74,1.41,1.21,1.47c0.24,0.03,0.43-0.06,0.54-0.15
							C186.13,197.8,186.17,197.72,186.19,197.73z"/>
					</g>
				</g>
				<g>
					<path class="st4" d="M194.82,180.32c-0.77-2.62-3.56-3.93-6.1-4.65c-3.87-1.1-8.06-1.58-11.83-0.19
						c-3.78,1.39-8.32,3.84-8.32,8.01c-2.23-0.18-3.5,1.77-4.39,4.19c-0.52,1.43-0.87,3.02-0.95,4.6l-0.04-0.01
						c-0.29,5.46-1.81,12.99-5.35,17.03c-1.96,2.23-4.77,3.77-5.91,6.55c-0.99,2.42-0.48,5.27-1.41,7.71
						c-0.83,2.15-2.66,3.68-3.97,5.55c-2.86,4.08-3.05,9.84-0.95,14.39c2.1,4.55,6.26,7.88,10.88,9.41
						c4.62,1.53,9.66,1.36,14.36,0.13c3.47-0.9,6.85-2.4,9.62-4.77c2.77-2.36,4.89-5.65,5.52-9.32c0.7-4.09-0.44-8.23-1.28-12.29
						c-2.66-12.84-1.9-13.5,1.46-25.41c0.08-0.21,0.12-0.43,0.18-0.64c0.04-0.16,0.09-0.31,0.13-0.47l-0.01,0
						c0.09-0.47,0.16-0.94,0.16-1.42c-0.97,0.38-2.15,0.13-2.89-0.63c-0.75-0.75-1.02-1.97-0.68-2.99c0.39-1.18,1.47-1.96,2.58-2.43
						s2.3-0.7,3.39-1.22c2.31-1.1,3.91-3.38,5-5.77C194.77,184,195.34,182.09,194.82,180.32z"/>
				</g>
				<g>
					<g>
						<path class="st5" d="M186.59,197.97c0.03-0.01,0.23,0.36,0.53,0.99c0.3,0.63,0.7,1.52,1.14,2.55l0.08,0.19l-0.21,0.02
							c-0.33,0.03-0.67,0.06-1.02,0.09c-0.7,0.05-1.28,0.13-1.96,0.12c-0.11-0.02-0.23-0.12-0.26-0.23
							c-0.04-0.11-0.03-0.2-0.02-0.28c0.03-0.16,0.06-0.27,0.09-0.41l0.18-0.71c0.22-0.86,0.38-1.39,0.42-1.38
							c0.04,0.01-0.04,0.56-0.21,1.43l-0.14,0.72c-0.05,0.24-0.14,0.6-0.01,0.58c0.5-0.02,1.21-0.1,1.87-0.15
							c0.35-0.03,0.68-0.05,1.02-0.08l-0.13,0.21c-0.43-1.03-0.79-1.94-1.04-2.59C186.68,198.39,186.55,197.99,186.59,197.97z"/>
					</g>
				</g>
			</g>
			<g>
				<g>
					<path class="st4" d="M152.35,282.17l44.34-1.35l19.28,75.34l-3.55,86.42h-23.47l2.91-84.58l-17.15-52.45l2.64,140.38
						l-23.69,0.35l-2.5-131.95c-0.1-3.67-1.31-11.94-0.86-15.58L152.35,282.17z"/>
				</g>
				<g>
					<g>
						<path class="st6" d="M180.62,306.62c-0.01,0.07-0.84,0.03-2.17-0.13s-3.17-0.44-5.18-0.84c-2.01-0.41-3.81-0.86-5.1-1.23
							s-2.07-0.65-2.06-0.72c0.04-0.14,3.26,0.64,7.26,1.44C177.37,305.94,180.64,306.47,180.62,306.62z"/>
					</g>
				</g>
				<g>
					<g>
						<path class="st6" d="M212.21,437.84c0,0.14-5.31,0.26-11.87,0.26c-6.56,0-11.87-0.12-11.87-0.26c0-0.14,5.31-0.26,11.87-0.26
							C206.9,437.58,212.21,437.69,212.21,437.84z"/>
					</g>
				</g>
				<g>
					<g>
						<path class="st6" d="M177.15,442.28c0,0.14-5.15,0.26-11.51,0.26c-6.36,0-11.51-0.12-11.51-0.26c0-0.14,5.15-0.26,11.51-0.26
							C171.99,442.02,177.15,442.14,177.15,442.28z"/>
					</g>
				</g>
				<g>
					<g>
						<path class="st6" d="M174.09,441.92c-0.14,0-0.77-30.67-1.39-68.5c-0.62-37.84-1.01-68.52-0.87-68.52
							c0.14,0,0.77,30.67,1.39,68.51C173.85,411.24,174.24,441.92,174.09,441.92z"/>
					</g>
				</g>
				<g>
					<g>
						<path class="st6" d="M209.06,437.84c-0.01,0-0.01-0.14-0.01-0.41c0.01-0.29,0.01-0.69,0.02-1.2c0.03-1.08,0.08-2.63,0.13-4.6
							c0.14-4.03,0.34-9.8,0.59-16.93c0.55-14.32,1.3-34.05,2.14-55.85c0.01-0.2,0.02-0.4,0.02-0.59l0.01,0.07
							c-5.26-21.04-10.01-40.06-13.45-53.85c-1.69-6.87-3.06-12.43-4.01-16.31c-0.46-1.91-0.81-3.4-1.06-4.44
							c-0.11-0.49-0.2-0.87-0.26-1.16c-0.06-0.26-0.08-0.4-0.07-0.4c0.01,0,0.05,0.13,0.12,0.39c0.08,0.28,0.18,0.66,0.31,1.14
							c0.27,1.04,0.66,2.52,1.16,4.42c0.99,3.87,2.42,9.42,4.17,16.27c3.48,13.78,8.28,32.79,13.6,53.82l0.01,0.04l0,0.04
							c-0.01,0.18-0.02,0.39-0.02,0.59c-0.89,21.79-1.7,41.53-2.29,55.84c-0.32,7.12-0.57,12.9-0.75,16.92
							c-0.1,1.98-0.18,3.52-0.23,4.6c-0.03,0.51-0.06,0.9-0.07,1.2C209.09,437.7,209.07,437.84,209.06,437.84z"/>
					</g>
				</g>
				<g>
					<g>
						<path class="st6" d="M201.41,356.5c0.02,0.14-2.3,0.66-5.18,1.15c-2.16,0.37-4.02,0.62-4.83,0.67l0-0.2
							c0.27,0.07,0.42,0.13,0.41,0.17c-0.01,0.04-0.16,0.05-0.44,0.04l-0.61-0.03l0.6-0.18c0.78-0.23,2.62-0.61,4.78-0.98
							C199.03,356.64,201.39,356.36,201.41,356.5z"/>
					</g>
				</g>
				<g>
					<g>
						<path class="st6" d="M200.97,359.37c-0.02,0.14-2.1-0.02-4.67-0.21c-2.57-0.2-4.65-0.37-4.65-0.51c0-0.14,2.1-0.21,4.69-0.01
							C198.92,358.84,200.98,359.23,200.97,359.37z"/>
					</g>
				</g>
				<g>
					<path class="st12" d="M152.16,283.76c1.07,1.51,2.6,2.04,4.38,2.33c1.78,0.29,3.59,0.1,5.38-0.1
						c11.45-1.27,23.57-2.44,34.78-5.17c-14.51,0.81-29.83,0.54-44.34,1.35c0,0-0.12,1-0.15,1.24"/>
				</g>
				<g class="st12">
					<polygon points="167.11,304.21 175.29,335.95 174.72,305.55 					"/>
				</g>
			</g>
		</g>
	</g>
</g>
</svg>
