<?xml version="1.0" encoding="utf-8"?>
<!-- Generator: Adobe Illustrator 25.1.0, SVG Export Plug-In . SVG Version: 6.00 Build 0)  -->
<svg version="1.1" xmlns="http://www.w3.org/2000/svg" xmlns:xlink="http://www.w3.org/1999/xlink" x="0px" y="0px"
	 viewBox="0 0 500 500" style="enable-background:new 0 0 500 500;" xml:space="preserve">
<style type="text/css">
	.st0{fill:#F5F5F5;}
	.st1{fill:#E0E0E0;}
	.st2{display:none;}
	.st3{display:inline;fill:#EBEBEB;}
	.st4{fill:#E8505B;}
	.st5{fill:#263238;}
	.st6{fill:#455A64;}
	.st7{fill:#FAFAFA;}
	.st8{fill:#EBEBEB;}
	.st9{fill:#EB996E;}
	.st10{fill:#FFBE9D;}
	.st11{opacity:0.2;}
	.st12{opacity:0.3;}
	.st13{opacity:0.7;}
</style>
<g id="Background_Complete">
	<g>
		<path class="st0" d="M53.33,223.83v47.64c0,8.62,6.99,15.61,15.61,15.61h170.81c8.62,0,15.61-6.99,15.61-15.61v-40.25l21.26-22.34
			l-207.63-0.65C60.35,208.2,53.33,215.2,53.33,223.83z"/>
		<g>
			<polygon class="st1" points="230.17,237.09 75.18,236.37 75.19,231.61 230.19,232.33 			"/>
		</g>
		<g>
			<polygon class="st1" points="230.17,252.76 75.18,252.05 75.19,247.28 230.19,248 			"/>
		</g>
		<g>
			
				<rect x="197.14" y="234.84" transform="matrix(4.917783e-03 -1 1 4.917783e-03 -66.9651 463.7162)" class="st1" width="4.76" height="61.33"/>
		</g>
	</g>
	<g>
		<path class="st0" d="M211.6,388.43v47.64c0,8.62,6.99,15.61,15.61,15.61h170.81c8.62,0,15.61-6.99,15.61-15.61v-40.25l21.26-22.34
			l-207.63-0.65C218.62,372.8,211.6,379.8,211.6,388.43z"/>
		<g>
			<polygon class="st1" points="389.19,400.45 234.19,399.74 234.2,394.97 389.2,395.69 			"/>
		</g>
		<g>
			<polygon class="st1" points="389.19,416.12 234.19,415.41 234.2,410.64 389.2,411.36 			"/>
		</g>
		<g>
			
				<rect x="356.15" y="398.2" transform="matrix(4.919414e-03 -1 1 4.919414e-03 -72.0955 785.2847)" class="st1" width="4.76" height="61.33"/>
		</g>
	</g>
	<path class="st0" d="M144.63,44.39h100.74c4.99,0,9.03,4.04,9.03,9.03v49.28c0,4.99-4.04,9.03-9.03,9.03h-85.49
		c-4.99,0-9.03-4.04-9.03-9.03V50.62L144.63,44.39z"/>
	<g>
		<path class="st1" d="M203.03,92.29v31.59c0,5.72-4.63,10.35-10.35,10.35H79.39c-5.72,0-10.35-4.63-10.35-10.35v-26.7l-14.1-14.82
			l137.71-0.43C198.38,81.93,203.03,86.56,203.03,92.29z"/>
		<g>
			<polygon class="st0" points="85.74,101.08 188.55,100.61 188.53,97.45 85.73,97.93 			"/>
		</g>
		<g>
			<polygon class="st0" points="85.74,111.48 188.55,111.01 188.53,107.85 85.73,108.32 			"/>
		</g>
		<g>
			
				<rect x="85.74" y="118.35" transform="matrix(1 -4.921822e-03 4.921822e-03 1 -0.589 0.5235)" class="st0" width="40.68" height="3.16"/>
		</g>
	</g>
	<g>
		<path class="st1" d="M417.64,238.8v31.59c0,5.72-4.63,10.35-10.35,10.35H294.01c-5.72,0-10.35-4.63-10.35-10.35v-26.7l-14.1-14.82
			l137.71-0.43C412.99,228.44,417.64,233.08,417.64,238.8z"/>
		<g>
			<polygon class="st0" points="300.35,247.6 403.16,247.12 403.14,243.96 300.34,244.44 			"/>
		</g>
		<g>
			<polygon class="st0" points="300.35,257.99 403.16,257.52 403.14,254.36 300.34,254.83 			"/>
		</g>
		<g>
			
				<rect x="300.35" y="264.86" transform="matrix(1 -4.921822e-03 4.921822e-03 1 -1.3075 1.5816)" class="st0" width="40.68" height="3.16"/>
		</g>
	</g>
</g>
<g id="Background_Simple" class="st2">
	<path class="st3" d="M422.54,129c28.59,56.97,19.55,128.88-16.19,181.66c-35.74,52.78-95.19,86.96-157.7,99.4
		c-44.63,8.88-92.63,7.07-133.41-13.12S42.4,336.12,39.96,290.69c-0.92-17.16,2.72-35.38,14.17-48.2
		c18.29-20.46,49.51-21.18,76.93-20.34c27.43,0.84,58.63,0.2,77-20.18c14.12-15.66,16.2-38.38,23.64-58.11
		c12.65-33.55,43.17-59.74,78.25-67.16c4.87-1.03,9.81-1.69,14.77-2c38.58-2.41,75.17,17.44,95.41,50.38L422.54,129z"/>
</g>
<g id="Plants">
	<g>
		<g>
			<g>
				<path class="st4" d="M320.6,395.65c-16.93-16.49-17.21-41.99-12.8-64.15c0.73-3.7,0.97-7.69,3.27-10.66
					c2.3-2.97,6.8-4.53,9.87-2.42c2.55,1.75,3.23,5.16,4.34,8.07c1.48,3.87,4.06,7.3,7.36,9.76c2.17,1.62,4.98,2.85,7.53,1.94
					c3.5-1.25,4.6-5.62,5.19-9.32c1.09-6.9,2.17-13.81,3.26-20.71c0.58-3.7,1.19-7.48,2.92-10.81c1.73-3.32,4.8-6.17,8.48-6.58
					c3.68-0.41,7.7,2.33,7.85,6.08c0.06,1.56-0.5,3.07-0.65,4.62c-0.15,1.55,0.29,3.37,1.68,4.04c1.41,0.68,3.06-0.13,4.34-1.03
					c4.43-3.11,7.81-7.5,11.02-11.89c3.21-4.39,6.36-8.9,10.49-12.41c4.13-3.51,9.45-5.95,14.8-5.38
					c5.35,0.57,10.46,4.76,10.95,10.18c0.49,5.44-3.42,10.23-7.42,13.91c-5.94,5.46-12.66,10.05-19.88,13.58
					c-1.3,0.64-2.71,1.32-3.38,2.62c-1.21,2.34,0.73,5.17,3.03,6.38c2.61,1.37,5.65,1.57,8.48,2.39c2.83,0.81,5.75,2.6,6.39,5.5
					c0.9,4.03-2.92,7.48-6.45,9.56c-7.08,4.18-14.87,7.12-22.92,8.66c-2.88,0.55-5.89,0.95-8.4,2.51c-2.51,1.55-4.38,4.66-3.48,7.48
					c0.9,2.83,4.17,4.22,7.1,4.16c2.94-0.06,5.74-1.19,8.63-1.77c5.4-1.09,11.91,0.34,14.45,5.27c1.67,3.24,1.2,7.29-0.45,10.56
					c-1.65,3.27-4.33,5.87-7.11,8.23c-9.72,8.23-21.41,14.22-33.87,16.38C342.73,402.54,331.62,401.86,320.6,395.65"/>
			</g>
		</g>
		<g>
			<g>
				<g>
					<path class="st5" d="M317.6,412.13c2.25-8.7,5.9-18.81,11.04-29.5c5.12-10.71,11.71-21.98,19-33.54
						c1.83-2.88,3.65-5.73,5.43-8.54c1.79-2.8,3.56-5.57,5.47-8.18c3.79-5.23,7.82-9.97,11.8-14.35c3.97-4.38,7.9-8.4,11.6-12.12
						c3.71-3.72,7.24-7.12,10.58-10.09c6.67-5.95,12.61-10.11,16.81-12.8c2.1-1.35,3.75-2.35,4.89-3c0.54-0.31,0.97-0.56,1.29-0.74
						c0.29-0.16,0.45-0.24,0.45-0.23c0.01,0.01-0.13,0.11-0.42,0.29c-0.31,0.2-0.73,0.46-1.26,0.8c-1.11,0.7-2.75,1.73-4.82,3.11
						c-4.14,2.75-10.02,6.96-16.63,12.94c-3.31,2.98-6.81,6.39-10.5,10.13c-3.68,3.74-7.59,7.76-11.54,12.15
						c-3.95,4.38-7.96,9.11-11.72,14.32c-1.89,2.59-3.65,5.35-5.44,8.15c-1.78,2.81-3.59,5.65-5.43,8.53
						c-7.29,11.55-13.88,22.78-19.02,33.45c-5.16,10.65-8.83,20.7-11.14,29.35"/>
				</g>
			</g>
		</g>
		<g>
			<g>
				<g>
					<path class="st5" d="M358.74,332.37c-0.05,0-0.08-0.58-0.1-1.64c-0.03-1.05-0.02-2.58,0.03-4.47
						c0.08-3.77,0.37-8.97,0.71-14.71c0.34-5.74,0.55-10.93,0.58-14.69c0.02-1.88,0.01-3.4,0-4.45c-0.01-1.05,0.01-1.64,0.06-1.64
						c0.05,0,0.12,0.58,0.21,1.63c0.1,1.05,0.17,2.58,0.22,4.46c0.1,3.77-0.03,8.99-0.37,14.73c-0.35,5.66-0.67,10.78-0.91,14.69
						c-0.1,1.77-0.18,3.26-0.25,4.45C358.85,331.79,358.79,332.37,358.74,332.37z"/>
				</g>
			</g>
		</g>
		<g>
			<g>
				<g>
					<path class="st5" d="M407.77,331.27c-0.01,0.05-0.7,0.01-1.93-0.08c-1.24-0.09-3.03-0.23-5.25-0.34
						c-4.43-0.24-10.57-0.36-17.35-0.2c-6.78,0.17-12.91,0.59-17.33,1.02c-2.21,0.2-4,0.41-5.24,0.55c-1.24,0.14-1.92,0.2-1.93,0.15
						c-0.01-0.05,0.67-0.19,1.89-0.42c1.23-0.22,3.01-0.5,5.22-0.77c4.42-0.56,10.57-1.06,17.37-1.23
						c6.8-0.16,12.95,0.04,17.39,0.41c2.22,0.17,4.01,0.38,5.24,0.56C407.1,331.1,407.78,331.22,407.77,331.27z"/>
				</g>
			</g>
		</g>
		<g>
			<g>
				<g>
					<path class="st5" d="M329.37,381.84c-0.02,0.01-0.1-0.21-0.23-0.63c-0.14-0.5-0.32-1.11-0.53-1.85
						c-0.45-1.61-1.05-3.96-1.75-6.88c-1.4-5.83-3.09-13.93-4.83-22.9c-1.74-8.98-3.35-17.09-4.63-22.93
						c-0.63-2.84-1.15-5.18-1.54-6.92c-0.16-0.75-0.3-1.38-0.41-1.89c-0.09-0.43-0.12-0.66-0.1-0.67c0.02,0,0.1,0.21,0.23,0.63
						c0.14,0.5,0.32,1.11,0.53,1.85c0.45,1.61,1.05,3.96,1.75,6.88c1.4,5.83,3.09,13.93,4.83,22.91c1.74,8.97,3.35,17.08,4.62,22.93
						c0.63,2.84,1.15,5.18,1.54,6.92c0.16,0.75,0.3,1.38,0.41,1.89C329.36,381.61,329.39,381.84,329.37,381.84z"/>
				</g>
			</g>
		</g>
		<g>
			<g>
				<g>
					<path class="st5" d="M395.92,371.82c0,0.02-0.23,0.08-0.67,0.16c-0.52,0.08-1.16,0.19-1.94,0.31c-1.79,0.27-4.2,0.64-7.13,1.09
						c-6.02,0.92-14.32,2.28-23.49,3.8c-9.17,1.52-17.49,2.81-23.53,3.6c-3.02,0.4-5.47,0.69-7.16,0.87
						c-0.78,0.07-1.43,0.13-1.95,0.19c-0.45,0.03-0.68,0.04-0.69,0.02c0-0.02,0.23-0.08,0.67-0.16c0.52-0.08,1.16-0.19,1.94-0.31
						c1.79-0.27,4.19-0.64,7.13-1.09c6.02-0.92,14.32-2.28,23.49-3.8c9.17-1.52,17.49-2.81,23.53-3.6c3.02-0.4,5.47-0.69,7.16-0.87
						c0.78-0.07,1.43-0.14,1.95-0.19C395.68,371.8,395.91,371.79,395.92,371.82z"/>
				</g>
			</g>
		</g>
	</g>
	<g>
		<path class="st6" d="M152.38,170.79c-3.09-2.4-4.47-6.64-3.83-10.5c0.65-3.86,3.14-7.27,6.36-9.49c1.49-1.02,3.34-1.83,5.08-1.32
			c1.62,0.48,2.75,2.05,3.08,3.71c0.33,1.66-0.03,3.38-0.58,4.98C160.59,163.65,157.75,168.61,152.38,170.79"/>
		<path class="st6" d="M147.31,180.15c-6.09-5.56-14.98-7.88-23.01-6.02c-2.05,0.47-4.35,1.55-4.69,3.63
			c-0.34,2.08,1.52,3.84,3.34,4.89c7.57,4.39,17.83,3.56,24.6-1.98"/>
		<path class="st6" d="M117.95,136.81c3.38-0.93,7.08-0.09,10.07,1.73c2.99,1.82,5.33,4.56,7.2,7.52c3.62,5.72,4.9,13.42,5.06,20.19
			c-7.52-0.3-13.94-6.21-17.01-9.42C118.41,151.78,112.71,139.69,117.95,136.81"/>
		<g>
			<path class="st5" d="M158.68,190.38c-0.44-0.8-1.16-1.36-1.88-2.83c-1.41-2.93-3.31-7.11-4.23-12.07
				c-0.92-4.97-0.3-9.67,0.94-12.73c0.6-1.54,1.28-2.71,1.82-3.45c0.54-0.75,0.89-1.11,0.93-1.09c0.13,0.08-1.2,1.66-2.24,4.72
				c-1.07,3.03-1.59,7.57-0.7,12.42c0.9,4.85,2.69,9,3.98,11.98"/>
		</g>
		<g>
			<path class="st5" d="M158.75,190.47c-1.01-1.3-2.32-3-3.92-5.05c-3.29-4.27-7.86-10.16-12.99-16.6
				c-5.13-6.43-9.85-12.2-13.28-16.36c-1.64-2.01-3.01-3.67-4.05-4.94c-0.95-1.17-1.45-1.84-1.42-1.87
				c0.04-0.03,0.62,0.57,1.64,1.68c1.02,1.11,2.47,2.75,4.23,4.79c3.54,4.08,8.33,9.8,13.46,16.24c5.13,6.44,9.64,12.39,12.82,16.75
				c1.59,2.18,2.87,3.95,3.72,5.2"/>
		</g>
		<g>
			<path class="st5" d="M128.99,178.58c-0.01-0.05,0.45-0.19,1.3-0.4c0.43-0.11,0.95-0.23,1.57-0.3c0.62-0.08,1.32-0.21,2.11-0.23
				c1.57-0.12,3.45-0.06,5.52,0.21c2.06,0.31,4.3,0.85,6.56,1.71c2.24,0.89,4.26,2.01,5.99,3.17c1.71,1.2,3.14,2.43,4.21,3.58
				c0.57,0.54,1,1.12,1.4,1.59c0.41,0.47,0.72,0.91,0.96,1.28c0.49,0.73,0.42,1.07,0.38,1.1c-0.12,0.09-0.89-1.45-3.11-3.6
				c-1.1-1.08-2.54-2.24-4.23-3.38c-1.71-1.1-3.69-2.18-5.87-3.04c-2.2-0.84-4.38-1.38-6.38-1.72c-2.01-0.3-3.85-0.42-5.4-0.37
				C130.9,178.26,129.02,178.72,128.99,178.58z"/>
		</g>
	</g>
</g>
<g id="Device">
	<g>
		<g>
			<g>
				<g>
					<g>
						<path class="st5" d="M296.74,433.74l-115.5-0.53c-13.89-0.06-25.1-11.37-25.04-25.27l1.22-289.56
							c0.06-13.9,11.38-25.12,25.28-25.05l115.5,0.53c13.89,0.06,25.1,11.37,25.04,25.27l-1.22,289.56
							C321.96,422.58,310.64,433.8,296.74,433.74z"/>
					</g>
					<g>
						<path class="st7" d="M298.04,103.85l-22.39-0.1c-3-0.01-5.45,2.52-5.46,5.66l-0.02,4.06c-0.01,3.14-2.46,5.67-5.46,5.66
							l-43.65-0.2c-3-0.01-5.43-2.57-5.41-5.71l0.02-4.06c0.01-3.14-2.41-5.7-5.41-5.71l-7.88-0.04l-19.6-0.09
							c-9.73-0.04-17.66,7.81-17.7,17.55l-1.19,282.63c-0.04,9.73,7.81,17.65,17.54,17.7l115.27,0.53
							c9.73,0.05,17.66-7.81,17.7-17.55l1.19-282.63C315.62,111.81,307.76,103.89,298.04,103.85z"/>
					</g>
				</g>
			</g>
			<g>
				<path class="st6" d="M232.8,394.66c-0.01,1.13-1.07,2.04-2.39,2.03c-1.31-0.01-2.37-0.93-2.37-2.05
					c0.01-1.13,1.07-2.04,2.39-2.03C231.74,392.61,232.8,393.53,232.8,394.66z"/>
			</g>
			<g>
				<path class="st6" d="M240.17,394.7c0,1.13-1.07,2.04-2.39,2.03c-1.31-0.01-2.37-0.93-2.37-2.05c0-1.13,1.07-2.04,2.39-2.03
					S240.17,393.57,240.17,394.7z"/>
			</g>
			<g>
				<path class="st6" d="M247.54,394.73c0,1.13-1.07,2.04-2.39,2.03c-1.31-0.01-2.37-0.93-2.37-2.05c0-1.13,1.07-2.04,2.39-2.03
					C246.48,392.68,247.54,393.6,247.54,394.73z"/>
			</g>
		</g>
	</g>
	<path class="st8" d="M199.52,240.1c1.88,0.27,115.18,22.49,115.18,22.49V240.1H199.52z"/>
	<path class="st8" d="M163.87,382.9c0,0,123.26-17.44,122.18-16.9c-1.07,0.54-122.18,0-122.18,0V382.9z"/>
	<g>
		<path class="st5" d="M307.01,52.91c0.14,0,0.26,6.23,0.26,13.92c0,7.69-0.12,13.92-0.26,13.92s-0.26-6.23-0.26-13.92
			C306.75,59.14,306.86,52.91,307.01,52.91z"/>
	</g>
	<g>
		<path class="st5" d="M356.33,84.94c0.06,0.13-5.6,2.75-12.63,5.86c-7.03,3.1-12.78,5.51-12.84,5.38
			c-0.06-0.13,5.59-2.75,12.63-5.86C350.52,87.21,356.27,84.8,356.33,84.94z"/>
	</g>
	<g>
		<path class="st5" d="M355.08,36.36c0.02,0.01-0.08,0.19-0.27,0.53c-0.22,0.39-0.51,0.87-0.86,1.47c-0.75,1.28-1.86,3.11-3.26,5.35
			c-2.8,4.49-6.83,10.6-11.39,17.26c-4.57,6.66-8.64,12.73-11.52,17.16c-1.41,2.18-2.56,3.96-3.4,5.26
			c-0.38,0.58-0.69,1.05-0.94,1.42c-0.22,0.32-0.34,0.49-0.36,0.48c-0.02-0.01,0.08-0.19,0.27-0.53c0.22-0.39,0.51-0.87,0.85-1.47
			c0.75-1.28,1.86-3.1,3.26-5.35c2.8-4.49,6.83-10.6,11.4-17.26c4.56-6.66,8.64-12.72,11.51-17.16c1.41-2.18,2.56-3.96,3.4-5.26
			c0.38-0.58,0.69-1.05,0.94-1.42C354.95,36.52,355.07,36.35,355.08,36.36z"/>
	</g>
</g>
<g id="Speech_Bubbles">
	<g>
		<path class="st4" d="M424.23,154.09H198.78c-4.87,0-8.82,3.95-8.82,8.82v69.93c0,4.87,3.95,8.82,8.82,8.82h16.8
			c1.35,7.3,2.94,16.52,2.94,16.52l15.2-16.52h190.51c4.87,0,8.82-3.95,8.82-8.82v-69.93C433.04,158.04,429.1,154.09,424.23,154.09z
			"/>
		<g>
			<g>
				<path class="st0" d="M331.21,192.02c0,0.14-26.83,0.26-59.92,0.26c-33.1,0-59.93-0.12-59.93-0.26c0-0.14,26.83-0.26,59.93-0.26
					C304.38,191.76,331.21,191.88,331.21,192.02z"/>
			</g>
			<g>
				<path class="st0" d="M331.21,181.28c0,0.14-26.83,0.26-59.92,0.26c-33.1,0-59.93-0.12-59.93-0.26c0-0.14,26.83-0.26,59.93-0.26
					C304.38,181.02,331.21,181.13,331.21,181.28z"/>
			</g>
			<g>
				<path class="st0" d="M331.21,202.66c0,0.14-26.83,0.26-59.92,0.26c-33.1,0-59.93-0.12-59.93-0.26c0-0.14,26.83-0.26,59.93-0.26
					C304.38,202.4,331.21,202.51,331.21,202.66z"/>
			</g>
			<g>
				<path class="st0" d="M289.86,213.67c0,0.14-17.58,0.26-39.25,0.26c-21.68,0-39.25-0.12-39.25-0.26s17.57-0.26,39.25-0.26
					C272.29,213.41,289.86,213.52,289.86,213.67z"/>
			</g>
		</g>
	</g>
	<g>
		<path class="st6" d="M322.36,279.82H95.07c-3.41,0-6.17,2.76-6.17,6.17v73.99c0,3.41,2.76,6.17,6.17,6.17h165.08l15.03,16.33
			c0,0,1.58-9.18,2.9-16.33h44.28c3.41,0,6.17-2.76,6.17-6.17v-73.99C328.53,282.58,325.77,279.82,322.36,279.82z"/>
		<g>
			<g>
				<path class="st0" d="M313.45,317.97c0,0.14-26.83,0.26-59.92,0.26c-33.1,0-59.93-0.12-59.93-0.26c0-0.14,26.83-0.26,59.93-0.26
					C286.62,317.71,313.45,317.82,313.45,317.97z"/>
			</g>
			<g>
				<path class="st0" d="M313.45,307.22c0,0.14-26.83,0.26-59.92,0.26c-33.1,0-59.93-0.12-59.93-0.26s26.83-0.26,59.93-0.26
					C286.62,306.96,313.45,307.07,313.45,307.22z"/>
			</g>
			<g>
				<path class="st0" d="M313.45,328.6c0,0.14-26.83,0.26-59.92,0.26c-33.1,0-59.93-0.12-59.93-0.26s26.83-0.26,59.93-0.26
					C286.62,328.34,313.45,328.46,313.45,328.6z"/>
			</g>
			<g>
				<path class="st0" d="M272.1,339.61c0,0.14-17.58,0.26-39.25,0.26c-21.68,0-39.25-0.12-39.25-0.26c0-0.14,17.57-0.26,39.25-0.26
					C254.53,339.35,272.1,339.47,272.1,339.61z"/>
			</g>
		</g>
	</g>
</g>
<g id="Character_2">
	<g>
		<g>
			<path class="st5" d="M367.55,124.43c0.13-1.84-1.51-4.37-3.02-5.83c-1.52-1.46-2.46-3.43-1.67-6.37c0.61-2.27,2.05-2.1,2.62-3.44
				c0.42-0.99,0.24-2.12,0.33-3.19c0.3-3.68,4.34-6.56,7.92-5.64c1.01-3.5,4.27-6.23,7.89-6.6c3.62-0.38,7.37,1.62,9.08,4.84
				c2.07-1.07,4.67-1.04,6.7,0.1c2.03,1.13,3.44,3.32,3.61,5.65c2.01-1.45,5.1-0.89,6.7,1.01c1.59,1.91,1.69,4.82,0.48,6.99
				c-1.21,2.17-3.55,3.58-6.01,3.96s-4.99-0.2-7.22-1.31c-2.22-1.11-4.16-2.72-5.92-4.47"/>
			<ellipse class="st1" cx="383.9" cy="197.07" rx="43.29" ry="42.28"/>
			<g>
				<g>
					<path class="st9" d="M427.37,197.1l-4.79-12.29l-17.17,10.79l15.3,23.6C420.71,219.2,426.93,211.12,427.37,197.1z"/>
					<g>
						<g>
							<g>
								<g>
									<g>
										<g>
											<g>
												<path class="st10" d="M379.96,170.5L379.96,170.5c6.17,0.01,11.26-4.78,11.57-10.89c0.25-5.09,0.47-9.99,0.47-9.99
													s9.45-0.68,10.32-9.92c0.87-9.24,0.99-30.59,0.99-30.59l0,0c-10.42-5.47-23.01-4.92-32.91,1.43l-0.9,0.58l-1.09,47.79
													C368.34,165.28,373.53,170.49,379.96,170.5z"/>
											</g>
											<g>
												<g>
													<path class="st5" d="M385.38,123.32c0.71,0.23,1.1,1,0.86,1.7c-0.24,0.71-1.01,1.09-1.72,0.85
														c-0.71-0.23-1.1-1-0.86-1.7C383.9,123.46,384.67,123.08,385.38,123.32z"/>
												</g>
												<g>
													<g>
														<path class="st5" d="M387.97,123.8c-0.16,0.15-1.03-0.6-2.32-0.68c-1.29-0.1-2.26,0.52-2.39,0.35
															c-0.07-0.08,0.1-0.36,0.52-0.64c0.42-0.28,1.12-0.54,1.92-0.48c0.8,0.06,1.46,0.41,1.83,0.75
															C387.92,123.43,388.05,123.73,387.97,123.8z"/>
													</g>
												</g>
											</g>
											<g>
												<g>
													<path class="st5" d="M399.48,123.32c0.71,0.23,1.1,1,0.86,1.7c-0.24,0.71-1.01,1.09-1.72,0.85
														c-0.71-0.23-1.1-1-0.86-1.7C398,123.46,398.77,123.08,399.48,123.32z"/>
												</g>
												<g>
													<g>
														<path class="st5" d="M402.24,123.82c-0.16,0.15-1.03-0.6-2.32-0.68c-1.29-0.1-2.26,0.52-2.39,0.35
															c-0.07-0.08,0.1-0.36,0.52-0.64c0.42-0.28,1.12-0.53,1.92-0.48c0.8,0.06,1.46,0.41,1.83,0.75
															C402.2,123.46,402.32,123.76,402.24,123.82z"/>
													</g>
												</g>
											</g>
											<g>
												<g>
													<path class="st5" d="M392.54,133.81c0-0.1,0.81-0.2,2.11-0.27c0.34-0.01,0.61-0.06,0.65-0.24
														c0.08-0.2-0.02-0.56-0.16-0.97c-0.26-0.87-0.53-1.75-0.8-2.67c-1.1-3.8-1.84-6.92-1.64-6.98
														c0.19-0.06,1.25,2.98,2.35,6.78c0.26,0.93,0.51,1.81,0.75,2.68c0.09,0.4,0.29,0.86,0.07,1.4
														c-0.12,0.27-0.4,0.45-0.62,0.49c-0.23,0.05-0.42,0.03-0.58,0.03C393.35,134,392.54,133.91,392.54,133.81z"/>
												</g>
											</g>
											<g>
												<path class="st9" d="M392.02,149.49c0,0-5.93,0-11.88-4.41c0,0,2.33,6.89,11.71,6.8L392.02,149.49z"/>
											</g>
										</g>
									</g>
									<g>
										<g>
											<path class="st10" d="M369.27,124.68c0.01-0.75-0.57-1.39-1.32-1.43c-1.74-0.08-4.61,0.55-4.97,5.31
												c-0.51,6.8,6.13,5.23,6.15,5.04C369.16,133.45,369.24,127.33,369.27,124.68z"/>
										</g>
										<g>
											<g>
												<path class="st9" d="M367.68,130.89c-0.03-0.02-0.13,0.07-0.33,0.15c-0.2,0.07-0.55,0.11-0.89-0.05
													c-0.7-0.32-1.23-1.5-1.17-2.73c0.03-0.62,0.2-1.2,0.46-1.67c0.25-0.48,0.6-0.81,0.97-0.84
													c0.37-0.06,0.61,0.18,0.68,0.38c0.08,0.2,0.02,0.33,0.06,0.34c0.02,0.02,0.16-0.1,0.12-0.39
													c-0.02-0.14-0.09-0.3-0.24-0.45c-0.15-0.15-0.39-0.23-0.65-0.22c-0.53,0-1.04,0.44-1.33,0.96
													c-0.31,0.52-0.52,1.17-0.56,1.86c-0.06,1.37,0.55,2.71,1.52,3.07c0.47,0.16,0.89,0.05,1.11-0.1
													C367.65,131.06,367.7,130.91,367.68,130.89z"/>
											</g>
										</g>
									</g>
								</g>
								<g>
									<path class="st5" d="M381.88,120.17c0.34,0.44,1.52,0.23,3.06,0.17c1.53-0.12,2.73-0.06,3.01-0.54
										c0.32-0.49-1.17-1.63-3.14-1.46C382.83,118.42,381.5,119.72,381.88,120.17z"/>
								</g>
								<g>
									<path class="st5" d="M396.86,119.72c0.19,0.59,1.31,0.77,2.56,0.76c1.25-0.03,2.37-0.23,2.54-0.83
										c0.18-0.58-0.96-1.42-2.57-1.39C397.78,118.28,396.67,119.14,396.86,119.72z"/>
								</g>
							</g>
							<path class="st5" d="M404.62,112.03c0,0-5.6,2.71-12.9-0.93c-4.79-2.39-10.36-3.56-11.59-2.59
								c-1.23,0.96-1.49,5.89-6.23,7.33c0,0,0.33,9.41-3.43,9.07c-3.75-0.34-1.41-14.91-1.41-14.91l9.18-4.48l10.01-1.89l9.44,1.33
								l7.3,2L404.62,112.03z"/>
						</g>
					</g>
					<g>
						<g>
							<path class="st6" d="M341.81,166.48c9.81-10.09,27.07-8.98,27.07-8.98l14.31,10.24l8.11-9.45c0,0,8.53,0.94,16.52,5.11
								l0.55,0.17l-0.01,0.11c6.28,3.41,15.16,11.58,23.63,19.51l-10.13,9.4l-11.21,9.95c0,0,0.04,0.07,0.02,0.2
								c-0.12,0.6,1.56,14.3,3.28,24.7c-10.21,9.75-23.23,13.92-37.68,11.38c-4.59-0.8-6.81-1.92-11.05-3.04
								c-6.28-1.65-10.83-7.09-11.39-13.56l0,0c-0.76-8.72-1.35-19.52-1.35-19.52"/>
							<g>
								<path class="st5" d="M400.27,160.05c0.03-0.01,0.25,0.56,0.62,1.61c0.37,1.05,0.87,2.57,1.46,4.46
									c1.18,3.78,2.69,9.05,4.11,14.93c1.42,5.88,2.48,11.26,3.16,15.16c0.34,1.95,0.59,3.54,0.74,4.63
									c0.15,1.1,0.22,1.71,0.19,1.71c-0.04,0.01-0.17-0.59-0.39-1.68c-0.23-1.17-0.53-2.72-0.9-4.6
									c-0.77-3.88-1.89-9.24-3.3-15.11c-1.42-5.87-2.86-11.14-3.95-14.95c-0.53-1.84-0.97-3.36-1.3-4.51
									C400.39,160.65,400.24,160.06,400.27,160.05z"/>
							</g>
							<g>
								<path class="st5" d="M409.48,196.1c-0.09-0.11,4.19-3.75,9.55-8.12c5.37-4.37,9.79-7.83,9.88-7.72
									c0.09,0.11-4.19,3.75-9.55,8.12C414,192.76,409.58,196.21,409.48,196.1z"/>
							</g>
							<path class="st11" d="M354.76,180.32l-8.78,28.87l3.27,1.7l3.22-8.17C352.47,202.73,355.77,185.57,354.76,180.32z"/>
							<g class="st11">
								<path d="M399.32,160.07c4.73,2.49-7.13,8.5-12.48,8.34l3.89-10.26C390.73,158.14,397.73,159.23,399.32,160.07z"/>
							</g>
						</g>
						<path class="st6" d="M367.47,158.14v-7.65c0,0,14.93,3.84,15.48,12.78c0,0,1.9-9.88,9.59-10.35l1.09,13.89l-8.95,7.79h-9.08
							l-7.19-6.2l-0.94-9.65"/>
						<g>
							<path class="st5" d="M386.31,206.13c-0.04,0-0.04-0.59-0.03-1.64c0.02-1.06,0.04-2.59,0.05-4.47
								c0.01-3.78-0.11-8.99-0.58-14.73c-0.48-5.74-1.22-10.91-1.86-14.63c-0.32-1.79-0.58-3.28-0.78-4.4
								c-0.19-1.04-0.28-1.62-0.25-1.63c0.04-0.01,0.19,0.56,0.44,1.58c0.26,1.03,0.58,2.52,0.95,4.38
								c0.73,3.71,1.54,8.89,2.02,14.65c0.48,5.76,0.54,11,0.43,14.78c-0.05,1.89-0.13,3.42-0.21,4.48
								C386.4,205.55,386.34,206.13,386.31,206.13z"/>
						</g>
						<g>
							<path class="st5" d="M382.26,160.7c-0.01,0.04-0.34-0.13-0.89,0.08c-0.57,0.18-1.08,0.89-1.5,1.91
								c-0.92,1.99-2.05,4.85-2.84,8.26l-0.08,0.34l-0.3-0.18c-0.89-0.54-1.81-1.12-2.73-1.75c-1.78-1.21-3.42-2.45-4.84-3.68
								c-0.72-0.62-1.31-1.36-1.65-2.16c-0.34-0.8-0.47-1.59-0.5-2.31c-0.06-1.44,0.18-2.57,0.33-3.34
								c0.17-0.77,0.29-1.19,0.33-1.18c0.04,0.01-0.02,0.44-0.13,1.22c-0.09,0.78-0.27,1.91-0.16,3.29c0.06,0.68,0.2,1.43,0.53,2.15
								c0.33,0.72,0.87,1.39,1.57,1.97c1.41,1.18,3.05,2.41,4.82,3.61c0.91,0.62,1.82,1.2,2.7,1.74l-0.38,0.16
								c0.82-3.45,2.03-6.32,3.04-8.29c0.25-0.49,0.49-0.94,0.79-1.29c0.29-0.35,0.65-0.56,0.95-0.65
								C381.95,160.44,382.28,160.69,382.26,160.7z"/>
						</g>
						<g>
							<path class="st5" d="M392.54,152.92c0.04,0,0.08,0.42,0.14,1.19c0.06,0.88,0.14,1.97,0.24,3.25c0.11,1.37,0.28,3,0.56,4.79
								c0.11,0.89,0.42,1.85,0.18,2.93c-0.31,1.07-1.11,1.87-1.96,2.51c-1.2,0.89-2.45,1.55-3.29,2.5l-0.4,0.45l-0.04-0.6
								c-0.21-3.16-1.26-5.76-2.21-7.45c-0.95-1.7-1.73-2.58-1.67-2.63c0.02-0.02,0.23,0.18,0.59,0.59
								c0.35,0.41,0.84,1.03,1.35,1.88c1.04,1.68,2.19,4.32,2.43,7.57l-0.44-0.15c0.91-1.04,2.21-1.73,3.35-2.58
								c0.81-0.61,1.53-1.36,1.78-2.22c0.21-0.88-0.05-1.83-0.16-2.74c-0.26-1.81-0.39-3.46-0.45-4.84
								c-0.07-1.38-0.08-2.5-0.07-3.27C392.48,153.35,392.5,152.92,392.54,152.92z"/>
						</g>
					</g>
				</g>
				<g>
					<g>
						<path class="st5" d="M440.61,154.84c-0.61,0.72-22.59,30.11-22.59,30.11l3.1,1.75l22.56-29.02L440.61,154.84z"/>
						<path class="st10" d="M352.28,178.08c0,0,23.13,33.29,24.52,33.95c2.75,1.29,34.39-26.06,37.41-28.67
							c0.42-0.56,1.27-1.73,2.96-4.06c0,0,2.5-11.42,5.16-10.55c2.66,0.88-1.46,5.81,0.28,10.15c1.74,4.34,9.68-6.01,10-6.94
							l2.05-2.68c0,0,2.15,6.09,2,8.64c-0.47,8.15-8.18,17.84-8.18,17.84s-34.63,42.9-58.35,44.23c-6.83,0.38-18.97-19-27.09-33.54
							c-4.9-8.78-2.46-19.84,5.67-25.76L352.28,178.08z"/>
						<g>
							<path class="st9" d="M432.77,179.36c-0.08-0.05,0.66-1.36,1.48-3.02c0.82-1.66,1.41-3.04,1.5-3.01
								c0.08,0.03-0.39,1.47-1.22,3.15C433.7,178.16,432.84,179.41,432.77,179.36z"/>
						</g>
					</g>
					<g>
						<path class="st6" d="M348.37,161.83c0,0-24.83,8.83-6.37,50.57l28.66-17.3l-4.08-9.76L348.37,161.83z"/>
						<g>
							<path class="st5" d="M346.47,162.56c0,0,1.08-0.18,2.99,0.25c0.94,0.24,2.07,0.66,3.26,1.37c1.19,0.71,2.42,1.71,3.62,2.97
								c2.41,2.51,4.66,6.02,6.74,10.07c2.1,4.06,4.06,8.68,6.07,13.54c0.6,1.46,1.2,2.89,1.76,4.25l0.09,0.22l-0.2,0.11
								c-8.29,4.52-15.51,8.75-20.62,11.92c-2.55,1.58-4.59,2.88-5.98,3.78c-0.67,0.43-1.2,0.77-1.61,1.03
								c-0.37,0.23-0.57,0.35-0.58,0.33c-0.01-0.01,0.17-0.16,0.52-0.41c0.35-0.26,0.87-0.64,1.56-1.11c1.36-0.95,3.37-2.3,5.9-3.92
								c5.06-3.25,12.26-7.54,20.55-12.08l-0.11,0.33c-0.56-1.36-1.16-2.79-1.76-4.25c-2.01-4.86-3.95-9.47-6.02-13.52
								c-2.05-4.05-4.25-7.54-6.58-10.04c-1.16-1.25-2.35-2.25-3.5-2.97c-1.15-0.72-2.24-1.16-3.15-1.43
								C347.55,162.52,346.46,162.63,346.47,162.56z"/>
						</g>
					</g>
				</g>
			</g>
			<g>
				<path class="st6" d="M399.87,100.66c0.02,0,0.06,0.15,0.12,0.44c0.05,0.29,0.11,0.73,0.07,1.3c-0.06,1.11-0.46,2.83-1.89,4.33
					c-1.39,1.5-4.02,2.45-6.68,1.69c-1.3-0.38-2.62-1.17-3.42-2.48c-0.39-0.65-0.62-1.45-0.51-2.26c0.11-0.79,0.51-1.59,1.23-2.06
					c0.72-0.49,1.67-0.48,2.4-0.15c0.74,0.31,1.35,0.92,1.64,1.65c0.59,1.47,0.15,3.05-0.66,4.16c-1.72,2.28-4.83,2.46-6.56,1.43
					c-0.91-0.42-1.71-0.81-2.47-0.95c-0.75-0.15-1.42-0.02-1.91,0.2c-0.98,0.47-1.38,0.99-1.42,0.94c-0.01-0.01,0.09-0.13,0.29-0.34
					c0.1-0.11,0.23-0.24,0.41-0.37c0.17-0.13,0.37-0.29,0.64-0.41c0.5-0.27,1.23-0.44,2.05-0.3c0.82,0.12,1.66,0.51,2.57,0.9
					c0.46,0.18,0.93,0.39,1.44,0.48c0.5,0.09,1.06,0.08,1.61-0.03c1.1-0.2,2.23-0.8,2.97-1.82c0.72-0.99,1.08-2.44,0.57-3.68
					c-0.45-1.21-2.13-2.02-3.29-1.26c-0.56,0.37-0.91,1.03-1,1.7c-0.1,0.67,0.09,1.35,0.44,1.93c0.7,1.16,1.91,1.92,3.12,2.28
					c2.47,0.74,4.95-0.1,6.29-1.49c1.39-1.38,1.84-3.01,1.95-4.09C399.98,101.28,399.81,100.67,399.87,100.66z"/>
			</g>
			<g>
				<path class="st5" d="M394.46,138.37c0.01,0.06-0.31,0.19-0.86,0.22c-0.55,0.03-1.32-0.1-2.08-0.48
					c-0.75-0.38-1.31-0.93-1.62-1.39c-0.31-0.46-0.39-0.79-0.33-0.82c0.13-0.08,0.8,1.06,2.19,1.74
					C393.14,138.36,394.45,138.22,394.46,138.37z"/>
			</g>
			<g>
				<path class="st5" d="M368.24,133.95c0.05-0.04,0.33,0.44-0.04,1.13c-0.18,0.32-0.51,0.67-1.02,0.81
					c-0.51,0.14-1.12-0.02-1.55-0.41c-0.44-0.38-0.68-0.94-0.66-1.45c0.02-0.51,0.23-0.92,0.46-1.2c0.48-0.56,0.97-0.62,0.98-0.56
					c0.04,0.07-0.35,0.25-0.68,0.78c-0.34,0.49-0.47,1.45,0.24,2.04c0.33,0.28,0.75,0.41,1.1,0.33c0.36-0.07,0.64-0.3,0.82-0.54
					C368.26,134.4,368.16,133.96,368.24,133.95z"/>
			</g>
			<g>
				<path class="st6" d="M401.52,104.03c0.05-0.02,0.42,0.64,0.48,1.84c0.07,1.17-0.27,2.92-1.48,4.33
					c-1.23,1.41-2.9,1.99-4.08,2.08c-1.19,0.11-1.9-0.17-1.89-0.22c0.01-0.09,0.73,0.04,1.84-0.15c1.09-0.18,2.61-0.78,3.73-2.06
					c1.11-1.29,1.49-2.88,1.51-3.98C401.66,104.74,401.43,104.05,401.52,104.03z"/>
			</g>
		</g>
		<g>
			<path class="st1" d="M367.7,187.7c0.06,0.13-6.53,3.52-14.73,7.57c-8.2,4.05-14.89,7.23-14.96,7.11
				c-0.06-0.13,6.53-3.52,14.73-7.57C360.94,190.75,367.64,187.57,367.7,187.7z"/>
		</g>
		<g>
			<path class="st1" d="M361.69,176.36c0.07,0.13-5.8,3.41-13.11,7.33c-7.31,3.92-13.29,7-13.36,6.87
				c-0.07-0.13,5.8-3.41,13.11-7.33C355.64,179.31,361.62,176.23,361.69,176.36z"/>
		</g>
		<g>
			<path class="st1" d="M355.88,167.19c0.03,0.07-1.1,0.71-2.94,1.74c-1.97,1.1-4.44,2.48-7.18,4.01c-2.72,1.55-5.19,2.96-7.14,4.07
				c-1.83,1.04-2.97,1.68-3.01,1.61c-0.04-0.06,1.03-0.8,2.82-1.93c1.78-1.13,4.27-2.63,7.08-4.21c2.8-1.58,5.38-2.94,7.26-3.88
				C354.66,167.66,355.85,167.12,355.88,167.19z"/>
		</g>
		<g>
			<path class="st1" d="M377.85,165.02c-0.01,0.06-0.78-0.04-1.93-0.52c-1.15-0.47-2.64-1.37-4.04-2.63
				c-1.41-1.26-2.5-2.57-3.26-3.53c-0.76-0.97-1.18-1.59-1.13-1.64c0.06-0.05,0.58,0.5,1.41,1.4c0.83,0.9,1.95,2.15,3.33,3.38
				c1.37,1.23,2.78,2.15,3.85,2.69C377.14,164.71,377.87,164.94,377.85,165.02z"/>
		</g>
		<g>
			<path class="st1" d="M392.43,159.6c0.13,0.04-0.48,1.66-2.08,3c-1.59,1.35-3.29,1.67-3.31,1.54c-0.05-0.15,1.49-0.67,2.97-1.93
				C391.52,160.95,392.29,159.53,392.43,159.6z"/>
		</g>
		<g>
			<path class="st1" d="M418.44,174.65c0,0.02-0.19,0.05-0.56,0.1c-0.43,0.05-0.96,0.12-1.61,0.2c-1.4,0.15-3.43,0.35-5.93,0.54
				c-5.02,0.4-11.96,0.79-19.63,1.07c-7.67,0.27-14.62,0.37-19.66,0.33c-2.52-0.02-4.55-0.07-5.96-0.12
				c-0.66-0.03-1.19-0.06-1.62-0.08c-0.37-0.02-0.56-0.05-0.56-0.06c0-0.02,0.2-0.03,0.57-0.04c0.43,0,0.96-0.01,1.62-0.01
				c1.48-0.01,3.49-0.03,5.95-0.05c5.03-0.05,11.97-0.21,19.64-0.48c7.66-0.28,14.6-0.61,19.62-0.92c2.45-0.16,4.47-0.28,5.94-0.38
				c0.65-0.04,1.19-0.07,1.62-0.1C418.24,174.63,418.43,174.63,418.44,174.65z"/>
		</g>
		<g>
			<path class="st1" d="M410.54,186.51c0,0.04-0.58,0.13-1.64,0.26c-1.06,0.13-2.6,0.3-4.51,0.47c-3.81,0.35-9.08,0.71-14.91,0.95
				c-5.83,0.23-11.12,0.3-14.94,0.26c-1.91-0.02-3.46-0.06-4.53-0.1c-1.07-0.05-1.66-0.09-1.66-0.13c0-0.04,0.59-0.06,1.66-0.08
				c1.16-0.02,2.68-0.04,4.53-0.06c3.82-0.05,9.1-0.17,14.92-0.41c5.82-0.24,11.09-0.54,14.91-0.8c1.84-0.12,3.36-0.23,4.52-0.3
				C409.94,186.49,410.54,186.47,410.54,186.51z"/>
		</g>
		<g>
			<path class="st1" d="M392.61,201.13c0.01,0.07-1.26,0.26-3.31,0.47c-2.06,0.21-4.9,0.44-8.05,0.6c-3.15,0.16-6,0.21-8.07,0.21
				c-2.07-0.01-3.34-0.07-3.34-0.14c0-0.07,1.28-0.14,3.34-0.23c2.21-0.1,4.98-0.22,8.05-0.36c3.07-0.17,5.84-0.32,8.05-0.44
				C391.33,201.12,392.61,201.06,392.61,201.13z"/>
		</g>
		<g>
			<path class="st1" d="M369.7,166.43c0,0.15-3.07,0.18-6.85,0.34c-3.78,0.15-6.84,0.37-6.85,0.22c-0.02-0.14,3.03-0.59,6.83-0.74
				C366.63,166.09,369.7,166.29,369.7,166.43z"/>
		</g>
		<g>
			<path class="st1" d="M411.89,165.89c0,0.14-3.98,0.25-8.89,0.23c-4.91-0.02-8.89-0.15-8.88-0.29c0-0.14,3.98-0.25,8.89-0.23
				C407.91,165.61,411.89,165.74,411.89,165.89z"/>
		</g>
		<g>
			<path class="st1" d="M413.42,226.74c0.02,0.03-0.31,0.22-0.91,0.52c-0.6,0.31-1.49,0.72-2.6,1.18c-2.23,0.94-5.39,2.04-8.98,2.87
				c-3.6,0.83-6.92,1.22-9.34,1.35c-1.21,0.07-2.18,0.09-2.86,0.07c-0.67-0.01-1.05-0.04-1.05-0.07c0-0.08,1.49-0.14,3.88-0.37
				c2.39-0.23,5.68-0.67,9.25-1.49c3.57-0.83,6.72-1.86,8.96-2.71C412.02,227.26,413.39,226.66,413.42,226.74z"/>
		</g>
	</g>
</g>
<g id="Character_1">
	<g>
		<ellipse class="st1" cx="143.29" cy="321.55" rx="43.29" ry="41.3"/>
		<g>
			<path class="st5" d="M134.47,221.98c-6.87,0.36-9.56,7.52-10.39,9.12c-0.82,1.6-0.95,3.45-1.1,5.24
				c-0.15,1.79-0.36,3.65-1.32,5.17c-1.51,2.41-4.69,3.66-5.55,6.37c-0.98,3.07,1.53,6.35,0.86,9.5c-0.36,1.69-1.59,3.08-2.03,4.75
				c-0.46,1.75,0.02,3.63,0.93,5.19c2.26,3.87,6.93,5.82,11.41,5.98c4.48,0.16,8.86-1.18,13.15-2.51"/>
			<path class="st5" d="M164.69,230.88c-0.67,1.45-0.04,3.22,1.02,4.42c1.05,1.21,2.47,2.02,3.72,3.03c1.25,1,2.39,2.33,2.54,3.92
				c0.13,1.46-0.6,2.92-0.4,4.37c0.51,3.74,6.48,4.87,6.8,8.63c0.21,2.51-2.36,4.81-1.65,7.22c0.27,0.92,0.99,1.64,1.49,2.47
				c1.69,2.81,0.55,6.69-1.91,8.87c-2.45,2.18-5.87,2.95-9.15,3.1c-2.76,0.12-5.89-0.33-7.52-2.56c-1.49-2.04-1.18-4.83-0.88-7.34
				c1.39-11.72,1.15-23.56,0.91-35.36"/>
			<g>
				<g>
					<g>
						<g>
							<g>
								<path class="st10" d="M136.28,285.11c0.05-6.16-0.01-12.64-0.01-12.64s-7.92-1.41-9.44-11.78
									c-1.45-9.89,1.01-31.15,1.01-31.15l0,0c11.47-4.52,24.38-2.77,32.41,6.46l0,0l-1.25,50c-0.14,5.8-5.25,10.3-11.46,10.1h0
									C141.27,295.89,136.23,290.98,136.28,285.11z"/>
							</g>
							<g>
								<g>
									<path class="st5" d="M130,245.87c-0.03,0.7,0.53,1.31,1.26,1.35c0.73,0.05,1.35-0.48,1.38-1.18
										c0.03-0.7-0.53-1.31-1.26-1.35C130.65,244.65,130.03,245.17,130,245.87z"/>
								</g>
								<g>
									<g>
										<path class="st5" d="M127.87,244.85c0.16,0.18,1.18-0.56,2.6-0.54c2.69,0.39,2.64,0.8,2.62,0.57
											c0.08-0.08-0.09-0.39-0.54-0.73c-0.45-0.34-1.21-0.67-2.1-0.67c-0.89-0.01-1.64,0.31-2.08,0.64
											C127.94,244.46,127.79,244.77,127.87,244.85z"/>
									</g>
								</g>
							</g>
							<g>
								<g>
									<path class="st5" d="M144.62,246.3c-0.03,0.7,0.53,1.31,1.26,1.35c0.73,0.05,1.35-0.48,1.38-1.18
										c0.03-0.7-0.53-1.31-1.26-1.35C145.27,245.07,144.65,245.6,144.62,246.3z"/>
								</g>
								<g>
									<g>
										<path class="st5" d="M142.76,245.34c0.16,0.18,1.18-0.56,2.6-0.54c1.43,0,2.47,0.75,2.62,0.57
											c0.08-0.08-0.09-0.39-0.54-0.73c-0.45-0.34-1.21-0.67-2.1-0.67c-0.89-0.01-1.64,0.31-2.08,0.64
											C142.83,244.95,142.68,245.26,142.76,245.34z"/>
									</g>
								</g>
							</g>
							<g>
								<g>
									<path class="st5" d="M137.45,255.59c0.01-0.08-0.88-0.24-2.31-0.45c-0.36-0.04-0.71-0.12-0.77-0.37
										c-0.08-0.26,0.07-0.66,0.26-1.08c0.35-0.88,0.72-1.8,1.11-2.76c1.54-3.94,2.66-7.17,2.51-7.24
										c-0.16-0.06-1.54,3.08-3.08,7.02c-0.37,0.97-0.73,1.9-1.07,2.78c-0.14,0.41-0.39,0.88-0.21,1.43
										c0.1,0.27,0.36,0.47,0.59,0.54c0.23,0.07,0.44,0.08,0.62,0.09C136.55,255.65,137.45,255.67,137.45,255.59z"/>
								</g>
							</g>
							<g>
								<path class="st9" d="M136.27,272.47c0,0,6.96,0.53,13.9-3.54c0,0-3.44,7.07-13.79,5.98L136.27,272.47z"/>
							</g>
							<g>
								<path class="st9" d="M138.02,259.03c0.52-0.67,1.43-1.04,2.32-0.93c0.62,0.07,1.24,0.38,1.61,0.89
									c0.37,0.51,0.44,1.23,0.09,1.7c-0.39,0.54-1.2,0.65-1.88,0.45c-0.68-0.2-1.26-0.66-1.81-1.11c-0.15-0.13-0.31-0.26-0.4-0.43
									c-0.09-0.17-0.11-0.39,0.01-0.53"/>
							</g>
							<g>
								<g>
									<path class="st5" d="M141.65,256.62c-0.23-0.02-0.25,1.53-1.59,2.62c-1.34,1.09-2.99,0.9-3,1.11
										c-0.02,0.1,0.36,0.31,1.06,0.33c0.68,0.03,1.69-0.18,2.5-0.84c0.82-0.67,1.18-1.56,1.24-2.2
										C141.92,257,141.75,256.61,141.65,256.62z"/>
								</g>
							</g>
						</g>
						<g>
							<path class="st5" d="M155.76,228.62c-3.79,5.4-13.81,10.95-20.99,12.24c0.84-1.1,5.25-3.82,6.09-4.92
								c-3.25,2.43-7.91,5.68-12.23,5.9c-0.51,0.03-1.06,0.03-1.48-0.23c-0.57-0.35-0.69-1.03-0.75-1.63
								c-0.28-2.53-0.1-6.87,0.3-9.38c0.4-2.51,1.56-5.01,3.73-6.69c2.77-2.14,6.72-2.66,10.45-2.75c3.13-0.08,6.35,0.11,9.21,1.24
								c2.86,1.13,5.3,3.36,5.72,6.04"/>
						</g>
						<g>
							<path class="st5" d="M166.62,252.81c0.52-2.68,0.94-5.22,1.03-6.92c0.31-5.34-1.24-25.05-19.65-23.46l-0.74,5.61
								c0,0-2.85,19.19,9.06,19.34c0,0,0.66,5.72,6.05,11.28C162.38,258.65,165.5,258.56,166.62,252.81"/>
						</g>
						<g>
							<path class="st10" d="M156.33,247.37c1.11-0.2,2.28-0.16,3.33,0.25c1.05,0.41,1.97,1.2,2.41,2.24
								c0.44,1.04,0.39,2.25-0.01,3.31c-0.4,1.06-1.1,1.98-1.92,2.76c-0.58,0.56-1.25,1.08-2.02,1.31c-0.78,0.23-1.69,0.15-2.3-0.38
								"/>
						</g>
						<g>
							<g>
								<path class="st9" d="M156.86,254.09c-0.13,0.04,0.35,0.71,1.36,0.45c0.49-0.12,0.97-0.55,1.26-1.08
									c0.3-0.54,0.49-1.13,0.57-1.83c0.08-0.69-0.07-1.43-0.45-1.95c-0.36-0.54-0.95-0.86-1.44-0.88
									c-1.04-0.04-1.37,0.68-1.25,0.7c0.08,0.09,0.49-0.28,1.17-0.11c0.65,0.13,1.28,1.03,1.13,2.15
									c-0.14,1.14-0.59,2.17-1.2,2.43C157.38,254.29,156.93,254,156.86,254.09z"/>
							</g>
						</g>
					</g>
				</g>
			</g>
			<path class="st5" d="M158.34,226.6c1.41,0.8,3.14,1.03,4.7,0.62c1.57-0.41,2.96-1.46,3.79-2.85c0.54-0.9,0.84-1.99,0.58-3
				c-0.36-1.39-1.71-2.32-3.09-2.68c-2.01-0.52-4.29-0.02-5.81,1.39c-1.52,1.42-2.17,3.73-1.5,5.7c0.67,1.96,2.7,3.41,4.78,3.3"/>
			<path class="st5" d="M160.01,256.44c-1.02,0.74-2.06,1.49-2.86,2.47c-0.8,0.98-1.35,2.22-1.24,3.48c0.07,0.7,0.33,1.4,0.23,2.1
				c-0.14,0.96-0.93,1.67-1.45,2.5c-1.35,2.12-0.77,5.1,0.94,6.95c1.7,1.85,4.29,2.68,6.8,2.77c1.46,0.05,2.99-0.16,4.18-0.99
				c1.72-1.21,2.38-3.46,2.43-5.57"/>
			<g>
				<path class="st6" d="M161.26,230.73c0.05,0.03-0.31,0.78-1.09,1.89c-0.77,1.1-1.98,2.54-3.55,3.88
					c-1.57,1.34-3.16,2.33-4.37,2.92c-1.21,0.6-2.01,0.85-2.03,0.79c-0.08-0.15,3-1.45,6.06-4.11
					C159.38,233.47,161.13,230.63,161.26,230.73z"/>
			</g>
			<g>
				<path class="st6" d="M163.17,230.62c0.06,0.01,0.02,0.99-0.34,2.52c-0.36,1.54-1.1,3.62-2.34,5.69
					c-1.25,2.07-2.74,3.7-3.93,4.73c-1.19,1.04-2.04,1.53-2.07,1.48c-0.12-0.13,3.13-2.39,5.56-6.48
					C162.53,234.51,163,230.58,163.17,230.62z"/>
			</g>
			<g>
				<path class="st6" d="M123.2,238.96c0.15-0.01,0.35,1.72,0.95,3.77c0.58,2.05,1.34,3.62,1.21,3.69c-0.11,0.07-1.1-1.43-1.71-3.55
					C123.03,240.76,123.07,238.96,123.2,238.96z"/>
			</g>
			<g>
				<path class="st6" d="M167.31,274.34c0.03-0.06,0.46,0.47,1.52,0.49c0.51,0,1.16-0.14,1.76-0.56c0.6-0.4,1.09-1.13,1.33-2.02
					c0.24-0.89,0.25-1.94,0.02-3.01c-0.22-1.09-0.64-2.21-1.01-3.43c-0.36-1.22-0.68-2.59-0.44-4.03c0.23-1.47,1.18-2.65,1.64-3.97
					c0.47-1.31,0.28-2.77-0.3-3.95c-0.59-1.19-1.59-2.06-2.74-2.51c-0.57-0.24-1.17-0.45-1.72-0.75c-0.55-0.29-1.06-0.7-1.37-1.23
					c-0.64-1.05-0.62-2.2-0.62-3.15c0.02-0.97,0.07-1.82-0.1-2.54c-0.16-0.73-0.43-1.32-0.75-1.72c-0.67-0.82-1.38-0.77-1.35-0.83
					c0-0.01,0.15-0.03,0.44,0.03c0.28,0.06,0.69,0.25,1.07,0.67c0.37,0.41,0.69,1.03,0.88,1.79c0.21,0.76,0.18,1.67,0.19,2.61
					c0.02,0.94,0.04,2.02,0.61,2.91c0.56,0.92,1.72,1.3,2.91,1.77c1.22,0.45,2.38,1.43,3.01,2.72c0.64,1.28,0.86,2.88,0.33,4.35
					c-0.52,1.43-1.43,2.58-1.63,3.88c-0.22,1.3,0.06,2.61,0.4,3.81c0.35,1.2,0.76,2.35,0.97,3.48c0.22,1.13,0.2,2.24-0.09,3.2
					c-0.29,0.95-0.84,1.73-1.53,2.16c-0.68,0.43-1.38,0.55-1.93,0.52c-0.56-0.03-0.96-0.23-1.2-0.39
					C167.38,274.47,167.31,274.34,167.31,274.34z"/>
			</g>
			<g>
				<path class="st6" d="M160.09,273.63c0.05-0.03,0.13,0.32,0.62,0.54c0.44,0.21,1.41,0.22,1.94-0.53
					c0.54-0.76,0.46-2.03-0.16-3.13c-0.57-1.13-1.7-2.24-1.99-3.89c-0.15-0.8,0.04-1.71,0.56-2.31c0.49-0.6,1.06-1.01,1.44-1.5
					c0.75-1,0.82-2.25,0.7-3.19c-0.13-0.97-0.41-1.74-0.57-2.27c-0.18-0.53-0.27-0.83-0.23-0.85c0.03-0.01,0.18,0.26,0.42,0.77
					c0.23,0.51,0.56,1.27,0.75,2.29c0.17,0.99,0.17,2.36-0.68,3.54c-0.43,0.57-1.01,1-1.42,1.52c-0.43,0.51-0.57,1.2-0.44,1.91
					c0.24,1.44,1.3,2.53,1.9,3.75c0.65,1.2,0.73,2.67,0.03,3.57c-0.34,0.46-0.85,0.65-1.27,0.69c-0.43,0.04-0.8-0.05-1.06-0.2
					C160.07,274.03,160.07,273.62,160.09,273.63z"/>
			</g>
			<g>
				<path class="st6" d="M120.89,271.02c-0.03,0.02-0.32-0.26-0.81-0.81c-0.48-0.56-1.21-1.38-1.74-2.63
					c-0.27-0.62-0.44-1.37-0.42-2.18c0.02-0.8,0.26-1.71,0.88-2.42c0.62-0.72,1.52-1.09,2.06-1.76c0.56-0.67,0.63-1.64,0.41-2.57
					c-0.22-0.95-0.65-1.8-1.1-2.64c-0.43-0.85-0.83-1.71-0.97-2.62c-0.16-0.9,0.04-1.85,0.52-2.52c0.46-0.68,1.04-1.15,1.52-1.59
					c1.01-0.83,1.58-1.73,1.71-2.44c0.14-0.7-0.1-1.09-0.04-1.1c0.01-0.01,0.08,0.08,0.15,0.26c0.07,0.18,0.14,0.49,0.09,0.87
					c-0.07,0.77-0.66,1.8-1.66,2.68c-0.47,0.46-1.02,0.93-1.41,1.55c-0.4,0.61-0.55,1.4-0.4,2.21c0.14,0.82,0.52,1.64,0.95,2.47
					c0.44,0.82,0.92,1.74,1.15,2.76c0.24,1,0.17,2.19-0.53,3.01c-0.68,0.8-1.57,1.15-2.1,1.76c-0.54,0.6-0.78,1.39-0.81,2.12
					c-0.04,0.74,0.1,1.43,0.33,2.03c0.46,1.2,1.13,2.05,1.56,2.64C120.67,270.67,120.92,271,120.89,271.02z"/>
			</g>
			<g>
				<path class="st4" d="M162.59,227.9c-0.14,0.07-0.84-1.46-2.44-2.65c-1.58-1.22-3.24-1.47-3.21-1.63
					c-0.02-0.13,1.81-0.1,3.53,1.21C162.2,226.13,162.72,227.89,162.59,227.9z"/>
			</g>
			<g>
				<path class="st6" d="M164.03,218.33c0.05-0.03,0.39,0.36,0.66,1.13c0.27,0.77,0.43,1.94,0.09,3.17
					c-0.34,1.23-1.08,2.16-1.7,2.68c-0.63,0.53-1.12,0.69-1.15,0.64c-0.04-0.07,0.37-0.34,0.89-0.9c0.53-0.55,1.15-1.44,1.46-2.55
					c0.31-1.11,0.23-2.19,0.06-2.93C164.17,218.81,163.96,218.37,164.03,218.33z"/>
			</g>
		</g>
		<path class="st12" d="M113.25,341.34c0,0,24.84,23.59,39.61,19.32c14.77-4.27,19.14-15.35,19.14-15.35l0.36-3.97l-1.48-0.97
			l-56.86-4.6L113.25,341.34z"/>
		<g>
			<g>
				<path class="st9" d="M98.56,319.24l4.79-12.29l17.17,10.79l-15.3,23.6C105.22,341.34,98.99,333.26,98.56,319.24z"/>
				<g>
					<g>
						<path class="st4" d="M117.93,285.3c7.99-4.17,18.34-5.38,18.34-5.38l0,0c3,6.01,12.47,6.77,18.2,2.67l4.83-3.27
							c0,0,0.75-0.03,2.02,0.08c11.3,1,20.56,9.44,22.86,20.56c0.84,4.05,1.46,8.69,1.21,12.99c-0.63,10.92-11.94,11.91-11.94,11.91
							s-0.58,10.8-1.35,19.52l0,0c-0.57,6.52-3.95,11.38-9.89,14.11c-4.43,2.03-6.87,2.97-12.61,3.89
							c-14.49,2.32-28.41-3.18-37.58-13.01c1.72-10.41,3.36-23.88,3.24-24.48c-0.02-0.13,0.02-0.2,0.02-0.2l-11.21-9.95l-6.36-5.34
							C97.71,309.4,111.66,288.7,117.93,285.3"/>
					</g>
				</g>
			</g>
			<g>
				<path class="st7" d="M131.83,292.03c-0.04,0.1-0.96-0.77-2.77-0.77c-0.88,0-1.97,0.26-2.86,0.99c-0.44,0.36-0.82,0.86-1.27,1.37
					c-0.44,0.49-1.01,1.06-1.81,1.2c-0.81,0.15-1.55-0.2-2.11-0.57c-0.58-0.37-1.07-0.77-1.57-1.06c-0.99-0.61-2.11-0.55-2.93-0.26
					c-0.84,0.29-1.39,0.79-1.7,1.18c-0.31,0.39-0.43,0.65-0.47,0.64c-0.02-0.01,0.03-0.3,0.31-0.76c0.28-0.44,0.84-1.03,1.74-1.4
					c0.87-0.37,2.16-0.48,3.3,0.18c0.56,0.31,1.06,0.71,1.61,1.05c0.54,0.34,1.14,0.6,1.75,0.49c0.61-0.11,1.1-0.56,1.53-1.03
					c0.44-0.48,0.84-1,1.35-1.4c1.02-0.8,2.22-1.03,3.17-0.99c0.96,0.04,1.69,0.34,2.14,0.61
					C131.66,291.78,131.85,292.01,131.83,292.03z"/>
			</g>
			<g>
				<path class="st7" d="M143.22,306.96c-0.07,0.08-0.66-1.03-2.38-1.61c-0.83-0.28-1.94-0.38-3.03,0.03
					c-0.54,0.2-1.06,0.55-1.64,0.89c-0.57,0.33-1.29,0.68-2.1,0.56c-0.81-0.11-1.41-0.69-1.82-1.21c-0.43-0.53-0.77-1.07-1.15-1.51
					c-0.74-0.89-1.83-1.2-2.7-1.18c-0.89,0.01-1.57,0.31-1.99,0.57c-0.42,0.27-0.62,0.48-0.65,0.45c-0.02-0.01,0.12-0.28,0.53-0.62
					c0.41-0.33,1.13-0.71,2.09-0.77c0.94-0.07,2.2,0.23,3.07,1.23c0.43,0.47,0.78,1.01,1.19,1.51c0.4,0.49,0.89,0.94,1.5,1.02
					c0.61,0.09,1.22-0.18,1.78-0.49c0.57-0.31,1.11-0.68,1.73-0.89c1.23-0.43,2.43-0.27,3.31,0.08c0.89,0.35,1.5,0.86,1.83,1.26
					C143.14,306.67,143.24,306.94,143.22,306.96z"/>
			</g>
			<g>
				<path class="st7" d="M168.53,285.1c-0.02,0.11-1.1-0.55-2.87-0.16c-0.86,0.19-1.87,0.67-2.58,1.57
					c-0.36,0.44-0.62,1.02-0.95,1.61c-0.32,0.57-0.76,1.25-1.52,1.56c-0.76,0.32-1.56,0.13-2.18-0.11c-0.64-0.24-1.21-0.53-1.76-0.7
					c-1.09-0.38-2.18-0.09-2.92,0.37c-0.75,0.46-1.19,1.07-1.42,1.51c-0.22,0.45-0.28,0.73-0.33,0.72c-0.02,0-0.04-0.3,0.14-0.8
					c0.18-0.49,0.6-1.19,1.4-1.74c0.77-0.54,2.01-0.93,3.26-0.52c0.61,0.18,1.19,0.47,1.79,0.68c0.6,0.22,1.24,0.35,1.81,0.1
					c0.57-0.23,0.96-0.78,1.28-1.33c0.33-0.56,0.61-1.15,1.02-1.65c0.83-1,1.95-1.48,2.88-1.63c0.94-0.16,1.73-0.03,2.22,0.14
					C168.31,284.89,168.54,285.08,168.53,285.1z"/>
			</g>
			<g>
				<path class="st7" d="M156.85,301.5c-0.07,0.07-0.5-0.8-1.8-1.29c-0.63-0.24-1.47-0.35-2.3-0.07c-0.41,0.13-0.82,0.39-1.29,0.63
					c-0.46,0.23-1.03,0.49-1.68,0.37c-0.65-0.12-1.09-0.6-1.4-1.02c-0.31-0.43-0.55-0.86-0.83-1.2c-0.53-0.7-1.33-0.97-2-1
					c-1.38-0.04-2.02,0.74-2.07,0.65c-0.02-0.02,0.09-0.22,0.42-0.48c0.33-0.25,0.9-0.53,1.65-0.54c0.74-0.03,1.72,0.25,2.36,1.06
					c0.32,0.38,0.57,0.81,0.87,1.2c0.29,0.39,0.64,0.73,1.09,0.81c0.92,0.16,1.76-0.67,2.72-0.94c0.98-0.29,1.91-0.11,2.58,0.19
					C156.59,300.52,156.91,301.52,156.85,301.5z"/>
			</g>
			<g>
				<path class="st7" d="M131.1,315.32c-0.07,0.07-0.5-0.8-1.8-1.29c-0.63-0.24-1.47-0.35-2.3-0.07c-0.41,0.13-0.82,0.39-1.29,0.63
					c-0.46,0.23-1.03,0.49-1.68,0.37c-0.65-0.12-1.09-0.6-1.4-1.02c-0.31-0.43-0.55-0.86-0.83-1.2c-0.53-0.7-1.33-0.97-2-1
					c-1.38-0.04-2.03,0.74-2.07,0.65c-0.02-0.02,0.09-0.22,0.42-0.48c0.33-0.25,0.9-0.53,1.65-0.54c0.74-0.03,1.72,0.25,2.36,1.06
					c0.32,0.38,0.57,0.81,0.87,1.2c0.29,0.39,0.64,0.73,1.09,0.81c0.92,0.16,1.76-0.67,2.72-0.94c0.98-0.29,1.91-0.11,2.58,0.19
					C130.83,314.34,131.15,315.34,131.1,315.32z"/>
			</g>
			<g>
				<path class="st7" d="M155.17,315.64c-0.05,0.09-0.73-0.59-2.12-0.64c-0.67-0.02-1.5,0.15-2.2,0.68
					c-0.35,0.26-0.65,0.63-1.02,1.01c-0.36,0.37-0.82,0.8-1.47,0.89c-0.65,0.09-1.23-0.21-1.65-0.51c-0.44-0.31-0.8-0.63-1.18-0.87
					c-0.73-0.49-1.58-0.49-2.21-0.3c-1.32,0.41-1.68,1.36-1.75,1.29c-0.03-0.01,0.02-0.24,0.24-0.59c0.23-0.34,0.68-0.79,1.39-1.05
					c0.69-0.27,1.71-0.32,2.58,0.24c0.43,0.26,0.81,0.58,1.21,0.86c0.4,0.28,0.84,0.49,1.29,0.42c0.92-0.15,1.45-1.2,2.27-1.77
					c0.83-0.59,1.77-0.73,2.51-0.66C154.6,314.79,155.23,315.63,155.17,315.64z"/>
			</g>
			<g>
				<path class="st7" d="M147.22,326.62c-0.05,0.09-0.73-0.59-2.12-0.64c-0.67-0.02-1.5,0.15-2.2,0.68
					c-0.35,0.26-0.65,0.63-1.02,1.01c-0.36,0.37-0.82,0.8-1.47,0.89c-0.65,0.09-1.23-0.21-1.65-0.51c-0.44-0.31-0.8-0.63-1.18-0.87
					c-0.73-0.49-1.58-0.49-2.21-0.3c-1.32,0.41-1.68,1.36-1.75,1.29c-0.03-0.01,0.01-0.24,0.24-0.59c0.23-0.34,0.68-0.79,1.39-1.05
					c0.69-0.27,1.71-0.32,2.58,0.24c0.43,0.26,0.81,0.58,1.21,0.86c0.4,0.28,0.84,0.49,1.29,0.42c0.92-0.14,1.45-1.2,2.27-1.77
					c0.83-0.59,1.77-0.73,2.51-0.66C146.65,325.77,147.27,326.61,147.22,326.62z"/>
			</g>
			<g>
				<path class="st7" d="M130.43,353.88c-0.07,0.07-0.51-0.79-1.81-1.26c-0.63-0.23-1.47-0.33-2.3-0.04
					c-0.41,0.14-0.82,0.4-1.28,0.65c-0.45,0.24-1.03,0.5-1.67,0.39c-0.65-0.11-1.1-0.59-1.41-1c-0.32-0.43-0.57-0.85-0.85-1.19
					c-0.54-0.69-1.35-0.95-2.01-0.97c-1.39-0.02-2.01,0.77-2.06,0.68c-0.02-0.02,0.09-0.22,0.41-0.48c0.32-0.25,0.89-0.54,1.65-0.57
					c0.73-0.04,1.72,0.23,2.38,1.03c0.33,0.38,0.59,0.8,0.89,1.19c0.3,0.39,0.65,0.72,1.1,0.8c0.92,0.15,1.75-0.69,2.71-0.98
					c0.97-0.31,1.91-0.14,2.59,0.15C130.14,352.9,130.48,353.89,130.43,353.88z"/>
			</g>
			<g>
				<path class="st7" d="M150.08,359.68c-0.05,0.09-0.72-0.6-2.11-0.67c-0.67-0.03-1.51,0.12-2.21,0.65c-0.35,0.25-0.66,0.62-1.03,1
					c-0.36,0.36-0.83,0.78-1.48,0.87c-0.65,0.09-1.23-0.23-1.64-0.54c-0.43-0.31-0.79-0.64-1.16-0.89c-0.72-0.5-1.57-0.51-2.21-0.33
					c-1.33,0.39-1.69,1.34-1.77,1.26c-0.03-0.01,0.02-0.24,0.25-0.58c0.23-0.34,0.69-0.78,1.4-1.03c0.69-0.26,1.71-0.29,2.58,0.27
					c0.42,0.26,0.8,0.59,1.2,0.87c0.4,0.28,0.84,0.5,1.29,0.44c0.92-0.13,1.47-1.18,2.3-1.74c0.84-0.58,1.78-0.7,2.51-0.62
					C149.52,358.82,150.13,359.67,150.08,359.68z"/>
			</g>
			<g>
				<g>
					<g>
						<path class="st5" d="M85.32,276.98c0.61,0.72,22.59,30.11,22.59,30.11l-3.1,1.75l-22.56-29.02L85.32,276.98z"/>
						<path class="st10" d="M171.13,297.95c0,0-20.62,35.56-22.02,36.22c-2.75,1.29-34.39-26.06-37.41-28.67
							c-0.42-0.56-1.27-1.73-2.96-4.06c0,0-2.5-11.42-5.16-10.55c-2.66,0.88,1.46,5.81-0.28,10.15c-1.74,4.34-9.68-6.01-10-6.94
							l-2.05-2.68c0,0-2.15,6.09-2,8.64c0.47,8.15,8.18,17.84,8.18,17.84s31.33,39.26,55.06,40.6c6.83,0.38,19.88-19.29,28-33.82
							c4.9-8.78,2.63-17.7-5.5-23.62L171.13,297.95z"/>
						<g>
							<path class="st9" d="M93.16,301.5c-0.07,0.04-0.94-1.2-1.76-2.88c-0.83-1.67-1.3-3.12-1.22-3.15
								c0.08-0.03,0.68,1.35,1.5,3.01C92.49,300.15,93.23,301.46,93.16,301.5z"/>
						</g>
					</g>
				</g>
				<path class="st4" d="M170.16,288.06c-0.81,0.49-19.99,36.09-19.99,36.09l24.68,19.34c0,0,6.42-15.82,9.81-28.68
					c0.92-3.49,0.45-12.82-0.85-16.42c-1.84-5.11-4.62-3.84-8.79-6.83L170.16,288.06z"/>
				<g class="st13">
					<path d="M178.27,288.06c-0.01,0.02-0.24-0.14-0.7-0.37c-0.45-0.23-1.2-0.52-2.17-0.46c-0.97,0.03-2.12,0.51-3.22,1.34
						c-1.11,0.84-2.19,2.03-3.21,3.46c-1.04,1.42-1.9,3.16-2.96,4.96c-1.03,1.82-2.14,3.75-3.3,5.79c-2.33,4.08-4.9,8.55-7.59,13.25
						c-1.64,2.85-3.23,5.62-4.73,8.23l-0.06-0.32c6.69,5.28,12.51,9.88,16.7,13.2c2.03,1.63,3.67,2.95,4.85,3.89
						c0.53,0.44,0.96,0.79,1.28,1.06c0.29,0.24,0.44,0.38,0.43,0.39c-0.01,0.01-0.17-0.1-0.48-0.32c-0.34-0.25-0.78-0.58-1.34-0.99
						c-1.2-0.91-2.87-2.19-4.94-3.77c-4.22-3.28-10.08-7.83-16.81-13.05l-0.17-0.13l0.11-0.19c1.49-2.61,3.08-5.38,4.72-8.23
						c2.7-4.69,5.27-9.16,7.62-13.23c1.17-2.03,2.29-3.96,3.34-5.77c1.06-1.79,1.96-3.54,3.04-4.97c1.06-1.44,2.18-2.64,3.34-3.48
						c1.15-0.84,2.36-1.31,3.39-1.31c1.02-0.03,1.78,0.3,2.23,0.57c0.24,0.12,0.39,0.26,0.5,0.33
						C178.23,288.01,178.28,288.05,178.27,288.06z"/>
				</g>
			</g>
			<g>
				<path class="st7" d="M170.9,321.44c-0.07,0.07-0.5-0.8-1.8-1.29c-0.63-0.24-1.47-0.35-2.3-0.07c-0.41,0.13-0.82,0.39-1.29,0.63
					c-0.46,0.23-1.03,0.49-1.68,0.37c-0.65-0.12-1.09-0.6-1.4-1.02c-0.31-0.43-0.55-0.86-0.83-1.2c-0.53-0.7-1.33-0.97-2-1
					c-1.38-0.04-2.03,0.74-2.07,0.65c-0.02-0.02,0.09-0.22,0.42-0.48c0.33-0.25,0.9-0.53,1.65-0.54c0.74-0.03,1.72,0.25,2.36,1.06
					c0.32,0.38,0.57,0.81,0.87,1.2c0.29,0.39,0.64,0.73,1.09,0.81c0.92,0.16,1.76-0.67,2.72-0.94c0.98-0.29,1.91-0.11,2.58,0.19
					C170.64,320.45,170.96,321.45,170.9,321.44z"/>
			</g>
			<g>
				<path class="st7" d="M182.18,316.84c-0.09,0.05-0.27-0.9-1.38-1.72c-0.54-0.4-1.32-0.73-2.2-0.69c-0.43,0.02-0.9,0.15-1.41,0.26
					c-0.5,0.1-1.13,0.19-1.72-0.1c-0.59-0.29-0.89-0.87-1.07-1.36c-0.19-0.5-0.3-0.98-0.48-1.38c-0.32-0.82-1.02-1.3-1.65-1.5
					c-1.32-0.41-2.15,0.17-2.17,0.07c-0.02-0.02,0.15-0.19,0.53-0.35c0.38-0.15,1-0.26,1.74-0.08c0.72,0.17,1.59,0.71,1.99,1.66
					c0.21,0.45,0.33,0.94,0.51,1.39c0.17,0.46,0.42,0.88,0.83,1.08c0.84,0.4,1.88-0.17,2.88-0.17c1.02-0.02,1.87,0.41,2.44,0.88
					C182.19,315.81,182.23,316.86,182.18,316.84z"/>
			</g>
			<g>
				<path class="st7" d="M182.76,302.12c-0.09,0.05-0.27-0.9-1.38-1.72c-0.54-0.4-1.32-0.73-2.2-0.69c-0.43,0.02-0.9,0.15-1.41,0.26
					c-0.5,0.1-1.13,0.19-1.72-0.1c-0.59-0.29-0.89-0.87-1.07-1.36c-0.19-0.5-0.3-0.98-0.48-1.38c-0.32-0.82-1.02-1.3-1.65-1.5
					c-1.32-0.41-2.15,0.17-2.17,0.07c-0.02-0.02,0.15-0.19,0.53-0.35c0.38-0.15,1-0.26,1.74-0.08c0.72,0.17,1.59,0.71,1.99,1.66
					c0.21,0.45,0.33,0.94,0.51,1.39c0.17,0.46,0.42,0.88,0.83,1.08c0.84,0.4,1.88-0.17,2.88-0.17c1.02-0.02,1.87,0.41,2.44,0.88
					C182.77,301.1,182.81,302.15,182.76,302.12z"/>
			</g>
			<g>
				<path class="st7" d="M177.3,335.95c-0.09,0.05-0.27-0.9-1.38-1.72c-0.54-0.4-1.32-0.73-2.2-0.69c-0.43,0.02-0.9,0.15-1.41,0.26
					c-0.5,0.1-1.13,0.19-1.72-0.1c-0.59-0.29-0.89-0.87-1.07-1.36c-0.19-0.5-0.3-0.98-0.48-1.38c-0.32-0.82-1.02-1.3-1.65-1.5
					c-1.32-0.41-2.15,0.17-2.17,0.07c-0.02-0.02,0.15-0.19,0.53-0.35c0.38-0.15,1-0.26,1.74-0.08c0.72,0.17,1.59,0.71,1.99,1.66
					c0.21,0.45,0.33,0.94,0.51,1.39c0.17,0.46,0.42,0.88,0.83,1.08c0.84,0.4,1.88-0.17,2.88-0.17c1.02-0.02,1.87,0.41,2.44,0.88
					C177.31,334.93,177.35,335.98,177.3,335.95z"/>
			</g>
		</g>
	</g>
</g>
</svg>
